%TF.GenerationSoftware,Flux,Pcbnew,7.0.11-7.0.11~ubuntu20.04.1*%
%TF.CreationDate,2024-08-18T14:12:48+00:00*%
%TF.ProjectId,input,696e7075-742e-46b6-9963-61645f706362,rev?*%
%TF.SameCoordinates,Original*%
%TF.FileFunction,Legend,Top*%
%TF.FilePolarity,Positive*%
%FSLAX46Y46*%
G04 Gerber Fmt 4.6, Leading zero omitted, Abs format (unit mm)*
G04 Filename: promicromacro*
G04 Build it with Flux! Visit our site at: https://www.flux.ai (PCBNEW 7.0.11-7.0.11~ubuntu20.04.1) date 2024-08-18 14:12:48*
%MOMM*%
%LPD*%
G01*
G04 APERTURE LIST*
%ADD10C,0.095000*%
%ADD11C,0.057000*%
%ADD12C,0.045667*%
%ADD13C,0.095323*%
%ADD14C,0.095200*%
%ADD15C,0.120000*%
%ADD16C,0.150000*%
%ADD17C,0.100000*%
%ADD18C,0.050000*%
%ADD19C,0.127000*%
%ADD20C,0.200000*%
%ADD21C,0.010000*%
G04 APERTURE END LIST*
D10*
X-10645244Y37063267D02*
X-10607149Y37025171D01*
X-10607149Y37025171D02*
X-10569053Y36910886D01*
X-10569053Y36910886D02*
X-10569053Y36834695D01*
X-10569053Y36834695D02*
X-10607149Y36720409D01*
X-10607149Y36720409D02*
X-10683339Y36644219D01*
X-10683339Y36644219D02*
X-10759529Y36606124D01*
X-10759529Y36606124D02*
X-10911910Y36568028D01*
X-10911910Y36568028D02*
X-11026196Y36568028D01*
X-11026196Y36568028D02*
X-11178577Y36606124D01*
X-11178577Y36606124D02*
X-11254768Y36644219D01*
X-11254768Y36644219D02*
X-11330958Y36720409D01*
X-11330958Y36720409D02*
X-11369053Y36834695D01*
X-11369053Y36834695D02*
X-11369053Y36910886D01*
X-11369053Y36910886D02*
X-11330958Y37025171D01*
X-11330958Y37025171D02*
X-11292863Y37063267D01*
X-11369053Y37748981D02*
X-11369053Y37596600D01*
X-11369053Y37596600D02*
X-11330958Y37520409D01*
X-11330958Y37520409D02*
X-11292863Y37482314D01*
X-11292863Y37482314D02*
X-11178577Y37406124D01*
X-11178577Y37406124D02*
X-11026196Y37368028D01*
X-11026196Y37368028D02*
X-10721434Y37368028D01*
X-10721434Y37368028D02*
X-10645244Y37406124D01*
X-10645244Y37406124D02*
X-10607149Y37444219D01*
X-10607149Y37444219D02*
X-10569053Y37520409D01*
X-10569053Y37520409D02*
X-10569053Y37672790D01*
X-10569053Y37672790D02*
X-10607149Y37748981D01*
X-10607149Y37748981D02*
X-10645244Y37787076D01*
X-10645244Y37787076D02*
X-10721434Y37825171D01*
X-10721434Y37825171D02*
X-10911910Y37825171D01*
X-10911910Y37825171D02*
X-10988101Y37787076D01*
X-10988101Y37787076D02*
X-11026196Y37748981D01*
X-11026196Y37748981D02*
X-11064291Y37672790D01*
X-11064291Y37672790D02*
X-11064291Y37520409D01*
X-11064291Y37520409D02*
X-11026196Y37444219D01*
X-11026196Y37444219D02*
X-10988101Y37406124D01*
X-10988101Y37406124D02*
X-10911910Y37368028D01*
X-2326135Y35826562D02*
X-2288040Y35788466D01*
X-2288040Y35788466D02*
X-2249944Y35674181D01*
X-2249944Y35674181D02*
X-2249944Y35597990D01*
X-2249944Y35597990D02*
X-2288040Y35483704D01*
X-2288040Y35483704D02*
X-2364230Y35407514D01*
X-2364230Y35407514D02*
X-2440420Y35369419D01*
X-2440420Y35369419D02*
X-2592801Y35331323D01*
X-2592801Y35331323D02*
X-2707087Y35331323D01*
X-2707087Y35331323D02*
X-2859468Y35369419D01*
X-2859468Y35369419D02*
X-2935659Y35407514D01*
X-2935659Y35407514D02*
X-3011849Y35483704D01*
X-3011849Y35483704D02*
X-3049944Y35597990D01*
X-3049944Y35597990D02*
X-3049944Y35674181D01*
X-3049944Y35674181D02*
X-3011849Y35788466D01*
X-3011849Y35788466D02*
X-2973754Y35826562D01*
X-2783278Y36512276D02*
X-2249944Y36512276D01*
X-3088040Y36321800D02*
X-2516611Y36131323D01*
X-2516611Y36131323D02*
X-2516611Y36626562D01*
X-8515244Y12652970D02*
X-7715244Y13186304D01*
X-8515244Y13186304D02*
X-7715244Y12652970D01*
X-7715244Y13910113D02*
X-7715244Y13452970D01*
X-7715244Y13681542D02*
X-8515244Y13681542D01*
X-8515244Y13681542D02*
X-8400959Y13605351D01*
X-8400959Y13605351D02*
X-8324768Y13529161D01*
X-8324768Y13529161D02*
X-8286673Y13452970D01*
X-7859335Y8503162D02*
X-7821240Y8465066D01*
X-7821240Y8465066D02*
X-7783144Y8350781D01*
X-7783144Y8350781D02*
X-7783144Y8274590D01*
X-7783144Y8274590D02*
X-7821240Y8160304D01*
X-7821240Y8160304D02*
X-7897430Y8084114D01*
X-7897430Y8084114D02*
X-7973620Y8046019D01*
X-7973620Y8046019D02*
X-8126001Y8007923D01*
X-8126001Y8007923D02*
X-8240287Y8007923D01*
X-8240287Y8007923D02*
X-8392668Y8046019D01*
X-8392668Y8046019D02*
X-8468859Y8084114D01*
X-8468859Y8084114D02*
X-8545049Y8160304D01*
X-8545049Y8160304D02*
X-8583144Y8274590D01*
X-8583144Y8274590D02*
X-8583144Y8350781D01*
X-8583144Y8350781D02*
X-8545049Y8465066D01*
X-8545049Y8465066D02*
X-8506954Y8503162D01*
X-8583144Y8769828D02*
X-8583144Y9303162D01*
X-8583144Y9303162D02*
X-7783144Y8960304D01*
D11*
X-35070163Y23997006D02*
X-34750163Y23997006D01*
X-34750163Y23997006D02*
X-35070163Y23517006D01*
X-35070163Y23517006D02*
X-34750163Y23517006D01*
X-34315877Y23517006D02*
X-34590163Y23517006D01*
X-34453020Y23517006D02*
X-34453020Y23997006D01*
X-34453020Y23997006D02*
X-34498734Y23928435D01*
X-34498734Y23928435D02*
X-34544449Y23882721D01*
X-34544449Y23882721D02*
X-34590163Y23859864D01*
D10*
X-5017435Y8510562D02*
X-4979340Y8472466D01*
X-4979340Y8472466D02*
X-4941244Y8358181D01*
X-4941244Y8358181D02*
X-4941244Y8281990D01*
X-4941244Y8281990D02*
X-4979340Y8167704D01*
X-4979340Y8167704D02*
X-5055530Y8091514D01*
X-5055530Y8091514D02*
X-5131720Y8053419D01*
X-5131720Y8053419D02*
X-5284101Y8015323D01*
X-5284101Y8015323D02*
X-5398387Y8015323D01*
X-5398387Y8015323D02*
X-5550768Y8053419D01*
X-5550768Y8053419D02*
X-5626959Y8091514D01*
X-5626959Y8091514D02*
X-5703149Y8167704D01*
X-5703149Y8167704D02*
X-5741244Y8281990D01*
X-5741244Y8281990D02*
X-5741244Y8358181D01*
X-5741244Y8358181D02*
X-5703149Y8472466D01*
X-5703149Y8472466D02*
X-5665054Y8510562D01*
X-5741244Y9234371D02*
X-5741244Y8853419D01*
X-5741244Y8853419D02*
X-5360292Y8815323D01*
X-5360292Y8815323D02*
X-5398387Y8853419D01*
X-5398387Y8853419D02*
X-5436482Y8929609D01*
X-5436482Y8929609D02*
X-5436482Y9120085D01*
X-5436482Y9120085D02*
X-5398387Y9196276D01*
X-5398387Y9196276D02*
X-5360292Y9234371D01*
X-5360292Y9234371D02*
X-5284101Y9272466D01*
X-5284101Y9272466D02*
X-5093625Y9272466D01*
X-5093625Y9272466D02*
X-5017435Y9234371D01*
X-5017435Y9234371D02*
X-4979340Y9196276D01*
X-4979340Y9196276D02*
X-4941244Y9120085D01*
X-4941244Y9120085D02*
X-4941244Y8929609D01*
X-4941244Y8929609D02*
X-4979340Y8853419D01*
X-4979340Y8853419D02*
X-5017435Y8815323D01*
X-14613828Y31990835D02*
X-14651924Y31952740D01*
X-14651924Y31952740D02*
X-14766209Y31914644D01*
X-14766209Y31914644D02*
X-14842400Y31914644D01*
X-14842400Y31914644D02*
X-14956686Y31952740D01*
X-14956686Y31952740D02*
X-15032876Y32028930D01*
X-15032876Y32028930D02*
X-15070971Y32105120D01*
X-15070971Y32105120D02*
X-15109067Y32257501D01*
X-15109067Y32257501D02*
X-15109067Y32371787D01*
X-15109067Y32371787D02*
X-15070971Y32524168D01*
X-15070971Y32524168D02*
X-15032876Y32600359D01*
X-15032876Y32600359D02*
X-14956686Y32676549D01*
X-14956686Y32676549D02*
X-14842400Y32714644D01*
X-14842400Y32714644D02*
X-14766209Y32714644D01*
X-14766209Y32714644D02*
X-14651924Y32676549D01*
X-14651924Y32676549D02*
X-14613828Y32638454D01*
X-14347162Y32714644D02*
X-13851924Y32714644D01*
X-13851924Y32714644D02*
X-14118590Y32409882D01*
X-14118590Y32409882D02*
X-14004305Y32409882D01*
X-14004305Y32409882D02*
X-13928114Y32371787D01*
X-13928114Y32371787D02*
X-13890019Y32333692D01*
X-13890019Y32333692D02*
X-13851924Y32257501D01*
X-13851924Y32257501D02*
X-13851924Y32067025D01*
X-13851924Y32067025D02*
X-13890019Y31990835D01*
X-13890019Y31990835D02*
X-13928114Y31952740D01*
X-13928114Y31952740D02*
X-14004305Y31914644D01*
X-14004305Y31914644D02*
X-14232876Y31914644D01*
X-14232876Y31914644D02*
X-14309067Y31952740D01*
X-14309067Y31952740D02*
X-14347162Y31990835D01*
X-14403235Y27414165D02*
X-14365140Y27376069D01*
X-14365140Y27376069D02*
X-14327044Y27261784D01*
X-14327044Y27261784D02*
X-14327044Y27185593D01*
X-14327044Y27185593D02*
X-14365140Y27071307D01*
X-14365140Y27071307D02*
X-14441330Y26995117D01*
X-14441330Y26995117D02*
X-14517520Y26957022D01*
X-14517520Y26957022D02*
X-14669901Y26918926D01*
X-14669901Y26918926D02*
X-14784187Y26918926D01*
X-14784187Y26918926D02*
X-14936568Y26957022D01*
X-14936568Y26957022D02*
X-15012759Y26995117D01*
X-15012759Y26995117D02*
X-15088949Y27071307D01*
X-15088949Y27071307D02*
X-15127044Y27185593D01*
X-15127044Y27185593D02*
X-15127044Y27261784D01*
X-15127044Y27261784D02*
X-15088949Y27376069D01*
X-15088949Y27376069D02*
X-15050854Y27414165D01*
X-15050854Y27718926D02*
X-15088949Y27757022D01*
X-15088949Y27757022D02*
X-15127044Y27833212D01*
X-15127044Y27833212D02*
X-15127044Y28023688D01*
X-15127044Y28023688D02*
X-15088949Y28099879D01*
X-15088949Y28099879D02*
X-15050854Y28137974D01*
X-15050854Y28137974D02*
X-14974663Y28176069D01*
X-14974663Y28176069D02*
X-14898473Y28176069D01*
X-14898473Y28176069D02*
X-14784187Y28137974D01*
X-14784187Y28137974D02*
X-14327044Y27680831D01*
X-14327044Y27680831D02*
X-14327044Y28176069D01*
X-14290666Y35520492D02*
X-14557332Y35520492D01*
X-14557332Y35101444D02*
X-14557332Y35901444D01*
X-14557332Y35901444D02*
X-14176380Y35901444D01*
X-13604952Y35520492D02*
X-13490666Y35482397D01*
X-13490666Y35482397D02*
X-13452571Y35444301D01*
X-13452571Y35444301D02*
X-13414475Y35368111D01*
X-13414475Y35368111D02*
X-13414475Y35253825D01*
X-13414475Y35253825D02*
X-13452571Y35177635D01*
X-13452571Y35177635D02*
X-13490666Y35139540D01*
X-13490666Y35139540D02*
X-13566856Y35101444D01*
X-13566856Y35101444D02*
X-13871618Y35101444D01*
X-13871618Y35101444D02*
X-13871618Y35901444D01*
X-13871618Y35901444D02*
X-13604952Y35901444D01*
X-13604952Y35901444D02*
X-13528761Y35863349D01*
X-13528761Y35863349D02*
X-13490666Y35825254D01*
X-13490666Y35825254D02*
X-13452571Y35749063D01*
X-13452571Y35749063D02*
X-13452571Y35672873D01*
X-13452571Y35672873D02*
X-13490666Y35596682D01*
X-13490666Y35596682D02*
X-13528761Y35558587D01*
X-13528761Y35558587D02*
X-13604952Y35520492D01*
X-13604952Y35520492D02*
X-13871618Y35520492D01*
X-12652571Y35101444D02*
X-13109714Y35101444D01*
X-12881142Y35101444D02*
X-12881142Y35901444D01*
X-12881142Y35901444D02*
X-12957333Y35787159D01*
X-12957333Y35787159D02*
X-13033523Y35710968D01*
X-13033523Y35710968D02*
X-13109714Y35672873D01*
D11*
X-35070173Y31475606D02*
X-34750173Y31475606D01*
X-34750173Y31475606D02*
X-35070173Y30995606D01*
X-35070173Y30995606D02*
X-34750173Y30995606D01*
X-34590173Y31429892D02*
X-34567316Y31452749D01*
X-34567316Y31452749D02*
X-34521602Y31475606D01*
X-34521602Y31475606D02*
X-34407316Y31475606D01*
X-34407316Y31475606D02*
X-34361602Y31452749D01*
X-34361602Y31452749D02*
X-34338744Y31429892D01*
X-34338744Y31429892D02*
X-34315887Y31384178D01*
X-34315887Y31384178D02*
X-34315887Y31338464D01*
X-34315887Y31338464D02*
X-34338744Y31269892D01*
X-34338744Y31269892D02*
X-34613030Y30995606D01*
X-34613030Y30995606D02*
X-34315887Y30995606D01*
D10*
X-5785423Y35366344D02*
X-5785423Y34718725D01*
X-5785423Y34718725D02*
X-5747328Y34642535D01*
X-5747328Y34642535D02*
X-5709233Y34604440D01*
X-5709233Y34604440D02*
X-5633042Y34566344D01*
X-5633042Y34566344D02*
X-5480661Y34566344D01*
X-5480661Y34566344D02*
X-5404471Y34604440D01*
X-5404471Y34604440D02*
X-5366376Y34642535D01*
X-5366376Y34642535D02*
X-5328280Y34718725D01*
X-5328280Y34718725D02*
X-5328280Y35366344D01*
X-4528281Y34566344D02*
X-4985424Y34566344D01*
X-4756852Y34566344D02*
X-4756852Y35366344D01*
X-4756852Y35366344D02*
X-4833043Y35252059D01*
X-4833043Y35252059D02*
X-4909233Y35175868D01*
X-4909233Y35175868D02*
X-4985424Y35137773D01*
X-8088832Y36638135D02*
X-8126928Y36600040D01*
X-8126928Y36600040D02*
X-8241213Y36561944D01*
X-8241213Y36561944D02*
X-8317404Y36561944D01*
X-8317404Y36561944D02*
X-8431690Y36600040D01*
X-8431690Y36600040D02*
X-8507880Y36676230D01*
X-8507880Y36676230D02*
X-8545975Y36752420D01*
X-8545975Y36752420D02*
X-8584071Y36904801D01*
X-8584071Y36904801D02*
X-8584071Y37019087D01*
X-8584071Y37019087D02*
X-8545975Y37171468D01*
X-8545975Y37171468D02*
X-8507880Y37247659D01*
X-8507880Y37247659D02*
X-8431690Y37323849D01*
X-8431690Y37323849D02*
X-8317404Y37361944D01*
X-8317404Y37361944D02*
X-8241213Y37361944D01*
X-8241213Y37361944D02*
X-8126928Y37323849D01*
X-8126928Y37323849D02*
X-8088832Y37285754D01*
X-7326928Y36561944D02*
X-7784071Y36561944D01*
X-7555499Y36561944D02*
X-7555499Y37361944D01*
X-7555499Y37361944D02*
X-7631690Y37247659D01*
X-7631690Y37247659D02*
X-7707880Y37171468D01*
X-7707880Y37171468D02*
X-7784071Y37133373D01*
X-35468259Y39450492D02*
X-35734925Y39450492D01*
X-35734925Y39031444D02*
X-35734925Y39831444D01*
X-35734925Y39831444D02*
X-35353973Y39831444D01*
X-34630164Y39031444D02*
X-35087307Y39031444D01*
X-34858735Y39031444D02*
X-34858735Y39831444D01*
X-34858735Y39831444D02*
X-34934926Y39717159D01*
X-34934926Y39717159D02*
X-35011116Y39640968D01*
X-35011116Y39640968D02*
X-35087307Y39602873D01*
X-32195032Y24485644D02*
X-32461699Y24866597D01*
X-32652175Y24485644D02*
X-32652175Y25285644D01*
X-32652175Y25285644D02*
X-32347413Y25285644D01*
X-32347413Y25285644D02*
X-32271223Y25247549D01*
X-32271223Y25247549D02*
X-32233128Y25209454D01*
X-32233128Y25209454D02*
X-32195032Y25133263D01*
X-32195032Y25133263D02*
X-32195032Y25018978D01*
X-32195032Y25018978D02*
X-32233128Y24942787D01*
X-32233128Y24942787D02*
X-32271223Y24904692D01*
X-32271223Y24904692D02*
X-32347413Y24866597D01*
X-32347413Y24866597D02*
X-32652175Y24866597D01*
X-31890271Y25209454D02*
X-31852175Y25247549D01*
X-31852175Y25247549D02*
X-31775985Y25285644D01*
X-31775985Y25285644D02*
X-31585509Y25285644D01*
X-31585509Y25285644D02*
X-31509318Y25247549D01*
X-31509318Y25247549D02*
X-31471223Y25209454D01*
X-31471223Y25209454D02*
X-31433128Y25133263D01*
X-31433128Y25133263D02*
X-31433128Y25057073D01*
X-31433128Y25057073D02*
X-31471223Y24942787D01*
X-31471223Y24942787D02*
X-31928366Y24485644D01*
X-31928366Y24485644D02*
X-31433128Y24485644D01*
X-45231148Y42396926D02*
X-45269244Y42358831D01*
X-45269244Y42358831D02*
X-45383529Y42320735D01*
X-45383529Y42320735D02*
X-45459720Y42320735D01*
X-45459720Y42320735D02*
X-45574006Y42358831D01*
X-45574006Y42358831D02*
X-45650196Y42435021D01*
X-45650196Y42435021D02*
X-45688291Y42511211D01*
X-45688291Y42511211D02*
X-45726387Y42663592D01*
X-45726387Y42663592D02*
X-45726387Y42777878D01*
X-45726387Y42777878D02*
X-45688291Y42930259D01*
X-45688291Y42930259D02*
X-45650196Y43006450D01*
X-45650196Y43006450D02*
X-45574006Y43082640D01*
X-45574006Y43082640D02*
X-45459720Y43120735D01*
X-45459720Y43120735D02*
X-45383529Y43120735D01*
X-45383529Y43120735D02*
X-45269244Y43082640D01*
X-45269244Y43082640D02*
X-45231148Y43044545D01*
X-44774006Y42777878D02*
X-44850196Y42815973D01*
X-44850196Y42815973D02*
X-44888291Y42854069D01*
X-44888291Y42854069D02*
X-44926387Y42930259D01*
X-44926387Y42930259D02*
X-44926387Y42968354D01*
X-44926387Y42968354D02*
X-44888291Y43044545D01*
X-44888291Y43044545D02*
X-44850196Y43082640D01*
X-44850196Y43082640D02*
X-44774006Y43120735D01*
X-44774006Y43120735D02*
X-44621625Y43120735D01*
X-44621625Y43120735D02*
X-44545434Y43082640D01*
X-44545434Y43082640D02*
X-44507339Y43044545D01*
X-44507339Y43044545D02*
X-44469244Y42968354D01*
X-44469244Y42968354D02*
X-44469244Y42930259D01*
X-44469244Y42930259D02*
X-44507339Y42854069D01*
X-44507339Y42854069D02*
X-44545434Y42815973D01*
X-44545434Y42815973D02*
X-44621625Y42777878D01*
X-44621625Y42777878D02*
X-44774006Y42777878D01*
X-44774006Y42777878D02*
X-44850196Y42739783D01*
X-44850196Y42739783D02*
X-44888291Y42701688D01*
X-44888291Y42701688D02*
X-44926387Y42625497D01*
X-44926387Y42625497D02*
X-44926387Y42473116D01*
X-44926387Y42473116D02*
X-44888291Y42396926D01*
X-44888291Y42396926D02*
X-44850196Y42358831D01*
X-44850196Y42358831D02*
X-44774006Y42320735D01*
X-44774006Y42320735D02*
X-44621625Y42320735D01*
X-44621625Y42320735D02*
X-44545434Y42358831D01*
X-44545434Y42358831D02*
X-44507339Y42396926D01*
X-44507339Y42396926D02*
X-44469244Y42473116D01*
X-44469244Y42473116D02*
X-44469244Y42625497D01*
X-44469244Y42625497D02*
X-44507339Y42701688D01*
X-44507339Y42701688D02*
X-44545434Y42739783D01*
X-44545434Y42739783D02*
X-44621625Y42777878D01*
X1344855Y35785961D02*
X963902Y35519294D01*
X1344855Y35328818D02*
X544855Y35328818D01*
X544855Y35328818D02*
X544855Y35633580D01*
X544855Y35633580D02*
X582950Y35709770D01*
X582950Y35709770D02*
X621045Y35747865D01*
X621045Y35747865D02*
X697236Y35785961D01*
X697236Y35785961D02*
X811521Y35785961D01*
X811521Y35785961D02*
X887712Y35747865D01*
X887712Y35747865D02*
X925807Y35709770D01*
X925807Y35709770D02*
X963902Y35633580D01*
X963902Y35633580D02*
X963902Y35328818D01*
X811521Y36471675D02*
X1344855Y36471675D01*
X506760Y36281199D02*
X1078188Y36090722D01*
X1078188Y36090722D02*
X1078188Y36585961D01*
X-32195032Y29770744D02*
X-32461699Y30151697D01*
X-32652175Y29770744D02*
X-32652175Y30570744D01*
X-32652175Y30570744D02*
X-32347413Y30570744D01*
X-32347413Y30570744D02*
X-32271223Y30532649D01*
X-32271223Y30532649D02*
X-32233128Y30494554D01*
X-32233128Y30494554D02*
X-32195032Y30418363D01*
X-32195032Y30418363D02*
X-32195032Y30304078D01*
X-32195032Y30304078D02*
X-32233128Y30227887D01*
X-32233128Y30227887D02*
X-32271223Y30189792D01*
X-32271223Y30189792D02*
X-32347413Y30151697D01*
X-32347413Y30151697D02*
X-32652175Y30151697D01*
X-31928366Y30570744D02*
X-31433128Y30570744D01*
X-31433128Y30570744D02*
X-31699794Y30265982D01*
X-31699794Y30265982D02*
X-31585509Y30265982D01*
X-31585509Y30265982D02*
X-31509318Y30227887D01*
X-31509318Y30227887D02*
X-31471223Y30189792D01*
X-31471223Y30189792D02*
X-31433128Y30113601D01*
X-31433128Y30113601D02*
X-31433128Y29923125D01*
X-31433128Y29923125D02*
X-31471223Y29846935D01*
X-31471223Y29846935D02*
X-31509318Y29808840D01*
X-31509318Y29808840D02*
X-31585509Y29770744D01*
X-31585509Y29770744D02*
X-31814080Y29770744D01*
X-31814080Y29770744D02*
X-31890271Y29808840D01*
X-31890271Y29808840D02*
X-31928366Y29846935D01*
X37391832Y-29843260D02*
X37506118Y-29881355D01*
X37506118Y-29881355D02*
X37696594Y-29881355D01*
X37696594Y-29881355D02*
X37772785Y-29843260D01*
X37772785Y-29843260D02*
X37810880Y-29805164D01*
X37810880Y-29805164D02*
X37848975Y-29728974D01*
X37848975Y-29728974D02*
X37848975Y-29652783D01*
X37848975Y-29652783D02*
X37810880Y-29576593D01*
X37810880Y-29576593D02*
X37772785Y-29538498D01*
X37772785Y-29538498D02*
X37696594Y-29500402D01*
X37696594Y-29500402D02*
X37544213Y-29462307D01*
X37544213Y-29462307D02*
X37468023Y-29424212D01*
X37468023Y-29424212D02*
X37429928Y-29386117D01*
X37429928Y-29386117D02*
X37391832Y-29309926D01*
X37391832Y-29309926D02*
X37391832Y-29233736D01*
X37391832Y-29233736D02*
X37429928Y-29157545D01*
X37429928Y-29157545D02*
X37468023Y-29119450D01*
X37468023Y-29119450D02*
X37544213Y-29081355D01*
X37544213Y-29081355D02*
X37734690Y-29081355D01*
X37734690Y-29081355D02*
X37848975Y-29119450D01*
X38115642Y-29081355D02*
X38306118Y-29881355D01*
X38306118Y-29881355D02*
X38458499Y-29309926D01*
X38458499Y-29309926D02*
X38610880Y-29881355D01*
X38610880Y-29881355D02*
X38801357Y-29081355D01*
X39525166Y-29881355D02*
X39068023Y-29881355D01*
X39296595Y-29881355D02*
X39296595Y-29081355D01*
X39296595Y-29081355D02*
X39220404Y-29195640D01*
X39220404Y-29195640D02*
X39144214Y-29271831D01*
X39144214Y-29271831D02*
X39068023Y-29309926D01*
X37391832Y-27743260D02*
X37506118Y-27781355D01*
X37506118Y-27781355D02*
X37696594Y-27781355D01*
X37696594Y-27781355D02*
X37772785Y-27743260D01*
X37772785Y-27743260D02*
X37810880Y-27705164D01*
X37810880Y-27705164D02*
X37848975Y-27628974D01*
X37848975Y-27628974D02*
X37848975Y-27552783D01*
X37848975Y-27552783D02*
X37810880Y-27476593D01*
X37810880Y-27476593D02*
X37772785Y-27438498D01*
X37772785Y-27438498D02*
X37696594Y-27400402D01*
X37696594Y-27400402D02*
X37544213Y-27362307D01*
X37544213Y-27362307D02*
X37468023Y-27324212D01*
X37468023Y-27324212D02*
X37429928Y-27286117D01*
X37429928Y-27286117D02*
X37391832Y-27209926D01*
X37391832Y-27209926D02*
X37391832Y-27133736D01*
X37391832Y-27133736D02*
X37429928Y-27057545D01*
X37429928Y-27057545D02*
X37468023Y-27019450D01*
X37468023Y-27019450D02*
X37544213Y-26981355D01*
X37544213Y-26981355D02*
X37734690Y-26981355D01*
X37734690Y-26981355D02*
X37848975Y-27019450D01*
X38115642Y-26981355D02*
X38306118Y-27781355D01*
X38306118Y-27781355D02*
X38458499Y-27209926D01*
X38458499Y-27209926D02*
X38610880Y-27781355D01*
X38610880Y-27781355D02*
X38801357Y-26981355D01*
X39525166Y-27781355D02*
X39068023Y-27781355D01*
X39296595Y-27781355D02*
X39296595Y-26981355D01*
X39296595Y-26981355D02*
X39220404Y-27095640D01*
X39220404Y-27095640D02*
X39144214Y-27171831D01*
X39144214Y-27171831D02*
X39068023Y-27209926D01*
X9993932Y-34173660D02*
X10108218Y-34211755D01*
X10108218Y-34211755D02*
X10298694Y-34211755D01*
X10298694Y-34211755D02*
X10374885Y-34173660D01*
X10374885Y-34173660D02*
X10412980Y-34135564D01*
X10412980Y-34135564D02*
X10451075Y-34059374D01*
X10451075Y-34059374D02*
X10451075Y-33983183D01*
X10451075Y-33983183D02*
X10412980Y-33906993D01*
X10412980Y-33906993D02*
X10374885Y-33868898D01*
X10374885Y-33868898D02*
X10298694Y-33830802D01*
X10298694Y-33830802D02*
X10146313Y-33792707D01*
X10146313Y-33792707D02*
X10070123Y-33754612D01*
X10070123Y-33754612D02*
X10032028Y-33716517D01*
X10032028Y-33716517D02*
X9993932Y-33640326D01*
X9993932Y-33640326D02*
X9993932Y-33564136D01*
X9993932Y-33564136D02*
X10032028Y-33487945D01*
X10032028Y-33487945D02*
X10070123Y-33449850D01*
X10070123Y-33449850D02*
X10146313Y-33411755D01*
X10146313Y-33411755D02*
X10336790Y-33411755D01*
X10336790Y-33411755D02*
X10451075Y-33449850D01*
X10717742Y-33411755D02*
X10908218Y-34211755D01*
X10908218Y-34211755D02*
X11060599Y-33640326D01*
X11060599Y-33640326D02*
X11212980Y-34211755D01*
X11212980Y-34211755D02*
X11403457Y-33411755D01*
X11670123Y-33487945D02*
X11708219Y-33449850D01*
X11708219Y-33449850D02*
X11784409Y-33411755D01*
X11784409Y-33411755D02*
X11974885Y-33411755D01*
X11974885Y-33411755D02*
X12051076Y-33449850D01*
X12051076Y-33449850D02*
X12089171Y-33487945D01*
X12089171Y-33487945D02*
X12127266Y-33564136D01*
X12127266Y-33564136D02*
X12127266Y-33640326D01*
X12127266Y-33640326D02*
X12089171Y-33754612D01*
X12089171Y-33754612D02*
X11632028Y-34211755D01*
X11632028Y-34211755D02*
X12127266Y-34211755D01*
X9993932Y-32073660D02*
X10108218Y-32111755D01*
X10108218Y-32111755D02*
X10298694Y-32111755D01*
X10298694Y-32111755D02*
X10374885Y-32073660D01*
X10374885Y-32073660D02*
X10412980Y-32035564D01*
X10412980Y-32035564D02*
X10451075Y-31959374D01*
X10451075Y-31959374D02*
X10451075Y-31883183D01*
X10451075Y-31883183D02*
X10412980Y-31806993D01*
X10412980Y-31806993D02*
X10374885Y-31768898D01*
X10374885Y-31768898D02*
X10298694Y-31730802D01*
X10298694Y-31730802D02*
X10146313Y-31692707D01*
X10146313Y-31692707D02*
X10070123Y-31654612D01*
X10070123Y-31654612D02*
X10032028Y-31616517D01*
X10032028Y-31616517D02*
X9993932Y-31540326D01*
X9993932Y-31540326D02*
X9993932Y-31464136D01*
X9993932Y-31464136D02*
X10032028Y-31387945D01*
X10032028Y-31387945D02*
X10070123Y-31349850D01*
X10070123Y-31349850D02*
X10146313Y-31311755D01*
X10146313Y-31311755D02*
X10336790Y-31311755D01*
X10336790Y-31311755D02*
X10451075Y-31349850D01*
X10717742Y-31311755D02*
X10908218Y-32111755D01*
X10908218Y-32111755D02*
X11060599Y-31540326D01*
X11060599Y-31540326D02*
X11212980Y-32111755D01*
X11212980Y-32111755D02*
X11403457Y-31311755D01*
X11670123Y-31387945D02*
X11708219Y-31349850D01*
X11708219Y-31349850D02*
X11784409Y-31311755D01*
X11784409Y-31311755D02*
X11974885Y-31311755D01*
X11974885Y-31311755D02*
X12051076Y-31349850D01*
X12051076Y-31349850D02*
X12089171Y-31387945D01*
X12089171Y-31387945D02*
X12127266Y-31464136D01*
X12127266Y-31464136D02*
X12127266Y-31540326D01*
X12127266Y-31540326D02*
X12089171Y-31654612D01*
X12089171Y-31654612D02*
X11632028Y-32111755D01*
X11632028Y-32111755D02*
X12127266Y-32111755D01*
X-4042367Y32281340D02*
X-3928081Y32243244D01*
X-3928081Y32243244D02*
X-3737605Y32243244D01*
X-3737605Y32243244D02*
X-3661414Y32281340D01*
X-3661414Y32281340D02*
X-3623319Y32319435D01*
X-3623319Y32319435D02*
X-3585224Y32395625D01*
X-3585224Y32395625D02*
X-3585224Y32471816D01*
X-3585224Y32471816D02*
X-3623319Y32548006D01*
X-3623319Y32548006D02*
X-3661414Y32586101D01*
X-3661414Y32586101D02*
X-3737605Y32624197D01*
X-3737605Y32624197D02*
X-3889986Y32662292D01*
X-3889986Y32662292D02*
X-3966176Y32700387D01*
X-3966176Y32700387D02*
X-4004271Y32738482D01*
X-4004271Y32738482D02*
X-4042367Y32814673D01*
X-4042367Y32814673D02*
X-4042367Y32890863D01*
X-4042367Y32890863D02*
X-4004271Y32967054D01*
X-4004271Y32967054D02*
X-3966176Y33005149D01*
X-3966176Y33005149D02*
X-3889986Y33043244D01*
X-3889986Y33043244D02*
X-3699509Y33043244D01*
X-3699509Y33043244D02*
X-3585224Y33005149D01*
X-3318557Y33043244D02*
X-3128081Y32243244D01*
X-3128081Y32243244D02*
X-2975700Y32814673D01*
X-2975700Y32814673D02*
X-2823319Y32243244D01*
X-2823319Y32243244D02*
X-2632843Y33043244D01*
X-2404271Y33043244D02*
X-1909033Y33043244D01*
X-1909033Y33043244D02*
X-2175699Y32738482D01*
X-2175699Y32738482D02*
X-2061414Y32738482D01*
X-2061414Y32738482D02*
X-1985223Y32700387D01*
X-1985223Y32700387D02*
X-1947128Y32662292D01*
X-1947128Y32662292D02*
X-1909033Y32586101D01*
X-1909033Y32586101D02*
X-1909033Y32395625D01*
X-1909033Y32395625D02*
X-1947128Y32319435D01*
X-1947128Y32319435D02*
X-1985223Y32281340D01*
X-1985223Y32281340D02*
X-2061414Y32243244D01*
X-2061414Y32243244D02*
X-2289985Y32243244D01*
X-2289985Y32243244D02*
X-2366176Y32281340D01*
X-2366176Y32281340D02*
X-2404271Y32319435D01*
X-4042367Y34381340D02*
X-3928081Y34343244D01*
X-3928081Y34343244D02*
X-3737605Y34343244D01*
X-3737605Y34343244D02*
X-3661414Y34381340D01*
X-3661414Y34381340D02*
X-3623319Y34419435D01*
X-3623319Y34419435D02*
X-3585224Y34495625D01*
X-3585224Y34495625D02*
X-3585224Y34571816D01*
X-3585224Y34571816D02*
X-3623319Y34648006D01*
X-3623319Y34648006D02*
X-3661414Y34686101D01*
X-3661414Y34686101D02*
X-3737605Y34724197D01*
X-3737605Y34724197D02*
X-3889986Y34762292D01*
X-3889986Y34762292D02*
X-3966176Y34800387D01*
X-3966176Y34800387D02*
X-4004271Y34838482D01*
X-4004271Y34838482D02*
X-4042367Y34914673D01*
X-4042367Y34914673D02*
X-4042367Y34990863D01*
X-4042367Y34990863D02*
X-4004271Y35067054D01*
X-4004271Y35067054D02*
X-3966176Y35105149D01*
X-3966176Y35105149D02*
X-3889986Y35143244D01*
X-3889986Y35143244D02*
X-3699509Y35143244D01*
X-3699509Y35143244D02*
X-3585224Y35105149D01*
X-3318557Y35143244D02*
X-3128081Y34343244D01*
X-3128081Y34343244D02*
X-2975700Y34914673D01*
X-2975700Y34914673D02*
X-2823319Y34343244D01*
X-2823319Y34343244D02*
X-2632843Y35143244D01*
X-2404271Y35143244D02*
X-1909033Y35143244D01*
X-1909033Y35143244D02*
X-2175699Y34838482D01*
X-2175699Y34838482D02*
X-2061414Y34838482D01*
X-2061414Y34838482D02*
X-1985223Y34800387D01*
X-1985223Y34800387D02*
X-1947128Y34762292D01*
X-1947128Y34762292D02*
X-1909033Y34686101D01*
X-1909033Y34686101D02*
X-1909033Y34495625D01*
X-1909033Y34495625D02*
X-1947128Y34419435D01*
X-1947128Y34419435D02*
X-1985223Y34381340D01*
X-1985223Y34381340D02*
X-2061414Y34343244D01*
X-2061414Y34343244D02*
X-2289985Y34343244D01*
X-2289985Y34343244D02*
X-2366176Y34381340D01*
X-2366176Y34381340D02*
X-2404271Y34419435D01*
X45391832Y6259040D02*
X45506118Y6220944D01*
X45506118Y6220944D02*
X45696594Y6220944D01*
X45696594Y6220944D02*
X45772785Y6259040D01*
X45772785Y6259040D02*
X45810880Y6297135D01*
X45810880Y6297135D02*
X45848975Y6373325D01*
X45848975Y6373325D02*
X45848975Y6449516D01*
X45848975Y6449516D02*
X45810880Y6525706D01*
X45810880Y6525706D02*
X45772785Y6563801D01*
X45772785Y6563801D02*
X45696594Y6601897D01*
X45696594Y6601897D02*
X45544213Y6639992D01*
X45544213Y6639992D02*
X45468023Y6678087D01*
X45468023Y6678087D02*
X45429928Y6716182D01*
X45429928Y6716182D02*
X45391832Y6792373D01*
X45391832Y6792373D02*
X45391832Y6868563D01*
X45391832Y6868563D02*
X45429928Y6944754D01*
X45429928Y6944754D02*
X45468023Y6982849D01*
X45468023Y6982849D02*
X45544213Y7020944D01*
X45544213Y7020944D02*
X45734690Y7020944D01*
X45734690Y7020944D02*
X45848975Y6982849D01*
X46115642Y7020944D02*
X46306118Y6220944D01*
X46306118Y6220944D02*
X46458499Y6792373D01*
X46458499Y6792373D02*
X46610880Y6220944D01*
X46610880Y6220944D02*
X46801357Y7020944D01*
X47448976Y6754278D02*
X47448976Y6220944D01*
X47258500Y7059040D02*
X47068023Y6487611D01*
X47068023Y6487611D02*
X47563262Y6487611D01*
X45391832Y8359040D02*
X45506118Y8320944D01*
X45506118Y8320944D02*
X45696594Y8320944D01*
X45696594Y8320944D02*
X45772785Y8359040D01*
X45772785Y8359040D02*
X45810880Y8397135D01*
X45810880Y8397135D02*
X45848975Y8473325D01*
X45848975Y8473325D02*
X45848975Y8549516D01*
X45848975Y8549516D02*
X45810880Y8625706D01*
X45810880Y8625706D02*
X45772785Y8663801D01*
X45772785Y8663801D02*
X45696594Y8701897D01*
X45696594Y8701897D02*
X45544213Y8739992D01*
X45544213Y8739992D02*
X45468023Y8778087D01*
X45468023Y8778087D02*
X45429928Y8816182D01*
X45429928Y8816182D02*
X45391832Y8892373D01*
X45391832Y8892373D02*
X45391832Y8968563D01*
X45391832Y8968563D02*
X45429928Y9044754D01*
X45429928Y9044754D02*
X45468023Y9082849D01*
X45468023Y9082849D02*
X45544213Y9120944D01*
X45544213Y9120944D02*
X45734690Y9120944D01*
X45734690Y9120944D02*
X45848975Y9082849D01*
X46115642Y9120944D02*
X46306118Y8320944D01*
X46306118Y8320944D02*
X46458499Y8892373D01*
X46458499Y8892373D02*
X46610880Y8320944D01*
X46610880Y8320944D02*
X46801357Y9120944D01*
X47448976Y8854278D02*
X47448976Y8320944D01*
X47258500Y9159040D02*
X47068023Y8587611D01*
X47068023Y8587611D02*
X47563262Y8587611D01*
X13000032Y-36321460D02*
X13114318Y-36359555D01*
X13114318Y-36359555D02*
X13304794Y-36359555D01*
X13304794Y-36359555D02*
X13380985Y-36321460D01*
X13380985Y-36321460D02*
X13419080Y-36283364D01*
X13419080Y-36283364D02*
X13457175Y-36207174D01*
X13457175Y-36207174D02*
X13457175Y-36130983D01*
X13457175Y-36130983D02*
X13419080Y-36054793D01*
X13419080Y-36054793D02*
X13380985Y-36016698D01*
X13380985Y-36016698D02*
X13304794Y-35978602D01*
X13304794Y-35978602D02*
X13152413Y-35940507D01*
X13152413Y-35940507D02*
X13076223Y-35902412D01*
X13076223Y-35902412D02*
X13038128Y-35864317D01*
X13038128Y-35864317D02*
X13000032Y-35788126D01*
X13000032Y-35788126D02*
X13000032Y-35711936D01*
X13000032Y-35711936D02*
X13038128Y-35635745D01*
X13038128Y-35635745D02*
X13076223Y-35597650D01*
X13076223Y-35597650D02*
X13152413Y-35559555D01*
X13152413Y-35559555D02*
X13342890Y-35559555D01*
X13342890Y-35559555D02*
X13457175Y-35597650D01*
X13723842Y-35559555D02*
X13914318Y-36359555D01*
X13914318Y-36359555D02*
X14066699Y-35788126D01*
X14066699Y-35788126D02*
X14219080Y-36359555D01*
X14219080Y-36359555D02*
X14409557Y-35559555D01*
X15095271Y-35559555D02*
X14714319Y-35559555D01*
X14714319Y-35559555D02*
X14676223Y-35940507D01*
X14676223Y-35940507D02*
X14714319Y-35902412D01*
X14714319Y-35902412D02*
X14790509Y-35864317D01*
X14790509Y-35864317D02*
X14980985Y-35864317D01*
X14980985Y-35864317D02*
X15057176Y-35902412D01*
X15057176Y-35902412D02*
X15095271Y-35940507D01*
X15095271Y-35940507D02*
X15133366Y-36016698D01*
X15133366Y-36016698D02*
X15133366Y-36207174D01*
X15133366Y-36207174D02*
X15095271Y-36283364D01*
X15095271Y-36283364D02*
X15057176Y-36321460D01*
X15057176Y-36321460D02*
X14980985Y-36359555D01*
X14980985Y-36359555D02*
X14790509Y-36359555D01*
X14790509Y-36359555D02*
X14714319Y-36321460D01*
X14714319Y-36321460D02*
X14676223Y-36283364D01*
X13000032Y-34221460D02*
X13114318Y-34259555D01*
X13114318Y-34259555D02*
X13304794Y-34259555D01*
X13304794Y-34259555D02*
X13380985Y-34221460D01*
X13380985Y-34221460D02*
X13419080Y-34183364D01*
X13419080Y-34183364D02*
X13457175Y-34107174D01*
X13457175Y-34107174D02*
X13457175Y-34030983D01*
X13457175Y-34030983D02*
X13419080Y-33954793D01*
X13419080Y-33954793D02*
X13380985Y-33916698D01*
X13380985Y-33916698D02*
X13304794Y-33878602D01*
X13304794Y-33878602D02*
X13152413Y-33840507D01*
X13152413Y-33840507D02*
X13076223Y-33802412D01*
X13076223Y-33802412D02*
X13038128Y-33764317D01*
X13038128Y-33764317D02*
X13000032Y-33688126D01*
X13000032Y-33688126D02*
X13000032Y-33611936D01*
X13000032Y-33611936D02*
X13038128Y-33535745D01*
X13038128Y-33535745D02*
X13076223Y-33497650D01*
X13076223Y-33497650D02*
X13152413Y-33459555D01*
X13152413Y-33459555D02*
X13342890Y-33459555D01*
X13342890Y-33459555D02*
X13457175Y-33497650D01*
X13723842Y-33459555D02*
X13914318Y-34259555D01*
X13914318Y-34259555D02*
X14066699Y-33688126D01*
X14066699Y-33688126D02*
X14219080Y-34259555D01*
X14219080Y-34259555D02*
X14409557Y-33459555D01*
X15095271Y-33459555D02*
X14714319Y-33459555D01*
X14714319Y-33459555D02*
X14676223Y-33840507D01*
X14676223Y-33840507D02*
X14714319Y-33802412D01*
X14714319Y-33802412D02*
X14790509Y-33764317D01*
X14790509Y-33764317D02*
X14980985Y-33764317D01*
X14980985Y-33764317D02*
X15057176Y-33802412D01*
X15057176Y-33802412D02*
X15095271Y-33840507D01*
X15095271Y-33840507D02*
X15133366Y-33916698D01*
X15133366Y-33916698D02*
X15133366Y-34107174D01*
X15133366Y-34107174D02*
X15095271Y-34183364D01*
X15095271Y-34183364D02*
X15057176Y-34221460D01*
X15057176Y-34221460D02*
X14980985Y-34259555D01*
X14980985Y-34259555D02*
X14790509Y-34259555D01*
X14790509Y-34259555D02*
X14714319Y-34221460D01*
X14714319Y-34221460D02*
X14676223Y-34183364D01*
X38755832Y-15456460D02*
X38870118Y-15494555D01*
X38870118Y-15494555D02*
X39060594Y-15494555D01*
X39060594Y-15494555D02*
X39136785Y-15456460D01*
X39136785Y-15456460D02*
X39174880Y-15418364D01*
X39174880Y-15418364D02*
X39212975Y-15342174D01*
X39212975Y-15342174D02*
X39212975Y-15265983D01*
X39212975Y-15265983D02*
X39174880Y-15189793D01*
X39174880Y-15189793D02*
X39136785Y-15151698D01*
X39136785Y-15151698D02*
X39060594Y-15113602D01*
X39060594Y-15113602D02*
X38908213Y-15075507D01*
X38908213Y-15075507D02*
X38832023Y-15037412D01*
X38832023Y-15037412D02*
X38793928Y-14999317D01*
X38793928Y-14999317D02*
X38755832Y-14923126D01*
X38755832Y-14923126D02*
X38755832Y-14846936D01*
X38755832Y-14846936D02*
X38793928Y-14770745D01*
X38793928Y-14770745D02*
X38832023Y-14732650D01*
X38832023Y-14732650D02*
X38908213Y-14694555D01*
X38908213Y-14694555D02*
X39098690Y-14694555D01*
X39098690Y-14694555D02*
X39212975Y-14732650D01*
X39479642Y-14694555D02*
X39670118Y-15494555D01*
X39670118Y-15494555D02*
X39822499Y-14923126D01*
X39822499Y-14923126D02*
X39974880Y-15494555D01*
X39974880Y-15494555D02*
X40165357Y-14694555D01*
X40812976Y-14694555D02*
X40660595Y-14694555D01*
X40660595Y-14694555D02*
X40584404Y-14732650D01*
X40584404Y-14732650D02*
X40546309Y-14770745D01*
X40546309Y-14770745D02*
X40470119Y-14885031D01*
X40470119Y-14885031D02*
X40432023Y-15037412D01*
X40432023Y-15037412D02*
X40432023Y-15342174D01*
X40432023Y-15342174D02*
X40470119Y-15418364D01*
X40470119Y-15418364D02*
X40508214Y-15456460D01*
X40508214Y-15456460D02*
X40584404Y-15494555D01*
X40584404Y-15494555D02*
X40736785Y-15494555D01*
X40736785Y-15494555D02*
X40812976Y-15456460D01*
X40812976Y-15456460D02*
X40851071Y-15418364D01*
X40851071Y-15418364D02*
X40889166Y-15342174D01*
X40889166Y-15342174D02*
X40889166Y-15151698D01*
X40889166Y-15151698D02*
X40851071Y-15075507D01*
X40851071Y-15075507D02*
X40812976Y-15037412D01*
X40812976Y-15037412D02*
X40736785Y-14999317D01*
X40736785Y-14999317D02*
X40584404Y-14999317D01*
X40584404Y-14999317D02*
X40508214Y-15037412D01*
X40508214Y-15037412D02*
X40470119Y-15075507D01*
X40470119Y-15075507D02*
X40432023Y-15151698D01*
X38755832Y-13356460D02*
X38870118Y-13394555D01*
X38870118Y-13394555D02*
X39060594Y-13394555D01*
X39060594Y-13394555D02*
X39136785Y-13356460D01*
X39136785Y-13356460D02*
X39174880Y-13318364D01*
X39174880Y-13318364D02*
X39212975Y-13242174D01*
X39212975Y-13242174D02*
X39212975Y-13165983D01*
X39212975Y-13165983D02*
X39174880Y-13089793D01*
X39174880Y-13089793D02*
X39136785Y-13051698D01*
X39136785Y-13051698D02*
X39060594Y-13013602D01*
X39060594Y-13013602D02*
X38908213Y-12975507D01*
X38908213Y-12975507D02*
X38832023Y-12937412D01*
X38832023Y-12937412D02*
X38793928Y-12899317D01*
X38793928Y-12899317D02*
X38755832Y-12823126D01*
X38755832Y-12823126D02*
X38755832Y-12746936D01*
X38755832Y-12746936D02*
X38793928Y-12670745D01*
X38793928Y-12670745D02*
X38832023Y-12632650D01*
X38832023Y-12632650D02*
X38908213Y-12594555D01*
X38908213Y-12594555D02*
X39098690Y-12594555D01*
X39098690Y-12594555D02*
X39212975Y-12632650D01*
X39479642Y-12594555D02*
X39670118Y-13394555D01*
X39670118Y-13394555D02*
X39822499Y-12823126D01*
X39822499Y-12823126D02*
X39974880Y-13394555D01*
X39974880Y-13394555D02*
X40165357Y-12594555D01*
X40812976Y-12594555D02*
X40660595Y-12594555D01*
X40660595Y-12594555D02*
X40584404Y-12632650D01*
X40584404Y-12632650D02*
X40546309Y-12670745D01*
X40546309Y-12670745D02*
X40470119Y-12785031D01*
X40470119Y-12785031D02*
X40432023Y-12937412D01*
X40432023Y-12937412D02*
X40432023Y-13242174D01*
X40432023Y-13242174D02*
X40470119Y-13318364D01*
X40470119Y-13318364D02*
X40508214Y-13356460D01*
X40508214Y-13356460D02*
X40584404Y-13394555D01*
X40584404Y-13394555D02*
X40736785Y-13394555D01*
X40736785Y-13394555D02*
X40812976Y-13356460D01*
X40812976Y-13356460D02*
X40851071Y-13318364D01*
X40851071Y-13318364D02*
X40889166Y-13242174D01*
X40889166Y-13242174D02*
X40889166Y-13051698D01*
X40889166Y-13051698D02*
X40851071Y-12975507D01*
X40851071Y-12975507D02*
X40812976Y-12937412D01*
X40812976Y-12937412D02*
X40736785Y-12899317D01*
X40736785Y-12899317D02*
X40584404Y-12899317D01*
X40584404Y-12899317D02*
X40508214Y-12937412D01*
X40508214Y-12937412D02*
X40470119Y-12975507D01*
X40470119Y-12975507D02*
X40432023Y-13051698D01*
X95023432Y-28971760D02*
X95137718Y-29009855D01*
X95137718Y-29009855D02*
X95328194Y-29009855D01*
X95328194Y-29009855D02*
X95404385Y-28971760D01*
X95404385Y-28971760D02*
X95442480Y-28933664D01*
X95442480Y-28933664D02*
X95480575Y-28857474D01*
X95480575Y-28857474D02*
X95480575Y-28781283D01*
X95480575Y-28781283D02*
X95442480Y-28705093D01*
X95442480Y-28705093D02*
X95404385Y-28666998D01*
X95404385Y-28666998D02*
X95328194Y-28628902D01*
X95328194Y-28628902D02*
X95175813Y-28590807D01*
X95175813Y-28590807D02*
X95099623Y-28552712D01*
X95099623Y-28552712D02*
X95061528Y-28514617D01*
X95061528Y-28514617D02*
X95023432Y-28438426D01*
X95023432Y-28438426D02*
X95023432Y-28362236D01*
X95023432Y-28362236D02*
X95061528Y-28286045D01*
X95061528Y-28286045D02*
X95099623Y-28247950D01*
X95099623Y-28247950D02*
X95175813Y-28209855D01*
X95175813Y-28209855D02*
X95366290Y-28209855D01*
X95366290Y-28209855D02*
X95480575Y-28247950D01*
X95747242Y-28209855D02*
X95937718Y-29009855D01*
X95937718Y-29009855D02*
X96090099Y-28438426D01*
X96090099Y-28438426D02*
X96242480Y-29009855D01*
X96242480Y-29009855D02*
X96432957Y-28209855D01*
X96661528Y-28209855D02*
X97194862Y-28209855D01*
X97194862Y-28209855D02*
X96852004Y-29009855D01*
X95023432Y-26871760D02*
X95137718Y-26909855D01*
X95137718Y-26909855D02*
X95328194Y-26909855D01*
X95328194Y-26909855D02*
X95404385Y-26871760D01*
X95404385Y-26871760D02*
X95442480Y-26833664D01*
X95442480Y-26833664D02*
X95480575Y-26757474D01*
X95480575Y-26757474D02*
X95480575Y-26681283D01*
X95480575Y-26681283D02*
X95442480Y-26605093D01*
X95442480Y-26605093D02*
X95404385Y-26566998D01*
X95404385Y-26566998D02*
X95328194Y-26528902D01*
X95328194Y-26528902D02*
X95175813Y-26490807D01*
X95175813Y-26490807D02*
X95099623Y-26452712D01*
X95099623Y-26452712D02*
X95061528Y-26414617D01*
X95061528Y-26414617D02*
X95023432Y-26338426D01*
X95023432Y-26338426D02*
X95023432Y-26262236D01*
X95023432Y-26262236D02*
X95061528Y-26186045D01*
X95061528Y-26186045D02*
X95099623Y-26147950D01*
X95099623Y-26147950D02*
X95175813Y-26109855D01*
X95175813Y-26109855D02*
X95366290Y-26109855D01*
X95366290Y-26109855D02*
X95480575Y-26147950D01*
X95747242Y-26109855D02*
X95937718Y-26909855D01*
X95937718Y-26909855D02*
X96090099Y-26338426D01*
X96090099Y-26338426D02*
X96242480Y-26909855D01*
X96242480Y-26909855D02*
X96432957Y-26109855D01*
X96661528Y-26109855D02*
X97194862Y-26109855D01*
X97194862Y-26109855D02*
X96852004Y-26909855D01*
X53391832Y-1057260D02*
X53506118Y-1095355D01*
X53506118Y-1095355D02*
X53696594Y-1095355D01*
X53696594Y-1095355D02*
X53772785Y-1057260D01*
X53772785Y-1057260D02*
X53810880Y-1019164D01*
X53810880Y-1019164D02*
X53848975Y-942974D01*
X53848975Y-942974D02*
X53848975Y-866783D01*
X53848975Y-866783D02*
X53810880Y-790593D01*
X53810880Y-790593D02*
X53772785Y-752498D01*
X53772785Y-752498D02*
X53696594Y-714402D01*
X53696594Y-714402D02*
X53544213Y-676307D01*
X53544213Y-676307D02*
X53468023Y-638212D01*
X53468023Y-638212D02*
X53429928Y-600117D01*
X53429928Y-600117D02*
X53391832Y-523926D01*
X53391832Y-523926D02*
X53391832Y-447736D01*
X53391832Y-447736D02*
X53429928Y-371545D01*
X53429928Y-371545D02*
X53468023Y-333450D01*
X53468023Y-333450D02*
X53544213Y-295355D01*
X53544213Y-295355D02*
X53734690Y-295355D01*
X53734690Y-295355D02*
X53848975Y-333450D01*
X54115642Y-295355D02*
X54306118Y-1095355D01*
X54306118Y-1095355D02*
X54458499Y-523926D01*
X54458499Y-523926D02*
X54610880Y-1095355D01*
X54610880Y-1095355D02*
X54801357Y-295355D01*
X55220404Y-638212D02*
X55144214Y-600117D01*
X55144214Y-600117D02*
X55106119Y-562021D01*
X55106119Y-562021D02*
X55068023Y-485831D01*
X55068023Y-485831D02*
X55068023Y-447736D01*
X55068023Y-447736D02*
X55106119Y-371545D01*
X55106119Y-371545D02*
X55144214Y-333450D01*
X55144214Y-333450D02*
X55220404Y-295355D01*
X55220404Y-295355D02*
X55372785Y-295355D01*
X55372785Y-295355D02*
X55448976Y-333450D01*
X55448976Y-333450D02*
X55487071Y-371545D01*
X55487071Y-371545D02*
X55525166Y-447736D01*
X55525166Y-447736D02*
X55525166Y-485831D01*
X55525166Y-485831D02*
X55487071Y-562021D01*
X55487071Y-562021D02*
X55448976Y-600117D01*
X55448976Y-600117D02*
X55372785Y-638212D01*
X55372785Y-638212D02*
X55220404Y-638212D01*
X55220404Y-638212D02*
X55144214Y-676307D01*
X55144214Y-676307D02*
X55106119Y-714402D01*
X55106119Y-714402D02*
X55068023Y-790593D01*
X55068023Y-790593D02*
X55068023Y-942974D01*
X55068023Y-942974D02*
X55106119Y-1019164D01*
X55106119Y-1019164D02*
X55144214Y-1057260D01*
X55144214Y-1057260D02*
X55220404Y-1095355D01*
X55220404Y-1095355D02*
X55372785Y-1095355D01*
X55372785Y-1095355D02*
X55448976Y-1057260D01*
X55448976Y-1057260D02*
X55487071Y-1019164D01*
X55487071Y-1019164D02*
X55525166Y-942974D01*
X55525166Y-942974D02*
X55525166Y-790593D01*
X55525166Y-790593D02*
X55487071Y-714402D01*
X55487071Y-714402D02*
X55448976Y-676307D01*
X55448976Y-676307D02*
X55372785Y-638212D01*
X53391832Y1042740D02*
X53506118Y1004644D01*
X53506118Y1004644D02*
X53696594Y1004644D01*
X53696594Y1004644D02*
X53772785Y1042740D01*
X53772785Y1042740D02*
X53810880Y1080835D01*
X53810880Y1080835D02*
X53848975Y1157025D01*
X53848975Y1157025D02*
X53848975Y1233216D01*
X53848975Y1233216D02*
X53810880Y1309406D01*
X53810880Y1309406D02*
X53772785Y1347501D01*
X53772785Y1347501D02*
X53696594Y1385597D01*
X53696594Y1385597D02*
X53544213Y1423692D01*
X53544213Y1423692D02*
X53468023Y1461787D01*
X53468023Y1461787D02*
X53429928Y1499882D01*
X53429928Y1499882D02*
X53391832Y1576073D01*
X53391832Y1576073D02*
X53391832Y1652263D01*
X53391832Y1652263D02*
X53429928Y1728454D01*
X53429928Y1728454D02*
X53468023Y1766549D01*
X53468023Y1766549D02*
X53544213Y1804644D01*
X53544213Y1804644D02*
X53734690Y1804644D01*
X53734690Y1804644D02*
X53848975Y1766549D01*
X54115642Y1804644D02*
X54306118Y1004644D01*
X54306118Y1004644D02*
X54458499Y1576073D01*
X54458499Y1576073D02*
X54610880Y1004644D01*
X54610880Y1004644D02*
X54801357Y1804644D01*
X55220404Y1461787D02*
X55144214Y1499882D01*
X55144214Y1499882D02*
X55106119Y1537978D01*
X55106119Y1537978D02*
X55068023Y1614168D01*
X55068023Y1614168D02*
X55068023Y1652263D01*
X55068023Y1652263D02*
X55106119Y1728454D01*
X55106119Y1728454D02*
X55144214Y1766549D01*
X55144214Y1766549D02*
X55220404Y1804644D01*
X55220404Y1804644D02*
X55372785Y1804644D01*
X55372785Y1804644D02*
X55448976Y1766549D01*
X55448976Y1766549D02*
X55487071Y1728454D01*
X55487071Y1728454D02*
X55525166Y1652263D01*
X55525166Y1652263D02*
X55525166Y1614168D01*
X55525166Y1614168D02*
X55487071Y1537978D01*
X55487071Y1537978D02*
X55448976Y1499882D01*
X55448976Y1499882D02*
X55372785Y1461787D01*
X55372785Y1461787D02*
X55220404Y1461787D01*
X55220404Y1461787D02*
X55144214Y1423692D01*
X55144214Y1423692D02*
X55106119Y1385597D01*
X55106119Y1385597D02*
X55068023Y1309406D01*
X55068023Y1309406D02*
X55068023Y1157025D01*
X55068023Y1157025D02*
X55106119Y1080835D01*
X55106119Y1080835D02*
X55144214Y1042740D01*
X55144214Y1042740D02*
X55220404Y1004644D01*
X55220404Y1004644D02*
X55372785Y1004644D01*
X55372785Y1004644D02*
X55448976Y1042740D01*
X55448976Y1042740D02*
X55487071Y1080835D01*
X55487071Y1080835D02*
X55525166Y1157025D01*
X55525166Y1157025D02*
X55525166Y1309406D01*
X55525166Y1309406D02*
X55487071Y1385597D01*
X55487071Y1385597D02*
X55448976Y1423692D01*
X55448976Y1423692D02*
X55372785Y1461787D01*
X61919832Y-23811460D02*
X62034118Y-23849555D01*
X62034118Y-23849555D02*
X62224594Y-23849555D01*
X62224594Y-23849555D02*
X62300785Y-23811460D01*
X62300785Y-23811460D02*
X62338880Y-23773364D01*
X62338880Y-23773364D02*
X62376975Y-23697174D01*
X62376975Y-23697174D02*
X62376975Y-23620983D01*
X62376975Y-23620983D02*
X62338880Y-23544793D01*
X62338880Y-23544793D02*
X62300785Y-23506698D01*
X62300785Y-23506698D02*
X62224594Y-23468602D01*
X62224594Y-23468602D02*
X62072213Y-23430507D01*
X62072213Y-23430507D02*
X61996023Y-23392412D01*
X61996023Y-23392412D02*
X61957928Y-23354317D01*
X61957928Y-23354317D02*
X61919832Y-23278126D01*
X61919832Y-23278126D02*
X61919832Y-23201936D01*
X61919832Y-23201936D02*
X61957928Y-23125745D01*
X61957928Y-23125745D02*
X61996023Y-23087650D01*
X61996023Y-23087650D02*
X62072213Y-23049555D01*
X62072213Y-23049555D02*
X62262690Y-23049555D01*
X62262690Y-23049555D02*
X62376975Y-23087650D01*
X62643642Y-23049555D02*
X62834118Y-23849555D01*
X62834118Y-23849555D02*
X62986499Y-23278126D01*
X62986499Y-23278126D02*
X63138880Y-23849555D01*
X63138880Y-23849555D02*
X63329357Y-23049555D01*
X63672214Y-23849555D02*
X63824595Y-23849555D01*
X63824595Y-23849555D02*
X63900785Y-23811460D01*
X63900785Y-23811460D02*
X63938881Y-23773364D01*
X63938881Y-23773364D02*
X64015071Y-23659079D01*
X64015071Y-23659079D02*
X64053166Y-23506698D01*
X64053166Y-23506698D02*
X64053166Y-23201936D01*
X64053166Y-23201936D02*
X64015071Y-23125745D01*
X64015071Y-23125745D02*
X63976976Y-23087650D01*
X63976976Y-23087650D02*
X63900785Y-23049555D01*
X63900785Y-23049555D02*
X63748404Y-23049555D01*
X63748404Y-23049555D02*
X63672214Y-23087650D01*
X63672214Y-23087650D02*
X63634119Y-23125745D01*
X63634119Y-23125745D02*
X63596023Y-23201936D01*
X63596023Y-23201936D02*
X63596023Y-23392412D01*
X63596023Y-23392412D02*
X63634119Y-23468602D01*
X63634119Y-23468602D02*
X63672214Y-23506698D01*
X63672214Y-23506698D02*
X63748404Y-23544793D01*
X63748404Y-23544793D02*
X63900785Y-23544793D01*
X63900785Y-23544793D02*
X63976976Y-23506698D01*
X63976976Y-23506698D02*
X64015071Y-23468602D01*
X64015071Y-23468602D02*
X64053166Y-23392412D01*
X61919832Y-21711460D02*
X62034118Y-21749555D01*
X62034118Y-21749555D02*
X62224594Y-21749555D01*
X62224594Y-21749555D02*
X62300785Y-21711460D01*
X62300785Y-21711460D02*
X62338880Y-21673364D01*
X62338880Y-21673364D02*
X62376975Y-21597174D01*
X62376975Y-21597174D02*
X62376975Y-21520983D01*
X62376975Y-21520983D02*
X62338880Y-21444793D01*
X62338880Y-21444793D02*
X62300785Y-21406698D01*
X62300785Y-21406698D02*
X62224594Y-21368602D01*
X62224594Y-21368602D02*
X62072213Y-21330507D01*
X62072213Y-21330507D02*
X61996023Y-21292412D01*
X61996023Y-21292412D02*
X61957928Y-21254317D01*
X61957928Y-21254317D02*
X61919832Y-21178126D01*
X61919832Y-21178126D02*
X61919832Y-21101936D01*
X61919832Y-21101936D02*
X61957928Y-21025745D01*
X61957928Y-21025745D02*
X61996023Y-20987650D01*
X61996023Y-20987650D02*
X62072213Y-20949555D01*
X62072213Y-20949555D02*
X62262690Y-20949555D01*
X62262690Y-20949555D02*
X62376975Y-20987650D01*
X62643642Y-20949555D02*
X62834118Y-21749555D01*
X62834118Y-21749555D02*
X62986499Y-21178126D01*
X62986499Y-21178126D02*
X63138880Y-21749555D01*
X63138880Y-21749555D02*
X63329357Y-20949555D01*
X63672214Y-21749555D02*
X63824595Y-21749555D01*
X63824595Y-21749555D02*
X63900785Y-21711460D01*
X63900785Y-21711460D02*
X63938881Y-21673364D01*
X63938881Y-21673364D02*
X64015071Y-21559079D01*
X64015071Y-21559079D02*
X64053166Y-21406698D01*
X64053166Y-21406698D02*
X64053166Y-21101936D01*
X64053166Y-21101936D02*
X64015071Y-21025745D01*
X64015071Y-21025745D02*
X63976976Y-20987650D01*
X63976976Y-20987650D02*
X63900785Y-20949555D01*
X63900785Y-20949555D02*
X63748404Y-20949555D01*
X63748404Y-20949555D02*
X63672214Y-20987650D01*
X63672214Y-20987650D02*
X63634119Y-21025745D01*
X63634119Y-21025745D02*
X63596023Y-21101936D01*
X63596023Y-21101936D02*
X63596023Y-21292412D01*
X63596023Y-21292412D02*
X63634119Y-21368602D01*
X63634119Y-21368602D02*
X63672214Y-21406698D01*
X63672214Y-21406698D02*
X63748404Y-21444793D01*
X63748404Y-21444793D02*
X63900785Y-21444793D01*
X63900785Y-21444793D02*
X63976976Y-21406698D01*
X63976976Y-21406698D02*
X64015071Y-21368602D01*
X64015071Y-21368602D02*
X64053166Y-21292412D01*
X62729780Y-29426260D02*
X62844066Y-29464355D01*
X62844066Y-29464355D02*
X63034542Y-29464355D01*
X63034542Y-29464355D02*
X63110733Y-29426260D01*
X63110733Y-29426260D02*
X63148828Y-29388164D01*
X63148828Y-29388164D02*
X63186923Y-29311974D01*
X63186923Y-29311974D02*
X63186923Y-29235783D01*
X63186923Y-29235783D02*
X63148828Y-29159593D01*
X63148828Y-29159593D02*
X63110733Y-29121498D01*
X63110733Y-29121498D02*
X63034542Y-29083402D01*
X63034542Y-29083402D02*
X62882161Y-29045307D01*
X62882161Y-29045307D02*
X62805971Y-29007212D01*
X62805971Y-29007212D02*
X62767876Y-28969117D01*
X62767876Y-28969117D02*
X62729780Y-28892926D01*
X62729780Y-28892926D02*
X62729780Y-28816736D01*
X62729780Y-28816736D02*
X62767876Y-28740545D01*
X62767876Y-28740545D02*
X62805971Y-28702450D01*
X62805971Y-28702450D02*
X62882161Y-28664355D01*
X62882161Y-28664355D02*
X63072638Y-28664355D01*
X63072638Y-28664355D02*
X63186923Y-28702450D01*
X63453590Y-28664355D02*
X63644066Y-29464355D01*
X63644066Y-29464355D02*
X63796447Y-28892926D01*
X63796447Y-28892926D02*
X63948828Y-29464355D01*
X63948828Y-29464355D02*
X64139305Y-28664355D01*
X64863114Y-29464355D02*
X64405971Y-29464355D01*
X64634543Y-29464355D02*
X64634543Y-28664355D01*
X64634543Y-28664355D02*
X64558352Y-28778640D01*
X64558352Y-28778640D02*
X64482162Y-28854831D01*
X64482162Y-28854831D02*
X64405971Y-28892926D01*
X65358353Y-28664355D02*
X65434543Y-28664355D01*
X65434543Y-28664355D02*
X65510734Y-28702450D01*
X65510734Y-28702450D02*
X65548829Y-28740545D01*
X65548829Y-28740545D02*
X65586924Y-28816736D01*
X65586924Y-28816736D02*
X65625019Y-28969117D01*
X65625019Y-28969117D02*
X65625019Y-29159593D01*
X65625019Y-29159593D02*
X65586924Y-29311974D01*
X65586924Y-29311974D02*
X65548829Y-29388164D01*
X65548829Y-29388164D02*
X65510734Y-29426260D01*
X65510734Y-29426260D02*
X65434543Y-29464355D01*
X65434543Y-29464355D02*
X65358353Y-29464355D01*
X65358353Y-29464355D02*
X65282162Y-29426260D01*
X65282162Y-29426260D02*
X65244067Y-29388164D01*
X65244067Y-29388164D02*
X65205972Y-29311974D01*
X65205972Y-29311974D02*
X65167876Y-29159593D01*
X65167876Y-29159593D02*
X65167876Y-28969117D01*
X65167876Y-28969117D02*
X65205972Y-28816736D01*
X65205972Y-28816736D02*
X65244067Y-28740545D01*
X65244067Y-28740545D02*
X65282162Y-28702450D01*
X65282162Y-28702450D02*
X65358353Y-28664355D01*
X62729780Y-27326260D02*
X62844066Y-27364355D01*
X62844066Y-27364355D02*
X63034542Y-27364355D01*
X63034542Y-27364355D02*
X63110733Y-27326260D01*
X63110733Y-27326260D02*
X63148828Y-27288164D01*
X63148828Y-27288164D02*
X63186923Y-27211974D01*
X63186923Y-27211974D02*
X63186923Y-27135783D01*
X63186923Y-27135783D02*
X63148828Y-27059593D01*
X63148828Y-27059593D02*
X63110733Y-27021498D01*
X63110733Y-27021498D02*
X63034542Y-26983402D01*
X63034542Y-26983402D02*
X62882161Y-26945307D01*
X62882161Y-26945307D02*
X62805971Y-26907212D01*
X62805971Y-26907212D02*
X62767876Y-26869117D01*
X62767876Y-26869117D02*
X62729780Y-26792926D01*
X62729780Y-26792926D02*
X62729780Y-26716736D01*
X62729780Y-26716736D02*
X62767876Y-26640545D01*
X62767876Y-26640545D02*
X62805971Y-26602450D01*
X62805971Y-26602450D02*
X62882161Y-26564355D01*
X62882161Y-26564355D02*
X63072638Y-26564355D01*
X63072638Y-26564355D02*
X63186923Y-26602450D01*
X63453590Y-26564355D02*
X63644066Y-27364355D01*
X63644066Y-27364355D02*
X63796447Y-26792926D01*
X63796447Y-26792926D02*
X63948828Y-27364355D01*
X63948828Y-27364355D02*
X64139305Y-26564355D01*
X64863114Y-27364355D02*
X64405971Y-27364355D01*
X64634543Y-27364355D02*
X64634543Y-26564355D01*
X64634543Y-26564355D02*
X64558352Y-26678640D01*
X64558352Y-26678640D02*
X64482162Y-26754831D01*
X64482162Y-26754831D02*
X64405971Y-26792926D01*
X65358353Y-26564355D02*
X65434543Y-26564355D01*
X65434543Y-26564355D02*
X65510734Y-26602450D01*
X65510734Y-26602450D02*
X65548829Y-26640545D01*
X65548829Y-26640545D02*
X65586924Y-26716736D01*
X65586924Y-26716736D02*
X65625019Y-26869117D01*
X65625019Y-26869117D02*
X65625019Y-27059593D01*
X65625019Y-27059593D02*
X65586924Y-27211974D01*
X65586924Y-27211974D02*
X65548829Y-27288164D01*
X65548829Y-27288164D02*
X65510734Y-27326260D01*
X65510734Y-27326260D02*
X65434543Y-27364355D01*
X65434543Y-27364355D02*
X65358353Y-27364355D01*
X65358353Y-27364355D02*
X65282162Y-27326260D01*
X65282162Y-27326260D02*
X65244067Y-27288164D01*
X65244067Y-27288164D02*
X65205972Y-27211974D01*
X65205972Y-27211974D02*
X65167876Y-27059593D01*
X65167876Y-27059593D02*
X65167876Y-26869117D01*
X65167876Y-26869117D02*
X65205972Y-26716736D01*
X65205972Y-26716736D02*
X65244067Y-26640545D01*
X65244067Y-26640545D02*
X65282162Y-26602450D01*
X65282162Y-26602450D02*
X65358353Y-26564355D01*
X71244680Y-23306560D02*
X71358966Y-23344655D01*
X71358966Y-23344655D02*
X71549442Y-23344655D01*
X71549442Y-23344655D02*
X71625633Y-23306560D01*
X71625633Y-23306560D02*
X71663728Y-23268464D01*
X71663728Y-23268464D02*
X71701823Y-23192274D01*
X71701823Y-23192274D02*
X71701823Y-23116083D01*
X71701823Y-23116083D02*
X71663728Y-23039893D01*
X71663728Y-23039893D02*
X71625633Y-23001798D01*
X71625633Y-23001798D02*
X71549442Y-22963702D01*
X71549442Y-22963702D02*
X71397061Y-22925607D01*
X71397061Y-22925607D02*
X71320871Y-22887512D01*
X71320871Y-22887512D02*
X71282776Y-22849417D01*
X71282776Y-22849417D02*
X71244680Y-22773226D01*
X71244680Y-22773226D02*
X71244680Y-22697036D01*
X71244680Y-22697036D02*
X71282776Y-22620845D01*
X71282776Y-22620845D02*
X71320871Y-22582750D01*
X71320871Y-22582750D02*
X71397061Y-22544655D01*
X71397061Y-22544655D02*
X71587538Y-22544655D01*
X71587538Y-22544655D02*
X71701823Y-22582750D01*
X71968490Y-22544655D02*
X72158966Y-23344655D01*
X72158966Y-23344655D02*
X72311347Y-22773226D01*
X72311347Y-22773226D02*
X72463728Y-23344655D01*
X72463728Y-23344655D02*
X72654205Y-22544655D01*
X73378014Y-23344655D02*
X72920871Y-23344655D01*
X73149443Y-23344655D02*
X73149443Y-22544655D01*
X73149443Y-22544655D02*
X73073252Y-22658940D01*
X73073252Y-22658940D02*
X72997062Y-22735131D01*
X72997062Y-22735131D02*
X72920871Y-22773226D01*
X74139919Y-23344655D02*
X73682776Y-23344655D01*
X73911348Y-23344655D02*
X73911348Y-22544655D01*
X73911348Y-22544655D02*
X73835157Y-22658940D01*
X73835157Y-22658940D02*
X73758967Y-22735131D01*
X73758967Y-22735131D02*
X73682776Y-22773226D01*
X71244680Y-21206560D02*
X71358966Y-21244655D01*
X71358966Y-21244655D02*
X71549442Y-21244655D01*
X71549442Y-21244655D02*
X71625633Y-21206560D01*
X71625633Y-21206560D02*
X71663728Y-21168464D01*
X71663728Y-21168464D02*
X71701823Y-21092274D01*
X71701823Y-21092274D02*
X71701823Y-21016083D01*
X71701823Y-21016083D02*
X71663728Y-20939893D01*
X71663728Y-20939893D02*
X71625633Y-20901798D01*
X71625633Y-20901798D02*
X71549442Y-20863702D01*
X71549442Y-20863702D02*
X71397061Y-20825607D01*
X71397061Y-20825607D02*
X71320871Y-20787512D01*
X71320871Y-20787512D02*
X71282776Y-20749417D01*
X71282776Y-20749417D02*
X71244680Y-20673226D01*
X71244680Y-20673226D02*
X71244680Y-20597036D01*
X71244680Y-20597036D02*
X71282776Y-20520845D01*
X71282776Y-20520845D02*
X71320871Y-20482750D01*
X71320871Y-20482750D02*
X71397061Y-20444655D01*
X71397061Y-20444655D02*
X71587538Y-20444655D01*
X71587538Y-20444655D02*
X71701823Y-20482750D01*
X71968490Y-20444655D02*
X72158966Y-21244655D01*
X72158966Y-21244655D02*
X72311347Y-20673226D01*
X72311347Y-20673226D02*
X72463728Y-21244655D01*
X72463728Y-21244655D02*
X72654205Y-20444655D01*
X73378014Y-21244655D02*
X72920871Y-21244655D01*
X73149443Y-21244655D02*
X73149443Y-20444655D01*
X73149443Y-20444655D02*
X73073252Y-20558940D01*
X73073252Y-20558940D02*
X72997062Y-20635131D01*
X72997062Y-20635131D02*
X72920871Y-20673226D01*
X74139919Y-21244655D02*
X73682776Y-21244655D01*
X73911348Y-21244655D02*
X73911348Y-20444655D01*
X73911348Y-20444655D02*
X73835157Y-20558940D01*
X73835157Y-20558940D02*
X73758967Y-20635131D01*
X73758967Y-20635131D02*
X73682776Y-20673226D01*
X51070780Y-27593260D02*
X51185066Y-27631355D01*
X51185066Y-27631355D02*
X51375542Y-27631355D01*
X51375542Y-27631355D02*
X51451733Y-27593260D01*
X51451733Y-27593260D02*
X51489828Y-27555164D01*
X51489828Y-27555164D02*
X51527923Y-27478974D01*
X51527923Y-27478974D02*
X51527923Y-27402783D01*
X51527923Y-27402783D02*
X51489828Y-27326593D01*
X51489828Y-27326593D02*
X51451733Y-27288498D01*
X51451733Y-27288498D02*
X51375542Y-27250402D01*
X51375542Y-27250402D02*
X51223161Y-27212307D01*
X51223161Y-27212307D02*
X51146971Y-27174212D01*
X51146971Y-27174212D02*
X51108876Y-27136117D01*
X51108876Y-27136117D02*
X51070780Y-27059926D01*
X51070780Y-27059926D02*
X51070780Y-26983736D01*
X51070780Y-26983736D02*
X51108876Y-26907545D01*
X51108876Y-26907545D02*
X51146971Y-26869450D01*
X51146971Y-26869450D02*
X51223161Y-26831355D01*
X51223161Y-26831355D02*
X51413638Y-26831355D01*
X51413638Y-26831355D02*
X51527923Y-26869450D01*
X51794590Y-26831355D02*
X51985066Y-27631355D01*
X51985066Y-27631355D02*
X52137447Y-27059926D01*
X52137447Y-27059926D02*
X52289828Y-27631355D01*
X52289828Y-27631355D02*
X52480305Y-26831355D01*
X53204114Y-27631355D02*
X52746971Y-27631355D01*
X52975543Y-27631355D02*
X52975543Y-26831355D01*
X52975543Y-26831355D02*
X52899352Y-26945640D01*
X52899352Y-26945640D02*
X52823162Y-27021831D01*
X52823162Y-27021831D02*
X52746971Y-27059926D01*
X53508876Y-26907545D02*
X53546972Y-26869450D01*
X53546972Y-26869450D02*
X53623162Y-26831355D01*
X53623162Y-26831355D02*
X53813638Y-26831355D01*
X53813638Y-26831355D02*
X53889829Y-26869450D01*
X53889829Y-26869450D02*
X53927924Y-26907545D01*
X53927924Y-26907545D02*
X53966019Y-26983736D01*
X53966019Y-26983736D02*
X53966019Y-27059926D01*
X53966019Y-27059926D02*
X53927924Y-27174212D01*
X53927924Y-27174212D02*
X53470781Y-27631355D01*
X53470781Y-27631355D02*
X53966019Y-27631355D01*
X51070780Y-25493260D02*
X51185066Y-25531355D01*
X51185066Y-25531355D02*
X51375542Y-25531355D01*
X51375542Y-25531355D02*
X51451733Y-25493260D01*
X51451733Y-25493260D02*
X51489828Y-25455164D01*
X51489828Y-25455164D02*
X51527923Y-25378974D01*
X51527923Y-25378974D02*
X51527923Y-25302783D01*
X51527923Y-25302783D02*
X51489828Y-25226593D01*
X51489828Y-25226593D02*
X51451733Y-25188498D01*
X51451733Y-25188498D02*
X51375542Y-25150402D01*
X51375542Y-25150402D02*
X51223161Y-25112307D01*
X51223161Y-25112307D02*
X51146971Y-25074212D01*
X51146971Y-25074212D02*
X51108876Y-25036117D01*
X51108876Y-25036117D02*
X51070780Y-24959926D01*
X51070780Y-24959926D02*
X51070780Y-24883736D01*
X51070780Y-24883736D02*
X51108876Y-24807545D01*
X51108876Y-24807545D02*
X51146971Y-24769450D01*
X51146971Y-24769450D02*
X51223161Y-24731355D01*
X51223161Y-24731355D02*
X51413638Y-24731355D01*
X51413638Y-24731355D02*
X51527923Y-24769450D01*
X51794590Y-24731355D02*
X51985066Y-25531355D01*
X51985066Y-25531355D02*
X52137447Y-24959926D01*
X52137447Y-24959926D02*
X52289828Y-25531355D01*
X52289828Y-25531355D02*
X52480305Y-24731355D01*
X53204114Y-25531355D02*
X52746971Y-25531355D01*
X52975543Y-25531355D02*
X52975543Y-24731355D01*
X52975543Y-24731355D02*
X52899352Y-24845640D01*
X52899352Y-24845640D02*
X52823162Y-24921831D01*
X52823162Y-24921831D02*
X52746971Y-24959926D01*
X53508876Y-24807545D02*
X53546972Y-24769450D01*
X53546972Y-24769450D02*
X53623162Y-24731355D01*
X53623162Y-24731355D02*
X53813638Y-24731355D01*
X53813638Y-24731355D02*
X53889829Y-24769450D01*
X53889829Y-24769450D02*
X53927924Y-24807545D01*
X53927924Y-24807545D02*
X53966019Y-24883736D01*
X53966019Y-24883736D02*
X53966019Y-24959926D01*
X53966019Y-24959926D02*
X53927924Y-25074212D01*
X53927924Y-25074212D02*
X53470781Y-25531355D01*
X53470781Y-25531355D02*
X53966019Y-25531355D01*
X34115480Y-3626060D02*
X34229766Y-3664155D01*
X34229766Y-3664155D02*
X34420242Y-3664155D01*
X34420242Y-3664155D02*
X34496433Y-3626060D01*
X34496433Y-3626060D02*
X34534528Y-3587964D01*
X34534528Y-3587964D02*
X34572623Y-3511774D01*
X34572623Y-3511774D02*
X34572623Y-3435583D01*
X34572623Y-3435583D02*
X34534528Y-3359393D01*
X34534528Y-3359393D02*
X34496433Y-3321298D01*
X34496433Y-3321298D02*
X34420242Y-3283202D01*
X34420242Y-3283202D02*
X34267861Y-3245107D01*
X34267861Y-3245107D02*
X34191671Y-3207012D01*
X34191671Y-3207012D02*
X34153576Y-3168917D01*
X34153576Y-3168917D02*
X34115480Y-3092726D01*
X34115480Y-3092726D02*
X34115480Y-3016536D01*
X34115480Y-3016536D02*
X34153576Y-2940345D01*
X34153576Y-2940345D02*
X34191671Y-2902250D01*
X34191671Y-2902250D02*
X34267861Y-2864155D01*
X34267861Y-2864155D02*
X34458338Y-2864155D01*
X34458338Y-2864155D02*
X34572623Y-2902250D01*
X34839290Y-2864155D02*
X35029766Y-3664155D01*
X35029766Y-3664155D02*
X35182147Y-3092726D01*
X35182147Y-3092726D02*
X35334528Y-3664155D01*
X35334528Y-3664155D02*
X35525005Y-2864155D01*
X36248814Y-3664155D02*
X35791671Y-3664155D01*
X36020243Y-3664155D02*
X36020243Y-2864155D01*
X36020243Y-2864155D02*
X35944052Y-2978440D01*
X35944052Y-2978440D02*
X35867862Y-3054631D01*
X35867862Y-3054631D02*
X35791671Y-3092726D01*
X36515481Y-2864155D02*
X37010719Y-2864155D01*
X37010719Y-2864155D02*
X36744053Y-3168917D01*
X36744053Y-3168917D02*
X36858338Y-3168917D01*
X36858338Y-3168917D02*
X36934529Y-3207012D01*
X36934529Y-3207012D02*
X36972624Y-3245107D01*
X36972624Y-3245107D02*
X37010719Y-3321298D01*
X37010719Y-3321298D02*
X37010719Y-3511774D01*
X37010719Y-3511774D02*
X36972624Y-3587964D01*
X36972624Y-3587964D02*
X36934529Y-3626060D01*
X36934529Y-3626060D02*
X36858338Y-3664155D01*
X36858338Y-3664155D02*
X36629767Y-3664155D01*
X36629767Y-3664155D02*
X36553576Y-3626060D01*
X36553576Y-3626060D02*
X36515481Y-3587964D01*
X34115480Y-1526060D02*
X34229766Y-1564155D01*
X34229766Y-1564155D02*
X34420242Y-1564155D01*
X34420242Y-1564155D02*
X34496433Y-1526060D01*
X34496433Y-1526060D02*
X34534528Y-1487964D01*
X34534528Y-1487964D02*
X34572623Y-1411774D01*
X34572623Y-1411774D02*
X34572623Y-1335583D01*
X34572623Y-1335583D02*
X34534528Y-1259393D01*
X34534528Y-1259393D02*
X34496433Y-1221298D01*
X34496433Y-1221298D02*
X34420242Y-1183202D01*
X34420242Y-1183202D02*
X34267861Y-1145107D01*
X34267861Y-1145107D02*
X34191671Y-1107012D01*
X34191671Y-1107012D02*
X34153576Y-1068917D01*
X34153576Y-1068917D02*
X34115480Y-992726D01*
X34115480Y-992726D02*
X34115480Y-916536D01*
X34115480Y-916536D02*
X34153576Y-840345D01*
X34153576Y-840345D02*
X34191671Y-802250D01*
X34191671Y-802250D02*
X34267861Y-764155D01*
X34267861Y-764155D02*
X34458338Y-764155D01*
X34458338Y-764155D02*
X34572623Y-802250D01*
X34839290Y-764155D02*
X35029766Y-1564155D01*
X35029766Y-1564155D02*
X35182147Y-992726D01*
X35182147Y-992726D02*
X35334528Y-1564155D01*
X35334528Y-1564155D02*
X35525005Y-764155D01*
X36248814Y-1564155D02*
X35791671Y-1564155D01*
X36020243Y-1564155D02*
X36020243Y-764155D01*
X36020243Y-764155D02*
X35944052Y-878440D01*
X35944052Y-878440D02*
X35867862Y-954631D01*
X35867862Y-954631D02*
X35791671Y-992726D01*
X36515481Y-764155D02*
X37010719Y-764155D01*
X37010719Y-764155D02*
X36744053Y-1068917D01*
X36744053Y-1068917D02*
X36858338Y-1068917D01*
X36858338Y-1068917D02*
X36934529Y-1107012D01*
X36934529Y-1107012D02*
X36972624Y-1145107D01*
X36972624Y-1145107D02*
X37010719Y-1221298D01*
X37010719Y-1221298D02*
X37010719Y-1411774D01*
X37010719Y-1411774D02*
X36972624Y-1487964D01*
X36972624Y-1487964D02*
X36934529Y-1526060D01*
X36934529Y-1526060D02*
X36858338Y-1564155D01*
X36858338Y-1564155D02*
X36629767Y-1564155D01*
X36629767Y-1564155D02*
X36553576Y-1526060D01*
X36553576Y-1526060D02*
X36515481Y-1487964D01*
X106589580Y-21260260D02*
X106703866Y-21298355D01*
X106703866Y-21298355D02*
X106894342Y-21298355D01*
X106894342Y-21298355D02*
X106970533Y-21260260D01*
X106970533Y-21260260D02*
X107008628Y-21222164D01*
X107008628Y-21222164D02*
X107046723Y-21145974D01*
X107046723Y-21145974D02*
X107046723Y-21069783D01*
X107046723Y-21069783D02*
X107008628Y-20993593D01*
X107008628Y-20993593D02*
X106970533Y-20955498D01*
X106970533Y-20955498D02*
X106894342Y-20917402D01*
X106894342Y-20917402D02*
X106741961Y-20879307D01*
X106741961Y-20879307D02*
X106665771Y-20841212D01*
X106665771Y-20841212D02*
X106627676Y-20803117D01*
X106627676Y-20803117D02*
X106589580Y-20726926D01*
X106589580Y-20726926D02*
X106589580Y-20650736D01*
X106589580Y-20650736D02*
X106627676Y-20574545D01*
X106627676Y-20574545D02*
X106665771Y-20536450D01*
X106665771Y-20536450D02*
X106741961Y-20498355D01*
X106741961Y-20498355D02*
X106932438Y-20498355D01*
X106932438Y-20498355D02*
X107046723Y-20536450D01*
X107313390Y-20498355D02*
X107503866Y-21298355D01*
X107503866Y-21298355D02*
X107656247Y-20726926D01*
X107656247Y-20726926D02*
X107808628Y-21298355D01*
X107808628Y-21298355D02*
X107999105Y-20498355D01*
X108722914Y-21298355D02*
X108265771Y-21298355D01*
X108494343Y-21298355D02*
X108494343Y-20498355D01*
X108494343Y-20498355D02*
X108418152Y-20612640D01*
X108418152Y-20612640D02*
X108341962Y-20688831D01*
X108341962Y-20688831D02*
X108265771Y-20726926D01*
X109408629Y-20765021D02*
X109408629Y-21298355D01*
X109218153Y-20460260D02*
X109027676Y-21031688D01*
X109027676Y-21031688D02*
X109522915Y-21031688D01*
X106589580Y-19160260D02*
X106703866Y-19198355D01*
X106703866Y-19198355D02*
X106894342Y-19198355D01*
X106894342Y-19198355D02*
X106970533Y-19160260D01*
X106970533Y-19160260D02*
X107008628Y-19122164D01*
X107008628Y-19122164D02*
X107046723Y-19045974D01*
X107046723Y-19045974D02*
X107046723Y-18969783D01*
X107046723Y-18969783D02*
X107008628Y-18893593D01*
X107008628Y-18893593D02*
X106970533Y-18855498D01*
X106970533Y-18855498D02*
X106894342Y-18817402D01*
X106894342Y-18817402D02*
X106741961Y-18779307D01*
X106741961Y-18779307D02*
X106665771Y-18741212D01*
X106665771Y-18741212D02*
X106627676Y-18703117D01*
X106627676Y-18703117D02*
X106589580Y-18626926D01*
X106589580Y-18626926D02*
X106589580Y-18550736D01*
X106589580Y-18550736D02*
X106627676Y-18474545D01*
X106627676Y-18474545D02*
X106665771Y-18436450D01*
X106665771Y-18436450D02*
X106741961Y-18398355D01*
X106741961Y-18398355D02*
X106932438Y-18398355D01*
X106932438Y-18398355D02*
X107046723Y-18436450D01*
X107313390Y-18398355D02*
X107503866Y-19198355D01*
X107503866Y-19198355D02*
X107656247Y-18626926D01*
X107656247Y-18626926D02*
X107808628Y-19198355D01*
X107808628Y-19198355D02*
X107999105Y-18398355D01*
X108722914Y-19198355D02*
X108265771Y-19198355D01*
X108494343Y-19198355D02*
X108494343Y-18398355D01*
X108494343Y-18398355D02*
X108418152Y-18512640D01*
X108418152Y-18512640D02*
X108341962Y-18588831D01*
X108341962Y-18588831D02*
X108265771Y-18626926D01*
X109408629Y-18665021D02*
X109408629Y-19198355D01*
X109218153Y-18360260D02*
X109027676Y-18931688D01*
X109027676Y-18931688D02*
X109522915Y-18931688D01*
X48957980Y-12651960D02*
X49072266Y-12690055D01*
X49072266Y-12690055D02*
X49262742Y-12690055D01*
X49262742Y-12690055D02*
X49338933Y-12651960D01*
X49338933Y-12651960D02*
X49377028Y-12613864D01*
X49377028Y-12613864D02*
X49415123Y-12537674D01*
X49415123Y-12537674D02*
X49415123Y-12461483D01*
X49415123Y-12461483D02*
X49377028Y-12385293D01*
X49377028Y-12385293D02*
X49338933Y-12347198D01*
X49338933Y-12347198D02*
X49262742Y-12309102D01*
X49262742Y-12309102D02*
X49110361Y-12271007D01*
X49110361Y-12271007D02*
X49034171Y-12232912D01*
X49034171Y-12232912D02*
X48996076Y-12194817D01*
X48996076Y-12194817D02*
X48957980Y-12118626D01*
X48957980Y-12118626D02*
X48957980Y-12042436D01*
X48957980Y-12042436D02*
X48996076Y-11966245D01*
X48996076Y-11966245D02*
X49034171Y-11928150D01*
X49034171Y-11928150D02*
X49110361Y-11890055D01*
X49110361Y-11890055D02*
X49300838Y-11890055D01*
X49300838Y-11890055D02*
X49415123Y-11928150D01*
X49681790Y-11890055D02*
X49872266Y-12690055D01*
X49872266Y-12690055D02*
X50024647Y-12118626D01*
X50024647Y-12118626D02*
X50177028Y-12690055D01*
X50177028Y-12690055D02*
X50367505Y-11890055D01*
X51091314Y-12690055D02*
X50634171Y-12690055D01*
X50862743Y-12690055D02*
X50862743Y-11890055D01*
X50862743Y-11890055D02*
X50786552Y-12004340D01*
X50786552Y-12004340D02*
X50710362Y-12080531D01*
X50710362Y-12080531D02*
X50634171Y-12118626D01*
X51815124Y-11890055D02*
X51434172Y-11890055D01*
X51434172Y-11890055D02*
X51396076Y-12271007D01*
X51396076Y-12271007D02*
X51434172Y-12232912D01*
X51434172Y-12232912D02*
X51510362Y-12194817D01*
X51510362Y-12194817D02*
X51700838Y-12194817D01*
X51700838Y-12194817D02*
X51777029Y-12232912D01*
X51777029Y-12232912D02*
X51815124Y-12271007D01*
X51815124Y-12271007D02*
X51853219Y-12347198D01*
X51853219Y-12347198D02*
X51853219Y-12537674D01*
X51853219Y-12537674D02*
X51815124Y-12613864D01*
X51815124Y-12613864D02*
X51777029Y-12651960D01*
X51777029Y-12651960D02*
X51700838Y-12690055D01*
X51700838Y-12690055D02*
X51510362Y-12690055D01*
X51510362Y-12690055D02*
X51434172Y-12651960D01*
X51434172Y-12651960D02*
X51396076Y-12613864D01*
X48957980Y-10551960D02*
X49072266Y-10590055D01*
X49072266Y-10590055D02*
X49262742Y-10590055D01*
X49262742Y-10590055D02*
X49338933Y-10551960D01*
X49338933Y-10551960D02*
X49377028Y-10513864D01*
X49377028Y-10513864D02*
X49415123Y-10437674D01*
X49415123Y-10437674D02*
X49415123Y-10361483D01*
X49415123Y-10361483D02*
X49377028Y-10285293D01*
X49377028Y-10285293D02*
X49338933Y-10247198D01*
X49338933Y-10247198D02*
X49262742Y-10209102D01*
X49262742Y-10209102D02*
X49110361Y-10171007D01*
X49110361Y-10171007D02*
X49034171Y-10132912D01*
X49034171Y-10132912D02*
X48996076Y-10094817D01*
X48996076Y-10094817D02*
X48957980Y-10018626D01*
X48957980Y-10018626D02*
X48957980Y-9942436D01*
X48957980Y-9942436D02*
X48996076Y-9866245D01*
X48996076Y-9866245D02*
X49034171Y-9828150D01*
X49034171Y-9828150D02*
X49110361Y-9790055D01*
X49110361Y-9790055D02*
X49300838Y-9790055D01*
X49300838Y-9790055D02*
X49415123Y-9828150D01*
X49681790Y-9790055D02*
X49872266Y-10590055D01*
X49872266Y-10590055D02*
X50024647Y-10018626D01*
X50024647Y-10018626D02*
X50177028Y-10590055D01*
X50177028Y-10590055D02*
X50367505Y-9790055D01*
X51091314Y-10590055D02*
X50634171Y-10590055D01*
X50862743Y-10590055D02*
X50862743Y-9790055D01*
X50862743Y-9790055D02*
X50786552Y-9904340D01*
X50786552Y-9904340D02*
X50710362Y-9980531D01*
X50710362Y-9980531D02*
X50634171Y-10018626D01*
X51815124Y-9790055D02*
X51434172Y-9790055D01*
X51434172Y-9790055D02*
X51396076Y-10171007D01*
X51396076Y-10171007D02*
X51434172Y-10132912D01*
X51434172Y-10132912D02*
X51510362Y-10094817D01*
X51510362Y-10094817D02*
X51700838Y-10094817D01*
X51700838Y-10094817D02*
X51777029Y-10132912D01*
X51777029Y-10132912D02*
X51815124Y-10171007D01*
X51815124Y-10171007D02*
X51853219Y-10247198D01*
X51853219Y-10247198D02*
X51853219Y-10437674D01*
X51853219Y-10437674D02*
X51815124Y-10513864D01*
X51815124Y-10513864D02*
X51777029Y-10551960D01*
X51777029Y-10551960D02*
X51700838Y-10590055D01*
X51700838Y-10590055D02*
X51510362Y-10590055D01*
X51510362Y-10590055D02*
X51434172Y-10551960D01*
X51434172Y-10551960D02*
X51396076Y-10513864D01*
X79244680Y-1977060D02*
X79358966Y-2015155D01*
X79358966Y-2015155D02*
X79549442Y-2015155D01*
X79549442Y-2015155D02*
X79625633Y-1977060D01*
X79625633Y-1977060D02*
X79663728Y-1938964D01*
X79663728Y-1938964D02*
X79701823Y-1862774D01*
X79701823Y-1862774D02*
X79701823Y-1786583D01*
X79701823Y-1786583D02*
X79663728Y-1710393D01*
X79663728Y-1710393D02*
X79625633Y-1672298D01*
X79625633Y-1672298D02*
X79549442Y-1634202D01*
X79549442Y-1634202D02*
X79397061Y-1596107D01*
X79397061Y-1596107D02*
X79320871Y-1558012D01*
X79320871Y-1558012D02*
X79282776Y-1519917D01*
X79282776Y-1519917D02*
X79244680Y-1443726D01*
X79244680Y-1443726D02*
X79244680Y-1367536D01*
X79244680Y-1367536D02*
X79282776Y-1291345D01*
X79282776Y-1291345D02*
X79320871Y-1253250D01*
X79320871Y-1253250D02*
X79397061Y-1215155D01*
X79397061Y-1215155D02*
X79587538Y-1215155D01*
X79587538Y-1215155D02*
X79701823Y-1253250D01*
X79968490Y-1215155D02*
X80158966Y-2015155D01*
X80158966Y-2015155D02*
X80311347Y-1443726D01*
X80311347Y-1443726D02*
X80463728Y-2015155D01*
X80463728Y-2015155D02*
X80654205Y-1215155D01*
X81378014Y-2015155D02*
X80920871Y-2015155D01*
X81149443Y-2015155D02*
X81149443Y-1215155D01*
X81149443Y-1215155D02*
X81073252Y-1329440D01*
X81073252Y-1329440D02*
X80997062Y-1405631D01*
X80997062Y-1405631D02*
X80920871Y-1443726D01*
X82063729Y-1215155D02*
X81911348Y-1215155D01*
X81911348Y-1215155D02*
X81835157Y-1253250D01*
X81835157Y-1253250D02*
X81797062Y-1291345D01*
X81797062Y-1291345D02*
X81720872Y-1405631D01*
X81720872Y-1405631D02*
X81682776Y-1558012D01*
X81682776Y-1558012D02*
X81682776Y-1862774D01*
X81682776Y-1862774D02*
X81720872Y-1938964D01*
X81720872Y-1938964D02*
X81758967Y-1977060D01*
X81758967Y-1977060D02*
X81835157Y-2015155D01*
X81835157Y-2015155D02*
X81987538Y-2015155D01*
X81987538Y-2015155D02*
X82063729Y-1977060D01*
X82063729Y-1977060D02*
X82101824Y-1938964D01*
X82101824Y-1938964D02*
X82139919Y-1862774D01*
X82139919Y-1862774D02*
X82139919Y-1672298D01*
X82139919Y-1672298D02*
X82101824Y-1596107D01*
X82101824Y-1596107D02*
X82063729Y-1558012D01*
X82063729Y-1558012D02*
X81987538Y-1519917D01*
X81987538Y-1519917D02*
X81835157Y-1519917D01*
X81835157Y-1519917D02*
X81758967Y-1558012D01*
X81758967Y-1558012D02*
X81720872Y-1596107D01*
X81720872Y-1596107D02*
X81682776Y-1672298D01*
X79244680Y122940D02*
X79358966Y84844D01*
X79358966Y84844D02*
X79549442Y84844D01*
X79549442Y84844D02*
X79625633Y122940D01*
X79625633Y122940D02*
X79663728Y161035D01*
X79663728Y161035D02*
X79701823Y237225D01*
X79701823Y237225D02*
X79701823Y313416D01*
X79701823Y313416D02*
X79663728Y389606D01*
X79663728Y389606D02*
X79625633Y427701D01*
X79625633Y427701D02*
X79549442Y465797D01*
X79549442Y465797D02*
X79397061Y503892D01*
X79397061Y503892D02*
X79320871Y541987D01*
X79320871Y541987D02*
X79282776Y580082D01*
X79282776Y580082D02*
X79244680Y656273D01*
X79244680Y656273D02*
X79244680Y732463D01*
X79244680Y732463D02*
X79282776Y808654D01*
X79282776Y808654D02*
X79320871Y846749D01*
X79320871Y846749D02*
X79397061Y884844D01*
X79397061Y884844D02*
X79587538Y884844D01*
X79587538Y884844D02*
X79701823Y846749D01*
X79968490Y884844D02*
X80158966Y84844D01*
X80158966Y84844D02*
X80311347Y656273D01*
X80311347Y656273D02*
X80463728Y84844D01*
X80463728Y84844D02*
X80654205Y884844D01*
X81378014Y84844D02*
X80920871Y84844D01*
X81149443Y84844D02*
X81149443Y884844D01*
X81149443Y884844D02*
X81073252Y770559D01*
X81073252Y770559D02*
X80997062Y694368D01*
X80997062Y694368D02*
X80920871Y656273D01*
X82063729Y884844D02*
X81911348Y884844D01*
X81911348Y884844D02*
X81835157Y846749D01*
X81835157Y846749D02*
X81797062Y808654D01*
X81797062Y808654D02*
X81720872Y694368D01*
X81720872Y694368D02*
X81682776Y541987D01*
X81682776Y541987D02*
X81682776Y237225D01*
X81682776Y237225D02*
X81720872Y161035D01*
X81720872Y161035D02*
X81758967Y122940D01*
X81758967Y122940D02*
X81835157Y84844D01*
X81835157Y84844D02*
X81987538Y84844D01*
X81987538Y84844D02*
X82063729Y122940D01*
X82063729Y122940D02*
X82101824Y161035D01*
X82101824Y161035D02*
X82139919Y237225D01*
X82139919Y237225D02*
X82139919Y427701D01*
X82139919Y427701D02*
X82101824Y503892D01*
X82101824Y503892D02*
X82063729Y541987D01*
X82063729Y541987D02*
X81987538Y580082D01*
X81987538Y580082D02*
X81835157Y580082D01*
X81835157Y580082D02*
X81758967Y541987D01*
X81758967Y541987D02*
X81720872Y503892D01*
X81720872Y503892D02*
X81682776Y427701D01*
D12*
X-39746590Y31559089D02*
X-40131150Y31559089D01*
X-40131150Y31559089D02*
X-40131150Y31705588D01*
X-40131150Y31705588D02*
X-40112838Y31742213D01*
X-40112838Y31742213D02*
X-40094525Y31760526D01*
X-40094525Y31760526D02*
X-40057901Y31778838D01*
X-40057901Y31778838D02*
X-40002963Y31778838D01*
X-40002963Y31778838D02*
X-39966339Y31760526D01*
X-39966339Y31760526D02*
X-39948026Y31742213D01*
X-39948026Y31742213D02*
X-39929714Y31705588D01*
X-39929714Y31705588D02*
X-39929714Y31559089D01*
X-39783215Y32163398D02*
X-39764903Y32145086D01*
X-39764903Y32145086D02*
X-39746590Y32090148D01*
X-39746590Y32090148D02*
X-39746590Y32053524D01*
X-39746590Y32053524D02*
X-39764903Y31998587D01*
X-39764903Y31998587D02*
X-39801527Y31961962D01*
X-39801527Y31961962D02*
X-39838152Y31943649D01*
X-39838152Y31943649D02*
X-39911402Y31925337D01*
X-39911402Y31925337D02*
X-39966339Y31925337D01*
X-39966339Y31925337D02*
X-40039588Y31943649D01*
X-40039588Y31943649D02*
X-40076213Y31961962D01*
X-40076213Y31961962D02*
X-40112838Y31998587D01*
X-40112838Y31998587D02*
X-40131150Y32053524D01*
X-40131150Y32053524D02*
X-40131150Y32090148D01*
X-40131150Y32090148D02*
X-40112838Y32145086D01*
X-40112838Y32145086D02*
X-40094525Y32163398D01*
X-39948026Y32456396D02*
X-39929714Y32511333D01*
X-39929714Y32511333D02*
X-39911402Y32529646D01*
X-39911402Y32529646D02*
X-39874777Y32547958D01*
X-39874777Y32547958D02*
X-39819840Y32547958D01*
X-39819840Y32547958D02*
X-39783215Y32529646D01*
X-39783215Y32529646D02*
X-39764903Y32511333D01*
X-39764903Y32511333D02*
X-39746590Y32474708D01*
X-39746590Y32474708D02*
X-39746590Y32328209D01*
X-39746590Y32328209D02*
X-40131150Y32328209D01*
X-40131150Y32328209D02*
X-40131150Y32456396D01*
X-40131150Y32456396D02*
X-40112838Y32493021D01*
X-40112838Y32493021D02*
X-40094525Y32511333D01*
X-40094525Y32511333D02*
X-40057901Y32529646D01*
X-40057901Y32529646D02*
X-40021276Y32529646D01*
X-40021276Y32529646D02*
X-39984651Y32511333D01*
X-39984651Y32511333D02*
X-39966339Y32493021D01*
X-39966339Y32493021D02*
X-39948026Y32456396D01*
X-39948026Y32456396D02*
X-39948026Y32328209D01*
X-39948026Y32822643D02*
X-39948026Y32950830D01*
X-39746590Y33005767D02*
X-39746590Y32822643D01*
X-39746590Y32822643D02*
X-40131150Y32822643D01*
X-40131150Y32822643D02*
X-40131150Y33005767D01*
X-39746590Y33170578D02*
X-40131150Y33170578D01*
X-40131150Y33170578D02*
X-40131150Y33262140D01*
X-40131150Y33262140D02*
X-40112838Y33317077D01*
X-40112838Y33317077D02*
X-40076213Y33353702D01*
X-40076213Y33353702D02*
X-40039588Y33372015D01*
X-40039588Y33372015D02*
X-39966339Y33390327D01*
X-39966339Y33390327D02*
X-39911402Y33390327D01*
X-39911402Y33390327D02*
X-39838152Y33372015D01*
X-39838152Y33372015D02*
X-39801527Y33353702D01*
X-39801527Y33353702D02*
X-39764903Y33317077D01*
X-39764903Y33317077D02*
X-39746590Y33262140D01*
X-39746590Y33262140D02*
X-39746590Y33170578D01*
X-40112838Y33756575D02*
X-40131150Y33719950D01*
X-40131150Y33719950D02*
X-40131150Y33665013D01*
X-40131150Y33665013D02*
X-40112838Y33610076D01*
X-40112838Y33610076D02*
X-40076213Y33573451D01*
X-40076213Y33573451D02*
X-40039588Y33555138D01*
X-40039588Y33555138D02*
X-39966339Y33536826D01*
X-39966339Y33536826D02*
X-39911402Y33536826D01*
X-39911402Y33536826D02*
X-39838152Y33555138D01*
X-39838152Y33555138D02*
X-39801527Y33573451D01*
X-39801527Y33573451D02*
X-39764903Y33610076D01*
X-39764903Y33610076D02*
X-39746590Y33665013D01*
X-39746590Y33665013D02*
X-39746590Y33701637D01*
X-39746590Y33701637D02*
X-39764903Y33756575D01*
X-39764903Y33756575D02*
X-39783215Y33774887D01*
X-39783215Y33774887D02*
X-39911402Y33774887D01*
X-39911402Y33774887D02*
X-39911402Y33701637D01*
X-39948026Y33939698D02*
X-39948026Y34067885D01*
X-39746590Y34122822D02*
X-39746590Y33939698D01*
X-39746590Y33939698D02*
X-40131150Y33939698D01*
X-40131150Y33939698D02*
X-40131150Y34122822D01*
D13*
D14*
X-42636857Y26729065D02*
X-42064229Y26729065D01*
X-42064229Y26729065D02*
X-41949703Y26690890D01*
X-41949703Y26690890D02*
X-41873353Y26614539D01*
X-41873353Y26614539D02*
X-41835177Y26500014D01*
X-41835177Y26500014D02*
X-41835177Y26423663D01*
X-41835177Y27530745D02*
X-41835177Y27072642D01*
X-41835177Y27301694D02*
X-42636857Y27301694D01*
X-42636857Y27301694D02*
X-42522332Y27225343D01*
X-42522332Y27225343D02*
X-42445981Y27148993D01*
X-42445981Y27148993D02*
X-42407806Y27072642D01*
D15*
%TO.C,*%
X-11444199Y34555998D02*
X-11444201Y34837198D01*
X-10424199Y34556002D02*
X-10424201Y34837202D01*
X-1695099Y35819298D02*
X-1695101Y36100498D01*
X-675099Y35819302D02*
X-675101Y36100502D01*
X-7280389Y10400593D02*
X-3280389Y10400607D01*
X-3280389Y10400607D02*
X-3280411Y16200607D01*
X-7228299Y8495898D02*
X-7228301Y8777098D01*
X-6208299Y8495902D02*
X-6208301Y8777102D01*
D16*
X-33931595Y24486103D02*
X-33931605Y27186103D01*
X-35431595Y24486097D02*
X-35431605Y27186097D01*
D15*
X-4386399Y8503298D02*
X-4386401Y8784498D01*
X-3366399Y8503302D02*
X-3366401Y8784502D01*
X-14339901Y30269800D02*
X-14621101Y30269800D01*
X-14339899Y31289800D02*
X-14621099Y31289800D01*
X-12682200Y27688101D02*
X-12682200Y27406901D01*
X-13702200Y27688099D02*
X-13702200Y27406899D01*
X-14023600Y34476600D02*
X-13224400Y34476600D01*
X-14023600Y33356600D02*
X-13224400Y33356600D01*
D16*
X-35431601Y30464699D02*
X-35431599Y27764699D01*
X-33931601Y30464701D02*
X-33931599Y27764701D01*
X-10350900Y32656500D02*
X-10350900Y32081500D01*
X-900Y32656500D02*
X-900Y31981500D01*
X-900Y22306500D02*
X-900Y22981500D01*
X-10350900Y22306500D02*
X-10350900Y22981500D01*
X-10350900Y32656500D02*
X-9675900Y32656500D01*
X-10350900Y22306500D02*
X-9675900Y22306500D01*
X-900Y22306500D02*
X-675900Y22306500D01*
X-900Y32656500D02*
X-675900Y32656500D01*
X-10350900Y32081500D02*
X-11625900Y32081500D01*
D15*
X-8096100Y36007100D02*
X-7814900Y36007100D01*
X-8096100Y34987100D02*
X-7814900Y34987100D01*
X-33815305Y35086596D02*
X-36587905Y35086604D01*
X-33815295Y38506596D02*
X-36587895Y38506604D01*
X-32288800Y27185800D02*
X-31834600Y27185800D01*
X-32288800Y25715800D02*
X-31834600Y25715800D01*
X-39187813Y41695913D02*
X-41537813Y41695904D01*
X-46007813Y41695887D02*
X-43657813Y41695896D01*
X-46007791Y35940287D02*
X-46007813Y41695887D01*
X-39187791Y35940313D02*
X-39187813Y41695913D01*
X-40252187Y34875909D02*
X-41537787Y34875904D01*
X-44943387Y34875891D02*
X-43657787Y34875896D01*
X-44943387Y34875891D02*
X-46007791Y35940287D01*
X-40252187Y34875909D02*
X-39187791Y35940313D01*
X-44445284Y33848393D02*
X-44445287Y34635893D01*
X-44838985Y34242092D02*
X-44051585Y34242095D01*
X1894701Y35692197D02*
X1894699Y36146397D01*
X3364701Y35692203D02*
X3364699Y36146403D01*
X-32288800Y29220900D02*
X-31834600Y29220900D01*
X-32288800Y27750900D02*
X-31834600Y27750900D01*
D17*
X39958500Y-31716200D02*
X39907389Y-32104429D01*
X39907389Y-32104429D02*
X39757538Y-32466200D01*
X39757538Y-32466200D02*
X39519160Y-32776860D01*
X39519160Y-32776860D02*
X39208500Y-33015238D01*
X39208500Y-33015238D02*
X38846729Y-33165089D01*
X38846729Y-33165089D02*
X38458500Y-33216200D01*
X38458500Y-33216200D02*
X38070271Y-33165089D01*
X38070271Y-33165089D02*
X37708500Y-33015238D01*
X37708500Y-33015238D02*
X37397840Y-32776860D01*
X37397840Y-32776860D02*
X37159462Y-32466200D01*
X37159462Y-32466200D02*
X37009611Y-32104429D01*
X37009611Y-32104429D02*
X36958500Y-31716200D01*
X36958500Y-31716200D02*
X37009611Y-31327971D01*
X37009611Y-31327971D02*
X37159462Y-30966200D01*
X37159462Y-30966200D02*
X37397840Y-30655540D01*
X37397840Y-30655540D02*
X37708500Y-30417162D01*
X37708500Y-30417162D02*
X38070271Y-30267311D01*
X38070271Y-30267311D02*
X38458500Y-30216200D01*
X38458500Y-30216200D02*
X38846729Y-30267311D01*
X38846729Y-30267311D02*
X39208500Y-30417162D01*
X39208500Y-30417162D02*
X39519160Y-30655540D01*
X39519160Y-30655540D02*
X39757538Y-30966200D01*
X39757538Y-30966200D02*
X39907389Y-31327971D01*
X39907389Y-31327971D02*
X39958500Y-31716200D01*
X35458500Y-28566200D02*
X41458500Y-28566200D01*
X41458500Y-28566200D02*
X41458500Y-34866200D01*
X41458500Y-34866200D02*
X35458500Y-34866200D01*
X35458500Y-34866200D02*
X35458500Y-28566200D01*
D15*
X41358500Y-28466200D02*
X35558500Y-28466200D01*
X41458500Y-34966200D02*
X35458500Y-34966200D01*
X41558500Y-30416200D02*
X41558500Y-33016200D01*
X35358500Y-30416200D02*
X35358500Y-33016200D01*
D18*
X33408500Y-28316200D02*
X43508500Y-28316200D01*
X43508500Y-28316200D02*
X43508500Y-30416200D01*
X43508500Y-30416200D02*
X41708500Y-30416200D01*
X41708500Y-30416200D02*
X41708500Y-33016200D01*
X41708500Y-33016200D02*
X43508500Y-33016200D01*
X43508500Y-33016200D02*
X43508500Y-35116200D01*
X43508500Y-35116200D02*
X33408500Y-35116200D01*
X33408500Y-35116200D02*
X33408500Y-33016200D01*
X33408500Y-33016200D02*
X35208500Y-33016200D01*
X35208500Y-33016200D02*
X35208500Y-30416200D01*
X35208500Y-30416200D02*
X33408500Y-30416200D01*
X33408500Y-30416200D02*
X33408500Y-28316200D01*
D15*
X33358500Y-28416200D02*
X34358500Y-28416200D01*
X33358500Y-29416200D02*
X33358500Y-28416200D01*
D17*
X12560600Y-36046600D02*
X12509489Y-36434829D01*
X12509489Y-36434829D02*
X12359638Y-36796600D01*
X12359638Y-36796600D02*
X12121260Y-37107260D01*
X12121260Y-37107260D02*
X11810600Y-37345638D01*
X11810600Y-37345638D02*
X11448829Y-37495489D01*
X11448829Y-37495489D02*
X11060600Y-37546600D01*
X11060600Y-37546600D02*
X10672371Y-37495489D01*
X10672371Y-37495489D02*
X10310600Y-37345638D01*
X10310600Y-37345638D02*
X9999940Y-37107260D01*
X9999940Y-37107260D02*
X9761562Y-36796600D01*
X9761562Y-36796600D02*
X9611711Y-36434829D01*
X9611711Y-36434829D02*
X9560600Y-36046600D01*
X9560600Y-36046600D02*
X9611711Y-35658371D01*
X9611711Y-35658371D02*
X9761562Y-35296600D01*
X9761562Y-35296600D02*
X9999940Y-34985940D01*
X9999940Y-34985940D02*
X10310600Y-34747562D01*
X10310600Y-34747562D02*
X10672371Y-34597711D01*
X10672371Y-34597711D02*
X11060600Y-34546600D01*
X11060600Y-34546600D02*
X11448829Y-34597711D01*
X11448829Y-34597711D02*
X11810600Y-34747562D01*
X11810600Y-34747562D02*
X12121260Y-34985940D01*
X12121260Y-34985940D02*
X12359638Y-35296600D01*
X12359638Y-35296600D02*
X12509489Y-35658371D01*
X12509489Y-35658371D02*
X12560600Y-36046600D01*
X8060600Y-32896600D02*
X14060600Y-32896600D01*
X14060600Y-32896600D02*
X14060600Y-39196600D01*
X14060600Y-39196600D02*
X8060600Y-39196600D01*
X8060600Y-39196600D02*
X8060600Y-32896600D01*
D15*
X13960600Y-32796600D02*
X8160600Y-32796600D01*
X14060600Y-39296600D02*
X8060600Y-39296600D01*
X14160600Y-34746600D02*
X14160600Y-37346600D01*
X7960600Y-34746600D02*
X7960600Y-37346600D01*
D18*
X6010600Y-32646600D02*
X16110600Y-32646600D01*
X16110600Y-32646600D02*
X16110600Y-34746600D01*
X16110600Y-34746600D02*
X14310600Y-34746600D01*
X14310600Y-34746600D02*
X14310600Y-37346600D01*
X14310600Y-37346600D02*
X16110600Y-37346600D01*
X16110600Y-37346600D02*
X16110600Y-39446600D01*
X16110600Y-39446600D02*
X6010600Y-39446600D01*
X6010600Y-39446600D02*
X6010600Y-37346600D01*
X6010600Y-37346600D02*
X7810600Y-37346600D01*
X7810600Y-37346600D02*
X7810600Y-34746600D01*
X7810600Y-34746600D02*
X6010600Y-34746600D01*
X6010600Y-34746600D02*
X6010600Y-32646600D01*
D15*
X5960600Y-32746600D02*
X6960600Y-32746600D01*
X5960600Y-33746600D02*
X5960600Y-32746600D01*
D17*
X-1475700Y30408400D02*
X-1526811Y30020171D01*
X-1526811Y30020171D02*
X-1676662Y29658400D01*
X-1676662Y29658400D02*
X-1915040Y29347740D01*
X-1915040Y29347740D02*
X-2225700Y29109362D01*
X-2225700Y29109362D02*
X-2587471Y28959511D01*
X-2587471Y28959511D02*
X-2975700Y28908400D01*
X-2975700Y28908400D02*
X-3363929Y28959511D01*
X-3363929Y28959511D02*
X-3725700Y29109362D01*
X-3725700Y29109362D02*
X-4036360Y29347740D01*
X-4036360Y29347740D02*
X-4274738Y29658400D01*
X-4274738Y29658400D02*
X-4424589Y30020171D01*
X-4424589Y30020171D02*
X-4475700Y30408400D01*
X-4475700Y30408400D02*
X-4424589Y30796629D01*
X-4424589Y30796629D02*
X-4274738Y31158400D01*
X-4274738Y31158400D02*
X-4036360Y31469060D01*
X-4036360Y31469060D02*
X-3725700Y31707438D01*
X-3725700Y31707438D02*
X-3363929Y31857289D01*
X-3363929Y31857289D02*
X-2975700Y31908400D01*
X-2975700Y31908400D02*
X-2587471Y31857289D01*
X-2587471Y31857289D02*
X-2225700Y31707438D01*
X-2225700Y31707438D02*
X-1915040Y31469060D01*
X-1915040Y31469060D02*
X-1676662Y31158400D01*
X-1676662Y31158400D02*
X-1526811Y30796629D01*
X-1526811Y30796629D02*
X-1475700Y30408400D01*
X-5975700Y33558400D02*
X24300Y33558400D01*
X24300Y33558400D02*
X24300Y27258400D01*
X24300Y27258400D02*
X-5975700Y27258400D01*
X-5975700Y27258400D02*
X-5975700Y33558400D01*
D15*
X-75700Y33658400D02*
X-5875700Y33658400D01*
X24300Y27158400D02*
X-5975700Y27158400D01*
X124300Y31708400D02*
X124300Y29108400D01*
X-6075700Y31708400D02*
X-6075700Y29108400D01*
D18*
X-8025700Y33808400D02*
X2074300Y33808400D01*
X2074300Y33808400D02*
X2074300Y31708400D01*
X2074300Y31708400D02*
X274300Y31708400D01*
X274300Y31708400D02*
X274300Y29108400D01*
X274300Y29108400D02*
X2074300Y29108400D01*
X2074300Y29108400D02*
X2074300Y27008400D01*
X2074300Y27008400D02*
X-8025700Y27008400D01*
X-8025700Y27008400D02*
X-8025700Y29108400D01*
X-8025700Y29108400D02*
X-6225700Y29108400D01*
X-6225700Y29108400D02*
X-6225700Y31708400D01*
X-6225700Y31708400D02*
X-8025700Y31708400D01*
X-8025700Y31708400D02*
X-8025700Y33808400D01*
D15*
X-8075700Y33708400D02*
X-7075700Y33708400D01*
X-8075700Y32708400D02*
X-8075700Y33708400D01*
D17*
X47958500Y4386100D02*
X47907389Y3997871D01*
X47907389Y3997871D02*
X47757538Y3636100D01*
X47757538Y3636100D02*
X47519160Y3325440D01*
X47519160Y3325440D02*
X47208500Y3087062D01*
X47208500Y3087062D02*
X46846729Y2937211D01*
X46846729Y2937211D02*
X46458500Y2886100D01*
X46458500Y2886100D02*
X46070271Y2937211D01*
X46070271Y2937211D02*
X45708500Y3087062D01*
X45708500Y3087062D02*
X45397840Y3325440D01*
X45397840Y3325440D02*
X45159462Y3636100D01*
X45159462Y3636100D02*
X45009611Y3997871D01*
X45009611Y3997871D02*
X44958500Y4386100D01*
X44958500Y4386100D02*
X45009611Y4774329D01*
X45009611Y4774329D02*
X45159462Y5136100D01*
X45159462Y5136100D02*
X45397840Y5446760D01*
X45397840Y5446760D02*
X45708500Y5685138D01*
X45708500Y5685138D02*
X46070271Y5834989D01*
X46070271Y5834989D02*
X46458500Y5886100D01*
X46458500Y5886100D02*
X46846729Y5834989D01*
X46846729Y5834989D02*
X47208500Y5685138D01*
X47208500Y5685138D02*
X47519160Y5446760D01*
X47519160Y5446760D02*
X47757538Y5136100D01*
X47757538Y5136100D02*
X47907389Y4774329D01*
X47907389Y4774329D02*
X47958500Y4386100D01*
X43458500Y7536100D02*
X49458500Y7536100D01*
X49458500Y7536100D02*
X49458500Y1236100D01*
X49458500Y1236100D02*
X43458500Y1236100D01*
X43458500Y1236100D02*
X43458500Y7536100D01*
D15*
X49358500Y7636100D02*
X43558500Y7636100D01*
X49458500Y1136100D02*
X43458500Y1136100D01*
X49558500Y5686100D02*
X49558500Y3086100D01*
X43358500Y5686100D02*
X43358500Y3086100D01*
D18*
X41408500Y7786100D02*
X51508500Y7786100D01*
X51508500Y7786100D02*
X51508500Y5686100D01*
X51508500Y5686100D02*
X49708500Y5686100D01*
X49708500Y5686100D02*
X49708500Y3086100D01*
X49708500Y3086100D02*
X51508500Y3086100D01*
X51508500Y3086100D02*
X51508500Y986100D01*
X51508500Y986100D02*
X41408500Y986100D01*
X41408500Y986100D02*
X41408500Y3086100D01*
X41408500Y3086100D02*
X43208500Y3086100D01*
X43208500Y3086100D02*
X43208500Y5686100D01*
X43208500Y5686100D02*
X41408500Y5686100D01*
X41408500Y5686100D02*
X41408500Y7786100D01*
D15*
X41358500Y7686100D02*
X42358500Y7686100D01*
X41358500Y6686100D02*
X41358500Y7686100D01*
D17*
X15566700Y-38194400D02*
X15515589Y-38582629D01*
X15515589Y-38582629D02*
X15365738Y-38944400D01*
X15365738Y-38944400D02*
X15127360Y-39255060D01*
X15127360Y-39255060D02*
X14816700Y-39493438D01*
X14816700Y-39493438D02*
X14454929Y-39643289D01*
X14454929Y-39643289D02*
X14066700Y-39694400D01*
X14066700Y-39694400D02*
X13678471Y-39643289D01*
X13678471Y-39643289D02*
X13316700Y-39493438D01*
X13316700Y-39493438D02*
X13006040Y-39255060D01*
X13006040Y-39255060D02*
X12767662Y-38944400D01*
X12767662Y-38944400D02*
X12617811Y-38582629D01*
X12617811Y-38582629D02*
X12566700Y-38194400D01*
X12566700Y-38194400D02*
X12617811Y-37806171D01*
X12617811Y-37806171D02*
X12767662Y-37444400D01*
X12767662Y-37444400D02*
X13006040Y-37133740D01*
X13006040Y-37133740D02*
X13316700Y-36895362D01*
X13316700Y-36895362D02*
X13678471Y-36745511D01*
X13678471Y-36745511D02*
X14066700Y-36694400D01*
X14066700Y-36694400D02*
X14454929Y-36745511D01*
X14454929Y-36745511D02*
X14816700Y-36895362D01*
X14816700Y-36895362D02*
X15127360Y-37133740D01*
X15127360Y-37133740D02*
X15365738Y-37444400D01*
X15365738Y-37444400D02*
X15515589Y-37806171D01*
X15515589Y-37806171D02*
X15566700Y-38194400D01*
X11066700Y-35044400D02*
X17066700Y-35044400D01*
X17066700Y-35044400D02*
X17066700Y-41344400D01*
X17066700Y-41344400D02*
X11066700Y-41344400D01*
X11066700Y-41344400D02*
X11066700Y-35044400D01*
D15*
X16966700Y-34944400D02*
X11166700Y-34944400D01*
X17066700Y-41444400D02*
X11066700Y-41444400D01*
X17166700Y-36894400D02*
X17166700Y-39494400D01*
X10966700Y-36894400D02*
X10966700Y-39494400D01*
D18*
X9016700Y-34794400D02*
X19116700Y-34794400D01*
X19116700Y-34794400D02*
X19116700Y-36894400D01*
X19116700Y-36894400D02*
X17316700Y-36894400D01*
X17316700Y-36894400D02*
X17316700Y-39494400D01*
X17316700Y-39494400D02*
X19116700Y-39494400D01*
X19116700Y-39494400D02*
X19116700Y-41594400D01*
X19116700Y-41594400D02*
X9016700Y-41594400D01*
X9016700Y-41594400D02*
X9016700Y-39494400D01*
X9016700Y-39494400D02*
X10816700Y-39494400D01*
X10816700Y-39494400D02*
X10816700Y-36894400D01*
X10816700Y-36894400D02*
X9016700Y-36894400D01*
X9016700Y-36894400D02*
X9016700Y-34794400D01*
D15*
X8966700Y-34894400D02*
X9966700Y-34894400D01*
X8966700Y-35894400D02*
X8966700Y-34894400D01*
D17*
X41322500Y-17329400D02*
X41271389Y-17717629D01*
X41271389Y-17717629D02*
X41121538Y-18079400D01*
X41121538Y-18079400D02*
X40883160Y-18390060D01*
X40883160Y-18390060D02*
X40572500Y-18628438D01*
X40572500Y-18628438D02*
X40210729Y-18778289D01*
X40210729Y-18778289D02*
X39822500Y-18829400D01*
X39822500Y-18829400D02*
X39434271Y-18778289D01*
X39434271Y-18778289D02*
X39072500Y-18628438D01*
X39072500Y-18628438D02*
X38761840Y-18390060D01*
X38761840Y-18390060D02*
X38523462Y-18079400D01*
X38523462Y-18079400D02*
X38373611Y-17717629D01*
X38373611Y-17717629D02*
X38322500Y-17329400D01*
X38322500Y-17329400D02*
X38373611Y-16941171D01*
X38373611Y-16941171D02*
X38523462Y-16579400D01*
X38523462Y-16579400D02*
X38761840Y-16268740D01*
X38761840Y-16268740D02*
X39072500Y-16030362D01*
X39072500Y-16030362D02*
X39434271Y-15880511D01*
X39434271Y-15880511D02*
X39822500Y-15829400D01*
X39822500Y-15829400D02*
X40210729Y-15880511D01*
X40210729Y-15880511D02*
X40572500Y-16030362D01*
X40572500Y-16030362D02*
X40883160Y-16268740D01*
X40883160Y-16268740D02*
X41121538Y-16579400D01*
X41121538Y-16579400D02*
X41271389Y-16941171D01*
X41271389Y-16941171D02*
X41322500Y-17329400D01*
X36822500Y-14179400D02*
X42822500Y-14179400D01*
X42822500Y-14179400D02*
X42822500Y-20479400D01*
X42822500Y-20479400D02*
X36822500Y-20479400D01*
X36822500Y-20479400D02*
X36822500Y-14179400D01*
D15*
X42722500Y-14079400D02*
X36922500Y-14079400D01*
X42822500Y-20579400D02*
X36822500Y-20579400D01*
X42922500Y-16029400D02*
X42922500Y-18629400D01*
X36722500Y-16029400D02*
X36722500Y-18629400D01*
D18*
X34772500Y-13929400D02*
X44872500Y-13929400D01*
X44872500Y-13929400D02*
X44872500Y-16029400D01*
X44872500Y-16029400D02*
X43072500Y-16029400D01*
X43072500Y-16029400D02*
X43072500Y-18629400D01*
X43072500Y-18629400D02*
X44872500Y-18629400D01*
X44872500Y-18629400D02*
X44872500Y-20729400D01*
X44872500Y-20729400D02*
X34772500Y-20729400D01*
X34772500Y-20729400D02*
X34772500Y-18629400D01*
X34772500Y-18629400D02*
X36572500Y-18629400D01*
X36572500Y-18629400D02*
X36572500Y-16029400D01*
X36572500Y-16029400D02*
X34772500Y-16029400D01*
X34772500Y-16029400D02*
X34772500Y-13929400D01*
D15*
X34722500Y-14029400D02*
X35722500Y-14029400D01*
X34722500Y-15029400D02*
X34722500Y-14029400D01*
D17*
X97590100Y-30844700D02*
X97538989Y-31232929D01*
X97538989Y-31232929D02*
X97389138Y-31594700D01*
X97389138Y-31594700D02*
X97150760Y-31905360D01*
X97150760Y-31905360D02*
X96840100Y-32143738D01*
X96840100Y-32143738D02*
X96478329Y-32293589D01*
X96478329Y-32293589D02*
X96090100Y-32344700D01*
X96090100Y-32344700D02*
X95701871Y-32293589D01*
X95701871Y-32293589D02*
X95340100Y-32143738D01*
X95340100Y-32143738D02*
X95029440Y-31905360D01*
X95029440Y-31905360D02*
X94791062Y-31594700D01*
X94791062Y-31594700D02*
X94641211Y-31232929D01*
X94641211Y-31232929D02*
X94590100Y-30844700D01*
X94590100Y-30844700D02*
X94641211Y-30456471D01*
X94641211Y-30456471D02*
X94791062Y-30094700D01*
X94791062Y-30094700D02*
X95029440Y-29784040D01*
X95029440Y-29784040D02*
X95340100Y-29545662D01*
X95340100Y-29545662D02*
X95701871Y-29395811D01*
X95701871Y-29395811D02*
X96090100Y-29344700D01*
X96090100Y-29344700D02*
X96478329Y-29395811D01*
X96478329Y-29395811D02*
X96840100Y-29545662D01*
X96840100Y-29545662D02*
X97150760Y-29784040D01*
X97150760Y-29784040D02*
X97389138Y-30094700D01*
X97389138Y-30094700D02*
X97538989Y-30456471D01*
X97538989Y-30456471D02*
X97590100Y-30844700D01*
X93090100Y-27694700D02*
X99090100Y-27694700D01*
X99090100Y-27694700D02*
X99090100Y-33994700D01*
X99090100Y-33994700D02*
X93090100Y-33994700D01*
X93090100Y-33994700D02*
X93090100Y-27694700D01*
D15*
X98990100Y-27594700D02*
X93190100Y-27594700D01*
X99090100Y-34094700D02*
X93090100Y-34094700D01*
X99190100Y-29544700D02*
X99190100Y-32144700D01*
X92990100Y-29544700D02*
X92990100Y-32144700D01*
D18*
X91040100Y-27444700D02*
X101140100Y-27444700D01*
X101140100Y-27444700D02*
X101140100Y-29544700D01*
X101140100Y-29544700D02*
X99340100Y-29544700D01*
X99340100Y-29544700D02*
X99340100Y-32144700D01*
X99340100Y-32144700D02*
X101140100Y-32144700D01*
X101140100Y-32144700D02*
X101140100Y-34244700D01*
X101140100Y-34244700D02*
X91040100Y-34244700D01*
X91040100Y-34244700D02*
X91040100Y-32144700D01*
X91040100Y-32144700D02*
X92840100Y-32144700D01*
X92840100Y-32144700D02*
X92840100Y-29544700D01*
X92840100Y-29544700D02*
X91040100Y-29544700D01*
X91040100Y-29544700D02*
X91040100Y-27444700D01*
D15*
X90990100Y-27544700D02*
X91990100Y-27544700D01*
X90990100Y-28544700D02*
X90990100Y-27544700D01*
D17*
X55958500Y-2930200D02*
X55907389Y-3318429D01*
X55907389Y-3318429D02*
X55757538Y-3680200D01*
X55757538Y-3680200D02*
X55519160Y-3990860D01*
X55519160Y-3990860D02*
X55208500Y-4229238D01*
X55208500Y-4229238D02*
X54846729Y-4379089D01*
X54846729Y-4379089D02*
X54458500Y-4430200D01*
X54458500Y-4430200D02*
X54070271Y-4379089D01*
X54070271Y-4379089D02*
X53708500Y-4229238D01*
X53708500Y-4229238D02*
X53397840Y-3990860D01*
X53397840Y-3990860D02*
X53159462Y-3680200D01*
X53159462Y-3680200D02*
X53009611Y-3318429D01*
X53009611Y-3318429D02*
X52958500Y-2930200D01*
X52958500Y-2930200D02*
X53009611Y-2541971D01*
X53009611Y-2541971D02*
X53159462Y-2180200D01*
X53159462Y-2180200D02*
X53397840Y-1869540D01*
X53397840Y-1869540D02*
X53708500Y-1631162D01*
X53708500Y-1631162D02*
X54070271Y-1481311D01*
X54070271Y-1481311D02*
X54458500Y-1430200D01*
X54458500Y-1430200D02*
X54846729Y-1481311D01*
X54846729Y-1481311D02*
X55208500Y-1631162D01*
X55208500Y-1631162D02*
X55519160Y-1869540D01*
X55519160Y-1869540D02*
X55757538Y-2180200D01*
X55757538Y-2180200D02*
X55907389Y-2541971D01*
X55907389Y-2541971D02*
X55958500Y-2930200D01*
X51458500Y219800D02*
X57458500Y219800D01*
X57458500Y219800D02*
X57458500Y-6080200D01*
X57458500Y-6080200D02*
X51458500Y-6080200D01*
X51458500Y-6080200D02*
X51458500Y219800D01*
D15*
X57358500Y319800D02*
X51558500Y319800D01*
X57458500Y-6180200D02*
X51458500Y-6180200D01*
X57558500Y-1630200D02*
X57558500Y-4230200D01*
X51358500Y-1630200D02*
X51358500Y-4230200D01*
D18*
X49408500Y469800D02*
X59508500Y469800D01*
X59508500Y469800D02*
X59508500Y-1630200D01*
X59508500Y-1630200D02*
X57708500Y-1630200D01*
X57708500Y-1630200D02*
X57708500Y-4230200D01*
X57708500Y-4230200D02*
X59508500Y-4230200D01*
X59508500Y-4230200D02*
X59508500Y-6330200D01*
X59508500Y-6330200D02*
X49408500Y-6330200D01*
X49408500Y-6330200D02*
X49408500Y-4230200D01*
X49408500Y-4230200D02*
X51208500Y-4230200D01*
X51208500Y-4230200D02*
X51208500Y-1630200D01*
X51208500Y-1630200D02*
X49408500Y-1630200D01*
X49408500Y-1630200D02*
X49408500Y469800D01*
D15*
X49358500Y369800D02*
X50358500Y369800D01*
X49358500Y-630200D02*
X49358500Y369800D01*
D17*
X64486500Y-25684400D02*
X64435389Y-26072629D01*
X64435389Y-26072629D02*
X64285538Y-26434400D01*
X64285538Y-26434400D02*
X64047160Y-26745060D01*
X64047160Y-26745060D02*
X63736500Y-26983438D01*
X63736500Y-26983438D02*
X63374729Y-27133289D01*
X63374729Y-27133289D02*
X62986500Y-27184400D01*
X62986500Y-27184400D02*
X62598271Y-27133289D01*
X62598271Y-27133289D02*
X62236500Y-26983438D01*
X62236500Y-26983438D02*
X61925840Y-26745060D01*
X61925840Y-26745060D02*
X61687462Y-26434400D01*
X61687462Y-26434400D02*
X61537611Y-26072629D01*
X61537611Y-26072629D02*
X61486500Y-25684400D01*
X61486500Y-25684400D02*
X61537611Y-25296171D01*
X61537611Y-25296171D02*
X61687462Y-24934400D01*
X61687462Y-24934400D02*
X61925840Y-24623740D01*
X61925840Y-24623740D02*
X62236500Y-24385362D01*
X62236500Y-24385362D02*
X62598271Y-24235511D01*
X62598271Y-24235511D02*
X62986500Y-24184400D01*
X62986500Y-24184400D02*
X63374729Y-24235511D01*
X63374729Y-24235511D02*
X63736500Y-24385362D01*
X63736500Y-24385362D02*
X64047160Y-24623740D01*
X64047160Y-24623740D02*
X64285538Y-24934400D01*
X64285538Y-24934400D02*
X64435389Y-25296171D01*
X64435389Y-25296171D02*
X64486500Y-25684400D01*
X59986500Y-22534400D02*
X65986500Y-22534400D01*
X65986500Y-22534400D02*
X65986500Y-28834400D01*
X65986500Y-28834400D02*
X59986500Y-28834400D01*
X59986500Y-28834400D02*
X59986500Y-22534400D01*
D15*
X65886500Y-22434400D02*
X60086500Y-22434400D01*
X65986500Y-28934400D02*
X59986500Y-28934400D01*
X66086500Y-24384400D02*
X66086500Y-26984400D01*
X59886500Y-24384400D02*
X59886500Y-26984400D01*
D18*
X57936500Y-22284400D02*
X68036500Y-22284400D01*
X68036500Y-22284400D02*
X68036500Y-24384400D01*
X68036500Y-24384400D02*
X66236500Y-24384400D01*
X66236500Y-24384400D02*
X66236500Y-26984400D01*
X66236500Y-26984400D02*
X68036500Y-26984400D01*
X68036500Y-26984400D02*
X68036500Y-29084400D01*
X68036500Y-29084400D02*
X57936500Y-29084400D01*
X57936500Y-29084400D02*
X57936500Y-26984400D01*
X57936500Y-26984400D02*
X59736500Y-26984400D01*
X59736500Y-26984400D02*
X59736500Y-24384400D01*
X59736500Y-24384400D02*
X57936500Y-24384400D01*
X57936500Y-24384400D02*
X57936500Y-22284400D01*
D15*
X57886500Y-22384400D02*
X58886500Y-22384400D01*
X57886500Y-23384400D02*
X57886500Y-22384400D01*
D17*
X65677400Y-31299200D02*
X65626289Y-31687429D01*
X65626289Y-31687429D02*
X65476438Y-32049200D01*
X65476438Y-32049200D02*
X65238060Y-32359860D01*
X65238060Y-32359860D02*
X64927400Y-32598238D01*
X64927400Y-32598238D02*
X64565629Y-32748089D01*
X64565629Y-32748089D02*
X64177400Y-32799200D01*
X64177400Y-32799200D02*
X63789171Y-32748089D01*
X63789171Y-32748089D02*
X63427400Y-32598238D01*
X63427400Y-32598238D02*
X63116740Y-32359860D01*
X63116740Y-32359860D02*
X62878362Y-32049200D01*
X62878362Y-32049200D02*
X62728511Y-31687429D01*
X62728511Y-31687429D02*
X62677400Y-31299200D01*
X62677400Y-31299200D02*
X62728511Y-30910971D01*
X62728511Y-30910971D02*
X62878362Y-30549200D01*
X62878362Y-30549200D02*
X63116740Y-30238540D01*
X63116740Y-30238540D02*
X63427400Y-30000162D01*
X63427400Y-30000162D02*
X63789171Y-29850311D01*
X63789171Y-29850311D02*
X64177400Y-29799200D01*
X64177400Y-29799200D02*
X64565629Y-29850311D01*
X64565629Y-29850311D02*
X64927400Y-30000162D01*
X64927400Y-30000162D02*
X65238060Y-30238540D01*
X65238060Y-30238540D02*
X65476438Y-30549200D01*
X65476438Y-30549200D02*
X65626289Y-30910971D01*
X65626289Y-30910971D02*
X65677400Y-31299200D01*
X61177400Y-28149200D02*
X67177400Y-28149200D01*
X67177400Y-28149200D02*
X67177400Y-34449200D01*
X67177400Y-34449200D02*
X61177400Y-34449200D01*
X61177400Y-34449200D02*
X61177400Y-28149200D01*
D15*
X67077400Y-28049200D02*
X61277400Y-28049200D01*
X67177400Y-34549200D02*
X61177400Y-34549200D01*
X67277400Y-29999200D02*
X67277400Y-32599200D01*
X61077400Y-29999200D02*
X61077400Y-32599200D01*
D18*
X59127400Y-27899200D02*
X69227400Y-27899200D01*
X69227400Y-27899200D02*
X69227400Y-29999200D01*
X69227400Y-29999200D02*
X67427400Y-29999200D01*
X67427400Y-29999200D02*
X67427400Y-32599200D01*
X67427400Y-32599200D02*
X69227400Y-32599200D01*
X69227400Y-32599200D02*
X69227400Y-34699200D01*
X69227400Y-34699200D02*
X59127400Y-34699200D01*
X59127400Y-34699200D02*
X59127400Y-32599200D01*
X59127400Y-32599200D02*
X60927400Y-32599200D01*
X60927400Y-32599200D02*
X60927400Y-29999200D01*
X60927400Y-29999200D02*
X59127400Y-29999200D01*
X59127400Y-29999200D02*
X59127400Y-27899200D01*
D15*
X59077400Y-27999200D02*
X60077400Y-27999200D01*
X59077400Y-28999200D02*
X59077400Y-27999200D01*
D17*
X74192300Y-25179500D02*
X74141189Y-25567729D01*
X74141189Y-25567729D02*
X73991338Y-25929500D01*
X73991338Y-25929500D02*
X73752960Y-26240160D01*
X73752960Y-26240160D02*
X73442300Y-26478538D01*
X73442300Y-26478538D02*
X73080529Y-26628389D01*
X73080529Y-26628389D02*
X72692300Y-26679500D01*
X72692300Y-26679500D02*
X72304071Y-26628389D01*
X72304071Y-26628389D02*
X71942300Y-26478538D01*
X71942300Y-26478538D02*
X71631640Y-26240160D01*
X71631640Y-26240160D02*
X71393262Y-25929500D01*
X71393262Y-25929500D02*
X71243411Y-25567729D01*
X71243411Y-25567729D02*
X71192300Y-25179500D01*
X71192300Y-25179500D02*
X71243411Y-24791271D01*
X71243411Y-24791271D02*
X71393262Y-24429500D01*
X71393262Y-24429500D02*
X71631640Y-24118840D01*
X71631640Y-24118840D02*
X71942300Y-23880462D01*
X71942300Y-23880462D02*
X72304071Y-23730611D01*
X72304071Y-23730611D02*
X72692300Y-23679500D01*
X72692300Y-23679500D02*
X73080529Y-23730611D01*
X73080529Y-23730611D02*
X73442300Y-23880462D01*
X73442300Y-23880462D02*
X73752960Y-24118840D01*
X73752960Y-24118840D02*
X73991338Y-24429500D01*
X73991338Y-24429500D02*
X74141189Y-24791271D01*
X74141189Y-24791271D02*
X74192300Y-25179500D01*
X69692300Y-22029500D02*
X75692300Y-22029500D01*
X75692300Y-22029500D02*
X75692300Y-28329500D01*
X75692300Y-28329500D02*
X69692300Y-28329500D01*
X69692300Y-28329500D02*
X69692300Y-22029500D01*
D15*
X75592300Y-21929500D02*
X69792300Y-21929500D01*
X75692300Y-28429500D02*
X69692300Y-28429500D01*
X75792300Y-23879500D02*
X75792300Y-26479500D01*
X69592300Y-23879500D02*
X69592300Y-26479500D01*
D18*
X67642300Y-21779500D02*
X77742300Y-21779500D01*
X77742300Y-21779500D02*
X77742300Y-23879500D01*
X77742300Y-23879500D02*
X75942300Y-23879500D01*
X75942300Y-23879500D02*
X75942300Y-26479500D01*
X75942300Y-26479500D02*
X77742300Y-26479500D01*
X77742300Y-26479500D02*
X77742300Y-28579500D01*
X77742300Y-28579500D02*
X67642300Y-28579500D01*
X67642300Y-28579500D02*
X67642300Y-26479500D01*
X67642300Y-26479500D02*
X69442300Y-26479500D01*
X69442300Y-26479500D02*
X69442300Y-23879500D01*
X69442300Y-23879500D02*
X67642300Y-23879500D01*
X67642300Y-23879500D02*
X67642300Y-21779500D01*
D15*
X67592300Y-21879500D02*
X68592300Y-21879500D01*
X67592300Y-22879500D02*
X67592300Y-21879500D01*
D17*
X54018400Y-29466200D02*
X53967289Y-29854429D01*
X53967289Y-29854429D02*
X53817438Y-30216200D01*
X53817438Y-30216200D02*
X53579060Y-30526860D01*
X53579060Y-30526860D02*
X53268400Y-30765238D01*
X53268400Y-30765238D02*
X52906629Y-30915089D01*
X52906629Y-30915089D02*
X52518400Y-30966200D01*
X52518400Y-30966200D02*
X52130171Y-30915089D01*
X52130171Y-30915089D02*
X51768400Y-30765238D01*
X51768400Y-30765238D02*
X51457740Y-30526860D01*
X51457740Y-30526860D02*
X51219362Y-30216200D01*
X51219362Y-30216200D02*
X51069511Y-29854429D01*
X51069511Y-29854429D02*
X51018400Y-29466200D01*
X51018400Y-29466200D02*
X51069511Y-29077971D01*
X51069511Y-29077971D02*
X51219362Y-28716200D01*
X51219362Y-28716200D02*
X51457740Y-28405540D01*
X51457740Y-28405540D02*
X51768400Y-28167162D01*
X51768400Y-28167162D02*
X52130171Y-28017311D01*
X52130171Y-28017311D02*
X52518400Y-27966200D01*
X52518400Y-27966200D02*
X52906629Y-28017311D01*
X52906629Y-28017311D02*
X53268400Y-28167162D01*
X53268400Y-28167162D02*
X53579060Y-28405540D01*
X53579060Y-28405540D02*
X53817438Y-28716200D01*
X53817438Y-28716200D02*
X53967289Y-29077971D01*
X53967289Y-29077971D02*
X54018400Y-29466200D01*
X49518400Y-26316200D02*
X55518400Y-26316200D01*
X55518400Y-26316200D02*
X55518400Y-32616200D01*
X55518400Y-32616200D02*
X49518400Y-32616200D01*
X49518400Y-32616200D02*
X49518400Y-26316200D01*
D15*
X55418400Y-26216200D02*
X49618400Y-26216200D01*
X55518400Y-32716200D02*
X49518400Y-32716200D01*
X55618400Y-28166200D02*
X55618400Y-30766200D01*
X49418400Y-28166200D02*
X49418400Y-30766200D01*
D18*
X47468400Y-26066200D02*
X57568400Y-26066200D01*
X57568400Y-26066200D02*
X57568400Y-28166200D01*
X57568400Y-28166200D02*
X55768400Y-28166200D01*
X55768400Y-28166200D02*
X55768400Y-30766200D01*
X55768400Y-30766200D02*
X57568400Y-30766200D01*
X57568400Y-30766200D02*
X57568400Y-32866200D01*
X57568400Y-32866200D02*
X47468400Y-32866200D01*
X47468400Y-32866200D02*
X47468400Y-30766200D01*
X47468400Y-30766200D02*
X49268400Y-30766200D01*
X49268400Y-30766200D02*
X49268400Y-28166200D01*
X49268400Y-28166200D02*
X47468400Y-28166200D01*
X47468400Y-28166200D02*
X47468400Y-26066200D01*
D15*
X47418400Y-26166200D02*
X48418400Y-26166200D01*
X47418400Y-27166200D02*
X47418400Y-26166200D01*
D17*
X37063100Y-5499000D02*
X37011989Y-5887229D01*
X37011989Y-5887229D02*
X36862138Y-6249000D01*
X36862138Y-6249000D02*
X36623760Y-6559660D01*
X36623760Y-6559660D02*
X36313100Y-6798038D01*
X36313100Y-6798038D02*
X35951329Y-6947889D01*
X35951329Y-6947889D02*
X35563100Y-6999000D01*
X35563100Y-6999000D02*
X35174871Y-6947889D01*
X35174871Y-6947889D02*
X34813100Y-6798038D01*
X34813100Y-6798038D02*
X34502440Y-6559660D01*
X34502440Y-6559660D02*
X34264062Y-6249000D01*
X34264062Y-6249000D02*
X34114211Y-5887229D01*
X34114211Y-5887229D02*
X34063100Y-5499000D01*
X34063100Y-5499000D02*
X34114211Y-5110771D01*
X34114211Y-5110771D02*
X34264062Y-4749000D01*
X34264062Y-4749000D02*
X34502440Y-4438340D01*
X34502440Y-4438340D02*
X34813100Y-4199962D01*
X34813100Y-4199962D02*
X35174871Y-4050111D01*
X35174871Y-4050111D02*
X35563100Y-3999000D01*
X35563100Y-3999000D02*
X35951329Y-4050111D01*
X35951329Y-4050111D02*
X36313100Y-4199962D01*
X36313100Y-4199962D02*
X36623760Y-4438340D01*
X36623760Y-4438340D02*
X36862138Y-4749000D01*
X36862138Y-4749000D02*
X37011989Y-5110771D01*
X37011989Y-5110771D02*
X37063100Y-5499000D01*
X32563100Y-2349000D02*
X38563100Y-2349000D01*
X38563100Y-2349000D02*
X38563100Y-8649000D01*
X38563100Y-8649000D02*
X32563100Y-8649000D01*
X32563100Y-8649000D02*
X32563100Y-2349000D01*
D15*
X38463100Y-2249000D02*
X32663100Y-2249000D01*
X38563100Y-8749000D02*
X32563100Y-8749000D01*
X38663100Y-4199000D02*
X38663100Y-6799000D01*
X32463100Y-4199000D02*
X32463100Y-6799000D01*
D18*
X30513100Y-2099000D02*
X40613100Y-2099000D01*
X40613100Y-2099000D02*
X40613100Y-4199000D01*
X40613100Y-4199000D02*
X38813100Y-4199000D01*
X38813100Y-4199000D02*
X38813100Y-6799000D01*
X38813100Y-6799000D02*
X40613100Y-6799000D01*
X40613100Y-6799000D02*
X40613100Y-8899000D01*
X40613100Y-8899000D02*
X30513100Y-8899000D01*
X30513100Y-8899000D02*
X30513100Y-6799000D01*
X30513100Y-6799000D02*
X32313100Y-6799000D01*
X32313100Y-6799000D02*
X32313100Y-4199000D01*
X32313100Y-4199000D02*
X30513100Y-4199000D01*
X30513100Y-4199000D02*
X30513100Y-2099000D01*
D15*
X30463100Y-2199000D02*
X31463100Y-2199000D01*
X30463100Y-3199000D02*
X30463100Y-2199000D01*
D17*
X109537200Y-23133200D02*
X109486089Y-23521429D01*
X109486089Y-23521429D02*
X109336238Y-23883200D01*
X109336238Y-23883200D02*
X109097860Y-24193860D01*
X109097860Y-24193860D02*
X108787200Y-24432238D01*
X108787200Y-24432238D02*
X108425429Y-24582089D01*
X108425429Y-24582089D02*
X108037200Y-24633200D01*
X108037200Y-24633200D02*
X107648971Y-24582089D01*
X107648971Y-24582089D02*
X107287200Y-24432238D01*
X107287200Y-24432238D02*
X106976540Y-24193860D01*
X106976540Y-24193860D02*
X106738162Y-23883200D01*
X106738162Y-23883200D02*
X106588311Y-23521429D01*
X106588311Y-23521429D02*
X106537200Y-23133200D01*
X106537200Y-23133200D02*
X106588311Y-22744971D01*
X106588311Y-22744971D02*
X106738162Y-22383200D01*
X106738162Y-22383200D02*
X106976540Y-22072540D01*
X106976540Y-22072540D02*
X107287200Y-21834162D01*
X107287200Y-21834162D02*
X107648971Y-21684311D01*
X107648971Y-21684311D02*
X108037200Y-21633200D01*
X108037200Y-21633200D02*
X108425429Y-21684311D01*
X108425429Y-21684311D02*
X108787200Y-21834162D01*
X108787200Y-21834162D02*
X109097860Y-22072540D01*
X109097860Y-22072540D02*
X109336238Y-22383200D01*
X109336238Y-22383200D02*
X109486089Y-22744971D01*
X109486089Y-22744971D02*
X109537200Y-23133200D01*
X105037200Y-19983200D02*
X111037200Y-19983200D01*
X111037200Y-19983200D02*
X111037200Y-26283200D01*
X111037200Y-26283200D02*
X105037200Y-26283200D01*
X105037200Y-26283200D02*
X105037200Y-19983200D01*
D15*
X110937200Y-19883200D02*
X105137200Y-19883200D01*
X111037200Y-26383200D02*
X105037200Y-26383200D01*
X111137200Y-21833200D02*
X111137200Y-24433200D01*
X104937200Y-21833200D02*
X104937200Y-24433200D01*
D18*
X102987200Y-19733200D02*
X113087200Y-19733200D01*
X113087200Y-19733200D02*
X113087200Y-21833200D01*
X113087200Y-21833200D02*
X111287200Y-21833200D01*
X111287200Y-21833200D02*
X111287200Y-24433200D01*
X111287200Y-24433200D02*
X113087200Y-24433200D01*
X113087200Y-24433200D02*
X113087200Y-26533200D01*
X113087200Y-26533200D02*
X102987200Y-26533200D01*
X102987200Y-26533200D02*
X102987200Y-24433200D01*
X102987200Y-24433200D02*
X104787200Y-24433200D01*
X104787200Y-24433200D02*
X104787200Y-21833200D01*
X104787200Y-21833200D02*
X102987200Y-21833200D01*
X102987200Y-21833200D02*
X102987200Y-19733200D01*
D15*
X102937200Y-19833200D02*
X103937200Y-19833200D01*
X102937200Y-20833200D02*
X102937200Y-19833200D01*
D17*
X51905600Y-14524900D02*
X51854489Y-14913129D01*
X51854489Y-14913129D02*
X51704638Y-15274900D01*
X51704638Y-15274900D02*
X51466260Y-15585560D01*
X51466260Y-15585560D02*
X51155600Y-15823938D01*
X51155600Y-15823938D02*
X50793829Y-15973789D01*
X50793829Y-15973789D02*
X50405600Y-16024900D01*
X50405600Y-16024900D02*
X50017371Y-15973789D01*
X50017371Y-15973789D02*
X49655600Y-15823938D01*
X49655600Y-15823938D02*
X49344940Y-15585560D01*
X49344940Y-15585560D02*
X49106562Y-15274900D01*
X49106562Y-15274900D02*
X48956711Y-14913129D01*
X48956711Y-14913129D02*
X48905600Y-14524900D01*
X48905600Y-14524900D02*
X48956711Y-14136671D01*
X48956711Y-14136671D02*
X49106562Y-13774900D01*
X49106562Y-13774900D02*
X49344940Y-13464240D01*
X49344940Y-13464240D02*
X49655600Y-13225862D01*
X49655600Y-13225862D02*
X50017371Y-13076011D01*
X50017371Y-13076011D02*
X50405600Y-13024900D01*
X50405600Y-13024900D02*
X50793829Y-13076011D01*
X50793829Y-13076011D02*
X51155600Y-13225862D01*
X51155600Y-13225862D02*
X51466260Y-13464240D01*
X51466260Y-13464240D02*
X51704638Y-13774900D01*
X51704638Y-13774900D02*
X51854489Y-14136671D01*
X51854489Y-14136671D02*
X51905600Y-14524900D01*
X47405600Y-11374900D02*
X53405600Y-11374900D01*
X53405600Y-11374900D02*
X53405600Y-17674900D01*
X53405600Y-17674900D02*
X47405600Y-17674900D01*
X47405600Y-17674900D02*
X47405600Y-11374900D01*
D15*
X53305600Y-11274900D02*
X47505600Y-11274900D01*
X53405600Y-17774900D02*
X47405600Y-17774900D01*
X53505600Y-13224900D02*
X53505600Y-15824900D01*
X47305600Y-13224900D02*
X47305600Y-15824900D01*
D18*
X45355600Y-11124900D02*
X55455600Y-11124900D01*
X55455600Y-11124900D02*
X55455600Y-13224900D01*
X55455600Y-13224900D02*
X53655600Y-13224900D01*
X53655600Y-13224900D02*
X53655600Y-15824900D01*
X53655600Y-15824900D02*
X55455600Y-15824900D01*
X55455600Y-15824900D02*
X55455600Y-17924900D01*
X55455600Y-17924900D02*
X45355600Y-17924900D01*
X45355600Y-17924900D02*
X45355600Y-15824900D01*
X45355600Y-15824900D02*
X47155600Y-15824900D01*
X47155600Y-15824900D02*
X47155600Y-13224900D01*
X47155600Y-13224900D02*
X45355600Y-13224900D01*
X45355600Y-13224900D02*
X45355600Y-11124900D01*
D15*
X45305600Y-11224900D02*
X46305600Y-11224900D01*
X45305600Y-12224900D02*
X45305600Y-11224900D01*
D17*
X82192300Y-3850000D02*
X82141189Y-4238229D01*
X82141189Y-4238229D02*
X81991338Y-4600000D01*
X81991338Y-4600000D02*
X81752960Y-4910660D01*
X81752960Y-4910660D02*
X81442300Y-5149038D01*
X81442300Y-5149038D02*
X81080529Y-5298889D01*
X81080529Y-5298889D02*
X80692300Y-5350000D01*
X80692300Y-5350000D02*
X80304071Y-5298889D01*
X80304071Y-5298889D02*
X79942300Y-5149038D01*
X79942300Y-5149038D02*
X79631640Y-4910660D01*
X79631640Y-4910660D02*
X79393262Y-4600000D01*
X79393262Y-4600000D02*
X79243411Y-4238229D01*
X79243411Y-4238229D02*
X79192300Y-3850000D01*
X79192300Y-3850000D02*
X79243411Y-3461771D01*
X79243411Y-3461771D02*
X79393262Y-3100000D01*
X79393262Y-3100000D02*
X79631640Y-2789340D01*
X79631640Y-2789340D02*
X79942300Y-2550962D01*
X79942300Y-2550962D02*
X80304071Y-2401111D01*
X80304071Y-2401111D02*
X80692300Y-2350000D01*
X80692300Y-2350000D02*
X81080529Y-2401111D01*
X81080529Y-2401111D02*
X81442300Y-2550962D01*
X81442300Y-2550962D02*
X81752960Y-2789340D01*
X81752960Y-2789340D02*
X81991338Y-3100000D01*
X81991338Y-3100000D02*
X82141189Y-3461771D01*
X82141189Y-3461771D02*
X82192300Y-3850000D01*
X77692300Y-700000D02*
X83692300Y-700000D01*
X83692300Y-700000D02*
X83692300Y-7000000D01*
X83692300Y-7000000D02*
X77692300Y-7000000D01*
X77692300Y-7000000D02*
X77692300Y-700000D01*
D15*
X83592300Y-600000D02*
X77792300Y-600000D01*
X83692300Y-7100000D02*
X77692300Y-7100000D01*
X83792300Y-2550000D02*
X83792300Y-5150000D01*
X77592300Y-2550000D02*
X77592300Y-5150000D01*
D18*
X75642300Y-450000D02*
X85742300Y-450000D01*
X85742300Y-450000D02*
X85742300Y-2550000D01*
X85742300Y-2550000D02*
X83942300Y-2550000D01*
X83942300Y-2550000D02*
X83942300Y-5150000D01*
X83942300Y-5150000D02*
X85742300Y-5150000D01*
X85742300Y-5150000D02*
X85742300Y-7250000D01*
X85742300Y-7250000D02*
X75642300Y-7250000D01*
X75642300Y-7250000D02*
X75642300Y-5150000D01*
X75642300Y-5150000D02*
X77442300Y-5150000D01*
X77442300Y-5150000D02*
X77442300Y-2550000D01*
X77442300Y-2550000D02*
X75642300Y-2550000D01*
X75642300Y-2550000D02*
X75642300Y-450000D01*
D15*
X75592300Y-550000D02*
X76592300Y-550000D01*
X75592300Y-1550000D02*
X75592300Y-550000D01*
D19*
X-40882089Y23972996D02*
X-39922089Y23973000D01*
X-39922089Y23973000D02*
X-39922080Y21623000D01*
X-39922120Y32423000D02*
X-39922111Y30073000D01*
X-39922111Y30073000D02*
X-40882111Y30072996D01*
X-40882111Y30072996D02*
X-40882089Y23972996D01*
X-43222120Y32422988D02*
X-43222115Y31147988D01*
X-43222115Y31147988D02*
X-49922115Y31147963D01*
X-49922115Y31147963D02*
X-49922085Y22897963D01*
X-49922085Y22897963D02*
X-43222085Y22897988D01*
X-43222085Y22897988D02*
X-43222080Y21622988D01*
X-43222080Y21622988D02*
X-39922080Y21623000D01*
X-43222120Y32422988D02*
X-39922120Y32423000D01*
D20*
X-39022090Y24423003D02*
X-38996209Y24419596D01*
X-38996209Y24419596D02*
X-38972090Y24409606D01*
X-38972090Y24409606D02*
X-38951380Y24393714D01*
X-38951380Y24393714D02*
X-38935488Y24373004D01*
X-38935488Y24373004D02*
X-38925498Y24348886D01*
X-38925498Y24348886D02*
X-38922090Y24323004D01*
X-38922090Y24323004D02*
X-38925497Y24297122D01*
X-38925497Y24297122D02*
X-38935487Y24273004D01*
X-38935487Y24273004D02*
X-38951379Y24252293D01*
X-38951379Y24252293D02*
X-38972090Y24236401D01*
X-38972090Y24236401D02*
X-38996208Y24226411D01*
X-38996208Y24226411D02*
X-39022090Y24223003D01*
X-39022090Y24223003D02*
X-39047972Y24226411D01*
X-39047972Y24226411D02*
X-39072090Y24236401D01*
X-39072090Y24236401D02*
X-39092801Y24252292D01*
X-39092801Y24252292D02*
X-39108692Y24273003D01*
X-39108692Y24273003D02*
X-39118683Y24297121D01*
X-39118683Y24297121D02*
X-39122090Y24323003D01*
X-39122090Y24323003D02*
X-39118683Y24348885D01*
X-39118683Y24348885D02*
X-39108693Y24373003D01*
X-39108693Y24373003D02*
X-39092801Y24393714D01*
X-39092801Y24393714D02*
X-39072090Y24409606D01*
X-39072090Y24409606D02*
X-39047972Y24419596D01*
X-39047972Y24419596D02*
X-39022090Y24423003D01*
D18*
X-41122085Y22922996D02*
X-41122115Y31122996D01*
X-41122115Y31122996D02*
X-38222115Y31123006D01*
X-38222115Y31123006D02*
X-38222085Y22923006D01*
X-38222085Y22923006D02*
X-41122085Y22922996D01*
D21*
X-39922075Y20323000D02*
X-39922089Y23973000D01*
X-39922089Y23973000D02*
X-40882089Y23972996D01*
X-40882089Y23972996D02*
X-40882111Y30072996D01*
X-40882111Y30072996D02*
X-39922111Y30073000D01*
X-39922111Y30073000D02*
X-39922124Y33623000D01*
D18*
X-41122085Y22922996D02*
X-38222085Y22923006D01*
X-38222085Y22923006D02*
X-38222115Y31123006D01*
X-38222115Y31123006D02*
X-41122115Y31122996D01*
X-41122115Y31122996D02*
X-41122085Y22922996D01*
D19*
X-39922088Y23773000D02*
X-39922080Y21623000D01*
X-39922120Y32423000D02*
X-39922112Y30273000D01*
X-40882111Y30072996D02*
X-40882089Y23972996D01*
X-43222120Y32422988D02*
X-43222115Y31147988D01*
X-43222115Y31147988D02*
X-49922115Y31147963D01*
X-49922115Y31147963D02*
X-49922085Y22897963D01*
X-49922085Y22897963D02*
X-43222085Y22897988D01*
X-43222085Y22897988D02*
X-43222080Y21622988D01*
X-43222080Y21622988D02*
X-39922080Y21623000D01*
X-43222120Y32422988D02*
X-39922120Y32423000D01*
%TD*%
M02*
