%TF.GenerationSoftware,Flux,Pcbnew,7.0.11-7.0.11~ubuntu20.04.1*%
%TF.CreationDate,2024-08-18T14:12:48+00:00*%
%TF.ProjectId,input,696e7075-742e-46b6-9963-61645f706362,rev?*%
%TF.SameCoordinates,Original*%
%TF.FileFunction,Paste,Top*%
%TF.FilePolarity,Positive*%
%FSLAX46Y46*%
G04 Gerber Fmt 4.6, Leading zero omitted, Abs format (unit mm)*
G04 Filename: promicromacro*
G04 Build it with Flux! Visit our site at: https://www.flux.ai (PCBNEW 7.0.11-7.0.11~ubuntu20.04.1) date 2024-08-18 14:12:48*
%MOMM*%
%LPD*%
G01*
G04 APERTURE LIST*
G04 Aperture macros list*
%AMFreePoly0*
4,1,101,0.383457,0.474848,0.388093,0.474391,0.392690,0.473632,0.397228,0.472574,0.401686,0.471221,0.406047,0.469580,0.410291,0.467657,0.414400,0.465461,0.418357,0.463001,0.422144,0.460287,0.425745,0.457331,0.429146,0.454146,0.432331,0.450745,0.435287,0.447144,0.438001,0.443357,0.440461,0.439400,0.442657,0.435291,0.444580,0.431047,0.446221,0.426686,0.447574,0.422228,
0.448632,0.417690,0.449391,0.413093,0.449848,0.408457,0.450000,0.403800,0.450000,-0.403800,0.449848,-0.408457,0.449391,-0.413093,0.448632,-0.417690,0.447574,-0.422228,0.446221,-0.426686,0.444580,-0.431047,0.442657,-0.435291,0.440461,-0.439400,0.438001,-0.443357,0.435287,-0.447144,0.432331,-0.450745,0.429146,-0.454146,0.425745,-0.457331,0.422144,-0.460287,0.418357,-0.463001,
0.414400,-0.465461,0.410291,-0.467657,0.406047,-0.469580,0.401686,-0.471221,0.397228,-0.472574,0.392690,-0.473632,0.388093,-0.474391,0.383457,-0.474848,0.378800,-0.475000,-0.378800,-0.475000,-0.383457,-0.474848,-0.388093,-0.474391,-0.392690,-0.473632,-0.397228,-0.472574,-0.401686,-0.471221,-0.406047,-0.469580,-0.410291,-0.467657,-0.414400,-0.465461,-0.418357,-0.463001,-0.422144,-0.460287,
-0.425745,-0.457331,-0.429146,-0.454146,-0.432331,-0.450745,-0.435287,-0.447144,-0.438001,-0.443357,-0.440461,-0.439400,-0.442657,-0.435291,-0.444580,-0.431047,-0.446221,-0.426686,-0.447574,-0.422228,-0.448632,-0.417690,-0.449391,-0.413093,-0.449848,-0.408457,-0.450000,-0.403800,-0.450000,0.403800,-0.449848,0.408457,-0.449391,0.413093,-0.448632,0.417690,-0.447574,0.422228,-0.446221,0.426686,
-0.444580,0.431047,-0.442657,0.435291,-0.440461,0.439400,-0.438001,0.443357,-0.435287,0.447144,-0.432331,0.450745,-0.429146,0.454146,-0.425745,0.457331,-0.422144,0.460287,-0.418357,0.463001,-0.414400,0.465461,-0.410291,0.467657,-0.406047,0.469580,-0.401686,0.471221,-0.397228,0.472574,-0.392690,0.473632,-0.388093,0.474391,-0.383457,0.474848,-0.378800,0.475000,0.378800,0.475000,
0.383457,0.474848,0.383457,0.474848,$1*%
%AMFreePoly1*
4,1,5,0.800000,-0.650000,-0.800000,-0.650000,-0.800000,0.650000,0.800000,0.650000,0.800000,-0.650000,0.800000,-0.650000,$1*%
%AMFreePoly2*
4,1,5,0.300000,-0.450000,-0.300000,-0.450000,-0.300000,0.450000,0.300000,0.450000,0.300000,-0.450000,0.300000,-0.450000,$1*%
%AMFreePoly3*
4,1,101,0.353386,0.599807,0.359247,0.599230,0.365058,0.598271,0.370794,0.596933,0.376430,0.595224,0.381942,0.593149,0.387306,0.590719,0.392500,0.587942,0.397501,0.584832,0.402289,0.581402,0.406841,0.577666,0.411140,0.573640,0.415166,0.569341,0.418902,0.564789,0.422332,0.560001,0.425442,0.555000,0.428219,0.549806,0.430649,0.544442,0.432724,0.538930,0.434433,0.533294,
0.435771,0.527558,0.436730,0.521747,0.437307,0.515886,0.437500,0.510000,0.437500,-0.510000,0.437307,-0.515886,0.436730,-0.521747,0.435771,-0.527558,0.434433,-0.533294,0.432724,-0.538930,0.430649,-0.544442,0.428219,-0.549806,0.425442,-0.555000,0.422332,-0.560001,0.418902,-0.564789,0.415166,-0.569341,0.411140,-0.573640,0.406841,-0.577666,0.402289,-0.581402,0.397501,-0.584832,
0.392500,-0.587942,0.387306,-0.590719,0.381942,-0.593149,0.376430,-0.595224,0.370794,-0.596933,0.365058,-0.598271,0.359247,-0.599230,0.353386,-0.599807,0.347500,-0.600000,-0.347500,-0.600000,-0.353386,-0.599807,-0.359247,-0.599230,-0.365058,-0.598271,-0.370794,-0.596933,-0.376430,-0.595224,-0.381942,-0.593149,-0.387306,-0.590719,-0.392500,-0.587942,-0.397501,-0.584832,-0.402289,-0.581402,
-0.406841,-0.577666,-0.411140,-0.573640,-0.415166,-0.569341,-0.418902,-0.564789,-0.422332,-0.560001,-0.425442,-0.555000,-0.428219,-0.549806,-0.430649,-0.544442,-0.432724,-0.538930,-0.434433,-0.533294,-0.435771,-0.527558,-0.436730,-0.521747,-0.437307,-0.515886,-0.437500,-0.510000,-0.437500,0.510000,-0.437307,0.515886,-0.436730,0.521747,-0.435771,0.527558,-0.434433,0.533294,-0.432724,0.538930,
-0.430649,0.544442,-0.428219,0.549806,-0.425442,0.555000,-0.422332,0.560001,-0.418902,0.564789,-0.415166,0.569341,-0.411140,0.573640,-0.406841,0.577666,-0.402289,0.581402,-0.397501,0.584832,-0.392500,0.587942,-0.387306,0.590719,-0.381942,0.593149,-0.376430,0.595224,-0.370794,0.596933,-0.365058,0.598271,-0.359247,0.599230,-0.353386,0.599807,-0.347500,0.600000,0.347500,0.600000,
0.353386,0.599807,0.353386,0.599807,$1*%
%AMFreePoly4*
4,1,5,0.750000,-0.275000,-0.750000,-0.275000,-0.750000,0.275000,0.750000,0.275000,0.750000,-0.275000,0.750000,-0.275000,$1*%
%AMFreePoly5*
4,1,101,0.324178,1.699454,0.340784,1.697818,0.357248,1.695100,0.373499,1.691311,0.389467,1.686467,0.405084,1.680589,0.420284,1.673703,0.435000,1.665836,0.449170,1.657025,0.462734,1.647305,0.475633,1.636719,0.487812,1.625312,0.499219,1.613133,0.509805,1.600234,0.519525,1.586670,0.528336,1.572500,0.536203,1.557784,0.543089,1.542584,0.548967,1.526967,0.553811,1.510999,
0.557600,1.494748,0.560318,1.478284,0.561954,1.461678,0.562500,1.445000,0.562500,-1.445000,0.561954,-1.461678,0.560318,-1.478284,0.557600,-1.494748,0.553811,-1.510999,0.548967,-1.526967,0.543089,-1.542584,0.536203,-1.557784,0.528336,-1.572500,0.519525,-1.586670,0.509805,-1.600234,0.499219,-1.613133,0.487812,-1.625312,0.475633,-1.636719,0.462734,-1.647305,0.449170,-1.657025,
0.435000,-1.665836,0.420284,-1.673703,0.405084,-1.680589,0.389467,-1.686467,0.373499,-1.691311,0.357248,-1.695100,0.340784,-1.697818,0.324178,-1.699454,0.307500,-1.700000,-0.307500,-1.700000,-0.324178,-1.699454,-0.340784,-1.697818,-0.357248,-1.695100,-0.373499,-1.691311,-0.389467,-1.686467,-0.405084,-1.680589,-0.420284,-1.673703,-0.435000,-1.665836,-0.449170,-1.657025,-0.462734,-1.647305,
-0.475633,-1.636719,-0.487812,-1.625312,-0.499219,-1.613133,-0.509805,-1.600234,-0.519525,-1.586670,-0.528336,-1.572500,-0.536203,-1.557784,-0.543089,-1.542584,-0.548967,-1.526967,-0.553811,-1.510999,-0.557600,-1.494748,-0.560318,-1.478284,-0.561954,-1.461678,-0.562500,-1.445000,-0.562500,1.445000,-0.561954,1.461678,-0.560318,1.478284,-0.557600,1.494748,-0.553811,1.510999,-0.548967,1.526967,
-0.543089,1.542584,-0.536203,1.557784,-0.528336,1.572500,-0.519525,1.586670,-0.509805,1.600234,-0.499219,1.613133,-0.487812,1.625312,-0.475633,1.636719,-0.462734,1.647305,-0.449170,1.657025,-0.435000,1.665836,-0.420284,1.673703,-0.405084,1.680589,-0.389467,1.686467,-0.373499,1.691311,-0.357248,1.695100,-0.340784,1.697818,-0.324178,1.699454,-0.307500,1.700000,0.307500,1.700000,
0.324178,1.699454,0.324178,1.699454,$1*%
%AMFreePoly6*
4,1,101,0.414367,0.699775,0.421205,0.699102,0.427984,0.697982,0.434676,0.696422,0.441251,0.694428,0.447682,0.692007,0.453940,0.689172,0.460000,0.685933,0.465835,0.682304,0.471420,0.678302,0.476731,0.673943,0.481746,0.669246,0.486443,0.664231,0.490802,0.658920,0.494804,0.653335,0.498433,0.647500,0.501672,0.641440,0.504507,0.635182,0.506928,0.628751,0.508922,0.622176,
0.510482,0.615484,0.511602,0.608705,0.512275,0.601867,0.512500,0.595000,0.512500,-0.595000,0.512275,-0.601867,0.511602,-0.608705,0.510482,-0.615484,0.508922,-0.622176,0.506928,-0.628751,0.504507,-0.635182,0.501672,-0.641440,0.498433,-0.647500,0.494804,-0.653335,0.490802,-0.658920,0.486443,-0.664231,0.481746,-0.669246,0.476731,-0.673943,0.471420,-0.678302,0.465835,-0.682304,
0.460000,-0.685933,0.453940,-0.689172,0.447682,-0.692007,0.441251,-0.694428,0.434676,-0.696422,0.427984,-0.697982,0.421205,-0.699102,0.414367,-0.699775,0.407500,-0.700000,-0.407500,-0.700000,-0.414367,-0.699775,-0.421205,-0.699102,-0.427984,-0.697982,-0.434676,-0.696422,-0.441251,-0.694428,-0.447682,-0.692007,-0.453940,-0.689172,-0.460000,-0.685933,-0.465835,-0.682304,-0.471420,-0.678302,
-0.476731,-0.673943,-0.481746,-0.669246,-0.486443,-0.664231,-0.490802,-0.658920,-0.494804,-0.653335,-0.498433,-0.647500,-0.501672,-0.641440,-0.504507,-0.635182,-0.506928,-0.628751,-0.508922,-0.622176,-0.510482,-0.615484,-0.511602,-0.608705,-0.512275,-0.601867,-0.512500,-0.595000,-0.512500,0.595000,-0.512275,0.601867,-0.511602,0.608705,-0.510482,0.615484,-0.508922,0.622176,-0.506928,0.628751,
-0.504507,0.635182,-0.501672,0.641440,-0.498433,0.647500,-0.494804,0.653335,-0.490802,0.658920,-0.486443,0.664231,-0.481746,0.669246,-0.476731,0.673943,-0.471420,0.678302,-0.465835,0.682304,-0.460000,0.685933,-0.453940,0.689172,-0.447682,0.692007,-0.441251,0.694428,-0.434676,0.696422,-0.427984,0.697982,-0.421205,0.699102,-0.414367,0.699775,-0.407500,0.700000,0.407500,0.700000,
0.414367,0.699775,0.414367,0.699775,$1*%
%AMFreePoly7*
4,1,101,1.504668,0.799438,1.521763,0.797754,1.538711,0.794956,1.555440,0.791056,1.571878,0.786069,1.587954,0.780018,1.603601,0.772929,1.618750,0.764832,1.633337,0.755761,1.647300,0.745755,1.660578,0.734858,1.673116,0.723116,1.684858,0.710578,1.695755,0.697300,1.705761,0.683337,1.714832,0.668750,1.722929,0.653601,1.730018,0.637954,1.736069,0.621878,1.741056,0.605440,
1.744956,0.588711,1.747754,0.571763,1.749438,0.554668,1.750000,0.537500,1.750000,-0.537500,1.749438,-0.554668,1.747754,-0.571763,1.744956,-0.588711,1.741056,-0.605440,1.736069,-0.621878,1.730018,-0.637954,1.722929,-0.653601,1.714832,-0.668750,1.705761,-0.683337,1.695755,-0.697300,1.684858,-0.710578,1.673116,-0.723116,1.660578,-0.734858,1.647300,-0.745755,1.633337,-0.755761,
1.618750,-0.764832,1.603601,-0.772929,1.587954,-0.780018,1.571878,-0.786069,1.555440,-0.791056,1.538711,-0.794956,1.521763,-0.797754,1.504668,-0.799438,1.487500,-0.800000,-1.487500,-0.800000,-1.504668,-0.799438,-1.521763,-0.797754,-1.538711,-0.794956,-1.555440,-0.791056,-1.571878,-0.786069,-1.587954,-0.780018,-1.603601,-0.772929,-1.618750,-0.764832,-1.633337,-0.755761,-1.647300,-0.745755,
-1.660578,-0.734858,-1.673116,-0.723116,-1.684858,-0.710578,-1.695755,-0.697300,-1.705761,-0.683337,-1.714832,-0.668750,-1.722929,-0.653601,-1.730018,-0.637954,-1.736069,-0.621878,-1.741056,-0.605440,-1.744956,-0.588711,-1.747754,-0.571763,-1.749438,-0.554668,-1.750000,-0.537500,-1.750000,0.537500,-1.749438,0.554668,-1.747754,0.571763,-1.744956,0.588711,-1.741056,0.605440,-1.736069,0.621878,
-1.730018,0.637954,-1.722929,0.653601,-1.714832,0.668750,-1.705761,0.683337,-1.695755,0.697300,-1.684858,0.710578,-1.673116,0.723116,-1.660578,0.734858,-1.647300,0.745755,-1.633337,0.755761,-1.618750,0.764832,-1.603601,0.772929,-1.587954,0.780018,-1.571878,0.786069,-1.555440,0.791056,-1.538711,0.794956,-1.521763,0.797754,-1.504668,0.799438,-1.487500,0.800000,1.487500,0.800000,
1.504668,0.799438,1.504668,0.799438,$1*%
%AMFreePoly8*
4,1,5,0.800000,-0.700000,-0.800000,-0.700000,-0.800000,0.700000,0.800000,0.700000,0.800000,-0.700000,0.800000,-0.700000,$1*%
%AMFreePoly9*
4,1,5,0.500000,-0.190000,-0.500000,-0.190000,-0.500000,0.190000,0.500000,0.190000,0.500000,-0.190000,0.500000,-0.190000,$1*%
%AMFreePoly10*
4,1,5,0.575000,-0.350000,-0.575000,-0.350000,-0.575000,0.350000,0.575000,0.350000,0.575000,-0.350000,0.575000,-0.350000,$1*%
G04 Aperture macros list end*
%ADD10FreePoly0,90.000000*%
%ADD11FreePoly1,90.000000*%
%ADD12FreePoly2,90.000000*%
%ADD13FreePoly0,180.000000*%
%ADD14FreePoly0,270.000000*%
%ADD15FreePoly3,0.000000*%
%ADD16FreePoly2,270.000000*%
%ADD17FreePoly4,90.000000*%
%ADD18FreePoly4,0.000000*%
%ADD19FreePoly0,0.000000*%
%ADD20FreePoly5,180.000000*%
%ADD21FreePoly6,0.000000*%
%ADD22FreePoly7,90.000000*%
%ADD23FreePoly6,90.000000*%
%ADD24FreePoly8,180.000000*%
%ADD25FreePoly9,0.000000*%
%ADD26FreePoly10,180.000000*%
G04 APERTURE END LIST*
D10*
%TO.C,*%
X-10934197Y33921600D03*
X-10934203Y35471600D03*
X-1185097Y35184900D03*
X-1185103Y36734900D03*
D11*
X-6430393Y11400596D03*
X-4130393Y11400604D03*
X-6430407Y15200596D03*
X-4130407Y15200604D03*
D10*
X-6718297Y7861500D03*
X-6718303Y9411500D03*
D12*
X-34681597Y25086100D03*
X-34681603Y26586100D03*
D10*
X-3876397Y7868900D03*
X-3876403Y9418900D03*
D13*
X-13705500Y30779798D03*
X-15255500Y30779802D03*
D14*
X-13192201Y28322500D03*
X-13192199Y26772500D03*
D15*
X-12561500Y33916600D03*
X-14686500Y33916600D03*
D16*
X-34681601Y29864700D03*
X-34681599Y28364700D03*
D17*
X-3575900Y33181500D03*
X-9175900Y33181500D03*
D18*
X-10875900Y26681500D03*
D17*
X-6775900Y21781500D03*
D18*
X-10875900Y25881500D03*
D17*
X-1175900Y21781500D03*
X-8375900Y33181500D03*
D18*
X-10875900Y24281500D03*
D17*
X-5975900Y33181500D03*
D18*
X-10875900Y28281500D03*
X524100Y23481500D03*
X-10875900Y29881500D03*
X524100Y31481500D03*
X-10875900Y27481500D03*
X524100Y28281500D03*
X524100Y27481500D03*
D17*
X-2775900Y21781500D03*
X-5175900Y21781500D03*
D18*
X-10875900Y23481500D03*
D17*
X-7575900Y21781500D03*
D18*
X524100Y30681500D03*
D17*
X-8375900Y21781500D03*
X-3575900Y21781500D03*
X-1175900Y33181500D03*
D18*
X-10875900Y31481500D03*
X524100Y26681500D03*
X-10875900Y25081500D03*
X524100Y25081500D03*
D17*
X-2775900Y33181500D03*
X-6775900Y33181500D03*
D18*
X-10875900Y29081500D03*
D17*
X-5975900Y21781500D03*
X-4375900Y33181500D03*
X-5175900Y33181500D03*
D18*
X524100Y29081500D03*
X524100Y29881500D03*
D17*
X-7575900Y33181500D03*
D18*
X524100Y24281500D03*
D17*
X-1975900Y21781500D03*
D18*
X-10875900Y30681500D03*
X524100Y25881500D03*
D17*
X-4375900Y21781500D03*
X-9175900Y21781500D03*
X-1975900Y33181500D03*
D19*
X-8730500Y35497100D03*
X-7180500Y35497100D03*
D20*
X-37339100Y36796606D03*
X-33064100Y36796594D03*
D21*
X-32974200Y26450800D03*
X-31149200Y26450800D03*
D22*
X-42597790Y35585900D03*
X-42597810Y40985900D03*
D23*
X2629703Y35006800D03*
X2629697Y36831800D03*
D21*
X-32974200Y28485900D03*
X-31149200Y28485900D03*
D24*
X34458500Y-29466200D03*
X34458500Y-33966200D03*
X42458500Y-33966200D03*
X42458500Y-29466200D03*
X7060600Y-33796600D03*
X7060600Y-38296600D03*
X15060600Y-38296600D03*
X15060600Y-33796600D03*
X-6975700Y32658400D03*
X-6975700Y28158400D03*
X1024300Y28158400D03*
X1024300Y32658400D03*
X42458500Y6636100D03*
X42458500Y2136100D03*
X50458500Y2136100D03*
X50458500Y6636100D03*
X10066700Y-35944400D03*
X10066700Y-40444400D03*
X18066700Y-40444400D03*
X18066700Y-35944400D03*
X35822500Y-15079400D03*
X35822500Y-19579400D03*
X43822500Y-19579400D03*
X43822500Y-15079400D03*
X92090100Y-28594700D03*
X92090100Y-33094700D03*
X100090100Y-33094700D03*
X100090100Y-28594700D03*
X50458500Y-680200D03*
X50458500Y-5180200D03*
X58458500Y-5180200D03*
X58458500Y-680200D03*
X58986500Y-23434400D03*
X58986500Y-27934400D03*
X66986500Y-27934400D03*
X66986500Y-23434400D03*
X60177400Y-29049200D03*
X60177400Y-33549200D03*
X68177400Y-33549200D03*
X68177400Y-29049200D03*
X68692300Y-22929500D03*
X68692300Y-27429500D03*
X76692300Y-27429500D03*
X76692300Y-22929500D03*
X48518400Y-27216200D03*
X48518400Y-31716200D03*
X56518400Y-31716200D03*
X56518400Y-27216200D03*
X31563100Y-3249000D03*
X31563100Y-7749000D03*
X39563100Y-7749000D03*
X39563100Y-3249000D03*
X104037200Y-20883200D03*
X104037200Y-25383200D03*
X112037200Y-25383200D03*
X112037200Y-20883200D03*
X46405600Y-12274900D03*
X46405600Y-16774900D03*
X54405600Y-16774900D03*
X54405600Y-12274900D03*
X76692300Y-1600000D03*
X76692300Y-6100000D03*
X84692300Y-6100000D03*
X84692300Y-1600000D03*
D25*
X-39922094Y25273000D03*
X-39922108Y29273000D03*
X-39922099Y26773000D03*
X-39922090Y24273000D03*
D26*
X-39042087Y23603003D03*
D25*
X-39922101Y27273000D03*
X-39922097Y26273000D03*
X-39922105Y28273000D03*
X-39922092Y24773000D03*
X-39922097Y26273000D03*
D26*
X-39042113Y30443003D03*
D25*
X-39922094Y25273000D03*
X-39922092Y24773000D03*
X-39922110Y29773000D03*
X-39922105Y28273000D03*
X-39922090Y24273000D03*
X-39922106Y28773000D03*
X-39922103Y27773000D03*
X-39922095Y25773000D03*
X-39922108Y29273000D03*
X-39922103Y27773000D03*
X-39922110Y29773000D03*
X-39922106Y28773000D03*
X-39922095Y25773000D03*
%TD*%
M02*
