%TF.GenerationSoftware,Flux,Pcbnew,7.0.11-7.0.11~ubuntu20.04.1*%
%TF.CreationDate,2024-08-18T14:12:47+00:00*%
%TF.ProjectId,input,696e7075-742e-46b6-9963-61645f706362,rev?*%
%TF.SameCoordinates,Original*%
%TF.FileFunction,Copper,L4,Bot*%
%TF.FilePolarity,Positive*%
%FSLAX46Y46*%
G04 Gerber Fmt 4.6, Leading zero omitted, Abs format (unit mm)*
G04 Filename: promicromacro*
G04 Build it with Flux! Visit our site at: https://www.flux.ai (PCBNEW 7.0.11-7.0.11~ubuntu20.04.1) date 2024-08-18 14:12:47*
%MOMM*%
%LPD*%
G01*
G04 APERTURE LIST*
G04 Aperture macros list*
%AMFreePoly0*
4,1,129,0.022069,0.299187,0.036723,0.297744,0.051289,0.295583,0.065730,0.292711,0.080014,0.289133,0.094105,0.284858,0.107969,0.279898,0.121572,0.274263,0.134883,0.267967,0.147869,0.261026,0.160499,0.253456,0.172742,0.245275,0.184569,0.236504,0.195952,0.227163,0.206862,0.217274,0.217274,0.206862,0.227163,0.195952,0.236504,0.184569,0.245275,0.172742,0.253456,0.160499,
0.261026,0.147869,0.267967,0.134883,0.274263,0.121572,0.279898,0.107969,0.284858,0.094105,0.289133,0.080014,0.292711,0.065730,0.295583,0.051289,0.297744,0.036723,0.299187,0.022069,0.299910,0.007362,0.299910,-0.007362,0.299187,-0.022069,0.297744,-0.036723,0.295583,-0.051289,0.292711,-0.065730,0.289133,-0.080014,0.284858,-0.094105,0.279898,-0.107969,0.274263,-0.121572,
0.267967,-0.134883,0.261026,-0.147869,0.253456,-0.160499,0.245275,-0.172742,0.236504,-0.184569,0.227163,-0.195952,0.217274,-0.206862,0.206862,-0.217274,0.195952,-0.227163,0.184569,-0.236504,0.172742,-0.245275,0.160499,-0.253456,0.147869,-0.261026,0.134883,-0.267967,0.121572,-0.274263,0.107969,-0.279898,0.094105,-0.284858,0.080014,-0.289133,0.065730,-0.292711,0.051289,-0.295583,
0.036723,-0.297744,0.022069,-0.299187,0.007362,-0.299910,-0.007362,-0.299910,-0.022069,-0.299187,-0.036723,-0.297744,-0.051289,-0.295583,-0.065730,-0.292711,-0.080014,-0.289133,-0.094105,-0.284858,-0.107969,-0.279898,-0.121572,-0.274263,-0.134883,-0.267967,-0.147869,-0.261026,-0.160499,-0.253456,-0.172742,-0.245275,-0.184569,-0.236504,-0.195952,-0.227163,-0.206862,-0.217274,-0.217274,-0.206862,
-0.227163,-0.195952,-0.236504,-0.184569,-0.245275,-0.172742,-0.253456,-0.160499,-0.261026,-0.147869,-0.267967,-0.134883,-0.274263,-0.121572,-0.279898,-0.107969,-0.284858,-0.094105,-0.289133,-0.080014,-0.292711,-0.065730,-0.295583,-0.051289,-0.297744,-0.036723,-0.299187,-0.022069,-0.299910,-0.007362,-0.299910,0.007362,-0.299187,0.022069,-0.297744,0.036723,-0.295583,0.051289,-0.292711,0.065730,
-0.289133,0.080014,-0.284858,0.094105,-0.279898,0.107969,-0.274263,0.121572,-0.267967,0.134883,-0.261026,0.147869,-0.253456,0.160499,-0.245275,0.172742,-0.236504,0.184569,-0.227163,0.195952,-0.217274,0.206862,-0.206862,0.217274,-0.195952,0.227163,-0.184569,0.236504,-0.172742,0.245275,-0.160499,0.253456,-0.147869,0.261026,-0.134883,0.267967,-0.121572,0.274263,-0.107969,0.279898,
-0.094105,0.284858,-0.080014,0.289133,-0.065730,0.292711,-0.051289,0.295583,-0.036723,0.297744,-0.022069,0.299187,-0.007362,0.299910,0.007362,0.299910,0.022069,0.299187,0.022069,0.299187,$1*%
G04 Aperture macros list end*
%TA.AperFunction,ComponentPad*%
%ADD10FreePoly0,0.000000*%
%TD*%
%TA.AperFunction,Conductor*%
%ADD11C,0.457200*%
%TD*%
G04 APERTURE END LIST*
D10*
%TO.P,,0f410e7d-8d1a-4f1e-8163-3286d56a7807*%
%TO.N,GND*%
X-3889200Y6665100D03*
%TO.P,,34337ed8-1a4a-497d-88f4-9516de8f5bc8*%
X-1978200Y31782200D03*
%TO.P,,6691f15e-d77e-4378-9ba9-1749e3d90a51*%
X-8372600Y31767500D03*
%TO.P,,6a9dda81-0acd-429d-b592-541bcbba2cb3*%
X-16478500Y30792400D03*
%TO.P,,6aa7ca2f-915a-459e-9d05-ce4ce0dee03c*%
X-6414000Y23501600D03*
%TO.P,,753094f1-716a-4680-b0e1-1e4680e9357a*%
X-2417900Y15187100D03*
%TO.P,,7dd2ff7c-0ba0-4fac-84cd-873cc4617e23*%
X-9916500Y36548700D03*
%TO.P,,8f4e0356-726f-4b86-823c-5452651b166c*%
X-7973800Y11389900D03*
%TO.P,,99a14131-90e0-435b-ab04-f2b001ea9add*%
X-99900Y36752500D03*
%TO.P,,b0a4e06e-8cc8-460c-b691-7de931bf1751*%
X-6722600Y6636100D03*
%TO.P,,bc72b63b-023b-4f80-8e66-3b69a2da3a16*%
X1817800Y22632200D03*
%TO.P,,ce0b7865-72fb-487f-94bc-c1eae4215a5d*%
X-42610100Y43553800D03*
%TO.P,,d47c19f8-7bda-4e92-b177-6880aeea379c*%
X4174700Y36828400D03*
%TO.P,,ebe7e70a-2e7a-42d4-afbc-db40465a94c6*%
X-14416300Y28223700D03*
%TO.P,,f79001d2-bd3a-4d6e-8fe0-6aaf9cb4efca*%
X-35908700Y29924600D03*
%TO.P,,fe34aa3f-623a-4728-bf05-442330e3a04c*%
X-35945700Y25121600D03*
%TO.P,,ab5125e15f6be815fb94e1ece841a0e8.via8.10*%
X7735000Y-3812000D03*
%TO.P,,ab5125e15f6be815fb94e1ece841a0e8.via8.9*%
X1961500Y-3812000D03*
%TO.P,,ab5125e15f6be815fb94e1ece841a0e8.via8.8*%
X-3812000Y-3812000D03*
%TO.P,,ab5125e15f6be815fb94e1ece841a0e8.via8.7*%
X-9585500Y-3812000D03*
%TO.P,,ab5125e15f6be815fb94e1ece841a0e8.via8.5*%
X-21132500Y-3812000D03*
%TO.P,,ab5125e15f6be815fb94e1ece841a0e8.via8.4*%
X-26906000Y-3812000D03*
%TO.P,,ab5125e15f6be815fb94e1ece841a0e8.via8.3*%
X-32679500Y-3812000D03*
%TO.P,,ab5125e15f6be815fb94e1ece841a0e8.via8.2*%
X-38453000Y-3812000D03*
%TO.P,,ab5125e15f6be815fb94e1ece841a0e8.via7.6*%
X-15359000Y-9585500D03*
%TO.P,,ab5125e15f6be815fb94e1ece841a0e8.via7.5*%
X-21132500Y-9585500D03*
%TO.P,,ab5125e15f6be815fb94e1ece841a0e8.via7.4*%
X-26906000Y-9585500D03*
%TO.P,,ab5125e15f6be815fb94e1ece841a0e8.via6.10*%
X7735000Y-15359000D03*
%TO.P,,ab5125e15f6be815fb94e1ece841a0e8.via6.4*%
X-26906000Y-15359000D03*
%TO.P,,ab5125e15f6be815fb94e1ece841a0e8.via5.10*%
X7735000Y-21132500D03*
%TO.P,,ab5125e15f6be815fb94e1ece841a0e8.via5.6*%
X-15359000Y-21132500D03*
%TO.P,,ab5125e15f6be815fb94e1ece841a0e8.via5.5*%
X-21132500Y-21132500D03*
%TO.P,,ab5125e15f6be815fb94e1ece841a0e8.via5.4*%
X-26906000Y-21132500D03*
%TO.P,,ab5125e15f6be815fb94e1ece841a0e8.via4.9*%
X1961500Y-26906000D03*
%TO.P,,ab5125e15f6be815fb94e1ece841a0e8.via4.6*%
X-15359000Y-26906000D03*
%TO.P,,ab5125e15f6be815fb94e1ece841a0e8.via4.5*%
X-21132500Y-26906000D03*
%TO.P,,ab5125e15f6be815fb94e1ece841a0e8.via4.4*%
X-26906000Y-26906000D03*
%TO.P,,ab5125e15f6be815fb94e1ece841a0e8.via4.1*%
X-44226500Y-26906000D03*
%TO.P,,ab5125e15f6be815fb94e1ece841a0e8.via3.6*%
X-15359000Y-32679500D03*
%TO.P,,ab5125e15f6be815fb94e1ece841a0e8.via3.4*%
X-26906000Y-32679500D03*
%TO.P,,ab5125e15f6be815fb94e1ece841a0e8.via3.3*%
X-32679500Y-32679500D03*
%TO.P,,ab5125e15f6be815fb94e1ece841a0e8.via3.1*%
X-44226500Y-32679500D03*
%TO.P,,ab5125e15f6be815fb94e1ece841a0e8.via2.7*%
X-9585500Y-38453000D03*
%TO.P,,ab5125e15f6be815fb94e1ece841a0e8.via2.4*%
X-26906000Y-38453000D03*
%TO.P,,ab5125e15f6be815fb94e1ece841a0e8.via2.3*%
X-32679500Y-38453000D03*
%TO.P,,ab5125e15f6be815fb94e1ece841a0e8.via2.2*%
X-38453000Y-38453000D03*
%TO.P,,ab5125e15f6be815fb94e1ece841a0e8.via2.1*%
X-44226500Y-38453000D03*
%TO.P,,ab5125e15f6be815fb94e1ece841a0e8.via1.7*%
X-9585500Y-44226500D03*
%TO.P,,ab5125e15f6be815fb94e1ece841a0e8.via1.2*%
X-38453000Y-44226500D03*
%TO.P,,ab5125e15f6be815fb94e1ece841a0e8.via1.1*%
X-44226500Y-44226500D03*
%TO.P,,ab5125e15f6be815fb94e1ece841a0e8.via1.9*%
X1961500Y-44226500D03*
%TO.P,,ab5125e15f6be815fb94e1ece841a0e8.via1.8*%
X-3812000Y-44226500D03*
%TO.P,,ab5125e15f6be815fb94e1ece841a0e8.via4.10*%
X7735000Y-26906000D03*
%TO.P,,ab5125e15f6be815fb94e1ece841a0e8.via4.8*%
X-3812000Y-26906000D03*
%TO.P,,ab5125e15f6be815fb94e1ece841a0e8.via2.6*%
X-15359000Y-38453000D03*
%TO.P,,ab5125e15f6be815fb94e1ece841a0e8.via1.10*%
X7735000Y-44226500D03*
%TO.P,,ab5125e15f6be815fb94e1ece841a0e8.via1.6*%
X-15359000Y-44226500D03*
%TO.P,,ab5125e15f6be815fb94e1ece841a0e8.via1.5*%
X-21132500Y-44226500D03*
%TO.P,,ab5125e15f6be815fb94e1ece841a0e8.via5.7*%
X-9585500Y-21132500D03*
%TO.P,,ab5125e15f6be815fb94e1ece841a0e8.via4.7*%
X-9585500Y-26906000D03*
%TO.P,,ab5125e15f6be815fb94e1ece841a0e8.via3.7*%
X-9585500Y-32679500D03*
%TO.P,,ab5125e15f6be815fb94e1ece841a0e8.via2.9*%
X1961500Y-38453000D03*
%TO.P,,ab5125e15f6be815fb94e1ece841a0e8.via3.5*%
X-21132500Y-32679500D03*
%TO.P,,ab5125e15f6be815fb94e1ece841a0e8.via2.5*%
X-21132500Y-38453000D03*
%TO.P,,ab5125e15f6be815fb94e1ece841a0e8.via1.4*%
X-26906000Y-44226500D03*
%TO.P,,ab5125e15f6be815fb94e1ece841a0e8.via1.3*%
X-32679500Y-44226500D03*
%TO.P,,ab5125e15f6be815fb94e1ece841a0e8.via6.1*%
X-44226500Y-15359000D03*
%TO.P,,ab5125e15f6be815fb94e1ece841a0e8.via6.9*%
X1961500Y-15359000D03*
%TO.P,,37b21f06-5252-458c-af10-07f0a553c3a3*%
%TO.N,Net - (13fb - a68d)*%
X0Y35049200D03*
%TO.P,,9e42ca13-f2b6-43e8-915e-b2d63f713589*%
X-14683800Y35064800D03*
%TO.P,,ab5125e15f6be815fb94e1ece841a0e8.via8.6*%
%TO.N,GND*%
X-15359000Y-3812000D03*
%TO.P,,ab5125e15f6be815fb94e1ece841a0e8.via5.1*%
X-44226500Y-21132500D03*
%TO.P,,ab5125e15f6be815fb94e1ece841a0e8.via4.3*%
X-32679500Y-26906000D03*
%TO.P,,ab5125e15f6be815fb94e1ece841a0e8.via4.2*%
X-38453000Y-26906000D03*
%TO.P,,ab5125e15f6be815fb94e1ece841a0e8.via3.2*%
X-38453000Y-32679500D03*
%TO.P,,fa36d709-df93-4e9e-a7ba-5c46bbeea32e*%
X-32974200Y29924600D03*
%TO.P,,204f9129-c35c-4193-b1d1-4c603e9760da*%
X-33535800Y23603000D03*
%TO.P,,ab5125e15f6be815fb94e1ece841a0e8.via17.17*%
X48149500Y48149500D03*
%TO.P,,ab5125e15f6be815fb94e1ece841a0e8.via17.16*%
X42376000Y48149500D03*
%TO.P,,ab5125e15f6be815fb94e1ece841a0e8.via17.15*%
X36602500Y48149500D03*
%TO.P,,ab5125e15f6be815fb94e1ece841a0e8.via17.14*%
X30829000Y48149500D03*
%TO.P,,ab5125e15f6be815fb94e1ece841a0e8.via17.13*%
X25055500Y48149500D03*
%TO.P,,ab5125e15f6be815fb94e1ece841a0e8.via17.12*%
X19282000Y48149500D03*
%TO.P,,ab5125e15f6be815fb94e1ece841a0e8.via17.11*%
X13508500Y48149500D03*
%TO.P,,ab5125e15f6be815fb94e1ece841a0e8.via17.10*%
X7735000Y48149500D03*
%TO.P,,ab5125e15f6be815fb94e1ece841a0e8.via17.9*%
X1961500Y48149500D03*
%TO.P,,ab5125e15f6be815fb94e1ece841a0e8.via17.8*%
X-3812000Y48149500D03*
%TO.P,,ab5125e15f6be815fb94e1ece841a0e8.via17.7*%
X-9585500Y48149500D03*
%TO.P,,ab5125e15f6be815fb94e1ece841a0e8.via17.6*%
X-15359000Y48149500D03*
%TO.P,,ab5125e15f6be815fb94e1ece841a0e8.via17.5*%
X-21132500Y48149500D03*
%TO.P,,ab5125e15f6be815fb94e1ece841a0e8.via17.4*%
X-26906000Y48149500D03*
%TO.P,,ab5125e15f6be815fb94e1ece841a0e8.via17.3*%
X-32679500Y48149500D03*
%TO.P,,ab5125e15f6be815fb94e1ece841a0e8.via17.2*%
X-38453000Y48149500D03*
%TO.P,,ab5125e15f6be815fb94e1ece841a0e8.via17.1*%
X-44226500Y48149500D03*
%TO.P,,ab5125e15f6be815fb94e1ece841a0e8.via16.17*%
X48149500Y42376000D03*
%TO.P,,ab5125e15f6be815fb94e1ece841a0e8.via16.16*%
X42376000Y42376000D03*
%TO.P,,ab5125e15f6be815fb94e1ece841a0e8.via16.15*%
X36602500Y42376000D03*
%TO.P,,ab5125e15f6be815fb94e1ece841a0e8.via16.14*%
X30829000Y42376000D03*
%TO.P,,ab5125e15f6be815fb94e1ece841a0e8.via16.13*%
X25055500Y42376000D03*
%TO.P,,ab5125e15f6be815fb94e1ece841a0e8.via16.12*%
X19282000Y42376000D03*
%TO.P,,ab5125e15f6be815fb94e1ece841a0e8.via16.11*%
X13508500Y42376000D03*
%TO.P,,ab5125e15f6be815fb94e1ece841a0e8.via16.10*%
X7735000Y42376000D03*
%TO.P,,ab5125e15f6be815fb94e1ece841a0e8.via16.9*%
X1961500Y42376000D03*
%TO.P,,ab5125e15f6be815fb94e1ece841a0e8.via16.8*%
X-3812000Y42376000D03*
%TO.P,,ab5125e15f6be815fb94e1ece841a0e8.via16.7*%
X-9585500Y42376000D03*
%TO.P,,ab5125e15f6be815fb94e1ece841a0e8.via16.6*%
X-15359000Y42376000D03*
%TO.P,,ab5125e15f6be815fb94e1ece841a0e8.via16.5*%
X-21132500Y42376000D03*
%TO.P,,ab5125e15f6be815fb94e1ece841a0e8.via16.4*%
X-26906000Y42376000D03*
%TO.P,,ab5125e15f6be815fb94e1ece841a0e8.via16.3*%
X-32679500Y42376000D03*
%TO.P,,ab5125e15f6be815fb94e1ece841a0e8.via16.2*%
X-38453000Y42376000D03*
%TO.P,,ab5125e15f6be815fb94e1ece841a0e8.via16.1*%
X-44226500Y42376000D03*
%TO.P,,ab5125e15f6be815fb94e1ece841a0e8.via15.17*%
X48149500Y36602500D03*
%TO.P,,ab5125e15f6be815fb94e1ece841a0e8.via15.16*%
X42376000Y36602500D03*
%TO.P,,ab5125e15f6be815fb94e1ece841a0e8.via15.15*%
X36602500Y36602500D03*
%TO.P,,ab5125e15f6be815fb94e1ece841a0e8.via15.14*%
X30829000Y36602500D03*
%TO.P,,ab5125e15f6be815fb94e1ece841a0e8.via15.13*%
X25055500Y36602500D03*
%TO.P,,ab5125e15f6be815fb94e1ece841a0e8.via15.12*%
X19282000Y36602500D03*
%TO.P,,ab5125e15f6be815fb94e1ece841a0e8.via15.11*%
X13508500Y36602500D03*
%TO.P,,ab5125e15f6be815fb94e1ece841a0e8.via15.10*%
X7735000Y36602500D03*
%TO.P,,ab5125e15f6be815fb94e1ece841a0e8.via15.8*%
X-3812000Y36602500D03*
%TO.P,,ab5125e15f6be815fb94e1ece841a0e8.via15.6*%
X-15359000Y36602500D03*
%TO.P,,ab5125e15f6be815fb94e1ece841a0e8.via15.5*%
X-21132500Y36602500D03*
%TO.P,,ab5125e15f6be815fb94e1ece841a0e8.via15.1*%
X-44226500Y36602500D03*
%TO.P,,ab5125e15f6be815fb94e1ece841a0e8.via14.17*%
X48149500Y30829000D03*
%TO.P,,ab5125e15f6be815fb94e1ece841a0e8.via14.16*%
X42376000Y30829000D03*
%TO.P,,ab5125e15f6be815fb94e1ece841a0e8.via14.15*%
X36602500Y30829000D03*
%TO.P,,ab5125e15f6be815fb94e1ece841a0e8.via14.14*%
X30829000Y30829000D03*
%TO.P,,ab5125e15f6be815fb94e1ece841a0e8.via14.13*%
X25055500Y30829000D03*
%TO.P,,ab5125e15f6be815fb94e1ece841a0e8.via14.12*%
X19282000Y30829000D03*
%TO.P,,ab5125e15f6be815fb94e1ece841a0e8.via14.11*%
X13508500Y30829000D03*
%TO.P,,ab5125e15f6be815fb94e1ece841a0e8.via14.10*%
X7735000Y30829000D03*
%TO.P,,ab5125e15f6be815fb94e1ece841a0e8.via14.8*%
X-3812000Y30829000D03*
%TO.P,,ab5125e15f6be815fb94e1ece841a0e8.via14.5*%
X-21132500Y30829000D03*
%TO.P,,ab5125e15f6be815fb94e1ece841a0e8.via14.4*%
X-26906000Y30829000D03*
%TO.P,,ab5125e15f6be815fb94e1ece841a0e8.via14.1*%
X-44226500Y30829000D03*
%TO.P,,ab5125e15f6be815fb94e1ece841a0e8.via13.17*%
X48149500Y25055500D03*
%TO.P,,ab5125e15f6be815fb94e1ece841a0e8.via13.16*%
X42376000Y25055500D03*
%TO.P,,ab5125e15f6be815fb94e1ece841a0e8.via13.15*%
X36602500Y25055500D03*
%TO.P,,ab5125e15f6be815fb94e1ece841a0e8.via13.14*%
X30829000Y25055500D03*
%TO.P,,ab5125e15f6be815fb94e1ece841a0e8.via13.13*%
X25055500Y25055500D03*
%TO.P,,ab5125e15f6be815fb94e1ece841a0e8.via13.12*%
X19282000Y25055500D03*
%TO.P,,ab5125e15f6be815fb94e1ece841a0e8.via13.11*%
X13508500Y25055500D03*
%TO.P,,ab5125e15f6be815fb94e1ece841a0e8.via13.10*%
X7735000Y25055500D03*
%TO.P,,ab5125e15f6be815fb94e1ece841a0e8.via13.6*%
X-15359000Y25055500D03*
%TO.P,,ab5125e15f6be815fb94e1ece841a0e8.via13.5*%
X-21132500Y25055500D03*
%TO.P,,ab5125e15f6be815fb94e1ece841a0e8.via13.4*%
X-26906000Y25055500D03*
%TO.P,,ab5125e15f6be815fb94e1ece841a0e8.via13.1*%
X-44226500Y25055500D03*
%TO.P,,ab5125e15f6be815fb94e1ece841a0e8.via12.17*%
X48149500Y19282000D03*
%TO.P,,ab5125e15f6be815fb94e1ece841a0e8.via12.16*%
X42376000Y19282000D03*
%TO.P,,ab5125e15f6be815fb94e1ece841a0e8.via12.15*%
X36602500Y19282000D03*
%TO.P,,ab5125e15f6be815fb94e1ece841a0e8.via12.14*%
X30829000Y19282000D03*
%TO.P,,ab5125e15f6be815fb94e1ece841a0e8.via12.13*%
X25055500Y19282000D03*
%TO.P,,ab5125e15f6be815fb94e1ece841a0e8.via12.12*%
X19282000Y19282000D03*
%TO.P,,ab5125e15f6be815fb94e1ece841a0e8.via12.11*%
X13508500Y19282000D03*
%TO.P,,ab5125e15f6be815fb94e1ece841a0e8.via12.10*%
X7735000Y19282000D03*
%TO.P,,ab5125e15f6be815fb94e1ece841a0e8.via12.9*%
X1961500Y19282000D03*
%TO.P,,ab5125e15f6be815fb94e1ece841a0e8.via12.8*%
X-3812000Y19282000D03*
%TO.P,,ab5125e15f6be815fb94e1ece841a0e8.via12.7*%
X-9585500Y19282000D03*
%TO.P,,ab5125e15f6be815fb94e1ece841a0e8.via12.6*%
X-15359000Y19282000D03*
%TO.P,,ab5125e15f6be815fb94e1ece841a0e8.via12.4*%
X-26906000Y19282000D03*
%TO.P,,ab5125e15f6be815fb94e1ece841a0e8.via12.3*%
X-32679500Y19282000D03*
%TO.P,,ab5125e15f6be815fb94e1ece841a0e8.via12.2*%
X-38453000Y19282000D03*
%TO.P,,ab5125e15f6be815fb94e1ece841a0e8.via12.1*%
X-44226500Y19282000D03*
%TO.P,,ab5125e15f6be815fb94e1ece841a0e8.via11.17*%
X48149500Y13508500D03*
%TO.P,,ab5125e15f6be815fb94e1ece841a0e8.via11.16*%
X42376000Y13508500D03*
%TO.P,,ab5125e15f6be815fb94e1ece841a0e8.via11.15*%
X36602500Y13508500D03*
%TO.P,,ab5125e15f6be815fb94e1ece841a0e8.via11.14*%
X30829000Y13508500D03*
%TO.P,,ab5125e15f6be815fb94e1ece841a0e8.via11.9*%
X1961500Y13508500D03*
%TO.P,,ab5125e15f6be815fb94e1ece841a0e8.via11.6*%
X-15359000Y13508500D03*
%TO.P,,ab5125e15f6be815fb94e1ece841a0e8.via11.4*%
X-26906000Y13508500D03*
%TO.P,,ab5125e15f6be815fb94e1ece841a0e8.via11.3*%
X-32679500Y13508500D03*
%TO.P,,ab5125e15f6be815fb94e1ece841a0e8.via11.2*%
X-38453000Y13508500D03*
%TO.P,,ab5125e15f6be815fb94e1ece841a0e8.via11.1*%
X-44226500Y13508500D03*
%TO.P,,ab5125e15f6be815fb94e1ece841a0e8.via10.17*%
X48149500Y7735000D03*
%TO.P,,ab5125e15f6be815fb94e1ece841a0e8.via10.15*%
X36602500Y7735000D03*
%TO.P,,ab5125e15f6be815fb94e1ece841a0e8.via10.14*%
X30829000Y7735000D03*
%TO.P,,ab5125e15f6be815fb94e1ece841a0e8.via10.13*%
X25055500Y7735000D03*
%TO.P,,ab5125e15f6be815fb94e1ece841a0e8.via10.12*%
X19282000Y7735000D03*
%TO.P,,ab5125e15f6be815fb94e1ece841a0e8.via10.7*%
X-9585500Y7735000D03*
%TO.P,,ab5125e15f6be815fb94e1ece841a0e8.via10.5*%
X-21132500Y7735000D03*
%TO.P,,ab5125e15f6be815fb94e1ece841a0e8.via10.4*%
X-26906000Y7735000D03*
%TO.P,,ab5125e15f6be815fb94e1ece841a0e8.via10.3*%
X-32679500Y7735000D03*
%TO.P,,ab5125e15f6be815fb94e1ece841a0e8.via10.2*%
X-38453000Y7735000D03*
%TO.P,,ab5125e15f6be815fb94e1ece841a0e8.via10.1*%
X-44226500Y7735000D03*
%TO.P,,ab5125e15f6be815fb94e1ece841a0e8.via9.17*%
X48149500Y1961500D03*
%TO.P,,ab5125e15f6be815fb94e1ece841a0e8.via9.15*%
X36602500Y1961500D03*
%TO.P,,ab5125e15f6be815fb94e1ece841a0e8.via9.14*%
X30829000Y1961500D03*
%TO.P,,ab5125e15f6be815fb94e1ece841a0e8.via9.13*%
X25055500Y1961500D03*
%TO.P,,ab5125e15f6be815fb94e1ece841a0e8.via9.10*%
X7735000Y1961500D03*
%TO.P,,ab5125e15f6be815fb94e1ece841a0e8.via9.9*%
X1961500Y1961500D03*
%TO.P,,ab5125e15f6be815fb94e1ece841a0e8.via9.8*%
X-3812000Y1961500D03*
%TO.P,,ab5125e15f6be815fb94e1ece841a0e8.via9.7*%
X-9585500Y1961500D03*
%TO.P,,ab5125e15f6be815fb94e1ece841a0e8.via9.5*%
X-21132500Y1961500D03*
%TO.P,,ab5125e15f6be815fb94e1ece841a0e8.via9.4*%
X-26906000Y1961500D03*
%TO.P,,ab5125e15f6be815fb94e1ece841a0e8.via9.3*%
X-32679500Y1961500D03*
%TO.P,,ab5125e15f6be815fb94e1ece841a0e8.via9.2*%
X-38453000Y1961500D03*
%TO.P,,ab5125e15f6be815fb94e1ece841a0e8.via9.1*%
X-44226500Y1961500D03*
%TO.P,,ab5125e15f6be815fb94e1ece841a0e8.via8.17*%
X48149500Y-3812000D03*
%TO.P,,ab5125e15f6be815fb94e1ece841a0e8.via8.16*%
X42376000Y-3812000D03*
%TO.P,,ab5125e15f6be815fb94e1ece841a0e8.via8.15*%
X36602500Y-3812000D03*
%TO.P,,ab5125e15f6be815fb94e1ece841a0e8.via8.13*%
X25055500Y-3812000D03*
%TO.P,,ab5125e15f6be815fb94e1ece841a0e8.via8.12*%
X19282000Y-3812000D03*
%TO.P,,ab5125e15f6be815fb94e1ece841a0e8.via8.11*%
X13508500Y-3812000D03*
%TO.P,,ab5125e15f6be815fb94e1ece841a0e8.via8.1*%
X-44226500Y-3812000D03*
%TO.P,,ab5125e15f6be815fb94e1ece841a0e8.via7.17*%
X48149500Y-9585500D03*
%TO.P,,ab5125e15f6be815fb94e1ece841a0e8.via7.16*%
X42376000Y-9585500D03*
%TO.P,,ab5125e15f6be815fb94e1ece841a0e8.via7.15*%
X36602500Y-9585500D03*
%TO.P,,ab5125e15f6be815fb94e1ece841a0e8.via7.14*%
X30829000Y-9585500D03*
%TO.P,,ab5125e15f6be815fb94e1ece841a0e8.via7.13*%
X25055500Y-9585500D03*
%TO.P,,ab5125e15f6be815fb94e1ece841a0e8.via7.12*%
X19282000Y-9585500D03*
%TO.P,,ab5125e15f6be815fb94e1ece841a0e8.via7.10*%
X7735000Y-9585500D03*
%TO.P,,ab5125e15f6be815fb94e1ece841a0e8.via7.9*%
X1961500Y-9585500D03*
%TO.P,,ab5125e15f6be815fb94e1ece841a0e8.via7.8*%
X-3812000Y-9585500D03*
%TO.P,,ab5125e15f6be815fb94e1ece841a0e8.via7.7*%
X-9585500Y-9585500D03*
%TO.P,,ab5125e15f6be815fb94e1ece841a0e8.via7.3*%
X-32679500Y-9585500D03*
%TO.P,,ab5125e15f6be815fb94e1ece841a0e8.via7.2*%
X-38453000Y-9585500D03*
%TO.P,,ab5125e15f6be815fb94e1ece841a0e8.via7.1*%
X-44226500Y-9585500D03*
%TO.P,,ab5125e15f6be815fb94e1ece841a0e8.via6.17*%
X48149500Y-15359000D03*
%TO.P,,ab5125e15f6be815fb94e1ece841a0e8.via6.14*%
X30829000Y-15359000D03*
%TO.P,,ab5125e15f6be815fb94e1ece841a0e8.via6.13*%
X25055500Y-15359000D03*
%TO.P,,ab5125e15f6be815fb94e1ece841a0e8.via6.12*%
X19282000Y-15359000D03*
%TO.P,,ab5125e15f6be815fb94e1ece841a0e8.via6.8*%
X-3812000Y-15359000D03*
%TO.P,,ab5125e15f6be815fb94e1ece841a0e8.via6.7*%
X-9585500Y-15359000D03*
%TO.P,,ab5125e15f6be815fb94e1ece841a0e8.via6.6*%
X-15359000Y-15359000D03*
%TO.P,,ab5125e15f6be815fb94e1ece841a0e8.via6.5*%
X-21132500Y-15359000D03*
%TO.P,,ab5125e15f6be815fb94e1ece841a0e8.via6.3*%
X-32679500Y-15359000D03*
%TO.P,,ab5125e15f6be815fb94e1ece841a0e8.via6.2*%
X-38453000Y-15359000D03*
%TO.P,,ab5125e15f6be815fb94e1ece841a0e8.via5.17*%
X48149500Y-21132500D03*
%TO.P,,ab5125e15f6be815fb94e1ece841a0e8.via5.16*%
X42376000Y-21132500D03*
%TO.P,,ab5125e15f6be815fb94e1ece841a0e8.via5.15*%
X36602500Y-21132500D03*
%TO.P,,ab5125e15f6be815fb94e1ece841a0e8.via5.14*%
X30829000Y-21132500D03*
%TO.P,,ab5125e15f6be815fb94e1ece841a0e8.via5.13*%
X25055500Y-21132500D03*
%TO.P,,ab5125e15f6be815fb94e1ece841a0e8.via5.12*%
X19282000Y-21132500D03*
%TO.P,,ab5125e15f6be815fb94e1ece841a0e8.via5.11*%
X13508500Y-21132500D03*
%TO.P,,ab5125e15f6be815fb94e1ece841a0e8.via5.9*%
X1961500Y-21132500D03*
%TO.P,,ab5125e15f6be815fb94e1ece841a0e8.via5.8*%
X-3812000Y-21132500D03*
%TO.P,,ab5125e15f6be815fb94e1ece841a0e8.via5.3*%
X-32679500Y-21132500D03*
%TO.P,,ab5125e15f6be815fb94e1ece841a0e8.via5.2*%
X-38453000Y-21132500D03*
%TO.P,,ab5125e15f6be815fb94e1ece841a0e8.via4.16*%
X42376000Y-26906000D03*
%TO.P,,ab5125e15f6be815fb94e1ece841a0e8.via4.15*%
X36602500Y-26906000D03*
%TO.P,,ab5125e15f6be815fb94e1ece841a0e8.via4.14*%
X30829000Y-26906000D03*
%TO.P,,ab5125e15f6be815fb94e1ece841a0e8.via4.13*%
X25055500Y-26906000D03*
%TO.P,,ab5125e15f6be815fb94e1ece841a0e8.via4.12*%
X19282000Y-26906000D03*
%TO.P,,ab5125e15f6be815fb94e1ece841a0e8.via4.11*%
X13508500Y-26906000D03*
%TO.P,,ab5125e15f6be815fb94e1ece841a0e8.via3.15*%
X36602500Y-32679500D03*
%TO.P,,ab5125e15f6be815fb94e1ece841a0e8.via3.14*%
X30829000Y-32679500D03*
%TO.P,,ab5125e15f6be815fb94e1ece841a0e8.via3.13*%
X25055500Y-32679500D03*
%TO.P,,ab5125e15f6be815fb94e1ece841a0e8.via3.12*%
X19282000Y-32679500D03*
%TO.P,,ab5125e15f6be815fb94e1ece841a0e8.via3.9*%
X1961500Y-32679500D03*
%TO.P,,ab5125e15f6be815fb94e1ece841a0e8.via3.8*%
X-3812000Y-32679500D03*
%TO.P,,ab5125e15f6be815fb94e1ece841a0e8.via2.17*%
X48149500Y-38453000D03*
%TO.P,,ab5125e15f6be815fb94e1ece841a0e8.via2.16*%
X42376000Y-38453000D03*
%TO.P,,ab5125e15f6be815fb94e1ece841a0e8.via2.15*%
X36602500Y-38453000D03*
%TO.P,,ab5125e15f6be815fb94e1ece841a0e8.via2.14*%
X30829000Y-38453000D03*
%TO.P,,ab5125e15f6be815fb94e1ece841a0e8.via2.13*%
X25055500Y-38453000D03*
%TO.P,,ab5125e15f6be815fb94e1ece841a0e8.via2.12*%
X19282000Y-38453000D03*
%TO.P,,ab5125e15f6be815fb94e1ece841a0e8.via2.8*%
X-3812000Y-38453000D03*
%TO.P,,ab5125e15f6be815fb94e1ece841a0e8.via1.17*%
X48149500Y-44226500D03*
%TO.P,,ab5125e15f6be815fb94e1ece841a0e8.via1.16*%
X42376000Y-44226500D03*
%TO.P,,ab5125e15f6be815fb94e1ece841a0e8.via1.15*%
X36602500Y-44226500D03*
%TO.P,,ab5125e15f6be815fb94e1ece841a0e8.via1.14*%
X30829000Y-44226500D03*
%TO.P,,ab5125e15f6be815fb94e1ece841a0e8.via1.13*%
X25055500Y-44226500D03*
%TO.P,,ab5125e15f6be815fb94e1ece841a0e8.via1.12*%
X19282000Y-44226500D03*
%TO.P,,ab5125e15f6be815fb94e1ece841a0e8.via1.11*%
X13508500Y-44226500D03*
%TO.P,,ab5125e15f6be815fb94e1ece841a0e8.via.island.1*%
X-8965500Y24782500D03*
%TO.P,,ab5125e15f6be815fb94e1ece841a0e8.via.island.0*%
X-9053200Y27983800D03*
%TO.P,,ab5125e15f6be815fb94e1ece841a0e8.via12.5*%
X-21132500Y19282000D03*
%TO.P,,ab5125e15f6be815fb94e1ece841a0e8.via11.13*%
X25055500Y13508500D03*
%TO.P,,ab5125e15f6be815fb94e1ece841a0e8.via11.12*%
X19282000Y13508500D03*
%TO.P,,ab5125e15f6be815fb94e1ece841a0e8.via11.11*%
X13508500Y13508500D03*
%TO.P,,ab5125e15f6be815fb94e1ece841a0e8.via11.10*%
X7735000Y13508500D03*
%TO.P,,ab5125e15f6be815fb94e1ece841a0e8.via11.7*%
X-9585500Y13508500D03*
%TO.P,,ab5125e15f6be815fb94e1ece841a0e8.via11.5*%
X-21132500Y13508500D03*
%TO.P,,ab5125e15f6be815fb94e1ece841a0e8.via10.11*%
X13508500Y7735000D03*
%TO.P,,ab5125e15f6be815fb94e1ece841a0e8.via10.10*%
X7735000Y7735000D03*
%TO.P,,ab5125e15f6be815fb94e1ece841a0e8.via10.9*%
X1961500Y7735000D03*
%TO.P,,ab5125e15f6be815fb94e1ece841a0e8.via10.6*%
X-15359000Y7735000D03*
%TO.P,,ab5125e15f6be815fb94e1ece841a0e8.via9.12*%
X19282000Y1961500D03*
%TO.P,,ab5125e15f6be815fb94e1ece841a0e8.via9.11*%
X13508500Y1961500D03*
%TO.P,,ab5125e15f6be815fb94e1ece841a0e8.via9.6*%
X-15359000Y1961500D03*
%TO.P,,ab5125e15f6be815fb94e1ece841a0e8.via7.11*%
X13508500Y-9585500D03*
%TO.P,,ab5125e15f6be815fb94e1ece841a0e8.via6.11*%
X13508500Y-15359000D03*
%TD*%
D11*
%TO.N,Net - (13fb - a68d)*%
X-14683800Y35064800D02*
X0Y35064800D01*
X0Y35064800D02*
X0Y35049200D01*
%TD*%
%TA.AperFunction,Conductor*%
%TO.N,GND*%
G36*
X49662000Y-49750000D02*
G01*
X-49662000Y-49750000D01*
X-49750000Y-49662000D01*
X-49750000Y35166000D01*
X-15481000Y35166000D01*
X-15481000Y34958000D01*
X-15429000Y34762000D01*
X-15322000Y34575000D01*
X-15321000Y34574000D01*
X-15172000Y34426000D01*
X-15171000Y34425000D01*
X-14998000Y34324000D01*
X-14788000Y34267000D01*
X-14580000Y34267000D01*
X-14370000Y34325000D01*
X-14358000Y34330000D01*
X-14329000Y34336000D01*
X-380000Y34336000D01*
X-343000Y34326000D01*
X-307000Y34305000D01*
X-304000Y34304000D01*
X-106000Y34252000D01*
X106000Y34252000D01*
X303000Y34304000D01*
X490000Y34411000D01*
X491000Y34412000D01*
X638000Y34560000D01*
X742000Y34740000D01*
X743000Y34741000D01*
X797000Y34946000D01*
X797000Y35155000D01*
X745000Y35352000D01*
X638000Y35539000D01*
X490000Y35687000D01*
X310000Y35790000D01*
X311000Y35790000D01*
X104000Y35847000D01*
X-104000Y35847000D01*
X-290000Y35797000D01*
X-310000Y35794000D01*
X-14328000Y35794000D01*
X-14359000Y35801000D01*
X-14380000Y35810000D01*
X-14578000Y35862000D01*
X-14787000Y35862000D01*
X-14991000Y35808000D01*
X-14993000Y35807000D01*
X-15175000Y35701000D01*
X-15320000Y35556000D01*
X-15426000Y35374000D01*
X-15428000Y35369000D01*
X-15481000Y35166000D01*
X-49750000Y35166000D01*
X-49750000Y49662000D01*
X-49662000Y49750000D01*
X49662000Y49750000D01*
X49750000Y49662000D01*
X49750000Y-49662000D01*
X49662000Y-49750000D01*
G37*
%TD.AperFunction*%
%TD*%
M02*
