M48
; DRILL file {KiCad 7.0.11-7.0.11~ubuntu20.04.1} date Sun Aug 18 14:12:47 2024
; FORMAT={-:-/ absolute / metric / decimal}
; #@! TF.CreationDate,2024-08-18T14:12:47+00:00
; #@! TF.GenerationSoftware,Kicad,Pcbnew,7.0.11-7.0.11~ubuntu20.04.1
; #@! TF.FileFunction,MixedPlating,1,4
FMAT,2
METRIC
; #@! TA.AperFunction,Plated,PTH,ComponentDrill
T1C0.300
%
G90
G05
T1
X-44.227Y48.149
X-44.227Y42.376
X-44.227Y36.602
X-44.227Y30.829
X-44.227Y25.055
X-44.227Y19.282
X-44.227Y13.508
X-44.227Y7.735
X-44.227Y1.962
X-44.227Y-3.812
X-44.227Y-9.585
X-44.227Y-15.359
X-44.227Y-21.133
X-44.227Y-26.906
X-44.227Y-32.679
X-44.227Y-38.453
X-44.227Y-44.227
X-42.61Y43.554
X-38.453Y48.149
X-38.453Y42.376
X-38.453Y19.282
X-38.453Y13.508
X-38.453Y7.735
X-38.453Y1.962
X-38.453Y-3.812
X-38.453Y-9.585
X-38.453Y-15.359
X-38.453Y-21.133
X-38.453Y-26.906
X-38.453Y-32.679
X-38.453Y-38.453
X-38.453Y-44.227
X-35.946Y25.122
X-35.909Y29.925
X-33.536Y23.603
X-32.974Y29.925
X-32.679Y48.149
X-32.679Y42.376
X-32.679Y19.282
X-32.679Y13.508
X-32.679Y7.735
X-32.679Y1.962
X-32.679Y-3.812
X-32.679Y-9.585
X-32.679Y-15.359
X-32.679Y-21.133
X-32.679Y-26.906
X-32.679Y-32.679
X-32.679Y-38.453
X-32.679Y-44.227
X-26.906Y48.149
X-26.906Y42.376
X-26.906Y30.829
X-26.906Y25.055
X-26.906Y19.282
X-26.906Y13.508
X-26.906Y7.735
X-26.906Y1.962
X-26.906Y-3.812
X-26.906Y-9.585
X-26.906Y-15.359
X-26.906Y-21.133
X-26.906Y-26.906
X-26.906Y-32.679
X-26.906Y-38.453
X-26.906Y-44.227
X-21.133Y48.149
X-21.133Y42.376
X-21.133Y36.602
X-21.133Y30.829
X-21.133Y25.055
X-21.133Y19.282
X-21.133Y13.508
X-21.133Y7.735
X-21.133Y1.962
X-21.133Y-3.812
X-21.133Y-9.585
X-21.133Y-15.359
X-21.133Y-21.133
X-21.133Y-26.906
X-21.133Y-32.679
X-21.133Y-38.453
X-21.133Y-44.227
X-16.479Y30.792
X-15.359Y48.149
X-15.359Y42.376
X-15.359Y36.602
X-15.359Y25.055
X-15.359Y19.282
X-15.359Y13.508
X-15.359Y7.735
X-15.359Y1.962
X-15.359Y-3.812
X-15.359Y-9.585
X-15.359Y-15.359
X-15.359Y-21.133
X-15.359Y-26.906
X-15.359Y-32.679
X-15.359Y-38.453
X-15.359Y-44.227
X-14.684Y35.065
X-14.416Y28.224
X-9.916Y36.549
X-9.585Y48.149
X-9.585Y42.376
X-9.585Y19.282
X-9.585Y13.508
X-9.585Y7.735
X-9.585Y1.962
X-9.585Y-3.812
X-9.585Y-9.585
X-9.585Y-15.359
X-9.585Y-21.133
X-9.585Y-26.906
X-9.585Y-32.679
X-9.585Y-38.453
X-9.585Y-44.227
X-9.053Y27.984
X-8.966Y24.782
X-8.373Y31.767
X-7.974Y11.39
X-6.723Y6.636
X-6.414Y23.502
X-3.889Y6.665
X-3.812Y48.149
X-3.812Y42.376
X-3.812Y36.602
X-3.812Y30.829
X-3.812Y19.282
X-3.812Y1.962
X-3.812Y-3.812
X-3.812Y-9.585
X-3.812Y-15.359
X-3.812Y-21.133
X-3.812Y-26.906
X-3.812Y-32.679
X-3.812Y-38.453
X-3.812Y-44.227
X-2.418Y15.187
X-1.978Y31.782
X-0.1Y36.752
X0.0Y35.049
X1.818Y22.632
X1.962Y48.149
X1.962Y42.376
X1.962Y19.282
X1.962Y13.508
X1.962Y7.735
X1.962Y1.962
X1.962Y-3.812
X1.962Y-9.585
X1.962Y-15.359
X1.962Y-21.133
X1.962Y-26.906
X1.962Y-32.679
X1.962Y-38.453
X1.962Y-44.227
X4.175Y36.828
X7.735Y48.149
X7.735Y42.376
X7.735Y36.602
X7.735Y30.829
X7.735Y25.055
X7.735Y19.282
X7.735Y13.508
X7.735Y7.735
X7.735Y1.962
X7.735Y-3.812
X7.735Y-9.585
X7.735Y-15.359
X7.735Y-21.133
X7.735Y-26.906
X7.735Y-44.227
X13.508Y48.149
X13.508Y42.376
X13.508Y36.602
X13.508Y30.829
X13.508Y25.055
X13.508Y19.282
X13.508Y13.508
X13.508Y7.735
X13.508Y1.962
X13.508Y-3.812
X13.508Y-9.585
X13.508Y-15.359
X13.508Y-21.133
X13.508Y-26.906
X13.508Y-44.227
X19.282Y48.149
X19.282Y42.376
X19.282Y36.602
X19.282Y30.829
X19.282Y25.055
X19.282Y19.282
X19.282Y13.508
X19.282Y7.735
X19.282Y1.962
X19.282Y-3.812
X19.282Y-9.585
X19.282Y-15.359
X19.282Y-21.133
X19.282Y-26.906
X19.282Y-32.679
X19.282Y-38.453
X19.282Y-44.227
X25.055Y48.149
X25.055Y42.376
X25.055Y36.602
X25.055Y30.829
X25.055Y25.055
X25.055Y19.282
X25.055Y13.508
X25.055Y7.735
X25.055Y1.962
X25.055Y-3.812
X25.055Y-9.585
X25.055Y-15.359
X25.055Y-21.133
X25.055Y-26.906
X25.055Y-32.679
X25.055Y-38.453
X25.055Y-44.227
X30.829Y48.149
X30.829Y42.376
X30.829Y36.602
X30.829Y30.829
X30.829Y25.055
X30.829Y19.282
X30.829Y13.508
X30.829Y7.735
X30.829Y1.962
X30.829Y-9.585
X30.829Y-15.359
X30.829Y-21.133
X30.829Y-26.906
X30.829Y-32.679
X30.829Y-38.453
X30.829Y-44.227
X36.602Y48.149
X36.602Y42.376
X36.602Y36.602
X36.602Y30.829
X36.602Y25.055
X36.602Y19.282
X36.602Y13.508
X36.602Y7.735
X36.602Y1.962
X36.602Y-3.812
X36.602Y-9.585
X36.602Y-21.133
X36.602Y-26.906
X36.602Y-32.679
X36.602Y-38.453
X36.602Y-44.227
X42.376Y48.149
X42.376Y42.376
X42.376Y36.602
X42.376Y30.829
X42.376Y25.055
X42.376Y19.282
X42.376Y13.508
X42.376Y-3.812
X42.376Y-9.585
X42.376Y-21.133
X42.376Y-26.906
X42.376Y-38.453
X42.376Y-44.227
X48.149Y48.149
X48.149Y42.376
X48.149Y36.602
X48.149Y30.829
X48.149Y25.055
X48.149Y19.282
X48.149Y13.508
X48.149Y7.735
X48.149Y1.962
X48.149Y-3.812
X48.149Y-9.585
X48.149Y-15.359
X48.149Y-21.133
X48.149Y-38.453
X48.149Y-44.227
M30
