%TF.GenerationSoftware,Flux,Pcbnew,7.0.11-7.0.11~ubuntu20.04.1*%
%TF.CreationDate,2024-08-18T14:12:48+00:00*%
%TF.ProjectId,input,696e7075-742e-46b6-9963-61645f706362,rev?*%
%TF.SameCoordinates,Original*%
%TF.FileFunction,Soldermask,Top*%
%TF.FilePolarity,Negative*%
%FSLAX46Y46*%
G04 Gerber Fmt 4.6, Leading zero omitted, Abs format (unit mm)*
G04 Filename: promicromacro*
G04 Build it with Flux! Visit our site at: https://www.flux.ai (PCBNEW 7.0.11-7.0.11~ubuntu20.04.1) date 2024-08-18 14:12:48*
%MOMM*%
%LPD*%
G01*
G04 APERTURE LIST*
G04 APERTURE END LIST*
%TO.C,*%
G36*
X-10525740Y34371448D02*
G01*
X-10521104Y34370991D01*
X-10516507Y34370232D01*
X-10511969Y34369174D01*
X-10507511Y34367821D01*
X-10503150Y34366180D01*
X-10498906Y34364257D01*
X-10494797Y34362061D01*
X-10490841Y34359601D01*
X-10487053Y34356887D01*
X-10483452Y34353931D01*
X-10480051Y34350746D01*
X-10476866Y34347345D01*
X-10473910Y34343744D01*
X-10471197Y34339957D01*
X-10468736Y34336000D01*
X-10466540Y34331891D01*
X-10464617Y34327647D01*
X-10462976Y34323286D01*
X-10461623Y34318828D01*
X-10460565Y34314290D01*
X-10459806Y34309693D01*
X-10459350Y34305057D01*
X-10459197Y34300400D01*
X-10459197Y33542800D01*
X-10459350Y33538143D01*
X-10459806Y33533507D01*
X-10460565Y33528910D01*
X-10461623Y33524372D01*
X-10462976Y33519914D01*
X-10464617Y33515553D01*
X-10466540Y33511309D01*
X-10468736Y33507200D01*
X-10471197Y33503243D01*
X-10473910Y33499456D01*
X-10476866Y33495855D01*
X-10480051Y33492454D01*
X-10483452Y33489269D01*
X-10487053Y33486313D01*
X-10490841Y33483599D01*
X-10494797Y33481139D01*
X-10498906Y33478943D01*
X-10503150Y33477020D01*
X-10507511Y33475379D01*
X-10511969Y33474026D01*
X-10516507Y33472968D01*
X-10521104Y33472209D01*
X-10525740Y33471752D01*
X-10530397Y33471600D01*
X-11337997Y33471600D01*
X-11342654Y33471752D01*
X-11347291Y33472209D01*
X-11351888Y33472968D01*
X-11356425Y33474026D01*
X-11360884Y33475379D01*
X-11365244Y33477020D01*
X-11369488Y33478943D01*
X-11373597Y33481139D01*
X-11377554Y33483599D01*
X-11381341Y33486313D01*
X-11384943Y33489269D01*
X-11388343Y33492454D01*
X-11391528Y33495855D01*
X-11394484Y33499456D01*
X-11397198Y33503243D01*
X-11399658Y33507200D01*
X-11401854Y33511309D01*
X-11403777Y33515553D01*
X-11405419Y33519914D01*
X-11406771Y33524372D01*
X-11407829Y33528910D01*
X-11408588Y33533507D01*
X-11409045Y33538143D01*
X-11409197Y33542800D01*
X-11409197Y34300400D01*
X-11409045Y34305057D01*
X-11408588Y34309693D01*
X-11407829Y34314290D01*
X-11406771Y34318828D01*
X-11405419Y34323286D01*
X-11403777Y34327647D01*
X-11401854Y34331891D01*
X-11399658Y34336000D01*
X-11397198Y34339957D01*
X-11394484Y34343744D01*
X-11391528Y34347345D01*
X-11388343Y34350746D01*
X-11384943Y34353931D01*
X-11381341Y34356887D01*
X-11377554Y34359601D01*
X-11373597Y34362061D01*
X-11369488Y34364257D01*
X-11365244Y34366180D01*
X-11360884Y34367821D01*
X-11356425Y34369174D01*
X-11351888Y34370232D01*
X-11347291Y34370991D01*
X-11342654Y34371448D01*
X-11337997Y34371600D01*
X-10530397Y34371600D01*
X-10525740Y34371448D01*
G37*
G36*
X-10525746Y35921448D02*
G01*
X-10521109Y35920991D01*
X-10516512Y35920232D01*
X-10511975Y35919174D01*
X-10507516Y35917821D01*
X-10503156Y35916180D01*
X-10498912Y35914257D01*
X-10494803Y35912061D01*
X-10490846Y35909601D01*
X-10487059Y35906887D01*
X-10483457Y35903931D01*
X-10480057Y35900746D01*
X-10476872Y35897345D01*
X-10473916Y35893744D01*
X-10471202Y35889957D01*
X-10468742Y35886000D01*
X-10466546Y35881891D01*
X-10464623Y35877647D01*
X-10462981Y35873286D01*
X-10461629Y35868828D01*
X-10460571Y35864290D01*
X-10459812Y35859693D01*
X-10459355Y35855057D01*
X-10459203Y35850400D01*
X-10459203Y35092800D01*
X-10459355Y35088143D01*
X-10459812Y35083507D01*
X-10460571Y35078910D01*
X-10461629Y35074372D01*
X-10462981Y35069914D01*
X-10464623Y35065553D01*
X-10466546Y35061309D01*
X-10468742Y35057200D01*
X-10471202Y35053243D01*
X-10473916Y35049456D01*
X-10476872Y35045855D01*
X-10480057Y35042454D01*
X-10483457Y35039269D01*
X-10487059Y35036313D01*
X-10490846Y35033599D01*
X-10494803Y35031139D01*
X-10498912Y35028943D01*
X-10503156Y35027020D01*
X-10507516Y35025379D01*
X-10511975Y35024026D01*
X-10516512Y35022968D01*
X-10521109Y35022209D01*
X-10525746Y35021752D01*
X-10530403Y35021600D01*
X-11338003Y35021600D01*
X-11342660Y35021752D01*
X-11347296Y35022209D01*
X-11351893Y35022968D01*
X-11356431Y35024026D01*
X-11360889Y35025379D01*
X-11365250Y35027020D01*
X-11369494Y35028943D01*
X-11373603Y35031139D01*
X-11377559Y35033599D01*
X-11381347Y35036313D01*
X-11384948Y35039269D01*
X-11388349Y35042454D01*
X-11391534Y35045855D01*
X-11394490Y35049456D01*
X-11397203Y35053243D01*
X-11399664Y35057200D01*
X-11401860Y35061309D01*
X-11403783Y35065553D01*
X-11405424Y35069914D01*
X-11406777Y35074372D01*
X-11407835Y35078910D01*
X-11408594Y35083507D01*
X-11409050Y35088143D01*
X-11409203Y35092800D01*
X-11409203Y35850400D01*
X-11409050Y35855057D01*
X-11408594Y35859693D01*
X-11407835Y35864290D01*
X-11406777Y35868828D01*
X-11405424Y35873286D01*
X-11403783Y35877647D01*
X-11401860Y35881891D01*
X-11399664Y35886000D01*
X-11397203Y35889957D01*
X-11394490Y35893744D01*
X-11391534Y35897345D01*
X-11388349Y35900746D01*
X-11384948Y35903931D01*
X-11381347Y35906887D01*
X-11377559Y35909601D01*
X-11373603Y35912061D01*
X-11369494Y35914257D01*
X-11365250Y35916180D01*
X-11360889Y35917821D01*
X-11356431Y35919174D01*
X-11351893Y35920232D01*
X-11347296Y35920991D01*
X-11342660Y35921448D01*
X-11338003Y35921600D01*
X-10530403Y35921600D01*
X-10525746Y35921448D01*
G37*
G36*
X-776640Y35634748D02*
G01*
X-772004Y35634291D01*
X-767407Y35633532D01*
X-762869Y35632474D01*
X-758411Y35631121D01*
X-754050Y35629480D01*
X-749806Y35627557D01*
X-745697Y35625361D01*
X-741741Y35622901D01*
X-737953Y35620187D01*
X-734352Y35617231D01*
X-730951Y35614046D01*
X-727766Y35610645D01*
X-724810Y35607044D01*
X-722097Y35603257D01*
X-719636Y35599300D01*
X-717440Y35595191D01*
X-715517Y35590947D01*
X-713876Y35586586D01*
X-712523Y35582128D01*
X-711465Y35577590D01*
X-710706Y35572993D01*
X-710250Y35568357D01*
X-710097Y35563700D01*
X-710097Y34806100D01*
X-710250Y34801443D01*
X-710706Y34796807D01*
X-711465Y34792210D01*
X-712523Y34787672D01*
X-713876Y34783214D01*
X-715517Y34778853D01*
X-717440Y34774609D01*
X-719636Y34770500D01*
X-722097Y34766543D01*
X-724810Y34762756D01*
X-727766Y34759155D01*
X-730951Y34755754D01*
X-734352Y34752569D01*
X-737953Y34749613D01*
X-741741Y34746899D01*
X-745697Y34744439D01*
X-749806Y34742243D01*
X-754050Y34740320D01*
X-758411Y34738679D01*
X-762869Y34737326D01*
X-767407Y34736268D01*
X-772004Y34735509D01*
X-776640Y34735052D01*
X-781297Y34734900D01*
X-1588897Y34734900D01*
X-1593554Y34735052D01*
X-1598191Y34735509D01*
X-1602788Y34736268D01*
X-1607325Y34737326D01*
X-1611784Y34738679D01*
X-1616144Y34740320D01*
X-1620388Y34742243D01*
X-1624497Y34744439D01*
X-1628454Y34746899D01*
X-1632241Y34749613D01*
X-1635843Y34752569D01*
X-1639243Y34755754D01*
X-1642428Y34759155D01*
X-1645384Y34762756D01*
X-1648098Y34766543D01*
X-1650558Y34770500D01*
X-1652754Y34774609D01*
X-1654677Y34778853D01*
X-1656319Y34783214D01*
X-1657671Y34787672D01*
X-1658729Y34792210D01*
X-1659488Y34796807D01*
X-1659945Y34801443D01*
X-1660097Y34806100D01*
X-1660097Y35563700D01*
X-1659945Y35568357D01*
X-1659488Y35572993D01*
X-1658729Y35577590D01*
X-1657671Y35582128D01*
X-1656319Y35586586D01*
X-1654677Y35590947D01*
X-1652754Y35595191D01*
X-1650558Y35599300D01*
X-1648098Y35603257D01*
X-1645384Y35607044D01*
X-1642428Y35610645D01*
X-1639243Y35614046D01*
X-1635843Y35617231D01*
X-1632241Y35620187D01*
X-1628454Y35622901D01*
X-1624497Y35625361D01*
X-1620388Y35627557D01*
X-1616144Y35629480D01*
X-1611784Y35631121D01*
X-1607325Y35632474D01*
X-1602788Y35633532D01*
X-1598191Y35634291D01*
X-1593554Y35634748D01*
X-1588897Y35634900D01*
X-781297Y35634900D01*
X-776640Y35634748D01*
G37*
G36*
X-776646Y37184748D02*
G01*
X-772009Y37184291D01*
X-767412Y37183532D01*
X-762875Y37182474D01*
X-758416Y37181121D01*
X-754056Y37179480D01*
X-749812Y37177557D01*
X-745703Y37175361D01*
X-741746Y37172901D01*
X-737959Y37170187D01*
X-734357Y37167231D01*
X-730957Y37164046D01*
X-727772Y37160645D01*
X-724816Y37157044D01*
X-722102Y37153257D01*
X-719642Y37149300D01*
X-717446Y37145191D01*
X-715523Y37140947D01*
X-713881Y37136586D01*
X-712529Y37132128D01*
X-711471Y37127590D01*
X-710712Y37122993D01*
X-710255Y37118357D01*
X-710103Y37113700D01*
X-710103Y36356100D01*
X-710255Y36351443D01*
X-710712Y36346807D01*
X-711471Y36342210D01*
X-712529Y36337672D01*
X-713881Y36333214D01*
X-715523Y36328853D01*
X-717446Y36324609D01*
X-719642Y36320500D01*
X-722102Y36316543D01*
X-724816Y36312756D01*
X-727772Y36309155D01*
X-730957Y36305754D01*
X-734357Y36302569D01*
X-737959Y36299613D01*
X-741746Y36296899D01*
X-745703Y36294439D01*
X-749812Y36292243D01*
X-754056Y36290320D01*
X-758416Y36288679D01*
X-762875Y36287326D01*
X-767412Y36286268D01*
X-772009Y36285509D01*
X-776646Y36285052D01*
X-781303Y36284900D01*
X-1588903Y36284900D01*
X-1593560Y36285052D01*
X-1598196Y36285509D01*
X-1602793Y36286268D01*
X-1607331Y36287326D01*
X-1611789Y36288679D01*
X-1616150Y36290320D01*
X-1620394Y36292243D01*
X-1624503Y36294439D01*
X-1628459Y36296899D01*
X-1632247Y36299613D01*
X-1635848Y36302569D01*
X-1639249Y36305754D01*
X-1642434Y36309155D01*
X-1645390Y36312756D01*
X-1648103Y36316543D01*
X-1650564Y36320500D01*
X-1652760Y36324609D01*
X-1654683Y36328853D01*
X-1656324Y36333214D01*
X-1657677Y36337672D01*
X-1658735Y36342210D01*
X-1659494Y36346807D01*
X-1659950Y36351443D01*
X-1660103Y36356100D01*
X-1660103Y37113700D01*
X-1659950Y37118357D01*
X-1659494Y37122993D01*
X-1658735Y37127590D01*
X-1657677Y37132128D01*
X-1656324Y37136586D01*
X-1654683Y37140947D01*
X-1652760Y37145191D01*
X-1650564Y37149300D01*
X-1648103Y37153257D01*
X-1645390Y37157044D01*
X-1642434Y37160645D01*
X-1639249Y37164046D01*
X-1635848Y37167231D01*
X-1632247Y37170187D01*
X-1628459Y37172901D01*
X-1624503Y37175361D01*
X-1620394Y37177557D01*
X-1616150Y37179480D01*
X-1611789Y37181121D01*
X-1607331Y37182474D01*
X-1602793Y37183532D01*
X-1598196Y37184291D01*
X-1593560Y37184748D01*
X-1588903Y37184900D01*
X-781303Y37184900D01*
X-776646Y37184748D01*
G37*
G36*
X-5780393Y10600596D02*
G01*
X-7080393Y10600596D01*
X-7080393Y12200596D01*
X-5780393Y12200596D01*
X-5780393Y10600596D01*
G37*
G36*
X-3480393Y10600604D02*
G01*
X-4780393Y10600604D01*
X-4780393Y12200604D01*
X-3480393Y12200604D01*
X-3480393Y10600604D01*
G37*
G36*
X-5780407Y14400596D02*
G01*
X-7080407Y14400596D01*
X-7080407Y16000596D01*
X-5780407Y16000596D01*
X-5780407Y14400596D01*
G37*
G36*
X-3480407Y14400604D02*
G01*
X-4780407Y14400604D01*
X-4780407Y16000604D01*
X-3480407Y16000604D01*
X-3480407Y14400604D01*
G37*
G36*
X-6309840Y8311348D02*
G01*
X-6305204Y8310891D01*
X-6300607Y8310132D01*
X-6296069Y8309074D01*
X-6291611Y8307721D01*
X-6287250Y8306080D01*
X-6283006Y8304157D01*
X-6278897Y8301961D01*
X-6274941Y8299501D01*
X-6271153Y8296787D01*
X-6267552Y8293831D01*
X-6264151Y8290646D01*
X-6260966Y8287245D01*
X-6258010Y8283644D01*
X-6255297Y8279857D01*
X-6252836Y8275900D01*
X-6250640Y8271791D01*
X-6248717Y8267547D01*
X-6247076Y8263186D01*
X-6245723Y8258728D01*
X-6244665Y8254190D01*
X-6243906Y8249593D01*
X-6243450Y8244957D01*
X-6243297Y8240300D01*
X-6243297Y7482700D01*
X-6243450Y7478043D01*
X-6243906Y7473407D01*
X-6244665Y7468810D01*
X-6245723Y7464272D01*
X-6247076Y7459814D01*
X-6248717Y7455453D01*
X-6250640Y7451209D01*
X-6252836Y7447100D01*
X-6255297Y7443143D01*
X-6258010Y7439356D01*
X-6260966Y7435755D01*
X-6264151Y7432354D01*
X-6267552Y7429169D01*
X-6271153Y7426213D01*
X-6274941Y7423499D01*
X-6278897Y7421039D01*
X-6283006Y7418843D01*
X-6287250Y7416920D01*
X-6291611Y7415279D01*
X-6296069Y7413926D01*
X-6300607Y7412868D01*
X-6305204Y7412109D01*
X-6309840Y7411652D01*
X-6314497Y7411500D01*
X-7122097Y7411500D01*
X-7126754Y7411652D01*
X-7131391Y7412109D01*
X-7135988Y7412868D01*
X-7140525Y7413926D01*
X-7144984Y7415279D01*
X-7149344Y7416920D01*
X-7153588Y7418843D01*
X-7157697Y7421039D01*
X-7161654Y7423499D01*
X-7165441Y7426213D01*
X-7169043Y7429169D01*
X-7172443Y7432354D01*
X-7175628Y7435755D01*
X-7178584Y7439356D01*
X-7181298Y7443143D01*
X-7183758Y7447100D01*
X-7185954Y7451209D01*
X-7187877Y7455453D01*
X-7189519Y7459814D01*
X-7190871Y7464272D01*
X-7191929Y7468810D01*
X-7192688Y7473407D01*
X-7193145Y7478043D01*
X-7193297Y7482700D01*
X-7193297Y8240300D01*
X-7193145Y8244957D01*
X-7192688Y8249593D01*
X-7191929Y8254190D01*
X-7190871Y8258728D01*
X-7189519Y8263186D01*
X-7187877Y8267547D01*
X-7185954Y8271791D01*
X-7183758Y8275900D01*
X-7181298Y8279857D01*
X-7178584Y8283644D01*
X-7175628Y8287245D01*
X-7172443Y8290646D01*
X-7169043Y8293831D01*
X-7165441Y8296787D01*
X-7161654Y8299501D01*
X-7157697Y8301961D01*
X-7153588Y8304157D01*
X-7149344Y8306080D01*
X-7144984Y8307721D01*
X-7140525Y8309074D01*
X-7135988Y8310132D01*
X-7131391Y8310891D01*
X-7126754Y8311348D01*
X-7122097Y8311500D01*
X-6314497Y8311500D01*
X-6309840Y8311348D01*
G37*
G36*
X-6309846Y9861348D02*
G01*
X-6305209Y9860891D01*
X-6300612Y9860132D01*
X-6296075Y9859074D01*
X-6291616Y9857721D01*
X-6287256Y9856080D01*
X-6283012Y9854157D01*
X-6278903Y9851961D01*
X-6274946Y9849501D01*
X-6271159Y9846787D01*
X-6267557Y9843831D01*
X-6264157Y9840646D01*
X-6260972Y9837245D01*
X-6258016Y9833644D01*
X-6255302Y9829857D01*
X-6252842Y9825900D01*
X-6250646Y9821791D01*
X-6248723Y9817547D01*
X-6247081Y9813186D01*
X-6245729Y9808728D01*
X-6244671Y9804190D01*
X-6243912Y9799593D01*
X-6243455Y9794957D01*
X-6243303Y9790300D01*
X-6243303Y9032700D01*
X-6243455Y9028043D01*
X-6243912Y9023407D01*
X-6244671Y9018810D01*
X-6245729Y9014272D01*
X-6247081Y9009814D01*
X-6248723Y9005453D01*
X-6250646Y9001209D01*
X-6252842Y8997100D01*
X-6255302Y8993143D01*
X-6258016Y8989356D01*
X-6260972Y8985755D01*
X-6264157Y8982354D01*
X-6267557Y8979169D01*
X-6271159Y8976213D01*
X-6274946Y8973499D01*
X-6278903Y8971039D01*
X-6283012Y8968843D01*
X-6287256Y8966920D01*
X-6291616Y8965279D01*
X-6296075Y8963926D01*
X-6300612Y8962868D01*
X-6305209Y8962109D01*
X-6309846Y8961652D01*
X-6314503Y8961500D01*
X-7122103Y8961500D01*
X-7126760Y8961652D01*
X-7131396Y8962109D01*
X-7135993Y8962868D01*
X-7140531Y8963926D01*
X-7144989Y8965279D01*
X-7149350Y8966920D01*
X-7153594Y8968843D01*
X-7157703Y8971039D01*
X-7161659Y8973499D01*
X-7165447Y8976213D01*
X-7169048Y8979169D01*
X-7172449Y8982354D01*
X-7175634Y8985755D01*
X-7178590Y8989356D01*
X-7181303Y8993143D01*
X-7183764Y8997100D01*
X-7185960Y9001209D01*
X-7187883Y9005453D01*
X-7189524Y9009814D01*
X-7190877Y9014272D01*
X-7191935Y9018810D01*
X-7192694Y9023407D01*
X-7193150Y9028043D01*
X-7193303Y9032700D01*
X-7193303Y9790300D01*
X-7193150Y9794957D01*
X-7192694Y9799593D01*
X-7191935Y9804190D01*
X-7190877Y9808728D01*
X-7189524Y9813186D01*
X-7187883Y9817547D01*
X-7185960Y9821791D01*
X-7183764Y9825900D01*
X-7181303Y9829857D01*
X-7178590Y9833644D01*
X-7175634Y9837245D01*
X-7172449Y9840646D01*
X-7169048Y9843831D01*
X-7165447Y9846787D01*
X-7161659Y9849501D01*
X-7157703Y9851961D01*
X-7153594Y9854157D01*
X-7149350Y9856080D01*
X-7144989Y9857721D01*
X-7140531Y9859074D01*
X-7135993Y9860132D01*
X-7131396Y9860891D01*
X-7126760Y9861348D01*
X-7122103Y9861500D01*
X-6314503Y9861500D01*
X-6309846Y9861348D01*
G37*
G36*
X-34231597Y24786100D02*
G01*
X-35131597Y24786100D01*
X-35131597Y25386100D01*
X-34231597Y25386100D01*
X-34231597Y24786100D01*
G37*
G36*
X-34231603Y26286100D02*
G01*
X-35131603Y26286100D01*
X-35131603Y26886100D01*
X-34231603Y26886100D01*
X-34231603Y26286100D01*
G37*
G36*
X-3467940Y8318748D02*
G01*
X-3463304Y8318291D01*
X-3458707Y8317532D01*
X-3454169Y8316474D01*
X-3449711Y8315121D01*
X-3445350Y8313480D01*
X-3441106Y8311557D01*
X-3436997Y8309361D01*
X-3433041Y8306901D01*
X-3429253Y8304187D01*
X-3425652Y8301231D01*
X-3422251Y8298046D01*
X-3419066Y8294645D01*
X-3416110Y8291044D01*
X-3413397Y8287257D01*
X-3410936Y8283300D01*
X-3408740Y8279191D01*
X-3406817Y8274947D01*
X-3405176Y8270586D01*
X-3403823Y8266128D01*
X-3402765Y8261590D01*
X-3402006Y8256993D01*
X-3401550Y8252357D01*
X-3401397Y8247700D01*
X-3401397Y7490100D01*
X-3401550Y7485443D01*
X-3402006Y7480807D01*
X-3402765Y7476210D01*
X-3403823Y7471672D01*
X-3405176Y7467214D01*
X-3406817Y7462853D01*
X-3408740Y7458609D01*
X-3410936Y7454500D01*
X-3413397Y7450543D01*
X-3416110Y7446756D01*
X-3419066Y7443155D01*
X-3422251Y7439754D01*
X-3425652Y7436569D01*
X-3429253Y7433613D01*
X-3433041Y7430899D01*
X-3436997Y7428439D01*
X-3441106Y7426243D01*
X-3445350Y7424320D01*
X-3449711Y7422679D01*
X-3454169Y7421326D01*
X-3458707Y7420268D01*
X-3463304Y7419509D01*
X-3467940Y7419052D01*
X-3472597Y7418900D01*
X-4280197Y7418900D01*
X-4284854Y7419052D01*
X-4289491Y7419509D01*
X-4294088Y7420268D01*
X-4298625Y7421326D01*
X-4303084Y7422679D01*
X-4307444Y7424320D01*
X-4311688Y7426243D01*
X-4315797Y7428439D01*
X-4319754Y7430899D01*
X-4323541Y7433613D01*
X-4327143Y7436569D01*
X-4330543Y7439754D01*
X-4333728Y7443155D01*
X-4336684Y7446756D01*
X-4339398Y7450543D01*
X-4341858Y7454500D01*
X-4344054Y7458609D01*
X-4345977Y7462853D01*
X-4347619Y7467214D01*
X-4348971Y7471672D01*
X-4350029Y7476210D01*
X-4350788Y7480807D01*
X-4351245Y7485443D01*
X-4351397Y7490100D01*
X-4351397Y8247700D01*
X-4351245Y8252357D01*
X-4350788Y8256993D01*
X-4350029Y8261590D01*
X-4348971Y8266128D01*
X-4347619Y8270586D01*
X-4345977Y8274947D01*
X-4344054Y8279191D01*
X-4341858Y8283300D01*
X-4339398Y8287257D01*
X-4336684Y8291044D01*
X-4333728Y8294645D01*
X-4330543Y8298046D01*
X-4327143Y8301231D01*
X-4323541Y8304187D01*
X-4319754Y8306901D01*
X-4315797Y8309361D01*
X-4311688Y8311557D01*
X-4307444Y8313480D01*
X-4303084Y8315121D01*
X-4298625Y8316474D01*
X-4294088Y8317532D01*
X-4289491Y8318291D01*
X-4284854Y8318748D01*
X-4280197Y8318900D01*
X-3472597Y8318900D01*
X-3467940Y8318748D01*
G37*
G36*
X-3467946Y9868748D02*
G01*
X-3463309Y9868291D01*
X-3458712Y9867532D01*
X-3454175Y9866474D01*
X-3449716Y9865121D01*
X-3445356Y9863480D01*
X-3441112Y9861557D01*
X-3437003Y9859361D01*
X-3433046Y9856901D01*
X-3429259Y9854187D01*
X-3425657Y9851231D01*
X-3422257Y9848046D01*
X-3419072Y9844645D01*
X-3416116Y9841044D01*
X-3413402Y9837257D01*
X-3410942Y9833300D01*
X-3408746Y9829191D01*
X-3406823Y9824947D01*
X-3405181Y9820586D01*
X-3403829Y9816128D01*
X-3402771Y9811590D01*
X-3402012Y9806993D01*
X-3401555Y9802357D01*
X-3401403Y9797700D01*
X-3401403Y9040100D01*
X-3401555Y9035443D01*
X-3402012Y9030807D01*
X-3402771Y9026210D01*
X-3403829Y9021672D01*
X-3405181Y9017214D01*
X-3406823Y9012853D01*
X-3408746Y9008609D01*
X-3410942Y9004500D01*
X-3413402Y9000543D01*
X-3416116Y8996756D01*
X-3419072Y8993155D01*
X-3422257Y8989754D01*
X-3425657Y8986569D01*
X-3429259Y8983613D01*
X-3433046Y8980899D01*
X-3437003Y8978439D01*
X-3441112Y8976243D01*
X-3445356Y8974320D01*
X-3449716Y8972679D01*
X-3454175Y8971326D01*
X-3458712Y8970268D01*
X-3463309Y8969509D01*
X-3467946Y8969052D01*
X-3472603Y8968900D01*
X-4280203Y8968900D01*
X-4284860Y8969052D01*
X-4289496Y8969509D01*
X-4294093Y8970268D01*
X-4298631Y8971326D01*
X-4303089Y8972679D01*
X-4307450Y8974320D01*
X-4311694Y8976243D01*
X-4315803Y8978439D01*
X-4319759Y8980899D01*
X-4323547Y8983613D01*
X-4327148Y8986569D01*
X-4330549Y8989754D01*
X-4333734Y8993155D01*
X-4336690Y8996756D01*
X-4339403Y9000543D01*
X-4341864Y9004500D01*
X-4344060Y9008609D01*
X-4345983Y9012853D01*
X-4347624Y9017214D01*
X-4348977Y9021672D01*
X-4350035Y9026210D01*
X-4350794Y9030807D01*
X-4351250Y9035443D01*
X-4351403Y9040100D01*
X-4351403Y9797700D01*
X-4351250Y9802357D01*
X-4350794Y9806993D01*
X-4350035Y9811590D01*
X-4348977Y9816128D01*
X-4347624Y9820586D01*
X-4345983Y9824947D01*
X-4344060Y9829191D01*
X-4341864Y9833300D01*
X-4339403Y9837257D01*
X-4336690Y9841044D01*
X-4333734Y9844645D01*
X-4330549Y9848046D01*
X-4327148Y9851231D01*
X-4323547Y9854187D01*
X-4319759Y9856901D01*
X-4315803Y9859361D01*
X-4311694Y9861557D01*
X-4307450Y9863480D01*
X-4303089Y9865121D01*
X-4298631Y9866474D01*
X-4294093Y9867532D01*
X-4289496Y9868291D01*
X-4284860Y9868748D01*
X-4280203Y9868900D01*
X-3472603Y9868900D01*
X-3467946Y9868748D01*
G37*
G36*
X-13322043Y31254645D02*
G01*
X-13317407Y31254189D01*
X-13312810Y31253430D01*
X-13308272Y31252372D01*
X-13303814Y31251019D01*
X-13299453Y31249378D01*
X-13295209Y31247455D01*
X-13291100Y31245259D01*
X-13287143Y31242799D01*
X-13283356Y31240085D01*
X-13279755Y31237129D01*
X-13276354Y31233944D01*
X-13273169Y31230543D01*
X-13270213Y31226942D01*
X-13267499Y31223155D01*
X-13265039Y31219198D01*
X-13262843Y31215089D01*
X-13260920Y31210845D01*
X-13259279Y31206484D01*
X-13257926Y31202026D01*
X-13256868Y31197488D01*
X-13256109Y31192891D01*
X-13255652Y31188255D01*
X-13255500Y31183598D01*
X-13255500Y30375998D01*
X-13255652Y30371341D01*
X-13256109Y30366704D01*
X-13256868Y30362108D01*
X-13257926Y30357570D01*
X-13259279Y30353111D01*
X-13260920Y30348751D01*
X-13262843Y30344507D01*
X-13265039Y30340398D01*
X-13267499Y30336441D01*
X-13270213Y30332654D01*
X-13273169Y30329053D01*
X-13276354Y30325652D01*
X-13279755Y30322467D01*
X-13283356Y30319511D01*
X-13287143Y30316797D01*
X-13291100Y30314337D01*
X-13295209Y30312141D01*
X-13299453Y30310218D01*
X-13303814Y30308577D01*
X-13308272Y30307224D01*
X-13312810Y30306166D01*
X-13317407Y30305407D01*
X-13322043Y30304950D01*
X-13326700Y30304798D01*
X-14084300Y30304798D01*
X-14088957Y30304950D01*
X-14093593Y30305407D01*
X-14098190Y30306166D01*
X-14102728Y30307224D01*
X-14107186Y30308577D01*
X-14111547Y30310218D01*
X-14115791Y30312141D01*
X-14119900Y30314337D01*
X-14123857Y30316797D01*
X-14127644Y30319511D01*
X-14131245Y30322467D01*
X-14134646Y30325652D01*
X-14137831Y30329053D01*
X-14140787Y30332654D01*
X-14143501Y30336441D01*
X-14145961Y30340398D01*
X-14148157Y30344507D01*
X-14150080Y30348751D01*
X-14151721Y30353111D01*
X-14153074Y30357570D01*
X-14154132Y30362108D01*
X-14154891Y30366704D01*
X-14155348Y30371341D01*
X-14155500Y30375998D01*
X-14155500Y31183598D01*
X-14155348Y31188255D01*
X-14154891Y31192891D01*
X-14154132Y31197488D01*
X-14153074Y31202026D01*
X-14151721Y31206484D01*
X-14150080Y31210845D01*
X-14148157Y31215089D01*
X-14145961Y31219198D01*
X-14143501Y31223155D01*
X-14140787Y31226942D01*
X-14137831Y31230543D01*
X-14134646Y31233944D01*
X-14131245Y31237129D01*
X-14127644Y31240085D01*
X-14123857Y31242799D01*
X-14119900Y31245259D01*
X-14115791Y31247455D01*
X-14111547Y31249378D01*
X-14107186Y31251019D01*
X-14102728Y31252372D01*
X-14098190Y31253430D01*
X-14093593Y31254189D01*
X-14088957Y31254645D01*
X-14084300Y31254798D01*
X-13326700Y31254798D01*
X-13322043Y31254645D01*
G37*
G36*
X-14872043Y31254650D02*
G01*
X-14867407Y31254193D01*
X-14862810Y31253434D01*
X-14858272Y31252376D01*
X-14853814Y31251023D01*
X-14849453Y31249382D01*
X-14845209Y31247459D01*
X-14841100Y31245263D01*
X-14837143Y31242803D01*
X-14833356Y31240089D01*
X-14829755Y31237133D01*
X-14826354Y31233948D01*
X-14823169Y31230547D01*
X-14820213Y31226946D01*
X-14817499Y31223159D01*
X-14815039Y31219202D01*
X-14812843Y31215093D01*
X-14810920Y31210849D01*
X-14809279Y31206489D01*
X-14807926Y31202030D01*
X-14806868Y31197492D01*
X-14806109Y31192896D01*
X-14805652Y31188259D01*
X-14805500Y31183602D01*
X-14805500Y30376002D01*
X-14805652Y30371345D01*
X-14806109Y30366709D01*
X-14806868Y30362112D01*
X-14807926Y30357574D01*
X-14809279Y30353116D01*
X-14810920Y30348755D01*
X-14812843Y30344511D01*
X-14815039Y30340402D01*
X-14817499Y30336445D01*
X-14820213Y30332658D01*
X-14823169Y30329057D01*
X-14826354Y30325656D01*
X-14829755Y30322471D01*
X-14833356Y30319515D01*
X-14837143Y30316801D01*
X-14841100Y30314341D01*
X-14845209Y30312145D01*
X-14849453Y30310222D01*
X-14853814Y30308581D01*
X-14858272Y30307228D01*
X-14862810Y30306170D01*
X-14867407Y30305411D01*
X-14872043Y30304955D01*
X-14876700Y30304802D01*
X-15634300Y30304802D01*
X-15638957Y30304955D01*
X-15643593Y30305411D01*
X-15648190Y30306170D01*
X-15652728Y30307228D01*
X-15657186Y30308581D01*
X-15661547Y30310222D01*
X-15665791Y30312145D01*
X-15669900Y30314341D01*
X-15673857Y30316801D01*
X-15677644Y30319515D01*
X-15681245Y30322471D01*
X-15684646Y30325656D01*
X-15687831Y30329057D01*
X-15690787Y30332658D01*
X-15693501Y30336445D01*
X-15695961Y30340402D01*
X-15698157Y30344511D01*
X-15700080Y30348755D01*
X-15701721Y30353116D01*
X-15703074Y30357574D01*
X-15704132Y30362112D01*
X-15704891Y30366709D01*
X-15705348Y30371345D01*
X-15705500Y30376002D01*
X-15705500Y31183602D01*
X-15705348Y31188259D01*
X-15704891Y31192896D01*
X-15704132Y31197492D01*
X-15703074Y31202030D01*
X-15701721Y31206489D01*
X-15700080Y31210849D01*
X-15698157Y31215093D01*
X-15695961Y31219202D01*
X-15693501Y31223159D01*
X-15690787Y31226946D01*
X-15687831Y31230547D01*
X-15684646Y31233948D01*
X-15681245Y31237133D01*
X-15677644Y31240089D01*
X-15673857Y31242803D01*
X-15669900Y31245263D01*
X-15665791Y31247459D01*
X-15661547Y31249382D01*
X-15657186Y31251023D01*
X-15652728Y31252376D01*
X-15648190Y31253434D01*
X-15643593Y31254193D01*
X-15638957Y31254650D01*
X-15634300Y31254802D01*
X-14876700Y31254802D01*
X-14872043Y31254650D01*
G37*
G36*
X-12783744Y28772348D02*
G01*
X-12779107Y28771891D01*
X-12774510Y28771132D01*
X-12769973Y28770074D01*
X-12765514Y28768721D01*
X-12761154Y28767080D01*
X-12756910Y28765157D01*
X-12752801Y28762961D01*
X-12748844Y28760501D01*
X-12745057Y28757787D01*
X-12741455Y28754831D01*
X-12738055Y28751646D01*
X-12734870Y28748245D01*
X-12731914Y28744644D01*
X-12729200Y28740857D01*
X-12726740Y28736900D01*
X-12724543Y28732791D01*
X-12722621Y28728547D01*
X-12720979Y28724186D01*
X-12719627Y28719728D01*
X-12718569Y28715190D01*
X-12717810Y28710593D01*
X-12717353Y28705957D01*
X-12717201Y28701300D01*
X-12717201Y27943700D01*
X-12717353Y27939043D01*
X-12717810Y27934407D01*
X-12718569Y27929810D01*
X-12719627Y27925272D01*
X-12720979Y27920814D01*
X-12722621Y27916453D01*
X-12724543Y27912209D01*
X-12726740Y27908100D01*
X-12729200Y27904143D01*
X-12731914Y27900356D01*
X-12734870Y27896755D01*
X-12738055Y27893354D01*
X-12741455Y27890169D01*
X-12745057Y27887213D01*
X-12748844Y27884499D01*
X-12752801Y27882039D01*
X-12756910Y27879843D01*
X-12761154Y27877920D01*
X-12765514Y27876279D01*
X-12769973Y27874926D01*
X-12774510Y27873868D01*
X-12779107Y27873109D01*
X-12783744Y27872652D01*
X-12788401Y27872500D01*
X-13596001Y27872500D01*
X-13600657Y27872652D01*
X-13605294Y27873109D01*
X-13609891Y27873868D01*
X-13614429Y27874926D01*
X-13618887Y27876279D01*
X-13623248Y27877920D01*
X-13627492Y27879843D01*
X-13631601Y27882039D01*
X-13635557Y27884499D01*
X-13639345Y27887213D01*
X-13642946Y27890169D01*
X-13646347Y27893354D01*
X-13649532Y27896755D01*
X-13652488Y27900356D01*
X-13655201Y27904143D01*
X-13657662Y27908100D01*
X-13659858Y27912209D01*
X-13661781Y27916453D01*
X-13663422Y27920814D01*
X-13664775Y27925272D01*
X-13665833Y27929810D01*
X-13666592Y27934407D01*
X-13667048Y27939043D01*
X-13667201Y27943700D01*
X-13667201Y28701300D01*
X-13667048Y28705957D01*
X-13666592Y28710593D01*
X-13665833Y28715190D01*
X-13664775Y28719728D01*
X-13663422Y28724186D01*
X-13661781Y28728547D01*
X-13659858Y28732791D01*
X-13657662Y28736900D01*
X-13655201Y28740857D01*
X-13652488Y28744644D01*
X-13649532Y28748245D01*
X-13646347Y28751646D01*
X-13642946Y28754831D01*
X-13639345Y28757787D01*
X-13635557Y28760501D01*
X-13631601Y28762961D01*
X-13627492Y28765157D01*
X-13623248Y28767080D01*
X-13618887Y28768721D01*
X-13614429Y28770074D01*
X-13609891Y28771132D01*
X-13605294Y28771891D01*
X-13600657Y28772348D01*
X-13596001Y28772500D01*
X-12788401Y28772500D01*
X-12783744Y28772348D01*
G37*
G36*
X-12783743Y27222348D02*
G01*
X-12779106Y27221891D01*
X-12774509Y27221132D01*
X-12769971Y27220074D01*
X-12765513Y27218721D01*
X-12761152Y27217080D01*
X-12756908Y27215157D01*
X-12752799Y27212961D01*
X-12748843Y27210501D01*
X-12745055Y27207787D01*
X-12741454Y27204831D01*
X-12738053Y27201646D01*
X-12734868Y27198245D01*
X-12731912Y27194644D01*
X-12729199Y27190857D01*
X-12726738Y27186900D01*
X-12724542Y27182791D01*
X-12722619Y27178547D01*
X-12720978Y27174186D01*
X-12719625Y27169728D01*
X-12718567Y27165190D01*
X-12717808Y27160593D01*
X-12717352Y27155957D01*
X-12717199Y27151300D01*
X-12717199Y26393700D01*
X-12717352Y26389043D01*
X-12717808Y26384407D01*
X-12718567Y26379810D01*
X-12719625Y26375272D01*
X-12720978Y26370814D01*
X-12722619Y26366453D01*
X-12724542Y26362209D01*
X-12726738Y26358100D01*
X-12729199Y26354143D01*
X-12731912Y26350356D01*
X-12734868Y26346755D01*
X-12738053Y26343354D01*
X-12741454Y26340169D01*
X-12745055Y26337213D01*
X-12748843Y26334499D01*
X-12752799Y26332039D01*
X-12756908Y26329843D01*
X-12761152Y26327920D01*
X-12765513Y26326279D01*
X-12769971Y26324926D01*
X-12774509Y26323868D01*
X-12779106Y26323109D01*
X-12783743Y26322652D01*
X-12788399Y26322500D01*
X-13595999Y26322500D01*
X-13600656Y26322652D01*
X-13605293Y26323109D01*
X-13609890Y26323868D01*
X-13614427Y26324926D01*
X-13618886Y26326279D01*
X-13623246Y26327920D01*
X-13627490Y26329843D01*
X-13631599Y26332039D01*
X-13635556Y26334499D01*
X-13639343Y26337213D01*
X-13642945Y26340169D01*
X-13646345Y26343354D01*
X-13649530Y26346755D01*
X-13652486Y26350356D01*
X-13655200Y26354143D01*
X-13657660Y26358100D01*
X-13659857Y26362209D01*
X-13661779Y26366453D01*
X-13663421Y26370814D01*
X-13664773Y26375272D01*
X-13665831Y26379810D01*
X-13666590Y26384407D01*
X-13667047Y26389043D01*
X-13667199Y26393700D01*
X-13667199Y27151300D01*
X-13667047Y27155957D01*
X-13666590Y27160593D01*
X-13665831Y27165190D01*
X-13664773Y27169728D01*
X-13663421Y27174186D01*
X-13661779Y27178547D01*
X-13659857Y27182791D01*
X-13657660Y27186900D01*
X-13655200Y27190857D01*
X-13652486Y27194644D01*
X-13649530Y27198245D01*
X-13646345Y27201646D01*
X-13642945Y27204831D01*
X-13639343Y27207787D01*
X-13635556Y27210501D01*
X-13631599Y27212961D01*
X-13627490Y27215157D01*
X-13623246Y27217080D01*
X-13618886Y27218721D01*
X-13614427Y27220074D01*
X-13609890Y27221132D01*
X-13605293Y27221891D01*
X-13600656Y27222348D01*
X-13595999Y27222500D01*
X-12788399Y27222500D01*
X-12783743Y27222348D01*
G37*
G36*
X-12208114Y34516407D02*
G01*
X-12202253Y34515830D01*
X-12196442Y34514871D01*
X-12190706Y34513533D01*
X-12185070Y34511824D01*
X-12179558Y34509749D01*
X-12174194Y34507319D01*
X-12169000Y34504542D01*
X-12163999Y34501432D01*
X-12159211Y34498002D01*
X-12154659Y34494266D01*
X-12150360Y34490240D01*
X-12146334Y34485941D01*
X-12142598Y34481389D01*
X-12139168Y34476601D01*
X-12136058Y34471600D01*
X-12133281Y34466406D01*
X-12130851Y34461042D01*
X-12128776Y34455530D01*
X-12127067Y34449894D01*
X-12125729Y34444158D01*
X-12124770Y34438347D01*
X-12124193Y34432486D01*
X-12124000Y34426600D01*
X-12124000Y33406600D01*
X-12124193Y33400714D01*
X-12124770Y33394853D01*
X-12125729Y33389042D01*
X-12127067Y33383306D01*
X-12128776Y33377670D01*
X-12130851Y33372158D01*
X-12133281Y33366794D01*
X-12136058Y33361600D01*
X-12139168Y33356599D01*
X-12142598Y33351811D01*
X-12146334Y33347259D01*
X-12150360Y33342960D01*
X-12154659Y33338934D01*
X-12159211Y33335198D01*
X-12163999Y33331768D01*
X-12169000Y33328658D01*
X-12174194Y33325881D01*
X-12179558Y33323451D01*
X-12185070Y33321376D01*
X-12190706Y33319667D01*
X-12196442Y33318329D01*
X-12202253Y33317370D01*
X-12208114Y33316793D01*
X-12214000Y33316600D01*
X-12909000Y33316600D01*
X-12914886Y33316793D01*
X-12920747Y33317370D01*
X-12926558Y33318329D01*
X-12932294Y33319667D01*
X-12937930Y33321376D01*
X-12943442Y33323451D01*
X-12948806Y33325881D01*
X-12954000Y33328658D01*
X-12959001Y33331768D01*
X-12963789Y33335198D01*
X-12968341Y33338934D01*
X-12972640Y33342960D01*
X-12976666Y33347259D01*
X-12980402Y33351811D01*
X-12983832Y33356599D01*
X-12986942Y33361600D01*
X-12989719Y33366794D01*
X-12992149Y33372158D01*
X-12994224Y33377670D01*
X-12995933Y33383306D01*
X-12997271Y33389042D01*
X-12998230Y33394853D01*
X-12998807Y33400714D01*
X-12999000Y33406600D01*
X-12999000Y34426600D01*
X-12998807Y34432486D01*
X-12998230Y34438347D01*
X-12997271Y34444158D01*
X-12995933Y34449894D01*
X-12994224Y34455530D01*
X-12992149Y34461042D01*
X-12989719Y34466406D01*
X-12986942Y34471600D01*
X-12983832Y34476601D01*
X-12980402Y34481389D01*
X-12976666Y34485941D01*
X-12972640Y34490240D01*
X-12968341Y34494266D01*
X-12963789Y34498002D01*
X-12959001Y34501432D01*
X-12954000Y34504542D01*
X-12948806Y34507319D01*
X-12943442Y34509749D01*
X-12937930Y34511824D01*
X-12932294Y34513533D01*
X-12926558Y34514871D01*
X-12920747Y34515830D01*
X-12914886Y34516407D01*
X-12909000Y34516600D01*
X-12214000Y34516600D01*
X-12208114Y34516407D01*
G37*
G36*
X-14333114Y34516407D02*
G01*
X-14327253Y34515830D01*
X-14321442Y34514871D01*
X-14315706Y34513533D01*
X-14310070Y34511824D01*
X-14304558Y34509749D01*
X-14299194Y34507319D01*
X-14294000Y34504542D01*
X-14288999Y34501432D01*
X-14284211Y34498002D01*
X-14279659Y34494266D01*
X-14275360Y34490240D01*
X-14271334Y34485941D01*
X-14267598Y34481389D01*
X-14264168Y34476601D01*
X-14261058Y34471600D01*
X-14258281Y34466406D01*
X-14255851Y34461042D01*
X-14253776Y34455530D01*
X-14252067Y34449894D01*
X-14250729Y34444158D01*
X-14249770Y34438347D01*
X-14249193Y34432486D01*
X-14249000Y34426600D01*
X-14249000Y33406600D01*
X-14249193Y33400714D01*
X-14249770Y33394853D01*
X-14250729Y33389042D01*
X-14252067Y33383306D01*
X-14253776Y33377670D01*
X-14255851Y33372158D01*
X-14258281Y33366794D01*
X-14261058Y33361600D01*
X-14264168Y33356599D01*
X-14267598Y33351811D01*
X-14271334Y33347259D01*
X-14275360Y33342960D01*
X-14279659Y33338934D01*
X-14284211Y33335198D01*
X-14288999Y33331768D01*
X-14294000Y33328658D01*
X-14299194Y33325881D01*
X-14304558Y33323451D01*
X-14310070Y33321376D01*
X-14315706Y33319667D01*
X-14321442Y33318329D01*
X-14327253Y33317370D01*
X-14333114Y33316793D01*
X-14339000Y33316600D01*
X-15034000Y33316600D01*
X-15039886Y33316793D01*
X-15045747Y33317370D01*
X-15051558Y33318329D01*
X-15057294Y33319667D01*
X-15062930Y33321376D01*
X-15068442Y33323451D01*
X-15073806Y33325881D01*
X-15079000Y33328658D01*
X-15084001Y33331768D01*
X-15088789Y33335198D01*
X-15093341Y33338934D01*
X-15097640Y33342960D01*
X-15101666Y33347259D01*
X-15105402Y33351811D01*
X-15108832Y33356599D01*
X-15111942Y33361600D01*
X-15114719Y33366794D01*
X-15117149Y33372158D01*
X-15119224Y33377670D01*
X-15120933Y33383306D01*
X-15122271Y33389042D01*
X-15123230Y33394853D01*
X-15123807Y33400714D01*
X-15124000Y33406600D01*
X-15124000Y34426600D01*
X-15123807Y34432486D01*
X-15123230Y34438347D01*
X-15122271Y34444158D01*
X-15120933Y34449894D01*
X-15119224Y34455530D01*
X-15117149Y34461042D01*
X-15114719Y34466406D01*
X-15111942Y34471600D01*
X-15108832Y34476601D01*
X-15105402Y34481389D01*
X-15101666Y34485941D01*
X-15097640Y34490240D01*
X-15093341Y34494266D01*
X-15088789Y34498002D01*
X-15084001Y34501432D01*
X-15079000Y34504542D01*
X-15073806Y34507319D01*
X-15068442Y34509749D01*
X-15062930Y34511824D01*
X-15057294Y34513533D01*
X-15051558Y34514871D01*
X-15045747Y34515830D01*
X-15039886Y34516407D01*
X-15034000Y34516600D01*
X-14339000Y34516600D01*
X-14333114Y34516407D01*
G37*
G36*
X-34231601Y29564700D02*
G01*
X-35131601Y29564700D01*
X-35131601Y30164700D01*
X-34231601Y30164700D01*
X-34231601Y29564700D01*
G37*
G36*
X-34231599Y28064700D02*
G01*
X-35131599Y28064700D01*
X-35131599Y28664700D01*
X-34231599Y28664700D01*
X-34231599Y28064700D01*
G37*
G36*
X-3300900Y32431500D02*
G01*
X-3850900Y32431500D01*
X-3850900Y33931500D01*
X-3300900Y33931500D01*
X-3300900Y32431500D01*
G37*
G36*
X-8900900Y32431500D02*
G01*
X-9450900Y32431500D01*
X-9450900Y33931500D01*
X-8900900Y33931500D01*
X-8900900Y32431500D01*
G37*
G36*
X-10125900Y26406500D02*
G01*
X-11625900Y26406500D01*
X-11625900Y26956500D01*
X-10125900Y26956500D01*
X-10125900Y26406500D01*
G37*
G36*
X-6500900Y21031500D02*
G01*
X-7050900Y21031500D01*
X-7050900Y22531500D01*
X-6500900Y22531500D01*
X-6500900Y21031500D01*
G37*
G36*
X-10125900Y25606500D02*
G01*
X-11625900Y25606500D01*
X-11625900Y26156500D01*
X-10125900Y26156500D01*
X-10125900Y25606500D01*
G37*
G36*
X-900900Y21031500D02*
G01*
X-1450900Y21031500D01*
X-1450900Y22531500D01*
X-900900Y22531500D01*
X-900900Y21031500D01*
G37*
G36*
X-8100900Y32431500D02*
G01*
X-8650900Y32431500D01*
X-8650900Y33931500D01*
X-8100900Y33931500D01*
X-8100900Y32431500D01*
G37*
G36*
X-10125900Y24006500D02*
G01*
X-11625900Y24006500D01*
X-11625900Y24556500D01*
X-10125900Y24556500D01*
X-10125900Y24006500D01*
G37*
G36*
X-5700900Y32431500D02*
G01*
X-6250900Y32431500D01*
X-6250900Y33931500D01*
X-5700900Y33931500D01*
X-5700900Y32431500D01*
G37*
G36*
X-10125900Y28006500D02*
G01*
X-11625900Y28006500D01*
X-11625900Y28556500D01*
X-10125900Y28556500D01*
X-10125900Y28006500D01*
G37*
G36*
X1274100Y23206500D02*
G01*
X-225900Y23206500D01*
X-225900Y23756500D01*
X1274100Y23756500D01*
X1274100Y23206500D01*
G37*
G36*
X-10125900Y29606500D02*
G01*
X-11625900Y29606500D01*
X-11625900Y30156500D01*
X-10125900Y30156500D01*
X-10125900Y29606500D01*
G37*
G36*
X1274100Y31206500D02*
G01*
X-225900Y31206500D01*
X-225900Y31756500D01*
X1274100Y31756500D01*
X1274100Y31206500D01*
G37*
G36*
X-10125900Y27206500D02*
G01*
X-11625900Y27206500D01*
X-11625900Y27756500D01*
X-10125900Y27756500D01*
X-10125900Y27206500D01*
G37*
G36*
X1274100Y28006500D02*
G01*
X-225900Y28006500D01*
X-225900Y28556500D01*
X1274100Y28556500D01*
X1274100Y28006500D01*
G37*
G36*
X1274100Y27206500D02*
G01*
X-225900Y27206500D01*
X-225900Y27756500D01*
X1274100Y27756500D01*
X1274100Y27206500D01*
G37*
G36*
X-2500900Y21031500D02*
G01*
X-3050900Y21031500D01*
X-3050900Y22531500D01*
X-2500900Y22531500D01*
X-2500900Y21031500D01*
G37*
G36*
X-4900900Y21031500D02*
G01*
X-5450900Y21031500D01*
X-5450900Y22531500D01*
X-4900900Y22531500D01*
X-4900900Y21031500D01*
G37*
G36*
X-10125900Y23206500D02*
G01*
X-11625900Y23206500D01*
X-11625900Y23756500D01*
X-10125900Y23756500D01*
X-10125900Y23206500D01*
G37*
G36*
X-7300900Y21031500D02*
G01*
X-7850900Y21031500D01*
X-7850900Y22531500D01*
X-7300900Y22531500D01*
X-7300900Y21031500D01*
G37*
G36*
X1274100Y30406500D02*
G01*
X-225900Y30406500D01*
X-225900Y30956500D01*
X1274100Y30956500D01*
X1274100Y30406500D01*
G37*
G36*
X-8100900Y21031500D02*
G01*
X-8650900Y21031500D01*
X-8650900Y22531500D01*
X-8100900Y22531500D01*
X-8100900Y21031500D01*
G37*
G36*
X-3300900Y21031500D02*
G01*
X-3850900Y21031500D01*
X-3850900Y22531500D01*
X-3300900Y22531500D01*
X-3300900Y21031500D01*
G37*
G36*
X-900900Y32431500D02*
G01*
X-1450900Y32431500D01*
X-1450900Y33931500D01*
X-900900Y33931500D01*
X-900900Y32431500D01*
G37*
G36*
X-10125900Y31206500D02*
G01*
X-11625900Y31206500D01*
X-11625900Y31756500D01*
X-10125900Y31756500D01*
X-10125900Y31206500D01*
G37*
G36*
X1274100Y26406500D02*
G01*
X-225900Y26406500D01*
X-225900Y26956500D01*
X1274100Y26956500D01*
X1274100Y26406500D01*
G37*
G36*
X-10125900Y24806500D02*
G01*
X-11625900Y24806500D01*
X-11625900Y25356500D01*
X-10125900Y25356500D01*
X-10125900Y24806500D01*
G37*
G36*
X1274100Y24806500D02*
G01*
X-225900Y24806500D01*
X-225900Y25356500D01*
X1274100Y25356500D01*
X1274100Y24806500D01*
G37*
G36*
X-2500900Y32431500D02*
G01*
X-3050900Y32431500D01*
X-3050900Y33931500D01*
X-2500900Y33931500D01*
X-2500900Y32431500D01*
G37*
G36*
X-6500900Y32431500D02*
G01*
X-7050900Y32431500D01*
X-7050900Y33931500D01*
X-6500900Y33931500D01*
X-6500900Y32431500D01*
G37*
G36*
X-10125900Y28806500D02*
G01*
X-11625900Y28806500D01*
X-11625900Y29356500D01*
X-10125900Y29356500D01*
X-10125900Y28806500D01*
G37*
G36*
X-5700900Y21031500D02*
G01*
X-6250900Y21031500D01*
X-6250900Y22531500D01*
X-5700900Y22531500D01*
X-5700900Y21031500D01*
G37*
G36*
X-4100900Y32431500D02*
G01*
X-4650900Y32431500D01*
X-4650900Y33931500D01*
X-4100900Y33931500D01*
X-4100900Y32431500D01*
G37*
G36*
X-4900900Y32431500D02*
G01*
X-5450900Y32431500D01*
X-5450900Y33931500D01*
X-4900900Y33931500D01*
X-4900900Y32431500D01*
G37*
G36*
X1274100Y28806500D02*
G01*
X-225900Y28806500D01*
X-225900Y29356500D01*
X1274100Y29356500D01*
X1274100Y28806500D01*
G37*
G36*
X1274100Y29606500D02*
G01*
X-225900Y29606500D01*
X-225900Y30156500D01*
X1274100Y30156500D01*
X1274100Y29606500D01*
G37*
G36*
X-7300900Y32431500D02*
G01*
X-7850900Y32431500D01*
X-7850900Y33931500D01*
X-7300900Y33931500D01*
X-7300900Y32431500D01*
G37*
G36*
X1274100Y24006500D02*
G01*
X-225900Y24006500D01*
X-225900Y24556500D01*
X1274100Y24556500D01*
X1274100Y24006500D01*
G37*
G36*
X-1700900Y21031500D02*
G01*
X-2250900Y21031500D01*
X-2250900Y22531500D01*
X-1700900Y22531500D01*
X-1700900Y21031500D01*
G37*
G36*
X-10125900Y30406500D02*
G01*
X-11625900Y30406500D01*
X-11625900Y30956500D01*
X-10125900Y30956500D01*
X-10125900Y30406500D01*
G37*
G36*
X1274100Y25606500D02*
G01*
X-225900Y25606500D01*
X-225900Y26156500D01*
X1274100Y26156500D01*
X1274100Y25606500D01*
G37*
G36*
X-4100900Y21031500D02*
G01*
X-4650900Y21031500D01*
X-4650900Y22531500D01*
X-4100900Y22531500D01*
X-4100900Y21031500D01*
G37*
G36*
X-8900900Y21031500D02*
G01*
X-9450900Y21031500D01*
X-9450900Y22531500D01*
X-8900900Y22531500D01*
X-8900900Y21031500D01*
G37*
G36*
X-1700900Y32431500D02*
G01*
X-2250900Y32431500D01*
X-2250900Y33931500D01*
X-1700900Y33931500D01*
X-1700900Y32431500D01*
G37*
G36*
X-8347043Y35971948D02*
G01*
X-8342407Y35971491D01*
X-8337810Y35970732D01*
X-8333272Y35969674D01*
X-8328814Y35968321D01*
X-8324453Y35966680D01*
X-8320209Y35964757D01*
X-8316100Y35962561D01*
X-8312143Y35960101D01*
X-8308356Y35957387D01*
X-8304755Y35954431D01*
X-8301354Y35951246D01*
X-8298169Y35947845D01*
X-8295213Y35944244D01*
X-8292499Y35940457D01*
X-8290039Y35936500D01*
X-8287843Y35932391D01*
X-8285920Y35928147D01*
X-8284279Y35923786D01*
X-8282926Y35919328D01*
X-8281868Y35914790D01*
X-8281109Y35910193D01*
X-8280652Y35905557D01*
X-8280500Y35900900D01*
X-8280500Y35093300D01*
X-8280652Y35088643D01*
X-8281109Y35084007D01*
X-8281868Y35079410D01*
X-8282926Y35074872D01*
X-8284279Y35070414D01*
X-8285920Y35066053D01*
X-8287843Y35061809D01*
X-8290039Y35057700D01*
X-8292499Y35053743D01*
X-8295213Y35049956D01*
X-8298169Y35046355D01*
X-8301354Y35042954D01*
X-8304755Y35039769D01*
X-8308356Y35036813D01*
X-8312143Y35034099D01*
X-8316100Y35031639D01*
X-8320209Y35029443D01*
X-8324453Y35027520D01*
X-8328814Y35025879D01*
X-8333272Y35024526D01*
X-8337810Y35023468D01*
X-8342407Y35022709D01*
X-8347043Y35022252D01*
X-8351700Y35022100D01*
X-9109300Y35022100D01*
X-9113957Y35022252D01*
X-9118593Y35022709D01*
X-9123190Y35023468D01*
X-9127728Y35024526D01*
X-9132186Y35025879D01*
X-9136547Y35027520D01*
X-9140791Y35029443D01*
X-9144900Y35031639D01*
X-9148857Y35034099D01*
X-9152644Y35036813D01*
X-9156245Y35039769D01*
X-9159646Y35042954D01*
X-9162831Y35046355D01*
X-9165787Y35049956D01*
X-9168501Y35053743D01*
X-9170961Y35057700D01*
X-9173157Y35061809D01*
X-9175080Y35066053D01*
X-9176721Y35070414D01*
X-9178074Y35074872D01*
X-9179132Y35079410D01*
X-9179891Y35084007D01*
X-9180348Y35088643D01*
X-9180500Y35093300D01*
X-9180500Y35900900D01*
X-9180348Y35905557D01*
X-9179891Y35910193D01*
X-9179132Y35914790D01*
X-9178074Y35919328D01*
X-9176721Y35923786D01*
X-9175080Y35928147D01*
X-9173157Y35932391D01*
X-9170961Y35936500D01*
X-9168501Y35940457D01*
X-9165787Y35944244D01*
X-9162831Y35947845D01*
X-9159646Y35951246D01*
X-9156245Y35954431D01*
X-9152644Y35957387D01*
X-9148857Y35960101D01*
X-9144900Y35962561D01*
X-9140791Y35964757D01*
X-9136547Y35966680D01*
X-9132186Y35968321D01*
X-9127728Y35969674D01*
X-9123190Y35970732D01*
X-9118593Y35971491D01*
X-9113957Y35971948D01*
X-9109300Y35972100D01*
X-8351700Y35972100D01*
X-8347043Y35971948D01*
G37*
G36*
X-6797043Y35971948D02*
G01*
X-6792407Y35971491D01*
X-6787810Y35970732D01*
X-6783272Y35969674D01*
X-6778814Y35968321D01*
X-6774453Y35966680D01*
X-6770209Y35964757D01*
X-6766100Y35962561D01*
X-6762143Y35960101D01*
X-6758356Y35957387D01*
X-6754755Y35954431D01*
X-6751354Y35951246D01*
X-6748169Y35947845D01*
X-6745213Y35944244D01*
X-6742499Y35940457D01*
X-6740039Y35936500D01*
X-6737843Y35932391D01*
X-6735920Y35928147D01*
X-6734279Y35923786D01*
X-6732926Y35919328D01*
X-6731868Y35914790D01*
X-6731109Y35910193D01*
X-6730652Y35905557D01*
X-6730500Y35900900D01*
X-6730500Y35093300D01*
X-6730652Y35088643D01*
X-6731109Y35084007D01*
X-6731868Y35079410D01*
X-6732926Y35074872D01*
X-6734279Y35070414D01*
X-6735920Y35066053D01*
X-6737843Y35061809D01*
X-6740039Y35057700D01*
X-6742499Y35053743D01*
X-6745213Y35049956D01*
X-6748169Y35046355D01*
X-6751354Y35042954D01*
X-6754755Y35039769D01*
X-6758356Y35036813D01*
X-6762143Y35034099D01*
X-6766100Y35031639D01*
X-6770209Y35029443D01*
X-6774453Y35027520D01*
X-6778814Y35025879D01*
X-6783272Y35024526D01*
X-6787810Y35023468D01*
X-6792407Y35022709D01*
X-6797043Y35022252D01*
X-6801700Y35022100D01*
X-7559300Y35022100D01*
X-7563957Y35022252D01*
X-7568593Y35022709D01*
X-7573190Y35023468D01*
X-7577728Y35024526D01*
X-7582186Y35025879D01*
X-7586547Y35027520D01*
X-7590791Y35029443D01*
X-7594900Y35031639D01*
X-7598857Y35034099D01*
X-7602644Y35036813D01*
X-7606245Y35039769D01*
X-7609646Y35042954D01*
X-7612831Y35046355D01*
X-7615787Y35049956D01*
X-7618501Y35053743D01*
X-7620961Y35057700D01*
X-7623157Y35061809D01*
X-7625080Y35066053D01*
X-7626721Y35070414D01*
X-7628074Y35074872D01*
X-7629132Y35079410D01*
X-7629891Y35084007D01*
X-7630348Y35088643D01*
X-7630500Y35093300D01*
X-7630500Y35900900D01*
X-7630348Y35905557D01*
X-7629891Y35910193D01*
X-7629132Y35914790D01*
X-7628074Y35919328D01*
X-7626721Y35923786D01*
X-7625080Y35928147D01*
X-7623157Y35932391D01*
X-7620961Y35936500D01*
X-7618501Y35940457D01*
X-7615787Y35944244D01*
X-7612831Y35947845D01*
X-7609646Y35951246D01*
X-7606245Y35954431D01*
X-7602644Y35957387D01*
X-7598857Y35960101D01*
X-7594900Y35962561D01*
X-7590791Y35964757D01*
X-7586547Y35966680D01*
X-7582186Y35968321D01*
X-7577728Y35969674D01*
X-7573190Y35970732D01*
X-7568593Y35971491D01*
X-7563957Y35971948D01*
X-7559300Y35972100D01*
X-6801700Y35972100D01*
X-6797043Y35971948D01*
G37*
G36*
X-37014922Y38496060D02*
G01*
X-36998316Y38494424D01*
X-36981852Y38491706D01*
X-36965601Y38487917D01*
X-36949633Y38483073D01*
X-36934016Y38477195D01*
X-36918816Y38470308D01*
X-36904100Y38462442D01*
X-36889930Y38453630D01*
X-36876366Y38443911D01*
X-36863467Y38433325D01*
X-36851288Y38421918D01*
X-36839881Y38409739D01*
X-36829295Y38396840D01*
X-36819575Y38383276D01*
X-36810764Y38369106D01*
X-36802897Y38354389D01*
X-36796011Y38339190D01*
X-36790133Y38323573D01*
X-36785289Y38307605D01*
X-36781500Y38291354D01*
X-36778782Y38274890D01*
X-36777146Y38258283D01*
X-36776600Y38241606D01*
X-36776600Y35351606D01*
X-36777146Y35334928D01*
X-36778782Y35318321D01*
X-36781500Y35301858D01*
X-36785289Y35285607D01*
X-36790133Y35269639D01*
X-36796011Y35254021D01*
X-36802897Y35238822D01*
X-36810764Y35224106D01*
X-36819575Y35209935D01*
X-36829295Y35196372D01*
X-36839881Y35183472D01*
X-36851288Y35171293D01*
X-36863467Y35159887D01*
X-36876366Y35149301D01*
X-36889930Y35139581D01*
X-36904100Y35130769D01*
X-36918816Y35122903D01*
X-36934016Y35116016D01*
X-36949633Y35110138D01*
X-36965601Y35105295D01*
X-36981852Y35101505D01*
X-36998316Y35098787D01*
X-37014922Y35097152D01*
X-37031600Y35096606D01*
X-37646600Y35096606D01*
X-37663278Y35097152D01*
X-37679884Y35098787D01*
X-37696348Y35101505D01*
X-37712599Y35105295D01*
X-37728567Y35110138D01*
X-37744184Y35116016D01*
X-37759384Y35122903D01*
X-37774100Y35130769D01*
X-37788270Y35139581D01*
X-37801834Y35149301D01*
X-37814733Y35159887D01*
X-37826912Y35171293D01*
X-37838319Y35183472D01*
X-37848905Y35196372D01*
X-37858625Y35209935D01*
X-37867436Y35224106D01*
X-37875303Y35238822D01*
X-37882189Y35254021D01*
X-37888067Y35269639D01*
X-37892911Y35285607D01*
X-37896700Y35301858D01*
X-37899418Y35318321D01*
X-37901054Y35334928D01*
X-37901600Y35351606D01*
X-37901600Y38241606D01*
X-37901054Y38258283D01*
X-37899418Y38274890D01*
X-37896700Y38291354D01*
X-37892911Y38307605D01*
X-37888067Y38323573D01*
X-37882189Y38339190D01*
X-37875303Y38354389D01*
X-37867436Y38369106D01*
X-37858625Y38383276D01*
X-37848905Y38396840D01*
X-37838319Y38409739D01*
X-37826912Y38421918D01*
X-37814733Y38433325D01*
X-37801834Y38443911D01*
X-37788270Y38453630D01*
X-37774100Y38462442D01*
X-37759384Y38470308D01*
X-37744184Y38477195D01*
X-37728567Y38483073D01*
X-37712599Y38487917D01*
X-37696348Y38491706D01*
X-37679884Y38494424D01*
X-37663278Y38496060D01*
X-37646600Y38496606D01*
X-37031600Y38496606D01*
X-37014922Y38496060D01*
G37*
G36*
X-32739922Y38496048D02*
G01*
X-32723316Y38494413D01*
X-32706852Y38491695D01*
X-32690601Y38487905D01*
X-32674633Y38483062D01*
X-32659016Y38477184D01*
X-32643816Y38470297D01*
X-32629100Y38462431D01*
X-32614930Y38453619D01*
X-32601366Y38443899D01*
X-32588467Y38433313D01*
X-32576288Y38421907D01*
X-32564881Y38409728D01*
X-32554295Y38396828D01*
X-32544575Y38383265D01*
X-32535764Y38369094D01*
X-32527897Y38354378D01*
X-32521011Y38339179D01*
X-32515133Y38323561D01*
X-32510289Y38307593D01*
X-32506500Y38291342D01*
X-32503782Y38274879D01*
X-32502146Y38258272D01*
X-32501600Y38241594D01*
X-32501600Y35351594D01*
X-32502146Y35334917D01*
X-32503782Y35318310D01*
X-32506500Y35301846D01*
X-32510289Y35285595D01*
X-32515133Y35269627D01*
X-32521011Y35254010D01*
X-32527897Y35238811D01*
X-32535764Y35224094D01*
X-32544575Y35209924D01*
X-32554295Y35196360D01*
X-32564881Y35183461D01*
X-32576288Y35171282D01*
X-32588467Y35159875D01*
X-32601366Y35149289D01*
X-32614930Y35139570D01*
X-32629100Y35130758D01*
X-32643816Y35122892D01*
X-32659016Y35116005D01*
X-32674633Y35110127D01*
X-32690601Y35105283D01*
X-32706852Y35101494D01*
X-32723316Y35098776D01*
X-32739922Y35097140D01*
X-32756600Y35096594D01*
X-33371600Y35096594D01*
X-33388278Y35097140D01*
X-33404884Y35098776D01*
X-33421348Y35101494D01*
X-33437599Y35105283D01*
X-33453567Y35110127D01*
X-33469184Y35116005D01*
X-33484384Y35122892D01*
X-33499100Y35130758D01*
X-33513270Y35139570D01*
X-33526834Y35149289D01*
X-33539733Y35159875D01*
X-33551912Y35171282D01*
X-33563319Y35183461D01*
X-33573905Y35196360D01*
X-33583625Y35209924D01*
X-33592436Y35224094D01*
X-33600303Y35238811D01*
X-33607189Y35254010D01*
X-33613067Y35269627D01*
X-33617911Y35285595D01*
X-33621700Y35301846D01*
X-33624418Y35318310D01*
X-33626054Y35334917D01*
X-33626600Y35351594D01*
X-33626600Y38241594D01*
X-33626054Y38258272D01*
X-33624418Y38274879D01*
X-33621700Y38291342D01*
X-33617911Y38307593D01*
X-33613067Y38323561D01*
X-33607189Y38339179D01*
X-33600303Y38354378D01*
X-33592436Y38369094D01*
X-33583625Y38383265D01*
X-33573905Y38396828D01*
X-33563319Y38409728D01*
X-33551912Y38421907D01*
X-33539733Y38433313D01*
X-33526834Y38443899D01*
X-33513270Y38453619D01*
X-33499100Y38462431D01*
X-33484384Y38470297D01*
X-33469184Y38477184D01*
X-33453567Y38483062D01*
X-33437599Y38487905D01*
X-33421348Y38491695D01*
X-33404884Y38494413D01*
X-33388278Y38496048D01*
X-33371600Y38496594D01*
X-32756600Y38496594D01*
X-32739922Y38496048D01*
G37*
G36*
X-32559833Y27150575D02*
G01*
X-32552995Y27149902D01*
X-32546216Y27148782D01*
X-32539524Y27147222D01*
X-32532949Y27145228D01*
X-32526518Y27142807D01*
X-32520260Y27139972D01*
X-32514200Y27136733D01*
X-32508365Y27133104D01*
X-32502780Y27129102D01*
X-32497469Y27124743D01*
X-32492454Y27120046D01*
X-32487757Y27115031D01*
X-32483398Y27109720D01*
X-32479396Y27104135D01*
X-32475767Y27098300D01*
X-32472528Y27092240D01*
X-32469693Y27085982D01*
X-32467272Y27079551D01*
X-32465278Y27072976D01*
X-32463718Y27066284D01*
X-32462598Y27059505D01*
X-32461925Y27052667D01*
X-32461700Y27045800D01*
X-32461700Y25855800D01*
X-32461925Y25848933D01*
X-32462598Y25842095D01*
X-32463718Y25835316D01*
X-32465278Y25828624D01*
X-32467272Y25822049D01*
X-32469693Y25815618D01*
X-32472528Y25809360D01*
X-32475767Y25803300D01*
X-32479396Y25797465D01*
X-32483398Y25791880D01*
X-32487757Y25786569D01*
X-32492454Y25781554D01*
X-32497469Y25776857D01*
X-32502780Y25772498D01*
X-32508365Y25768496D01*
X-32514200Y25764867D01*
X-32520260Y25761628D01*
X-32526518Y25758793D01*
X-32532949Y25756372D01*
X-32539524Y25754378D01*
X-32546216Y25752818D01*
X-32552995Y25751698D01*
X-32559833Y25751025D01*
X-32566700Y25750800D01*
X-33381700Y25750800D01*
X-33388567Y25751025D01*
X-33395405Y25751698D01*
X-33402184Y25752818D01*
X-33408876Y25754378D01*
X-33415451Y25756372D01*
X-33421882Y25758793D01*
X-33428140Y25761628D01*
X-33434200Y25764867D01*
X-33440035Y25768496D01*
X-33445620Y25772498D01*
X-33450931Y25776857D01*
X-33455946Y25781554D01*
X-33460643Y25786569D01*
X-33465002Y25791880D01*
X-33469004Y25797465D01*
X-33472633Y25803300D01*
X-33475872Y25809360D01*
X-33478707Y25815618D01*
X-33481128Y25822049D01*
X-33483122Y25828624D01*
X-33484682Y25835316D01*
X-33485802Y25842095D01*
X-33486475Y25848933D01*
X-33486700Y25855800D01*
X-33486700Y27045800D01*
X-33486475Y27052667D01*
X-33485802Y27059505D01*
X-33484682Y27066284D01*
X-33483122Y27072976D01*
X-33481128Y27079551D01*
X-33478707Y27085982D01*
X-33475872Y27092240D01*
X-33472633Y27098300D01*
X-33469004Y27104135D01*
X-33465002Y27109720D01*
X-33460643Y27115031D01*
X-33455946Y27120046D01*
X-33450931Y27124743D01*
X-33445620Y27129102D01*
X-33440035Y27133104D01*
X-33434200Y27136733D01*
X-33428140Y27139972D01*
X-33421882Y27142807D01*
X-33415451Y27145228D01*
X-33408876Y27147222D01*
X-33402184Y27148782D01*
X-33395405Y27149902D01*
X-33388567Y27150575D01*
X-33381700Y27150800D01*
X-32566700Y27150800D01*
X-32559833Y27150575D01*
G37*
G36*
X-30734833Y27150575D02*
G01*
X-30727995Y27149902D01*
X-30721216Y27148782D01*
X-30714524Y27147222D01*
X-30707949Y27145228D01*
X-30701518Y27142807D01*
X-30695260Y27139972D01*
X-30689200Y27136733D01*
X-30683365Y27133104D01*
X-30677780Y27129102D01*
X-30672469Y27124743D01*
X-30667454Y27120046D01*
X-30662757Y27115031D01*
X-30658398Y27109720D01*
X-30654396Y27104135D01*
X-30650767Y27098300D01*
X-30647528Y27092240D01*
X-30644693Y27085982D01*
X-30642272Y27079551D01*
X-30640278Y27072976D01*
X-30638718Y27066284D01*
X-30637598Y27059505D01*
X-30636925Y27052667D01*
X-30636700Y27045800D01*
X-30636700Y25855800D01*
X-30636925Y25848933D01*
X-30637598Y25842095D01*
X-30638718Y25835316D01*
X-30640278Y25828624D01*
X-30642272Y25822049D01*
X-30644693Y25815618D01*
X-30647528Y25809360D01*
X-30650767Y25803300D01*
X-30654396Y25797465D01*
X-30658398Y25791880D01*
X-30662757Y25786569D01*
X-30667454Y25781554D01*
X-30672469Y25776857D01*
X-30677780Y25772498D01*
X-30683365Y25768496D01*
X-30689200Y25764867D01*
X-30695260Y25761628D01*
X-30701518Y25758793D01*
X-30707949Y25756372D01*
X-30714524Y25754378D01*
X-30721216Y25752818D01*
X-30727995Y25751698D01*
X-30734833Y25751025D01*
X-30741700Y25750800D01*
X-31556700Y25750800D01*
X-31563567Y25751025D01*
X-31570405Y25751698D01*
X-31577184Y25752818D01*
X-31583876Y25754378D01*
X-31590451Y25756372D01*
X-31596882Y25758793D01*
X-31603140Y25761628D01*
X-31609200Y25764867D01*
X-31615035Y25768496D01*
X-31620620Y25772498D01*
X-31625931Y25776857D01*
X-31630946Y25781554D01*
X-31635643Y25786569D01*
X-31640002Y25791880D01*
X-31644004Y25797465D01*
X-31647633Y25803300D01*
X-31650872Y25809360D01*
X-31653707Y25815618D01*
X-31656128Y25822049D01*
X-31658122Y25828624D01*
X-31659682Y25835316D01*
X-31660802Y25842095D01*
X-31661475Y25848933D01*
X-31661700Y25855800D01*
X-31661700Y27045800D01*
X-31661475Y27052667D01*
X-31660802Y27059505D01*
X-31659682Y27066284D01*
X-31658122Y27072976D01*
X-31656128Y27079551D01*
X-31653707Y27085982D01*
X-31650872Y27092240D01*
X-31647633Y27098300D01*
X-31644004Y27104135D01*
X-31640002Y27109720D01*
X-31635643Y27115031D01*
X-31630946Y27120046D01*
X-31625931Y27124743D01*
X-31620620Y27129102D01*
X-31615035Y27133104D01*
X-31609200Y27136733D01*
X-31603140Y27139972D01*
X-31596882Y27142807D01*
X-31590451Y27145228D01*
X-31583876Y27147222D01*
X-31577184Y27148782D01*
X-31570405Y27149902D01*
X-31563567Y27150575D01*
X-31556700Y27150800D01*
X-30741700Y27150800D01*
X-30734833Y27150575D01*
G37*
G36*
X-42043122Y37335338D02*
G01*
X-42026027Y37333654D01*
X-42009079Y37330856D01*
X-41992350Y37326956D01*
X-41975912Y37321969D01*
X-41959836Y37315918D01*
X-41944189Y37308829D01*
X-41929040Y37300732D01*
X-41914453Y37291661D01*
X-41900490Y37281655D01*
X-41887212Y37270758D01*
X-41874675Y37259016D01*
X-41862932Y37246478D01*
X-41852035Y37233200D01*
X-41842029Y37219237D01*
X-41832958Y37204650D01*
X-41824861Y37189501D01*
X-41817772Y37173854D01*
X-41811721Y37157778D01*
X-41806735Y37141340D01*
X-41802834Y37124611D01*
X-41800036Y37107663D01*
X-41798352Y37090568D01*
X-41797790Y37073400D01*
X-41797790Y34098400D01*
X-41798352Y34081232D01*
X-41800036Y34064137D01*
X-41802834Y34047189D01*
X-41806735Y34030460D01*
X-41811721Y34014022D01*
X-41817772Y33997946D01*
X-41824861Y33982299D01*
X-41832958Y33967150D01*
X-41842029Y33952563D01*
X-41852035Y33938600D01*
X-41862932Y33925322D01*
X-41874675Y33912784D01*
X-41887212Y33901042D01*
X-41900490Y33890145D01*
X-41914453Y33880139D01*
X-41929040Y33871068D01*
X-41944189Y33862971D01*
X-41959836Y33855882D01*
X-41975912Y33849831D01*
X-41992350Y33844844D01*
X-42009079Y33840944D01*
X-42026027Y33838146D01*
X-42043122Y33836462D01*
X-42060290Y33835900D01*
X-43135290Y33835900D01*
X-43152458Y33836462D01*
X-43169553Y33838146D01*
X-43186501Y33840944D01*
X-43203230Y33844844D01*
X-43219668Y33849831D01*
X-43235744Y33855882D01*
X-43251391Y33862971D01*
X-43266540Y33871068D01*
X-43281127Y33880139D01*
X-43295090Y33890145D01*
X-43308368Y33901042D01*
X-43320906Y33912784D01*
X-43332648Y33925322D01*
X-43343545Y33938600D01*
X-43353551Y33952563D01*
X-43362622Y33967150D01*
X-43370719Y33982299D01*
X-43377808Y33997946D01*
X-43383859Y34014022D01*
X-43388846Y34030460D01*
X-43392746Y34047189D01*
X-43395544Y34064137D01*
X-43397228Y34081232D01*
X-43397790Y34098400D01*
X-43397790Y37073400D01*
X-43397228Y37090568D01*
X-43395544Y37107663D01*
X-43392746Y37124611D01*
X-43388846Y37141340D01*
X-43383859Y37157778D01*
X-43377808Y37173854D01*
X-43370719Y37189501D01*
X-43362622Y37204650D01*
X-43353551Y37219237D01*
X-43343545Y37233200D01*
X-43332648Y37246478D01*
X-43320906Y37259016D01*
X-43308368Y37270758D01*
X-43295090Y37281655D01*
X-43281127Y37291661D01*
X-43266540Y37300732D01*
X-43251391Y37308829D01*
X-43235744Y37315918D01*
X-43219668Y37321969D01*
X-43203230Y37326956D01*
X-43186501Y37330856D01*
X-43169553Y37333654D01*
X-43152458Y37335338D01*
X-43135290Y37335900D01*
X-42060290Y37335900D01*
X-42043122Y37335338D01*
G37*
G36*
X-42043142Y42735338D02*
G01*
X-42026047Y42733654D01*
X-42009099Y42730856D01*
X-41992370Y42726956D01*
X-41975932Y42721969D01*
X-41959856Y42715918D01*
X-41944209Y42708829D01*
X-41929060Y42700732D01*
X-41914473Y42691661D01*
X-41900510Y42681655D01*
X-41887232Y42670758D01*
X-41874694Y42659016D01*
X-41862952Y42646478D01*
X-41852055Y42633200D01*
X-41842049Y42619237D01*
X-41832978Y42604650D01*
X-41824881Y42589501D01*
X-41817792Y42573854D01*
X-41811741Y42557778D01*
X-41806754Y42541340D01*
X-41802854Y42524611D01*
X-41800056Y42507663D01*
X-41798372Y42490568D01*
X-41797810Y42473400D01*
X-41797810Y39498400D01*
X-41798372Y39481232D01*
X-41800056Y39464137D01*
X-41802854Y39447189D01*
X-41806754Y39430460D01*
X-41811741Y39414022D01*
X-41817792Y39397946D01*
X-41824881Y39382299D01*
X-41832978Y39367150D01*
X-41842049Y39352563D01*
X-41852055Y39338600D01*
X-41862952Y39325322D01*
X-41874694Y39312784D01*
X-41887232Y39301042D01*
X-41900510Y39290145D01*
X-41914473Y39280139D01*
X-41929060Y39271068D01*
X-41944209Y39262971D01*
X-41959856Y39255882D01*
X-41975932Y39249831D01*
X-41992370Y39244844D01*
X-42009099Y39240944D01*
X-42026047Y39238146D01*
X-42043142Y39236462D01*
X-42060310Y39235900D01*
X-43135310Y39235900D01*
X-43152478Y39236462D01*
X-43169573Y39238146D01*
X-43186521Y39240944D01*
X-43203250Y39244844D01*
X-43219688Y39249831D01*
X-43235764Y39255882D01*
X-43251411Y39262971D01*
X-43266560Y39271068D01*
X-43281147Y39280139D01*
X-43295110Y39290145D01*
X-43308388Y39301042D01*
X-43320925Y39312784D01*
X-43332668Y39325322D01*
X-43343565Y39338600D01*
X-43353571Y39352563D01*
X-43362642Y39367150D01*
X-43370739Y39382299D01*
X-43377828Y39397946D01*
X-43383879Y39414022D01*
X-43388865Y39430460D01*
X-43392766Y39447189D01*
X-43395564Y39464137D01*
X-43397248Y39481232D01*
X-43397810Y39498400D01*
X-43397810Y42473400D01*
X-43397248Y42490568D01*
X-43395564Y42507663D01*
X-43392766Y42524611D01*
X-43388865Y42541340D01*
X-43383879Y42557778D01*
X-43377828Y42573854D01*
X-43370739Y42589501D01*
X-43362642Y42604650D01*
X-43353571Y42619237D01*
X-43343565Y42633200D01*
X-43332668Y42646478D01*
X-43320925Y42659016D01*
X-43308388Y42670758D01*
X-43295110Y42681655D01*
X-43281147Y42691661D01*
X-43266560Y42700732D01*
X-43251411Y42708829D01*
X-43235764Y42715918D01*
X-43219688Y42721969D01*
X-43203250Y42726956D01*
X-43186521Y42730856D01*
X-43169573Y42733654D01*
X-43152478Y42735338D01*
X-43135310Y42735900D01*
X-42060310Y42735900D01*
X-42043142Y42735338D01*
G37*
G36*
X3231571Y35519075D02*
G01*
X3238409Y35518402D01*
X3245188Y35517282D01*
X3251879Y35515722D01*
X3258454Y35513728D01*
X3264885Y35511307D01*
X3271144Y35508472D01*
X3277203Y35505233D01*
X3283038Y35501604D01*
X3288623Y35497602D01*
X3293935Y35493243D01*
X3298950Y35488546D01*
X3303647Y35483531D01*
X3308005Y35478220D01*
X3312008Y35472635D01*
X3315636Y35466800D01*
X3318875Y35460740D01*
X3321711Y35454482D01*
X3324131Y35448051D01*
X3326126Y35441476D01*
X3327686Y35434784D01*
X3328805Y35428005D01*
X3329479Y35421167D01*
X3329703Y35414300D01*
X3329703Y34599300D01*
X3329479Y34592433D01*
X3328805Y34585595D01*
X3327686Y34578816D01*
X3326126Y34572124D01*
X3324131Y34565549D01*
X3321711Y34559118D01*
X3318875Y34552860D01*
X3315636Y34546800D01*
X3312008Y34540965D01*
X3308005Y34535380D01*
X3303647Y34530069D01*
X3298950Y34525054D01*
X3293935Y34520357D01*
X3288623Y34515998D01*
X3283038Y34511996D01*
X3277203Y34508367D01*
X3271144Y34505128D01*
X3264885Y34502293D01*
X3258454Y34499872D01*
X3251879Y34497878D01*
X3245188Y34496318D01*
X3238409Y34495198D01*
X3231571Y34494525D01*
X3224703Y34494300D01*
X2034703Y34494300D01*
X2027836Y34494525D01*
X2020998Y34495198D01*
X2014219Y34496318D01*
X2007527Y34497878D01*
X2000952Y34499872D01*
X1994522Y34502293D01*
X1988263Y34505128D01*
X1982203Y34508367D01*
X1976368Y34511996D01*
X1970783Y34515998D01*
X1965472Y34520357D01*
X1960457Y34525054D01*
X1955760Y34530069D01*
X1951401Y34535380D01*
X1947399Y34540965D01*
X1943771Y34546800D01*
X1940532Y34552860D01*
X1937696Y34559118D01*
X1935276Y34565549D01*
X1933281Y34572124D01*
X1931721Y34578816D01*
X1930602Y34585595D01*
X1929928Y34592433D01*
X1929703Y34599300D01*
X1929703Y35414300D01*
X1929928Y35421167D01*
X1930602Y35428005D01*
X1931721Y35434784D01*
X1933281Y35441476D01*
X1935276Y35448051D01*
X1937696Y35454482D01*
X1940532Y35460740D01*
X1943771Y35466800D01*
X1947399Y35472635D01*
X1951401Y35478220D01*
X1955760Y35483531D01*
X1960457Y35488546D01*
X1965472Y35493243D01*
X1970783Y35497602D01*
X1976368Y35501604D01*
X1982203Y35505233D01*
X1988263Y35508472D01*
X1994522Y35511307D01*
X2000952Y35513728D01*
X2007527Y35515722D01*
X2014219Y35517282D01*
X2020998Y35518402D01*
X2027836Y35519075D01*
X2034703Y35519300D01*
X3224703Y35519300D01*
X3231571Y35519075D01*
G37*
G36*
X3231564Y37344075D02*
G01*
X3238402Y37343402D01*
X3245181Y37342282D01*
X3251873Y37340722D01*
X3258448Y37338728D01*
X3264878Y37336307D01*
X3271137Y37333472D01*
X3277197Y37330233D01*
X3283032Y37326604D01*
X3288617Y37322602D01*
X3293928Y37318243D01*
X3298943Y37313546D01*
X3303640Y37308531D01*
X3307999Y37303220D01*
X3312001Y37297635D01*
X3315629Y37291800D01*
X3318868Y37285740D01*
X3321704Y37279482D01*
X3324124Y37273051D01*
X3326119Y37266476D01*
X3327679Y37259784D01*
X3328798Y37253005D01*
X3329472Y37246167D01*
X3329697Y37239300D01*
X3329697Y36424300D01*
X3329472Y36417433D01*
X3328798Y36410595D01*
X3327679Y36403816D01*
X3326119Y36397124D01*
X3324124Y36390549D01*
X3321704Y36384118D01*
X3318868Y36377860D01*
X3315629Y36371800D01*
X3312001Y36365965D01*
X3307999Y36360380D01*
X3303640Y36355069D01*
X3298943Y36350054D01*
X3293928Y36345357D01*
X3288617Y36340998D01*
X3283032Y36336996D01*
X3277197Y36333367D01*
X3271137Y36330128D01*
X3264878Y36327293D01*
X3258448Y36324872D01*
X3251873Y36322878D01*
X3245181Y36321318D01*
X3238402Y36320198D01*
X3231564Y36319525D01*
X3224697Y36319300D01*
X2034697Y36319300D01*
X2027829Y36319525D01*
X2020991Y36320198D01*
X2014212Y36321318D01*
X2007521Y36322878D01*
X2000946Y36324872D01*
X1994515Y36327293D01*
X1988256Y36330128D01*
X1982197Y36333367D01*
X1976362Y36336996D01*
X1970777Y36340998D01*
X1965465Y36345357D01*
X1960450Y36350054D01*
X1955753Y36355069D01*
X1951395Y36360380D01*
X1947392Y36365965D01*
X1943764Y36371800D01*
X1940525Y36377860D01*
X1937689Y36384118D01*
X1935269Y36390549D01*
X1933274Y36397124D01*
X1931714Y36403816D01*
X1930595Y36410595D01*
X1929921Y36417433D01*
X1929697Y36424300D01*
X1929697Y37239300D01*
X1929921Y37246167D01*
X1930595Y37253005D01*
X1931714Y37259784D01*
X1933274Y37266476D01*
X1935269Y37273051D01*
X1937689Y37279482D01*
X1940525Y37285740D01*
X1943764Y37291800D01*
X1947392Y37297635D01*
X1951395Y37303220D01*
X1955753Y37308531D01*
X1960450Y37313546D01*
X1965465Y37318243D01*
X1970777Y37322602D01*
X1976362Y37326604D01*
X1982197Y37330233D01*
X1988256Y37333472D01*
X1994515Y37336307D01*
X2000946Y37338728D01*
X2007521Y37340722D01*
X2014212Y37342282D01*
X2020991Y37343402D01*
X2027829Y37344075D01*
X2034697Y37344300D01*
X3224697Y37344300D01*
X3231564Y37344075D01*
G37*
G36*
X-32559833Y29185675D02*
G01*
X-32552995Y29185002D01*
X-32546216Y29183882D01*
X-32539524Y29182322D01*
X-32532949Y29180328D01*
X-32526518Y29177907D01*
X-32520260Y29175072D01*
X-32514200Y29171833D01*
X-32508365Y29168204D01*
X-32502780Y29164202D01*
X-32497469Y29159843D01*
X-32492454Y29155146D01*
X-32487757Y29150131D01*
X-32483398Y29144820D01*
X-32479396Y29139235D01*
X-32475767Y29133400D01*
X-32472528Y29127340D01*
X-32469693Y29121082D01*
X-32467272Y29114651D01*
X-32465278Y29108076D01*
X-32463718Y29101384D01*
X-32462598Y29094605D01*
X-32461925Y29087767D01*
X-32461700Y29080900D01*
X-32461700Y27890900D01*
X-32461925Y27884033D01*
X-32462598Y27877195D01*
X-32463718Y27870416D01*
X-32465278Y27863724D01*
X-32467272Y27857149D01*
X-32469693Y27850718D01*
X-32472528Y27844460D01*
X-32475767Y27838400D01*
X-32479396Y27832565D01*
X-32483398Y27826980D01*
X-32487757Y27821669D01*
X-32492454Y27816654D01*
X-32497469Y27811957D01*
X-32502780Y27807598D01*
X-32508365Y27803596D01*
X-32514200Y27799967D01*
X-32520260Y27796728D01*
X-32526518Y27793893D01*
X-32532949Y27791472D01*
X-32539524Y27789478D01*
X-32546216Y27787918D01*
X-32552995Y27786798D01*
X-32559833Y27786125D01*
X-32566700Y27785900D01*
X-33381700Y27785900D01*
X-33388567Y27786125D01*
X-33395405Y27786798D01*
X-33402184Y27787918D01*
X-33408876Y27789478D01*
X-33415451Y27791472D01*
X-33421882Y27793893D01*
X-33428140Y27796728D01*
X-33434200Y27799967D01*
X-33440035Y27803596D01*
X-33445620Y27807598D01*
X-33450931Y27811957D01*
X-33455946Y27816654D01*
X-33460643Y27821669D01*
X-33465002Y27826980D01*
X-33469004Y27832565D01*
X-33472633Y27838400D01*
X-33475872Y27844460D01*
X-33478707Y27850718D01*
X-33481128Y27857149D01*
X-33483122Y27863724D01*
X-33484682Y27870416D01*
X-33485802Y27877195D01*
X-33486475Y27884033D01*
X-33486700Y27890900D01*
X-33486700Y29080900D01*
X-33486475Y29087767D01*
X-33485802Y29094605D01*
X-33484682Y29101384D01*
X-33483122Y29108076D01*
X-33481128Y29114651D01*
X-33478707Y29121082D01*
X-33475872Y29127340D01*
X-33472633Y29133400D01*
X-33469004Y29139235D01*
X-33465002Y29144820D01*
X-33460643Y29150131D01*
X-33455946Y29155146D01*
X-33450931Y29159843D01*
X-33445620Y29164202D01*
X-33440035Y29168204D01*
X-33434200Y29171833D01*
X-33428140Y29175072D01*
X-33421882Y29177907D01*
X-33415451Y29180328D01*
X-33408876Y29182322D01*
X-33402184Y29183882D01*
X-33395405Y29185002D01*
X-33388567Y29185675D01*
X-33381700Y29185900D01*
X-32566700Y29185900D01*
X-32559833Y29185675D01*
G37*
G36*
X-30734833Y29185675D02*
G01*
X-30727995Y29185002D01*
X-30721216Y29183882D01*
X-30714524Y29182322D01*
X-30707949Y29180328D01*
X-30701518Y29177907D01*
X-30695260Y29175072D01*
X-30689200Y29171833D01*
X-30683365Y29168204D01*
X-30677780Y29164202D01*
X-30672469Y29159843D01*
X-30667454Y29155146D01*
X-30662757Y29150131D01*
X-30658398Y29144820D01*
X-30654396Y29139235D01*
X-30650767Y29133400D01*
X-30647528Y29127340D01*
X-30644693Y29121082D01*
X-30642272Y29114651D01*
X-30640278Y29108076D01*
X-30638718Y29101384D01*
X-30637598Y29094605D01*
X-30636925Y29087767D01*
X-30636700Y29080900D01*
X-30636700Y27890900D01*
X-30636925Y27884033D01*
X-30637598Y27877195D01*
X-30638718Y27870416D01*
X-30640278Y27863724D01*
X-30642272Y27857149D01*
X-30644693Y27850718D01*
X-30647528Y27844460D01*
X-30650767Y27838400D01*
X-30654396Y27832565D01*
X-30658398Y27826980D01*
X-30662757Y27821669D01*
X-30667454Y27816654D01*
X-30672469Y27811957D01*
X-30677780Y27807598D01*
X-30683365Y27803596D01*
X-30689200Y27799967D01*
X-30695260Y27796728D01*
X-30701518Y27793893D01*
X-30707949Y27791472D01*
X-30714524Y27789478D01*
X-30721216Y27787918D01*
X-30727995Y27786798D01*
X-30734833Y27786125D01*
X-30741700Y27785900D01*
X-31556700Y27785900D01*
X-31563567Y27786125D01*
X-31570405Y27786798D01*
X-31577184Y27787918D01*
X-31583876Y27789478D01*
X-31590451Y27791472D01*
X-31596882Y27793893D01*
X-31603140Y27796728D01*
X-31609200Y27799967D01*
X-31615035Y27803596D01*
X-31620620Y27807598D01*
X-31625931Y27811957D01*
X-31630946Y27816654D01*
X-31635643Y27821669D01*
X-31640002Y27826980D01*
X-31644004Y27832565D01*
X-31647633Y27838400D01*
X-31650872Y27844460D01*
X-31653707Y27850718D01*
X-31656128Y27857149D01*
X-31658122Y27863724D01*
X-31659682Y27870416D01*
X-31660802Y27877195D01*
X-31661475Y27884033D01*
X-31661700Y27890900D01*
X-31661700Y29080900D01*
X-31661475Y29087767D01*
X-31660802Y29094605D01*
X-31659682Y29101384D01*
X-31658122Y29108076D01*
X-31656128Y29114651D01*
X-31653707Y29121082D01*
X-31650872Y29127340D01*
X-31647633Y29133400D01*
X-31644004Y29139235D01*
X-31640002Y29144820D01*
X-31635643Y29150131D01*
X-31630946Y29155146D01*
X-31625931Y29159843D01*
X-31620620Y29164202D01*
X-31615035Y29168204D01*
X-31609200Y29171833D01*
X-31603140Y29175072D01*
X-31596882Y29177907D01*
X-31590451Y29180328D01*
X-31583876Y29182322D01*
X-31577184Y29183882D01*
X-31570405Y29185002D01*
X-31563567Y29185675D01*
X-31556700Y29185900D01*
X-30741700Y29185900D01*
X-30734833Y29185675D01*
G37*
G36*
X35258500Y-30166200D02*
G01*
X33658500Y-30166200D01*
X33658500Y-28766200D01*
X35258500Y-28766200D01*
X35258500Y-30166200D01*
G37*
G36*
X35258500Y-34666200D02*
G01*
X33658500Y-34666200D01*
X33658500Y-33266200D01*
X35258500Y-33266200D01*
X35258500Y-34666200D01*
G37*
G36*
X43258500Y-34666200D02*
G01*
X41658500Y-34666200D01*
X41658500Y-33266200D01*
X43258500Y-33266200D01*
X43258500Y-34666200D01*
G37*
G36*
X43258500Y-30166200D02*
G01*
X41658500Y-30166200D01*
X41658500Y-28766200D01*
X43258500Y-28766200D01*
X43258500Y-30166200D01*
G37*
G36*
X7860600Y-34496600D02*
G01*
X6260600Y-34496600D01*
X6260600Y-33096600D01*
X7860600Y-33096600D01*
X7860600Y-34496600D01*
G37*
G36*
X7860600Y-38996600D02*
G01*
X6260600Y-38996600D01*
X6260600Y-37596600D01*
X7860600Y-37596600D01*
X7860600Y-38996600D01*
G37*
G36*
X15860600Y-38996600D02*
G01*
X14260600Y-38996600D01*
X14260600Y-37596600D01*
X15860600Y-37596600D01*
X15860600Y-38996600D01*
G37*
G36*
X15860600Y-34496600D02*
G01*
X14260600Y-34496600D01*
X14260600Y-33096600D01*
X15860600Y-33096600D01*
X15860600Y-34496600D01*
G37*
G36*
X-6175700Y31958400D02*
G01*
X-7775700Y31958400D01*
X-7775700Y33358400D01*
X-6175700Y33358400D01*
X-6175700Y31958400D01*
G37*
G36*
X-6175700Y27458400D02*
G01*
X-7775700Y27458400D01*
X-7775700Y28858400D01*
X-6175700Y28858400D01*
X-6175700Y27458400D01*
G37*
G36*
X1824300Y27458400D02*
G01*
X224300Y27458400D01*
X224300Y28858400D01*
X1824300Y28858400D01*
X1824300Y27458400D01*
G37*
G36*
X1824300Y31958400D02*
G01*
X224300Y31958400D01*
X224300Y33358400D01*
X1824300Y33358400D01*
X1824300Y31958400D01*
G37*
G36*
X43258500Y5936100D02*
G01*
X41658500Y5936100D01*
X41658500Y7336100D01*
X43258500Y7336100D01*
X43258500Y5936100D01*
G37*
G36*
X43258500Y1436100D02*
G01*
X41658500Y1436100D01*
X41658500Y2836100D01*
X43258500Y2836100D01*
X43258500Y1436100D01*
G37*
G36*
X51258500Y1436100D02*
G01*
X49658500Y1436100D01*
X49658500Y2836100D01*
X51258500Y2836100D01*
X51258500Y1436100D01*
G37*
G36*
X51258500Y5936100D02*
G01*
X49658500Y5936100D01*
X49658500Y7336100D01*
X51258500Y7336100D01*
X51258500Y5936100D01*
G37*
G36*
X10866700Y-36644400D02*
G01*
X9266700Y-36644400D01*
X9266700Y-35244400D01*
X10866700Y-35244400D01*
X10866700Y-36644400D01*
G37*
G36*
X10866700Y-41144400D02*
G01*
X9266700Y-41144400D01*
X9266700Y-39744400D01*
X10866700Y-39744400D01*
X10866700Y-41144400D01*
G37*
G36*
X18866700Y-41144400D02*
G01*
X17266700Y-41144400D01*
X17266700Y-39744400D01*
X18866700Y-39744400D01*
X18866700Y-41144400D01*
G37*
G36*
X18866700Y-36644400D02*
G01*
X17266700Y-36644400D01*
X17266700Y-35244400D01*
X18866700Y-35244400D01*
X18866700Y-36644400D01*
G37*
G36*
X36622500Y-15779400D02*
G01*
X35022500Y-15779400D01*
X35022500Y-14379400D01*
X36622500Y-14379400D01*
X36622500Y-15779400D01*
G37*
G36*
X36622500Y-20279400D02*
G01*
X35022500Y-20279400D01*
X35022500Y-18879400D01*
X36622500Y-18879400D01*
X36622500Y-20279400D01*
G37*
G36*
X44622500Y-20279400D02*
G01*
X43022500Y-20279400D01*
X43022500Y-18879400D01*
X44622500Y-18879400D01*
X44622500Y-20279400D01*
G37*
G36*
X44622500Y-15779400D02*
G01*
X43022500Y-15779400D01*
X43022500Y-14379400D01*
X44622500Y-14379400D01*
X44622500Y-15779400D01*
G37*
G36*
X92890100Y-29294700D02*
G01*
X91290100Y-29294700D01*
X91290100Y-27894700D01*
X92890100Y-27894700D01*
X92890100Y-29294700D01*
G37*
G36*
X92890100Y-33794700D02*
G01*
X91290100Y-33794700D01*
X91290100Y-32394700D01*
X92890100Y-32394700D01*
X92890100Y-33794700D01*
G37*
G36*
X100890100Y-33794700D02*
G01*
X99290100Y-33794700D01*
X99290100Y-32394700D01*
X100890100Y-32394700D01*
X100890100Y-33794700D01*
G37*
G36*
X100890100Y-29294700D02*
G01*
X99290100Y-29294700D01*
X99290100Y-27894700D01*
X100890100Y-27894700D01*
X100890100Y-29294700D01*
G37*
G36*
X51258500Y-1380200D02*
G01*
X49658500Y-1380200D01*
X49658500Y19800D01*
X51258500Y19800D01*
X51258500Y-1380200D01*
G37*
G36*
X51258500Y-5880200D02*
G01*
X49658500Y-5880200D01*
X49658500Y-4480200D01*
X51258500Y-4480200D01*
X51258500Y-5880200D01*
G37*
G36*
X59258500Y-5880200D02*
G01*
X57658500Y-5880200D01*
X57658500Y-4480200D01*
X59258500Y-4480200D01*
X59258500Y-5880200D01*
G37*
G36*
X59258500Y-1380200D02*
G01*
X57658500Y-1380200D01*
X57658500Y19800D01*
X59258500Y19800D01*
X59258500Y-1380200D01*
G37*
G36*
X59786500Y-24134400D02*
G01*
X58186500Y-24134400D01*
X58186500Y-22734400D01*
X59786500Y-22734400D01*
X59786500Y-24134400D01*
G37*
G36*
X59786500Y-28634400D02*
G01*
X58186500Y-28634400D01*
X58186500Y-27234400D01*
X59786500Y-27234400D01*
X59786500Y-28634400D01*
G37*
G36*
X67786500Y-28634400D02*
G01*
X66186500Y-28634400D01*
X66186500Y-27234400D01*
X67786500Y-27234400D01*
X67786500Y-28634400D01*
G37*
G36*
X67786500Y-24134400D02*
G01*
X66186500Y-24134400D01*
X66186500Y-22734400D01*
X67786500Y-22734400D01*
X67786500Y-24134400D01*
G37*
G36*
X60977400Y-29749200D02*
G01*
X59377400Y-29749200D01*
X59377400Y-28349200D01*
X60977400Y-28349200D01*
X60977400Y-29749200D01*
G37*
G36*
X60977400Y-34249200D02*
G01*
X59377400Y-34249200D01*
X59377400Y-32849200D01*
X60977400Y-32849200D01*
X60977400Y-34249200D01*
G37*
G36*
X68977400Y-34249200D02*
G01*
X67377400Y-34249200D01*
X67377400Y-32849200D01*
X68977400Y-32849200D01*
X68977400Y-34249200D01*
G37*
G36*
X68977400Y-29749200D02*
G01*
X67377400Y-29749200D01*
X67377400Y-28349200D01*
X68977400Y-28349200D01*
X68977400Y-29749200D01*
G37*
G36*
X69492300Y-23629500D02*
G01*
X67892300Y-23629500D01*
X67892300Y-22229500D01*
X69492300Y-22229500D01*
X69492300Y-23629500D01*
G37*
G36*
X69492300Y-28129500D02*
G01*
X67892300Y-28129500D01*
X67892300Y-26729500D01*
X69492300Y-26729500D01*
X69492300Y-28129500D01*
G37*
G36*
X77492300Y-28129500D02*
G01*
X75892300Y-28129500D01*
X75892300Y-26729500D01*
X77492300Y-26729500D01*
X77492300Y-28129500D01*
G37*
G36*
X77492300Y-23629500D02*
G01*
X75892300Y-23629500D01*
X75892300Y-22229500D01*
X77492300Y-22229500D01*
X77492300Y-23629500D01*
G37*
G36*
X49318400Y-27916200D02*
G01*
X47718400Y-27916200D01*
X47718400Y-26516200D01*
X49318400Y-26516200D01*
X49318400Y-27916200D01*
G37*
G36*
X49318400Y-32416200D02*
G01*
X47718400Y-32416200D01*
X47718400Y-31016200D01*
X49318400Y-31016200D01*
X49318400Y-32416200D01*
G37*
G36*
X57318400Y-32416200D02*
G01*
X55718400Y-32416200D01*
X55718400Y-31016200D01*
X57318400Y-31016200D01*
X57318400Y-32416200D01*
G37*
G36*
X57318400Y-27916200D02*
G01*
X55718400Y-27916200D01*
X55718400Y-26516200D01*
X57318400Y-26516200D01*
X57318400Y-27916200D01*
G37*
G36*
X32363100Y-3949000D02*
G01*
X30763100Y-3949000D01*
X30763100Y-2549000D01*
X32363100Y-2549000D01*
X32363100Y-3949000D01*
G37*
G36*
X32363100Y-8449000D02*
G01*
X30763100Y-8449000D01*
X30763100Y-7049000D01*
X32363100Y-7049000D01*
X32363100Y-8449000D01*
G37*
G36*
X40363100Y-8449000D02*
G01*
X38763100Y-8449000D01*
X38763100Y-7049000D01*
X40363100Y-7049000D01*
X40363100Y-8449000D01*
G37*
G36*
X40363100Y-3949000D02*
G01*
X38763100Y-3949000D01*
X38763100Y-2549000D01*
X40363100Y-2549000D01*
X40363100Y-3949000D01*
G37*
G36*
X104837200Y-21583200D02*
G01*
X103237200Y-21583200D01*
X103237200Y-20183200D01*
X104837200Y-20183200D01*
X104837200Y-21583200D01*
G37*
G36*
X104837200Y-26083200D02*
G01*
X103237200Y-26083200D01*
X103237200Y-24683200D01*
X104837200Y-24683200D01*
X104837200Y-26083200D01*
G37*
G36*
X112837200Y-26083200D02*
G01*
X111237200Y-26083200D01*
X111237200Y-24683200D01*
X112837200Y-24683200D01*
X112837200Y-26083200D01*
G37*
G36*
X112837200Y-21583200D02*
G01*
X111237200Y-21583200D01*
X111237200Y-20183200D01*
X112837200Y-20183200D01*
X112837200Y-21583200D01*
G37*
G36*
X47205600Y-12974900D02*
G01*
X45605600Y-12974900D01*
X45605600Y-11574900D01*
X47205600Y-11574900D01*
X47205600Y-12974900D01*
G37*
G36*
X47205600Y-17474900D02*
G01*
X45605600Y-17474900D01*
X45605600Y-16074900D01*
X47205600Y-16074900D01*
X47205600Y-17474900D01*
G37*
G36*
X55205600Y-17474900D02*
G01*
X53605600Y-17474900D01*
X53605600Y-16074900D01*
X55205600Y-16074900D01*
X55205600Y-17474900D01*
G37*
G36*
X55205600Y-12974900D02*
G01*
X53605600Y-12974900D01*
X53605600Y-11574900D01*
X55205600Y-11574900D01*
X55205600Y-12974900D01*
G37*
G36*
X77492300Y-2300000D02*
G01*
X75892300Y-2300000D01*
X75892300Y-900000D01*
X77492300Y-900000D01*
X77492300Y-2300000D01*
G37*
G36*
X77492300Y-6800000D02*
G01*
X75892300Y-6800000D01*
X75892300Y-5400000D01*
X77492300Y-5400000D01*
X77492300Y-6800000D01*
G37*
G36*
X85492300Y-6800000D02*
G01*
X83892300Y-6800000D01*
X83892300Y-5400000D01*
X85492300Y-5400000D01*
X85492300Y-6800000D01*
G37*
G36*
X85492300Y-2300000D02*
G01*
X83892300Y-2300000D01*
X83892300Y-900000D01*
X85492300Y-900000D01*
X85492300Y-2300000D01*
G37*
G36*
X-39422094Y25083000D02*
G01*
X-40422094Y25083000D01*
X-40422094Y25463000D01*
X-39422094Y25463000D01*
X-39422094Y25083000D01*
G37*
G36*
X-39422108Y29083000D02*
G01*
X-40422108Y29083000D01*
X-40422108Y29463000D01*
X-39422108Y29463000D01*
X-39422108Y29083000D01*
G37*
G36*
X-39422099Y26583000D02*
G01*
X-40422099Y26583000D01*
X-40422099Y26963000D01*
X-39422099Y26963000D01*
X-39422099Y26583000D01*
G37*
G36*
X-39422090Y24083000D02*
G01*
X-40422090Y24083000D01*
X-40422090Y24463000D01*
X-39422090Y24463000D01*
X-39422090Y24083000D01*
G37*
G36*
X-38467087Y23253003D02*
G01*
X-39617087Y23253003D01*
X-39617087Y23953003D01*
X-38467087Y23953003D01*
X-38467087Y23253003D01*
G37*
G36*
X-39422101Y27083000D02*
G01*
X-40422101Y27083000D01*
X-40422101Y27463000D01*
X-39422101Y27463000D01*
X-39422101Y27083000D01*
G37*
G36*
X-39422097Y26083000D02*
G01*
X-40422097Y26083000D01*
X-40422097Y26463000D01*
X-39422097Y26463000D01*
X-39422097Y26083000D01*
G37*
G36*
X-39422105Y28083000D02*
G01*
X-40422105Y28083000D01*
X-40422105Y28463000D01*
X-39422105Y28463000D01*
X-39422105Y28083000D01*
G37*
G36*
X-39422092Y24583000D02*
G01*
X-40422092Y24583000D01*
X-40422092Y24963000D01*
X-39422092Y24963000D01*
X-39422092Y24583000D01*
G37*
G36*
X-39422097Y26083000D02*
G01*
X-40422097Y26083000D01*
X-40422097Y26463000D01*
X-39422097Y26463000D01*
X-39422097Y26083000D01*
G37*
G36*
X-38467113Y30093003D02*
G01*
X-39617113Y30093003D01*
X-39617113Y30793003D01*
X-38467113Y30793003D01*
X-38467113Y30093003D01*
G37*
G36*
X-39422094Y25083000D02*
G01*
X-40422094Y25083000D01*
X-40422094Y25463000D01*
X-39422094Y25463000D01*
X-39422094Y25083000D01*
G37*
G36*
X-39422092Y24583000D02*
G01*
X-40422092Y24583000D01*
X-40422092Y24963000D01*
X-39422092Y24963000D01*
X-39422092Y24583000D01*
G37*
G36*
X-39422110Y29583000D02*
G01*
X-40422110Y29583000D01*
X-40422110Y29963000D01*
X-39422110Y29963000D01*
X-39422110Y29583000D01*
G37*
G36*
X-39422105Y28083000D02*
G01*
X-40422105Y28083000D01*
X-40422105Y28463000D01*
X-39422105Y28463000D01*
X-39422105Y28083000D01*
G37*
G36*
X-39422090Y24083000D02*
G01*
X-40422090Y24083000D01*
X-40422090Y24463000D01*
X-39422090Y24463000D01*
X-39422090Y24083000D01*
G37*
G36*
X-39422106Y28583000D02*
G01*
X-40422106Y28583000D01*
X-40422106Y28963000D01*
X-39422106Y28963000D01*
X-39422106Y28583000D01*
G37*
G36*
X-39422103Y27583000D02*
G01*
X-40422103Y27583000D01*
X-40422103Y27963000D01*
X-39422103Y27963000D01*
X-39422103Y27583000D01*
G37*
G36*
X-39422095Y25583000D02*
G01*
X-40422095Y25583000D01*
X-40422095Y25963000D01*
X-39422095Y25963000D01*
X-39422095Y25583000D01*
G37*
G36*
X-39422108Y29083000D02*
G01*
X-40422108Y29083000D01*
X-40422108Y29463000D01*
X-39422108Y29463000D01*
X-39422108Y29083000D01*
G37*
G36*
X-39422103Y27583000D02*
G01*
X-40422103Y27583000D01*
X-40422103Y27963000D01*
X-39422103Y27963000D01*
X-39422103Y27583000D01*
G37*
G36*
X-39422110Y29583000D02*
G01*
X-40422110Y29583000D01*
X-40422110Y29963000D01*
X-39422110Y29963000D01*
X-39422110Y29583000D01*
G37*
G36*
X-39422106Y28583000D02*
G01*
X-40422106Y28583000D01*
X-40422106Y28963000D01*
X-39422106Y28963000D01*
X-39422106Y28583000D01*
G37*
G36*
X-39422095Y25583000D02*
G01*
X-40422095Y25583000D01*
X-40422095Y25963000D01*
X-39422095Y25963000D01*
X-39422095Y25583000D01*
G37*
%TD*%
M02*
