<?xml version="1.0" standalone="no"?>
<!DOCTYPE svg PUBLIC "-//W3C//DTD SVG 20010904//EN"
 "http://www.w3.org/TR/2001/REC-SVG-20010904/DTD/svg10.dtd">
<svg version="1.0" xmlns="http://www.w3.org/2000/svg"
 width="1920.000000pt" height="1080.000000pt" viewBox="0 0 1920.000000 1080.000000"
 preserveAspectRatio="xMidYMid meet">

<g transform="translate(0.000000,1080.000000) scale(0.100000,-0.100000)"
fill="#000000" stroke="none">
<path d="M12090 10200 c-162 -3 -1888 -6 -3835 -8 -1947 -1 -3592 -5 -3655 -8
-173 -8 -344 -44 -465 -98 -16 -8 -43 -20 -60 -27 -53 -24 -181 -101 -229
-139 -155 -122 -296 -287 -379 -446 -15 -28 -34 -64 -42 -80 -8 -16 -15 -35
-15 -42 0 -7 -4 -20 -9 -30 -5 -9 -17 -44 -26 -77 -9 -33 -21 -73 -25 -90 -5
-16 -14 -77 -20 -135 -15 -147 -14 -7260 1 -7415 31 -319 198 -636 446 -846
156 -133 293 -203 538 -279 115 -35 44 -35 5485 -35 5443 0 5371 0 5485 35
180 56 256 88 357 152 117 73 159 107 271 220 120 123 216 264 272 403 7 17
17 41 23 55 10 23 20 57 52 178 6 23 15 104 20 180 13 180 13 7097 0 7289 -8
135 -13 165 -46 277 -8 26 -14 55 -14 62 0 8 -5 22 -10 32 -6 9 -23 47 -40 84
-50 115 -169 285 -267 381 -175 173 -355 278 -602 351 -148 44 -195 46 -1684
51 -670 3 -1221 6 -1225 7 -4 2 -140 1 -302 -2z m3025 -1890 c156 -54 263
-157 326 -315 l24 -60 3 -2500 c1 -1670 -1 -2518 -8 -2555 -28 -153 -142 -298
-287 -368 l-78 -37 -2545 -3 -2545 -2 -70 25 c-153 55 -271 183 -319 344 -15
50 -16 286 -16 2561 0 2265 2 2512 16 2561 48 164 169 291 329 347 l60 20
2526 1 c2503 1 2526 1 2584 -19z m-7670 -1913 c13 -20 14 -49 5 -218 -5 -107
-10 -199 -10 -206 0 -25 -32 -45 -64 -39 -17 3 -47 2 -66 -4 -46 -13 -99 2
-135 40 -62 65 -36 210 46 253 32 17 80 18 122 1 12 -4 16 9 22 73 10 112 44
155 80 100z m603 -29 c18 -18 14 -70 -9 -132 -12 -31 -19 -59 -16 -63 4 -3 18
-1 32 5 37 17 97 15 124 -4 53 -38 68 -149 28 -218 -40 -70 -105 -90 -232 -71
-65 10 -75 19 -75 69 0 60 66 374 85 402 17 26 44 31 63 12z m-2460 -35 c18
-34 -13 -75 -49 -66 -24 7 -36 48 -19 68 17 20 57 19 68 -2z m-1237 -70 c95
-49 147 -163 119 -263 -31 -116 -258 -239 -350 -190 -20 11 -22 17 -16 73 3
34 0 124 -7 199 -8 83 -9 144 -4 154 15 26 88 53 148 53 42 1 69 -6 110 -26z
m2542 3 c42 -17 87 -70 87 -102 0 -53 -35 -84 -115 -99 l-40 -8 39 -9 c47 -10
66 -24 66 -49 0 -50 -110 -67 -171 -26 -50 33 -73 86 -65 151 15 120 103 183
199 142z m-1599 -27 c21 -16 26 -28 24 -53 -3 -30 -4 -31 -52 -31 -27 0 -51
-4 -53 -10 -1 -5 23 -23 55 -40 71 -37 102 -87 80 -132 -31 -64 -130 -93 -198
-58 -60 31 -35 105 34 105 30 0 29 1 -14 21 -24 11 -53 27 -62 36 -26 23 -24
93 4 128 43 55 134 72 182 34z m691 7 c56 -19 64 -42 66 -192 2 -137 -5 -168
-55 -222 -50 -56 -124 -69 -151 -28 -21 31 -9 56 40 84 52 32 106 129 56 102
-11 -5 -35 -10 -55 -10 -46 0 -102 51 -111 103 -10 53 24 119 78 152 48 28 75
31 132 11z m314 -38 c6 -17 8 -17 41 7 64 47 134 23 171 -59 23 -51 25 -134 3
-164 -19 -28 -58 -28 -78 0 -9 12 -18 49 -22 82 l-7 60 -28 -34 c-16 -19 -36
-56 -45 -82 -17 -53 -43 -73 -80 -64 -39 10 -46 37 -38 148 5 78 11 105 25
119 21 21 47 15 58 -13z m-1453 -7 c50 -23 74 -54 74 -97 0 -44 -26 -71 -90
-93 l-55 -20 38 0 c74 -2 97 -34 55 -78 -28 -30 -108 -32 -155 -3 -50 30 -68
66 -68 135 0 75 27 131 75 157 44 23 74 23 126 -1z m748 3 c24 -23 23 -220 -1
-246 -22 -25 -49 -23 -68 5 -12 19 -13 37 -5 107 5 47 10 93 10 102 0 17 25
48 40 48 5 0 16 -7 24 -16z m2864 -96 c5 -7 18 -39 27 -70 9 -32 20 -58 24
-58 4 0 32 32 64 70 57 70 72 79 108 60 47 -26 16 -100 -145 -343 -80 -120
-108 -143 -145 -120 -28 17 -24 51 15 127 l38 74 -22 80 c-33 119 -28 192 14
192 6 0 16 -6 22 -12z m-1478 -508 l15 -165 55 -3 c30 -1 62 -5 70 -8 29 -10
-21 -34 -72 -34 -26 0 -48 -4 -48 -8 0 -5 9 -58 20 -118 25 -141 48 -217 62
-208 6 4 27 43 48 88 33 70 39 95 44 181 12 168 24 195 79 181 26 -6 27 -8 27
-89 l0 -82 30 51 c59 104 137 134 184 71 19 -26 21 -41 21 -197 0 -93 3 -171
7 -175 32 -32 88 89 128 275 35 163 44 190 63 190 31 0 114 -122 152 -222 10
-27 24 -48 32 -48 29 0 73 31 89 63 24 48 65 87 91 87 12 0 44 -19 72 -44 48
-43 111 -73 129 -62 5 3 12 37 16 77 8 93 18 111 59 107 l32 -3 3 -90 3 -89
33 59 c56 102 134 133 180 72 19 -26 21 -42 21 -192 0 -170 7 -202 38 -177 13
11 54 95 91 185 16 38 33 48 42 22 8 -21 -31 -134 -66 -188 -33 -53 -55 -67
-104 -67 -62 0 -71 26 -73 224 -1 93 -6 173 -11 178 -11 11 -49 -36 -81 -100
-12 -23 -36 -99 -54 -170 l-32 -127 -36 -3 c-44 -4 -46 1 -56 146 l-6 102 -48
0 -48 0 5 -47 c6 -62 -22 -139 -59 -167 -18 -13 -42 -20 -68 -20 -68 2 -109
57 -109 148 l0 56 -25 -12 c-24 -11 -26 -15 -20 -63 13 -102 -45 -170 -138
-162 -114 10 -136 130 -35 185 66 37 64 30 28 126 -18 47 -35 85 -37 82 -2 -2
-15 -50 -28 -107 -26 -116 -70 -247 -90 -268 -7 -7 -19 -10 -26 -6 -6 5 -33 9
-58 9 -42 1 -47 4 -63 36 -15 29 -18 63 -18 190 0 85 -4 161 -9 168 -6 10 -16
4 -40 -25 -38 -47 -65 -114 -101 -258 l-27 -110 -39 0 c-36 0 -39 2 -42 29 -4
29 -4 29 -30 -20 -25 -46 -30 -49 -70 -52 -54 -4 -85 15 -111 66 -28 55 -69
187 -80 261 -6 35 -12 65 -14 67 -2 2 -19 5 -38 6 l-34 3 -60 -180 c-33 -100
-64 -186 -68 -192 -11 -17 -37 -4 -37 17 0 10 25 94 55 186 42 128 52 170 42
176 -16 12 -91 2 -127 -17 -31 -16 -80 -20 -80 -7 0 14 33 40 73 57 20 8 65
15 101 15 77 0 67 -13 141 183 l49 128 36 -3 35 -3 15 -165z m-1015 50 c0 -52
-4 -144 -8 -205 l-8 -110 38 55 c45 64 78 86 117 76 44 -11 56 -55 56 -208 0
-143 7 -208 22 -208 5 0 26 37 47 83 31 67 39 97 44 165 9 141 70 232 154 232
38 0 83 -48 83 -89 0 -50 -41 -114 -87 -136 -49 -23 -50 -28 -25 -125 26 -99
42 -95 138 29 72 95 95 114 108 92 6 -9 -126 -198 -153 -218 -21 -16 -92 -16
-126 -1 -14 6 -35 26 -46 45 l-20 33 -35 -69 c-39 -78 -75 -103 -120 -83 -39
18 -47 56 -53 236 -4 112 -10 171 -17 173 -26 9 -120 -208 -139 -319 -5 -35
-8 -38 -40 -38 -31 0 -35 4 -44 38 -6 20 -11 48 -11 62 0 18 -10 6 -35 -45
-47 -93 -72 -115 -136 -115 -99 0 -124 58 -124 295 0 134 4 177 24 263 13 56
22 104 19 107 -2 3 -34 -1 -69 -8 l-64 -13 48 -8 c38 -6 47 -11 45 -24 -3 -14
-23 -18 -125 -26 -120 -8 -121 -8 -127 -35 -3 -14 -8 -116 -12 -226 -5 -203 4
-293 33 -302 17 -6 57 68 93 175 33 92 36 97 63 86 13 -5 12 -15 -5 -77 -48
-177 -106 -243 -190 -218 -47 15 -73 53 -89 131 -20 99 -20 99 -67 31 -51 -71
-65 -81 -126 -81 -55 0 -100 34 -128 98 l-20 44 -33 -50 c-50 -73 -78 -92
-138 -92 -44 0 -53 4 -82 35 -18 19 -41 57 -50 85 -9 27 -20 50 -23 50 -25 0
-70 -42 -75 -69 -12 -57 -58 -140 -108 -195 -63 -69 -113 -90 -205 -84 -62 4
-69 7 -101 42 -30 32 -34 43 -30 72 13 78 83 128 230 165 97 24 107 34 107
105 l0 34 -43 -45 c-39 -40 -48 -45 -89 -45 -82 0 -118 65 -118 212 1 85 13
147 32 159 7 5 29 9 49 9 l37 0 7 -136 c4 -74 10 -147 14 -162 l7 -26 28 36
c15 20 43 76 62 125 57 145 60 150 90 157 52 14 59 -6 57 -179 -1 -98 2 -155
8 -155 29 0 49 22 49 54 0 101 77 216 144 216 40 0 81 -30 90 -65 15 -60 -40
-150 -105 -170 -19 -6 -21 -12 -16 -54 3 -25 12 -64 19 -86 21 -64 43 -58 113
30 53 68 61 85 71 144 14 85 37 133 80 171 45 39 94 41 131 4 22 -22 25 -32
21 -75 -6 -60 -31 -97 -84 -125 -35 -18 -39 -24 -36 -55 2 -19 10 -58 18 -87
21 -75 41 -69 125 38 l66 85 5 143 5 142 -37 0 c-47 0 -62 26 -24 40 14 6 36
10 49 10 20 0 27 8 36 40 15 51 29 62 71 58 31 -3 33 -5 36 -45 3 -37 6 -43
26 -43 19 0 22 4 19 23 -4 18 3 26 34 41 53 26 131 46 178 46 22 0 82 -9 134
-20 110 -23 181 -26 181 -7 0 23 24 38 55 35 l30 -3 0 -95z m2683 -1132 c7 -7
12 -31 12 -54 0 -23 3 -49 6 -58 5 -14 9 -13 31 4 41 32 85 26 122 -15 36 -41
42 -96 16 -145 -17 -32 -61 -60 -95 -60 -12 0 -30 -4 -40 -10 -46 -25 -59 1
-91 189 -18 107 -20 133 -9 145 15 19 32 20 48 4z m-349 -125 c19 -36 82 -284
79 -310 -2 -20 -9 -29 -25 -31 -27 -4 -47 26 -64 93 -6 28 -13 51 -14 53 -4 4
-145 -29 -145 -34 0 -3 7 -34 16 -69 13 -52 14 -68 4 -80 -30 -36 -48 -10 -85
125 -39 138 -44 194 -19 204 24 9 40 -9 53 -60 l12 -46 37 7 c20 3 54 11 75
16 37 10 37 10 30 52 -3 23 -6 47 -6 52 0 35 5 45 23 45 10 0 23 -8 29 -17z
m265 -58 c5 -16 19 -56 32 -87 28 -69 23 -92 -17 -84 -18 3 -32 0 -40 -10 -22
-27 -60 -36 -90 -23 -54 22 -92 157 -54 189 20 17 29 7 52 -54 27 -73 43 -71
43 4 0 34 5 70 11 81 16 30 52 21 63 -16z m-640 -82 c8 -29 13 -33 42 -33 24
0 34 -5 39 -20 8 -25 -10 -50 -36 -50 -11 0 -19 -7 -19 -17 0 -30 16 -46 40
-40 32 8 50 -2 50 -28 0 -41 -53 -64 -101 -44 -31 12 -59 54 -59 88 0 11 -10
29 -22 41 -21 19 -21 22 -6 48 9 15 16 34 16 42 -3 41 2 51 24 48 15 -2 25
-13 32 -35z m-264 7 c28 -28 17 -40 -32 -40 -73 0 -138 -64 -138 -135 0 -41
50 -85 97 -85 49 0 66 11 61 41 -2 17 -10 25 -28 27 -14 2 -29 8 -35 14 -16
15 32 48 72 48 30 0 36 -4 50 -37 21 -52 27 -106 14 -130 -10 -20 -26 -25
-132 -39 -63 -9 -113 16 -150 75 -36 56 -38 109 -6 171 45 91 175 142 227 90z
m128 -24 c-2 -15 -10 -21 -28 -21 -31 0 -40 33 -14 52 22 16 46 -1 42 -31z
m-878 -68 c84 -43 106 -144 50 -231 -36 -57 -82 -87 -133 -87 -115 0 -186 99
-153 213 32 111 134 156 236 105z m899 -11 c14 -36 24 -132 16 -156 -8 -25
-50 -29 -59 -5 -8 21 -8 169 1 177 13 14 34 6 42 -16z m-590 -83 c47 -60 51
-154 8 -162 -26 -5 -46 15 -53 57 -4 20 -9 40 -12 45 -6 11 -41 -53 -42 -76 0
-19 -34 -58 -49 -58 -5 0 -17 7 -25 16 -24 23 -23 182 0 191 10 4 22 0 28 -9
10 -14 14 -14 35 3 35 28 85 25 110 -7z"/>
<path d="M10170 7265 l0 -495 500 0 500 0 0 495 0 495 -500 0 -500 0 0 -495z
m850 0 l0 -355 -352 2 -353 3 -3 340 c-1 187 0 346 3 352 3 10 83 13 355 13
l350 0 0 -355z"/>
<path d="M10460 7265 l0 -215 210 0 210 0 0 215 0 215 -210 0 -210 0 0 -215z"/>
<path d="M13890 7265 l0 -495 500 0 500 0 0 495 0 495 -500 0 -500 0 0 -495z
m860 0 l0 -355 -355 0 -355 0 0 355 0 355 355 0 355 0 0 -355z"/>
<path d="M14180 7265 l0 -215 210 0 210 0 0 215 0 215 -210 0 -210 0 0 -215z"/>
<path d="M11784 7716 c-12 -31 0 -51 31 -51 27 0 30 3 30 30 0 25 -4 30 -28
33 -17 2 -29 -2 -33 -12z"/>
<path d="M12214 7716 c-10 -27 1 -51 25 -54 31 -5 45 11 37 42 -5 19 -13 26
-32 26 -13 0 -27 -6 -30 -14z"/>
<path d="M12361 7716 c-21 -25 -4 -58 27 -54 23 2 27 8 27 33 0 23 -5 31 -21
33 -11 2 -26 -4 -33 -12z"/>
<path d="M12501 7712 c-13 -25 5 -52 34 -52 15 0 26 7 30 20 13 41 -44 70 -64
32z"/>
<path d="M12791 7716 c-21 -26 -9 -51 24 -51 27 0 30 3 30 30 0 23 -5 31 -21
33 -11 2 -26 -4 -33 -12z"/>
<path d="M12930 7715 c-18 -21 -3 -55 24 -55 33 0 50 23 36 49 -12 24 -42 27
-60 6z"/>
<path d="M13360 7715 c-18 -21 -3 -55 24 -55 32 0 46 19 35 48 -10 25 -41 29
-59 7z"/>
<path d="M13652 7721 c-8 -4 -12 -19 -10 -32 2 -19 9 -24 33 -24 27 0 30 3 30
30 0 22 -5 31 -20 33 -11 1 -26 -2 -33 -7z"/>
<path d="M11360 7575 c-26 -31 13 -82 44 -56 19 16 21 42 4 59 -16 16 -33 15
-48 -3z"/>
<path d="M11500 7575 c-10 -12 -10 -21 -2 -40 20 -43 66 -26 60 21 -4 34 -37
45 -58 19z"/>
<path d="M11793 7583 c-18 -7 -16 -48 3 -64 31 -26 70 25 44 56 -13 15 -25 17
-47 8z"/>
<path d="M12362 7578 c-29 -29 3 -82 36 -61 25 15 22 67 -3 71 -11 1 -26 -3
-33 -10z"/>
<path d="M12653 7583 c-18 -7 -16 -48 3 -64 31 -26 70 25 44 56 -13 15 -25 17
-47 8z"/>
<path d="M12790 7575 c-26 -31 13 -82 44 -56 21 17 21 57 0 65 -23 9 -30 8
-44 -9z"/>
<path d="M13220 7575 c-26 -31 13 -82 44 -56 21 17 21 57 0 65 -23 9 -30 8
-44 -9z"/>
<path d="M13360 7571 c-18 -34 10 -68 44 -55 20 8 25 25 15 52 -10 27 -44 29
-59 3z"/>
<path d="M11353 7424 c-8 -22 10 -49 32 -49 10 0 22 7 28 16 15 24 1 49 -28
49 -15 0 -28 -7 -32 -16z"/>
<path d="M11493 7424 c-9 -24 10 -49 38 -49 20 0 24 5 24 30 0 25 -4 30 -28
33 -18 2 -29 -2 -34 -14z"/>
<path d="M11783 7424 c-8 -22 10 -49 32 -49 10 0 22 7 28 16 15 24 1 49 -28
49 -15 0 -28 -7 -32 -16z"/>
<path d="M12071 7426 c-9 -11 -10 -20 -1 -35 21 -40 79 -15 65 29 -7 24 -46
27 -64 6z"/>
<path d="M12353 7424 c-9 -24 10 -49 38 -49 20 0 24 5 24 30 0 25 -4 30 -28
33 -18 2 -29 -2 -34 -14z"/>
<path d="M12644 7426 c-11 -28 1 -51 25 -51 28 0 47 25 38 49 -8 20 -56 21
-63 2z"/>
<path d="M12783 7424 c-9 -24 10 -49 38 -49 20 0 24 5 24 30 0 25 -4 30 -28
33 -18 2 -29 -2 -34 -14z"/>
<path d="M12931 7426 c-9 -11 -10 -20 -1 -35 21 -40 79 -15 65 29 -7 24 -46
27 -64 6z"/>
<path d="M13074 7426 c-10 -26 1 -51 22 -54 27 -4 47 21 39 48 -7 24 -53 28
-61 6z"/>
<path d="M13213 7424 c-9 -24 10 -49 38 -49 20 0 24 5 24 30 0 25 -4 30 -28
33 -18 2 -29 -2 -34 -14z"/>
<path d="M13356 7424 c-9 -22 11 -54 34 -54 25 0 41 29 29 52 -12 22 -55 24
-63 2z"/>
<path d="M13643 7424 c-8 -22 9 -48 35 -52 16 -2 23 3 28 22 3 14 3 30 -1 35
-10 17 -55 13 -62 -5z"/>
<path d="M11354 7286 c-12 -31 0 -51 31 -51 27 0 30 3 30 30 0 25 -4 30 -28
33 -17 2 -29 -2 -33 -12z"/>
<path d="M11931 7286 c-21 -25 -4 -58 27 -54 23 2 27 8 27 33 0 23 -5 31 -21
33 -11 2 -26 -4 -33 -12z"/>
<path d="M12214 7286 c-10 -27 1 -51 25 -54 31 -5 45 11 37 42 -5 19 -13 26
-32 26 -13 0 -27 -6 -30 -14z"/>
<path d="M12361 7286 c-21 -25 -4 -58 27 -54 23 2 27 8 27 33 0 23 -5 31 -21
33 -11 2 -26 -4 -33 -12z"/>
<path d="M12644 7286 c-10 -27 1 -51 25 -54 31 -5 45 11 37 42 -5 19 -13 26
-32 26 -13 0 -27 -6 -30 -14z"/>
<path d="M12791 7286 c-21 -26 -9 -51 24 -51 27 0 30 3 30 30 0 23 -5 31 -21
33 -11 2 -26 -4 -33 -12z"/>
<path d="M13222 7291 c-8 -4 -12 -19 -10 -32 2 -19 9 -24 33 -24 27 0 30 3 30
30 0 22 -5 31 -20 33 -11 1 -26 -2 -33 -7z"/>
<path d="M13360 7285 c-18 -21 -3 -55 24 -55 32 0 46 19 35 48 -10 25 -41 29
-59 7z"/>
<path d="M13504 7286 c-3 -8 -4 -23 -2 -33 5 -25 61 -25 66 0 7 37 -51 67 -64
33z"/>
<path d="M11360 7145 c-26 -31 13 -82 44 -56 19 16 21 42 4 59 -16 16 -33 15
-48 -3z"/>
<path d="M11793 7153 c-18 -7 -16 -48 3 -64 31 -26 70 25 44 56 -13 15 -25 17
-47 8z"/>
<path d="M12362 7148 c-29 -29 3 -82 36 -61 25 15 22 67 -3 71 -11 1 -26 -3
-33 -10z"/>
<path d="M12500 7141 c-13 -25 -13 -27 6 -45 21 -22 41 -20 54 4 8 14 8 26 0
40 -14 25 -46 26 -60 1z"/>
<path d="M12790 7145 c-26 -31 13 -82 44 -56 21 17 21 57 0 65 -23 9 -30 8
-44 -9z"/>
<path d="M12930 7141 c-18 -34 10 -68 44 -55 35 13 23 74 -14 74 -11 0 -24 -9
-30 -19z"/>
<path d="M13083 7153 c-18 -7 -16 -48 3 -64 31 -26 70 25 44 56 -13 15 -25 17
-47 8z"/>
<path d="M13220 7145 c-26 -31 13 -82 44 -56 21 17 21 57 0 65 -23 9 -30 8
-44 -9z"/>
<path d="M13360 7141 c-18 -34 10 -68 44 -55 20 8 25 25 15 52 -10 27 -44 29
-59 3z"/>
<path d="M13513 7153 c-22 -8 -16 -61 7 -68 39 -12 66 35 38 63 -13 13 -24 14
-45 5z"/>
<path d="M11360 7005 c-26 -31 13 -82 44 -56 22 18 20 48 -3 61 -25 13 -26 13
-41 -5z"/>
<path d="M12220 7005 c-26 -31 13 -82 44 -56 22 18 20 48 -3 61 -25 13 -26 13
-41 -5z"/>
<path d="M12652 7008 c-19 -19 -14 -56 8 -63 43 -14 69 44 31 65 -24 13 -24
13 -39 -2z"/>
<path d="M12791 7006 c-25 -30 7 -77 43 -63 17 7 23 67 7 67 -5 0 -16 2 -24 5
-7 3 -19 -1 -26 -9z"/>
<path d="M12936 7004 c-19 -18 -19 -20 -6 -45 17 -31 70 -18 70 17 0 14 -27
44 -40 44 -5 0 -16 -7 -24 -16z"/>
<path d="M13365 7003 c-18 -17 -18 -19 -5 -44 21 -38 74 -12 63 31 -6 24 -40
32 -58 13z"/>
<path d="M13510 7006 c-16 -21 -9 -60 13 -64 41 -8 64 48 28 68 -25 13 -26 13
-41 -4z"/>
<path d="M11355 6860 c-4 -6 -4 -22 -1 -36 5 -20 12 -25 34 -22 23 2 27 8 27
33 0 25 -4 31 -27 33 -14 2 -29 -2 -33 -8z"/>
<path d="M11641 6851 c-13 -24 8 -55 34 -50 28 6 42 34 26 53 -18 22 -48 20
-60 -3z"/>
<path d="M11931 6856 c-21 -25 -4 -58 27 -54 23 2 27 8 27 33 0 23 -5 31 -21
33 -11 2 -26 -4 -33 -12z"/>
<path d="M12214 6856 c-10 -27 1 -51 25 -54 31 -5 45 11 37 42 -5 19 -13 26
-32 26 -13 0 -27 -6 -30 -14z"/>
<path d="M12501 6856 c-16 -19 2 -56 28 -56 28 0 47 28 34 48 -13 22 -47 27
-62 8z"/>
<path d="M12791 6861 c-9 -6 -11 -18 -7 -36 5 -21 12 -26 34 -23 23 2 27 8 27
33 0 22 -5 31 -20 33 -11 1 -26 -2 -34 -7z"/>
<path d="M13074 6856 c-11 -28 1 -51 28 -54 31 -4 48 29 28 53 -16 19 -49 19
-56 1z"/>
<path d="M13360 6855 c-18 -22 -1 -50 31 -50 20 0 24 5 24 30 0 23 -5 31 -21
33 -11 2 -27 -4 -34 -13z"/>
<path d="M13651 6861 c-9 -6 -11 -18 -7 -36 5 -21 12 -26 34 -23 23 2 27 8 27
33 0 22 -5 31 -20 33 -11 1 -26 -2 -34 -7z"/>
<path d="M11500 6715 c-10 -12 -10 -21 -2 -40 20 -43 66 -26 60 21 -4 34 -37
45 -58 19z"/>
<path d="M11932 6718 c-29 -29 3 -82 36 -61 25 15 22 67 -3 71 -11 1 -26 -3
-33 -10z"/>
<path d="M12223 6723 c-18 -7 -16 -48 3 -64 31 -26 70 25 44 56 -13 15 -25 17
-47 8z"/>
<path d="M12362 6718 c-29 -29 3 -82 36 -61 25 15 22 67 -3 71 -11 1 -26 -3
-33 -10z"/>
<path d="M12500 6711 c-13 -25 -13 -27 6 -45 21 -22 41 -20 54 4 8 14 8 26 0
40 -14 25 -46 26 -60 1z"/>
<path d="M12653 6723 c-18 -7 -16 -48 3 -64 31 -26 70 25 44 56 -13 15 -25 17
-47 8z"/>
<path d="M13513 6723 c-22 -8 -16 -61 7 -68 39 -12 66 35 38 63 -13 13 -24 14
-45 5z"/>
<path d="M13650 6715 c-26 -31 13 -82 44 -56 21 17 21 57 0 65 -23 9 -30 8
-44 -9z"/>
<path d="M10500 6575 c-24 -29 8 -75 44 -62 22 9 20 54 -3 67 -25 13 -26 13
-41 -5z"/>
<path d="M10932 6578 c-25 -25 -6 -68 30 -68 27 0 36 49 13 67 -23 16 -28 16
-43 1z"/>
<path d="M11074 6573 c-18 -18 -15 -42 7 -56 26 -16 49 -1 49 32 0 34 -32 48
-56 24z"/>
<path d="M11222 6578 c-32 -32 0 -84 37 -61 22 14 25 38 6 57 -20 19 -27 20
-43 4z"/>
<path d="M11360 6575 c-26 -31 13 -82 44 -56 22 18 20 48 -3 61 -25 13 -26 13
-41 -5z"/>
<path d="M11654 6582 c-29 -19 -19 -72 14 -72 38 0 53 37 26 64 -17 18 -24 19
-40 8z"/>
<path d="M11790 6575 c-26 -31 13 -82 44 -56 22 18 20 48 -3 61 -25 13 -26 13
-41 -5z"/>
<path d="M12506 6574 c-19 -18 -19 -20 -6 -45 17 -31 70 -18 70 17 0 14 -27
44 -40 44 -5 0 -16 -7 -24 -16z"/>
<path d="M13794 6573 c-18 -18 -15 -42 7 -56 26 -16 49 -1 49 32 0 34 -32 48
-56 24z"/>
<path d="M14080 6575 c-26 -31 13 -82 44 -56 22 18 20 48 -3 61 -25 13 -26 13
-41 -5z"/>
<path d="M14221 6576 c-25 -30 7 -77 43 -63 17 7 23 67 7 67 -5 0 -16 2 -24 5
-7 3 -19 -1 -26 -9z"/>
<path d="M14374 6582 c-29 -19 -19 -72 14 -72 38 0 53 37 26 64 -17 18 -24 19
-40 8z"/>
<path d="M14510 6575 c-26 -31 13 -82 44 -56 22 18 20 48 -3 61 -25 13 -26 13
-41 -5z"/>
<path d="M14651 6576 c-25 -30 7 -77 43 -63 17 7 23 67 7 67 -5 0 -16 2 -24 5
-7 3 -19 -1 -26 -9z"/>
<path d="M10211 6426 c-9 -11 -10 -20 -1 -35 21 -40 79 -15 65 29 -7 24 -46
27 -64 6z"/>
<path d="M10639 6424 c-9 -11 -10 -20 -2 -32 25 -41 86 -14 63 27 -13 25 -42
27 -61 5z"/>
<path d="M10784 6426 c-11 -28 1 -51 27 -54 29 -3 44 18 34 49 -8 23 -53 26
-61 5z"/>
<path d="M10931 6431 c-9 -6 -11 -18 -7 -36 5 -21 12 -26 34 -23 23 2 27 8 27
33 0 22 -5 31 -20 33 -11 1 -26 -2 -34 -7z"/>
<path d="M11784 6426 c-12 -31 0 -51 31 -51 27 0 30 3 30 30 0 25 -4 30 -28
33 -17 2 -29 -2 -33 -12z"/>
<path d="M12644 6426 c-11 -29 1 -51 28 -54 22 -3 29 2 34 22 3 14 3 30 -1 35
-9 16 -55 13 -61 -3z"/>
<path d="M12791 6431 c-9 -6 -11 -18 -7 -36 5 -21 12 -26 34 -23 23 2 27 8 27
33 0 22 -5 31 -20 33 -11 1 -26 -2 -34 -7z"/>
<path d="M12931 6426 c-9 -11 -10 -20 -1 -35 21 -40 79 -15 65 29 -7 24 -46
27 -64 6z"/>
<path d="M13074 6426 c-11 -28 1 -51 27 -54 29 -3 44 18 34 49 -8 23 -53 26
-61 5z"/>
<path d="M13651 6431 c-9 -6 -11 -18 -7 -36 5 -21 12 -26 34 -23 23 2 27 8 27
33 0 22 -5 31 -20 33 -11 1 -26 -2 -34 -7z"/>
<path d="M13790 6425 c-18 -22 -1 -50 31 -50 20 0 24 5 24 30 0 23 -5 31 -21
33 -11 2 -27 -4 -34 -13z"/>
<path d="M13934 6426 c-10 -26 1 -51 22 -54 27 -4 47 21 39 48 -7 24 -53 28
-61 6z"/>
<path d="M14074 6426 c-12 -31 0 -51 31 -51 27 0 30 3 30 30 0 25 -4 30 -28
33 -17 2 -29 -2 -33 -12z"/>
<path d="M14361 6422 c-20 -38 31 -71 59 -37 6 8 9 23 5 35 -8 25 -51 27 -64
2z"/>
<path d="M14504 6426 c-12 -31 0 -51 31 -51 27 0 30 3 30 30 0 25 -4 30 -28
33 -17 2 -29 -2 -33 -12z"/>
<path d="M14791 6422 c-20 -38 31 -71 59 -37 6 8 9 23 5 35 -8 25 -51 27 -64
2z"/>
<path d="M10793 6293 c-19 -7 -16 -51 4 -62 37 -20 71 27 41 57 -13 13 -24 14
-45 5z"/>
<path d="M11071 6286 c-15 -18 -6 -52 16 -60 23 -9 44 13 41 43 -4 30 -38 40
-57 17z"/>
<path d="M11217 6293 c-14 -13 -6 -53 12 -63 34 -18 67 30 39 58 -13 13 -41
16 -51 5z"/>
<path d="M11363 6293 c-19 -7 -16 -51 4 -62 37 -20 71 27 41 57 -13 13 -24 14
-45 5z"/>
<path d="M11501 6286 c-15 -18 -6 -52 16 -60 23 -9 44 13 41 43 -4 30 -38 40
-57 17z"/>
<path d="M11647 6293 c-14 -13 -6 -53 12 -63 34 -18 67 30 39 58 -13 13 -41
16 -51 5z"/>
<path d="M12223 6293 c-19 -7 -16 -51 4 -62 37 -20 71 27 41 57 -13 13 -24 14
-45 5z"/>
<path d="M12362 6288 c-16 -16 -15 -33 4 -52 23 -24 56 -3 52 32 -3 30 -35 41
-56 20z"/>
<path d="M12930 6285 c-29 -35 24 -79 55 -45 13 15 14 23 5 39 -12 24 -42 27
-60 6z"/>
<path d="M13083 6293 c-19 -7 -16 -51 4 -62 37 -20 71 27 41 57 -13 13 -24 14
-45 5z"/>
<path d="M13223 6293 c-19 -7 -16 -51 4 -62 25 -13 53 4 53 33 0 29 -25 42
-57 29z"/>
<path d="M13360 6285 c-15 -19 -4 -52 20 -58 27 -7 50 22 39 51 -10 25 -41 29
-59 7z"/>
<path d="M13513 6293 c-19 -7 -16 -51 4 -62 37 -20 71 27 41 57 -13 13 -24 14
-45 5z"/>
<path d="M13653 6293 c-19 -7 -16 -51 4 -62 25 -13 53 4 53 33 0 29 -25 42
-57 29z"/>
<path d="M13791 6286 c-15 -18 -6 -52 16 -60 23 -9 44 13 41 43 -4 30 -38 40
-57 17z"/>
<path d="M14083 6293 c-19 -7 -16 -51 4 -62 37 -20 71 27 41 57 -13 13 -24 14
-45 5z"/>
<path d="M14221 6286 c-15 -18 -6 -52 16 -60 23 -9 44 13 41 43 -4 30 -38 40
-57 17z"/>
<path d="M14513 6293 c-19 -7 -16 -51 4 -62 37 -20 71 27 41 57 -13 13 -24 14
-45 5z"/>
<path d="M14790 6280 c-8 -15 -6 -24 10 -40 22 -22 46 -18 55 11 14 42 -44 68
-65 29z"/>
<path d="M12433 6159 c-168 -20 -320 -96 -448 -224 -128 -128 -186 -235 -221
-405 -43 -214 12 -443 150 -627 75 -100 208 -199 325 -243 82 -30 91 -22 91
76 l0 74 -77 0 c-104 0 -146 23 -189 103 -17 32 -49 77 -72 100 -50 50 -53 67
-13 67 44 0 75 -15 107 -50 101 -112 99 -110 150 -110 77 0 89 7 111 61 l21
49 -26 6 c-131 29 -203 68 -249 136 -39 57 -62 127 -69 213 -7 81 6 139 44
205 24 40 26 54 23 117 -1 39 2 88 9 108 12 37 13 37 58 32 25 -3 75 -20 112
-39 l67 -35 79 14 c61 11 102 11 182 3 57 -5 107 -12 111 -15 5 -2 43 13 85
35 51 26 90 40 116 40 35 0 39 -3 50 -36 7 -19 10 -68 9 -107 -3 -64 -1 -77
23 -117 74 -124 56 -328 -38 -438 -39 -45 -127 -92 -210 -111 l-51 -12 18 -37
c16 -30 19 -60 19 -182 0 -193 1 -194 134 -132 198 94 349 271 417 492 34 108
34 310 1 425 -64 222 -240 422 -447 508 -117 48 -277 71 -402 56z"/>
<path d="M10360 6146 c-16 -21 -9 -60 13 -64 41 -8 64 48 28 68 -25 13 -26 13
-41 -4z"/>
<path d="M10500 6145 c-24 -29 8 -75 44 -62 22 9 20 54 -3 67 -25 13 -26 13
-41 -5z"/>
<path d="M10645 6143 c-18 -17 -18 -19 -5 -44 21 -38 74 -12 63 31 -6 24 -40
32 -58 13z"/>
<path d="M10790 6146 c-16 -21 -9 -60 13 -64 41 -8 64 48 28 68 -25 13 -26 13
-41 -4z"/>
<path d="M10932 6148 c-25 -25 -6 -68 30 -68 27 0 36 49 13 67 -23 16 -28 16
-43 1z"/>
<path d="M11222 6148 c-32 -32 0 -84 37 -61 22 14 25 38 6 57 -20 19 -27 20
-43 4z"/>
<path d="M11360 6145 c-26 -31 13 -82 44 -56 22 18 20 48 -3 61 -25 13 -26 13
-41 -5z"/>
<path d="M11501 6146 c-25 -30 7 -77 43 -63 17 7 23 67 7 67 -5 0 -16 2 -24 5
-7 3 -19 -1 -26 -9z"/>
<path d="M13365 6143 c-18 -17 -18 -19 -5 -44 21 -38 74 -12 63 31 -6 24 -40
32 -58 13z"/>
<path d="M13652 6148 c-25 -25 -6 -68 30 -68 27 0 36 49 13 67 -23 16 -28 16
-43 1z"/>
<path d="M14080 6145 c-26 -31 13 -82 44 -56 22 18 20 48 -3 61 -25 13 -26 13
-41 -5z"/>
<path d="M14651 6146 c-25 -30 7 -77 43 -63 17 7 23 67 7 67 -5 0 -16 2 -24 5
-7 3 -19 -1 -26 -9z"/>
<path d="M14796 6144 c-19 -18 -19 -20 -6 -45 17 -31 70 -18 70 17 0 14 -27
44 -40 44 -5 0 -16 -7 -24 -16z"/>
<path d="M10211 5996 c-9 -11 -10 -20 -1 -35 21 -40 79 -15 65 29 -7 24 -46
27 -64 6z"/>
<path d="M10495 6000 c-4 -6 -4 -22 -1 -36 5 -20 12 -25 34 -22 23 2 27 8 27
33 0 25 -4 31 -27 33 -14 2 -29 -2 -33 -8z"/>
<path d="M10784 5996 c-11 -28 1 -51 27 -54 29 -3 44 18 34 49 -8 23 -53 26
-61 5z"/>
<path d="M11070 5995 c-18 -22 -1 -50 31 -50 20 0 24 5 24 30 0 23 -5 31 -21
33 -11 2 -27 -4 -34 -13z"/>
<path d="M11214 5996 c-10 -26 1 -51 22 -54 27 -4 47 21 39 48 -7 24 -53 28
-61 6z"/>
<path d="M13360 5995 c-18 -22 -1 -50 31 -50 20 0 24 5 24 30 0 23 -5 31 -21
33 -11 2 -27 -4 -34 -13z"/>
<path d="M13504 5996 c-10 -26 1 -51 22 -54 27 -4 47 21 39 48 -7 24 -53 28
-61 6z"/>
<path d="M13645 6000 c-4 -6 -4 -22 -1 -36 5 -20 12 -25 34 -22 23 2 27 8 27
33 0 25 -4 31 -27 33 -14 2 -29 -2 -33 -8z"/>
<path d="M13934 5996 c-10 -26 1 -51 22 -54 27 -4 47 21 39 48 -7 24 -53 28
-61 6z"/>
<path d="M14074 5996 c-12 -31 0 -51 31 -51 27 0 30 3 30 30 0 25 -4 30 -28
33 -17 2 -29 -2 -33 -12z"/>
<path d="M14361 5992 c-20 -38 31 -71 59 -37 6 8 9 23 5 35 -8 25 -51 27 -64
2z"/>
<path d="M14791 5992 c-20 -38 31 -71 59 -37 6 8 9 23 5 35 -8 25 -51 27 -64
2z"/>
<path d="M10210 5855 c-29 -35 24 -79 55 -45 13 15 14 23 5 39 -12 24 -42 27
-60 6z"/>
<path d="M10640 5855 c-29 -35 24 -79 55 -45 13 15 14 23 5 39 -12 24 -42 27
-60 6z"/>
<path d="M10793 5863 c-19 -7 -16 -51 4 -62 37 -20 71 27 41 57 -13 13 -24 14
-45 5z"/>
<path d="M13360 5855 c-15 -19 -4 -52 20 -58 27 -7 50 22 39 51 -10 25 -41 29
-59 7z"/>
<path d="M13513 5863 c-19 -7 -16 -51 4 -62 37 -20 71 27 41 57 -13 13 -24 14
-45 5z"/>
<path d="M13791 5856 c-15 -18 -6 -52 16 -60 23 -9 44 13 41 43 -4 30 -38 40
-57 17z"/>
<path d="M13937 5863 c-14 -13 -6 -53 12 -63 34 -18 67 30 39 58 -13 13 -41
16 -51 5z"/>
<path d="M14083 5864 c-20 -8 -15 -52 6 -63 26 -14 54 8 49 40 -3 24 -28 34
-55 23z"/>
<path d="M14790 5850 c-8 -15 -6 -24 10 -40 22 -22 46 -18 55 11 14 42 -44 68
-65 29z"/>
<path d="M10215 5713 c-19 -18 -19 -28 1 -47 21 -21 41 -20 54 3 20 39 -24 75
-55 44z"/>
<path d="M10930 5715 c-26 -31 13 -82 44 -56 22 18 20 48 -3 61 -25 13 -26 13
-41 -5z"/>
<path d="M11076 5718 c-22 -12 -20 -45 3 -58 25 -13 27 -13 44 5 31 31 -8 75
-47 53z"/>
<path d="M11653 5723 c-22 -8 -16 -61 7 -68 26 -8 52 12 48 38 -3 21 -34 37
-55 30z"/>
<path d="M13513 5723 c-22 -8 -16 -61 7 -68 43 -14 69 44 31 65 -11 5 -21 10
-23 9 -2 0 -9 -3 -15 -6z"/>
<path d="M13650 5715 c-26 -31 13 -82 44 -56 22 18 20 48 -3 61 -25 13 -26 13
-41 -5z"/>
<path d="M13943 5723 c-22 -8 -16 -61 7 -68 43 -14 69 44 31 65 -11 5 -21 10
-23 9 -2 0 -9 -3 -15 -6z"/>
<path d="M14510 5715 c-26 -31 13 -82 44 -56 22 18 20 48 -3 61 -25 13 -26 13
-41 -5z"/>
<path d="M14795 5713 c-8 -8 -15 -18 -15 -23 0 -14 30 -40 45 -40 17 0 38 37
32 54 -8 20 -46 26 -62 9z"/>
<path d="M10211 5566 c-9 -11 -10 -20 -1 -35 21 -40 79 -15 65 29 -7 24 -46
27 -64 6z"/>
<path d="M10354 5566 c-11 -28 1 -51 27 -54 29 -3 44 18 34 49 -8 23 -53 26
-61 5z"/>
<path d="M10495 5570 c-4 -6 -4 -22 -1 -36 5 -20 12 -25 34 -22 23 2 27 8 27
33 0 25 -4 31 -27 33 -14 2 -29 -2 -33 -8z"/>
<path d="M10925 5570 c-4 -6 -4 -22 -1 -36 5 -20 12 -25 34 -22 23 2 27 8 27
33 0 25 -4 31 -27 33 -14 2 -29 -2 -33 -8z"/>
<path d="M11355 5570 c-4 -6 -4 -22 -1 -36 5 -20 12 -25 34 -22 23 2 27 8 27
33 0 25 -4 31 -27 33 -14 2 -29 -2 -33 -8z"/>
<path d="M11641 5562 c-20 -38 31 -71 59 -37 6 8 9 23 5 35 -8 25 -51 27 -64
2z"/>
<path d="M13360 5565 c-18 -22 -1 -50 31 -50 20 0 24 5 24 30 0 23 -5 31 -21
33 -11 2 -27 -4 -34 -13z"/>
<path d="M13504 5566 c-10 -26 1 -51 22 -54 27 -4 47 21 39 48 -7 24 -53 28
-61 6z"/>
<path d="M13790 5565 c-18 -22 -1 -50 31 -50 20 0 24 5 24 30 0 23 -5 31 -21
33 -11 2 -27 -4 -34 -13z"/>
<path d="M14361 5562 c-20 -38 31 -71 59 -37 6 8 9 23 5 35 -8 25 -51 27 -64
2z"/>
<path d="M14646 5562 c-11 -32 4 -53 33 -50 22 2 26 8 26 33 0 25 -4 31 -27
33 -19 2 -28 -2 -32 -16z"/>
<path d="M14791 5562 c-20 -38 31 -71 59 -37 6 8 9 23 5 35 -8 25 -51 27 -64
2z"/>
<path d="M10640 5425 c-18 -21 -3 -55 24 -55 33 0 50 23 36 49 -12 24 -42 27
-60 6z"/>
<path d="M10784 5426 c-3 -8 -4 -23 -2 -33 5 -25 61 -25 66 0 7 37 -51 67 -64
33z"/>
<path d="M10932 5431 c-8 -4 -12 -19 -10 -32 2 -19 9 -24 33 -24 27 0 30 3 30
30 0 22 -5 31 -20 33 -11 1 -26 -2 -33 -7z"/>
<path d="M11071 5426 c-21 -25 -4 -58 27 -54 23 2 27 8 27 33 0 23 -5 31 -21
33 -11 2 -26 -4 -33 -12z"/>
<path d="M11644 5426 c-11 -28 1 -51 28 -54 31 -4 48 29 28 53 -16 19 -49 19
-56 1z"/>
<path d="M13360 5425 c-18 -21 -3 -55 24 -55 32 0 46 19 35 48 -10 25 -41 29
-59 7z"/>
<path d="M13504 5426 c-3 -8 -4 -23 -2 -33 5 -25 61 -25 66 0 7 37 -51 67 -64
33z"/>
<path d="M13934 5426 c-11 -28 1 -51 28 -54 31 -4 48 29 28 53 -16 19 -49 19
-56 1z"/>
<path d="M14074 5426 c-12 -31 0 -51 31 -51 27 0 30 3 30 30 0 25 -4 30 -28
33 -17 2 -29 -2 -33 -12z"/>
<path d="M14361 5422 c-13 -25 5 -52 34 -52 15 0 26 7 30 20 13 41 -44 70 -64
32z"/>
<path d="M10363 5293 c-18 -7 -16 -48 3 -64 31 -26 70 25 44 56 -13 15 -25 17
-47 8z"/>
<path d="M10793 5293 c-22 -8 -16 -61 7 -68 39 -12 66 35 38 63 -13 13 -24 14
-45 5z"/>
<path d="M11223 5293 c-22 -8 -16 -61 7 -68 39 -12 66 35 38 63 -13 13 -24 14
-45 5z"/>
<path d="M11360 5285 c-26 -31 13 -82 44 -56 21 17 21 57 0 65 -23 9 -30 8
-44 -9z"/>
<path d="M13513 5293 c-22 -8 -16 -61 7 -68 39 -12 66 35 38 63 -13 13 -24 14
-45 5z"/>
<path d="M13943 5293 c-22 -8 -16 -61 7 -68 39 -12 66 35 38 63 -13 13 -24 14
-45 5z"/>
<path d="M14080 5285 c-26 -31 13 -82 44 -56 21 17 21 57 0 65 -23 9 -30 8
-44 -9z"/>
<path d="M14510 5285 c-26 -31 13 -82 44 -56 19 16 21 42 4 59 -16 16 -33 15
-48 -3z"/>
<path d="M10211 5136 c-9 -11 -10 -20 -1 -35 21 -40 79 -15 65 29 -7 24 -46
27 -64 6z"/>
<path d="M11065 5130 c-8 -27 12 -52 39 -48 16 2 21 10 21 33 0 25 -4 31 -27
33 -19 2 -28 -2 -33 -18z"/>
<path d="M11214 5136 c-10 -26 1 -51 22 -54 27 -4 47 21 39 48 -7 24 -53 28
-61 6z"/>
<path d="M11353 5134 c-8 -22 10 -49 32 -49 10 0 22 7 28 16 15 24 1 49 -28
49 -15 0 -28 -7 -32 -16z"/>
<path d="M11493 5134 c-9 -24 10 -49 38 -49 20 0 24 5 24 30 0 25 -4 30 -28
33 -18 2 -29 -2 -34 -14z"/>
<path d="M13356 5134 c-9 -22 11 -54 34 -54 25 0 41 29 29 52 -12 22 -55 24
-63 2z"/>
<path d="M13504 5136 c-10 -26 1 -51 22 -54 27 -4 47 21 39 48 -7 24 -53 28
-61 6z"/>
<path d="M14213 5134 c-9 -24 10 -49 38 -49 20 0 24 5 24 30 0 25 -4 30 -28
33 -18 2 -29 -2 -34 -14z"/>
<path d="M14361 5132 c-20 -38 31 -71 59 -37 6 8 9 23 5 35 -8 25 -51 27 -64
2z"/>
<path d="M14503 5134 c-8 -22 10 -49 32 -49 10 0 22 7 28 16 15 24 1 49 -28
49 -15 0 -28 -7 -32 -16z"/>
<path d="M14791 5136 c-9 -11 -10 -20 -1 -35 21 -40 79 -15 65 29 -7 24 -46
27 -64 6z"/>
<path d="M10501 4996 c-21 -26 -9 -51 24 -51 27 0 30 3 30 30 0 23 -5 31 -21
33 -11 2 -26 -4 -33 -12z"/>
<path d="M10784 4996 c-3 -8 -4 -23 -2 -33 5 -25 61 -25 66 0 7 37 -51 67 -64
33z"/>
<path d="M11214 4996 c-11 -28 1 -51 28 -54 31 -4 48 29 28 53 -16 19 -49 19
-56 1z"/>
<path d="M13360 4995 c-18 -21 -3 -55 24 -55 32 0 46 19 35 48 -10 25 -41 29
-59 7z"/>
<path d="M13504 4996 c-3 -8 -4 -23 -2 -33 5 -25 61 -25 66 0 7 37 -51 67 -64
33z"/>
<path d="M13791 4996 c-21 -25 -4 -58 27 -54 23 2 27 8 27 33 0 23 -5 31 -21
33 -11 2 -26 -4 -33 -12z"/>
<path d="M13934 4996 c-11 -28 1 -51 28 -54 31 -4 48 29 28 53 -16 19 -49 19
-56 1z"/>
<path d="M14221 4996 c-21 -25 -4 -58 27 -54 23 2 27 8 27 33 0 23 -5 31 -21
33 -11 2 -26 -4 -33 -12z"/>
<path d="M14361 4992 c-13 -25 5 -52 34 -52 15 0 26 7 30 20 13 41 -44 70 -64
32z"/>
<path d="M14651 4996 c-21 -25 -4 -58 27 -54 23 2 27 8 27 33 0 23 -5 31 -21
33 -11 2 -26 -4 -33 -12z"/>
<path d="M10210 4851 c-13 -25 -13 -27 6 -45 21 -22 41 -20 54 4 8 14 8 26 0
40 -14 25 -46 26 -60 1z"/>
<path d="M10793 4863 c-22 -8 -16 -61 7 -68 39 -12 66 35 38 63 -13 13 -24 14
-45 5z"/>
<path d="M11071 4856 c-25 -30 8 -73 45 -59 24 9 15 67 -12 71 -11 2 -26 -4
-33 -12z"/>
<path d="M11360 4855 c-26 -31 13 -82 44 -56 19 16 21 42 4 59 -16 16 -33 15
-48 -3z"/>
<path d="M11647 4863 c-4 -3 -7 -19 -7 -34 0 -19 6 -30 20 -34 39 -12 66 35
38 63 -13 13 -41 16 -51 5z"/>
<path d="M13513 4863 c-22 -8 -16 -61 7 -68 39 -12 66 35 38 63 -13 13 -24 14
-45 5z"/>
<path d="M13650 4855 c-26 -31 13 -82 44 -56 21 17 21 57 0 65 -23 9 -30 8
-44 -9z"/>
<path d="M13937 4863 c-4 -3 -7 -19 -7 -34 0 -19 6 -30 20 -34 39 -12 66 35
38 63 -13 13 -41 16 -51 5z"/>
<path d="M14080 4855 c-26 -31 13 -82 44 -56 19 16 21 42 4 59 -16 16 -33 15
-48 -3z"/>
<path d="M14790 4851 c-13 -25 -13 -27 6 -45 21 -22 41 -20 54 4 8 14 8 26 0
40 -14 25 -46 26 -60 1z"/>
<path d="M10493 4704 c-9 -24 10 -49 38 -49 20 0 24 5 24 30 0 25 -4 30 -28
33 -18 2 -29 -2 -34 -14z"/>
<path d="M10636 4704 c-9 -22 11 -54 34 -54 25 0 41 29 29 52 -12 22 -55 24
-63 2z"/>
<path d="M11353 4704 c-8 -22 10 -49 32 -49 10 0 22 7 28 16 15 24 1 49 -28
49 -15 0 -28 -7 -32 -16z"/>
<path d="M11493 4704 c-9 -24 10 -49 38 -49 20 0 24 5 24 30 0 25 -4 30 -28
33 -18 2 -29 -2 -34 -14z"/>
<path d="M13934 4706 c-10 -26 1 -51 22 -54 27 -4 47 21 39 48 -7 24 -53 28
-61 6z"/>
<path d="M14073 4704 c-8 -22 10 -49 32 -49 10 0 22 7 28 16 15 24 1 49 -28
49 -15 0 -28 -7 -32 -16z"/>
<path d="M14503 4704 c-8 -22 10 -49 32 -49 10 0 22 7 28 16 15 24 1 49 -28
49 -15 0 -28 -7 -32 -16z"/>
<path d="M14791 4706 c-9 -11 -10 -20 -1 -35 21 -40 79 -15 65 29 -7 24 -46
27 -64 6z"/>
<path d="M10209 4564 c-9 -11 -10 -20 -2 -32 25 -41 86 -14 63 27 -13 25 -42
27 -61 5z"/>
<path d="M10354 4566 c-3 -8 -4 -23 -2 -33 5 -25 61 -25 66 0 7 37 -51 67 -64
33z"/>
<path d="M10784 4566 c-3 -8 -4 -23 -2 -33 5 -25 61 -25 66 0 7 37 -51 67 -64
33z"/>
<path d="M11070 4565 c-18 -22 -1 -50 31 -50 20 0 24 5 24 30 0 23 -5 31 -21
33 -11 2 -27 -4 -34 -13z"/>
<path d="M11214 4566 c-11 -28 1 -51 28 -54 31 -4 48 29 28 53 -16 19 -49 19
-56 1z"/>
<path d="M11354 4566 c-12 -31 0 -51 31 -51 27 0 30 3 30 30 0 25 -4 30 -28
33 -17 2 -29 -2 -33 -12z"/>
<path d="M11784 4566 c-12 -31 0 -51 31 -51 27 0 30 3 30 30 0 25 -4 30 -28
33 -17 2 -29 -2 -33 -12z"/>
<path d="M11931 4566 c-21 -25 -4 -58 27 -54 23 2 27 8 27 33 0 23 -5 31 -21
33 -11 2 -26 -4 -33 -12z"/>
<path d="M12501 4562 c-13 -25 5 -52 34 -52 15 0 26 7 30 20 13 41 -44 70 -64
32z"/>
<path d="M12791 4566 c-21 -26 -9 -51 24 -51 27 0 30 3 30 30 0 23 -5 31 -21
33 -11 2 -26 -4 -33 -12z"/>
<path d="M13074 4566 c-3 -8 -4 -23 -2 -33 5 -25 61 -25 66 0 7 37 -51 67 -64
33z"/>
<path d="M13222 4571 c-8 -4 -12 -19 -10 -32 2 -19 9 -24 33 -24 27 0 30 3 30
30 0 22 -5 31 -20 33 -11 1 -26 -2 -33 -7z"/>
<path d="M13359 4564 c-16 -20 -1 -48 28 -52 27 -4 43 18 32 46 -10 26 -41 29
-60 6z"/>
<path d="M13504 4566 c-3 -8 -4 -23 -2 -33 5 -25 61 -25 66 0 7 37 -51 67 -64
33z"/>
<path d="M13652 4571 c-8 -4 -12 -19 -10 -32 2 -19 9 -24 33 -24 27 0 30 3 30
30 0 22 -5 31 -20 33 -11 1 -26 -2 -33 -7z"/>
<path d="M13790 4565 c-18 -22 -1 -50 31 -50 20 0 24 5 24 30 0 23 -5 31 -21
33 -11 2 -27 -4 -34 -13z"/>
<path d="M13934 4566 c-11 -28 1 -51 28 -54 31 -4 48 29 28 53 -16 19 -49 19
-56 1z"/>
<path d="M14074 4566 c-12 -31 0 -51 31 -51 27 0 30 3 30 30 0 25 -4 30 -28
33 -17 2 -29 -2 -33 -12z"/>
<path d="M14221 4566 c-21 -25 -4 -58 27 -54 23 2 27 8 27 33 0 23 -5 31 -21
33 -11 2 -26 -4 -33 -12z"/>
<path d="M14504 4566 c-12 -31 0 -51 31 -51 27 0 30 3 30 30 0 25 -4 30 -28
33 -17 2 -29 -2 -33 -12z"/>
<path d="M14791 4562 c-13 -25 5 -52 34 -52 15 0 26 7 30 20 13 41 -44 70 -64
32z"/>
<path d="M10500 4425 c-26 -31 13 -82 44 -56 21 17 21 57 0 65 -23 9 -30 8
-44 -9z"/>
<path d="M10793 4433 c-22 -8 -16 -61 7 -68 39 -12 66 35 38 63 -13 13 -24 14
-45 5z"/>
<path d="M10930 4425 c-26 -31 13 -82 44 -56 21 17 21 57 0 65 -23 9 -30 8
-44 -9z"/>
<path d="M11360 4425 c-26 -31 13 -82 44 -56 19 16 21 42 4 59 -16 16 -33 15
-48 -3z"/>
<path d="M11500 4425 c-10 -12 -10 -21 -2 -40 20 -43 66 -26 60 21 -4 34 -37
45 -58 19z"/>
<path d="M11932 4428 c-29 -29 3 -82 36 -61 25 15 22 67 -3 71 -11 1 -26 -3
-33 -10z"/>
<path d="M12500 4421 c-13 -25 -13 -27 6 -45 21 -22 41 -20 54 4 8 14 8 26 0
40 -14 25 -46 26 -60 1z"/>
<path d="M12930 4421 c-18 -34 10 -68 44 -55 35 13 23 74 -14 74 -11 0 -24 -9
-30 -19z"/>
<path d="M13083 4433 c-18 -7 -16 -48 3 -64 31 -26 70 25 44 56 -13 15 -25 17
-47 8z"/>
<path d="M13513 4433 c-22 -8 -16 -61 7 -68 39 -12 66 35 38 63 -13 13 -24 14
-45 5z"/>
<path d="M13650 4425 c-26 -31 13 -82 44 -56 21 17 21 57 0 65 -23 9 -30 8
-44 -9z"/>
<path d="M14080 4425 c-26 -31 13 -82 44 -56 19 16 21 42 4 59 -16 16 -33 15
-48 -3z"/>
<path d="M14367 4433 c-4 -3 -7 -19 -7 -34 0 -19 6 -30 20 -34 39 -12 66 35
38 63 -13 13 -41 16 -51 5z"/>
<path d="M14652 4428 c-29 -29 3 -82 36 -61 25 15 22 67 -3 71 -11 1 -26 -3
-33 -10z"/>
<path d="M14790 4421 c-13 -25 -13 -27 6 -45 21 -22 41 -20 54 4 8 14 8 26 0
40 -14 25 -46 26 -60 1z"/>
<path d="M10216 4284 c-19 -18 -19 -20 -6 -45 17 -31 70 -18 70 17 0 14 -27
44 -40 44 -5 0 -16 -7 -24 -16z"/>
<path d="M10360 4286 c-16 -21 -9 -60 13 -64 41 -8 64 48 28 68 -25 13 -26 13
-41 -4z"/>
<path d="M10500 4285 c-24 -29 8 -75 44 -62 22 9 20 54 -3 67 -25 13 -26 13
-41 -5z"/>
<path d="M10790 4286 c-16 -21 -9 -60 13 -64 41 -8 64 48 28 68 -25 13 -26 13
-41 -4z"/>
<path d="M10932 4288 c-25 -25 -6 -68 30 -68 27 0 36 49 13 67 -23 16 -28 16
-43 1z"/>
<path d="M11074 4283 c-18 -18 -15 -42 7 -56 26 -16 49 -1 49 32 0 34 -32 48
-56 24z"/>
<path d="M11360 4285 c-26 -31 13 -82 44 -56 22 18 20 48 -3 61 -25 13 -26 13
-41 -5z"/>
<path d="M11931 4286 c-25 -30 7 -77 43 -63 17 7 23 67 7 67 -5 0 -16 2 -24 5
-7 3 -19 -1 -26 -9z"/>
<path d="M12076 4284 c-19 -18 -19 -20 -6 -45 17 -31 70 -18 70 17 0 14 -27
44 -40 44 -5 0 -16 -7 -24 -16z"/>
<path d="M12220 4285 c-26 -31 13 -82 44 -56 22 18 20 48 -3 61 -25 13 -26 13
-41 -5z"/>
<path d="M12361 4286 c-25 -30 7 -77 43 -63 17 7 23 67 7 67 -5 0 -16 2 -24 5
-7 3 -19 -1 -26 -9z"/>
<path d="M12650 4286 c-16 -21 -9 -60 13 -64 41 -8 64 48 28 68 -25 13 -26 13
-41 -4z"/>
<path d="M12791 4286 c-25 -30 7 -77 43 -63 17 7 23 67 7 67 -5 0 -16 2 -24 5
-7 3 -19 -1 -26 -9z"/>
<path d="M12936 4284 c-19 -18 -19 -20 -6 -45 17 -31 70 -18 70 17 0 14 -27
44 -40 44 -5 0 -16 -7 -24 -16z"/>
<path d="M13080 4286 c-16 -21 -9 -60 13 -64 41 -8 64 48 28 68 -25 13 -26 13
-41 -4z"/>
<path d="M13652 4288 c-25 -25 -6 -68 30 -68 27 0 36 49 13 67 -23 16 -28 16
-43 1z"/>
<path d="M13794 4283 c-18 -18 -15 -42 7 -56 26 -16 49 -1 49 32 0 34 -32 48
-56 24z"/>
<path d="M13942 4288 c-32 -32 0 -84 37 -61 22 14 25 38 6 57 -20 19 -27 20
-43 4z"/>
<path d="M14080 4285 c-26 -31 13 -82 44 -56 22 18 20 48 -3 61 -25 13 -26 13
-41 -5z"/>
<path d="M14221 4286 c-25 -30 7 -77 43 -63 17 7 23 67 7 67 -5 0 -16 2 -24 5
-7 3 -19 -1 -26 -9z"/>
<path d="M11355 4140 c-4 -6 -4 -22 -1 -36 5 -20 12 -25 34 -22 23 2 27 8 27
33 0 25 -4 31 -27 33 -14 2 -29 -2 -33 -8z"/>
<path d="M11501 4136 c-21 -25 -4 -58 27 -54 23 2 27 8 27 33 0 23 -5 31 -21
33 -11 2 -26 -4 -33 -12z"/>
<path d="M11641 4131 c-13 -24 8 -55 34 -50 28 6 42 34 26 53 -18 22 -48 20
-60 -3z"/>
<path d="M11784 4136 c-12 -31 0 -51 31 -51 27 0 30 3 30 30 0 25 -4 30 -28
33 -17 2 -29 -2 -33 -12z"/>
<path d="M12071 4131 c-13 -24 8 -55 34 -50 28 6 42 34 26 53 -18 22 -48 20
-60 -3z"/>
<path d="M12214 4136 c-10 -27 1 -51 25 -54 31 -5 45 11 37 42 -5 19 -13 26
-32 26 -13 0 -27 -6 -30 -14z"/>
<path d="M12361 4141 c-9 -6 -11 -18 -7 -36 5 -21 12 -26 34 -23 23 2 27 8 27
33 0 22 -5 31 -20 33 -11 1 -26 -2 -34 -7z"/>
<path d="M12791 4141 c-9 -6 -11 -18 -7 -36 5 -21 12 -26 34 -23 23 2 27 8 27
33 0 22 -5 31 -20 33 -11 1 -26 -2 -34 -7z"/>
<path d="M12931 4136 c-16 -19 3 -56 28 -56 29 0 45 25 31 49 -12 24 -42 27
-59 7z"/>
<path d="M13221 4141 c-9 -6 -11 -18 -7 -36 5 -21 12 -26 34 -23 23 2 27 8 27
33 0 22 -5 31 -20 33 -11 1 -26 -2 -34 -7z"/>
<path d="M13504 4136 c-11 -28 1 -51 25 -51 32 0 49 28 32 49 -17 20 -50 21
-57 2z"/>
<path d="M13651 4141 c-9 -6 -11 -18 -7 -36 5 -21 12 -26 34 -23 23 2 27 8 27
33 0 22 -5 31 -20 33 -11 1 -26 -2 -34 -7z"/>
<path d="M14221 4136 c-21 -25 -4 -58 27 -54 23 2 27 8 27 33 0 23 -5 31 -21
33 -11 2 -26 -4 -33 -12z"/>
<path d="M14361 4131 c-13 -24 8 -55 34 -50 28 6 42 34 26 53 -18 22 -48 20
-60 -3z"/>
<path d="M14504 4136 c-12 -31 0 -51 31 -51 27 0 30 3 30 30 0 25 -4 30 -28
33 -17 2 -29 -2 -33 -12z"/>
<path d="M14791 4131 c-13 -24 8 -55 34 -50 28 6 42 34 26 53 -18 22 -48 20
-60 -3z"/>
<path d="M10170 3540 l0 -500 500 0 500 0 0 500 0 500 -500 0 -500 0 0 -500z
m850 5 l0 -355 -355 0 -355 0 0 348 c0 192 3 352 7 355 3 4 163 7 355 7 l348
0 0 -355z"/>
<path d="M10460 3540 l0 -210 210 0 210 0 0 210 0 210 -210 0 -210 0 0 -210z"/>
<path d="M11360 3995 c-26 -31 13 -82 44 -56 19 16 21 42 4 59 -16 16 -33 15
-48 -3z"/>
<path d="M11647 4003 c-4 -3 -7 -19 -7 -34 0 -19 6 -30 20 -34 39 -12 66 35
38 63 -13 13 -41 16 -51 5z"/>
<path d="M11932 3998 c-29 -29 3 -82 36 -61 25 15 22 67 -3 71 -11 1 -26 -3
-33 -10z"/>
<path d="M12223 4003 c-18 -7 -16 -48 3 -64 31 -26 70 25 44 56 -13 15 -25 17
-47 8z"/>
<path d="M12362 3998 c-29 -29 3 -82 36 -61 25 15 22 67 -3 71 -11 1 -26 -3
-33 -10z"/>
<path d="M12500 3991 c-13 -25 -13 -27 6 -45 21 -22 41 -20 54 4 8 14 8 26 0
40 -14 25 -46 26 -60 1z"/>
<path d="M12653 4003 c-18 -7 -16 -48 3 -64 31 -26 70 25 44 56 -13 15 -25 17
-47 8z"/>
<path d="M13083 4003 c-18 -7 -16 -48 3 -64 31 -26 70 25 44 56 -13 15 -25 17
-47 8z"/>
<path d="M13650 3995 c-26 -31 13 -82 44 -56 21 17 21 57 0 65 -23 9 -30 8
-44 -9z"/>
<path d="M13937 4003 c-4 -3 -7 -19 -7 -34 0 -19 6 -30 20 -34 39 -12 66 35
38 63 -13 13 -41 16 -51 5z"/>
<path d="M14222 3998 c-29 -29 -1 -75 38 -63 17 5 20 13 18 38 -3 35 -33 48
-56 25z"/>
<path d="M14790 3991 c-13 -25 -13 -27 6 -45 21 -22 41 -20 54 4 8 14 8 26 0
40 -14 25 -46 26 -60 1z"/>
<path d="M11360 3855 c-26 -31 13 -82 44 -56 22 18 20 48 -3 61 -25 13 -26 13
-41 -5z"/>
<path d="M11501 3856 c-25 -30 7 -77 43 -63 17 7 23 67 7 67 -5 0 -16 2 -24 5
-7 3 -19 -1 -26 -9z"/>
<path d="M11790 3855 c-26 -31 13 -82 44 -56 22 18 20 48 -3 61 -25 13 -26 13
-41 -5z"/>
<path d="M12220 3855 c-26 -31 13 -82 44 -56 22 18 20 48 -3 61 -25 13 -26 13
-41 -5z"/>
<path d="M13220 3855 c-24 -29 8 -75 44 -62 22 9 20 54 -3 67 -25 13 -26 13
-41 -5z"/>
<path d="M13510 3856 c-16 -21 -9 -60 13 -64 41 -8 64 48 28 68 -25 13 -26 13
-41 -4z"/>
<path d="M13652 3858 c-25 -25 -6 -68 30 -68 27 0 36 49 13 67 -23 16 -28 16
-43 1z"/>
<path d="M14221 3856 c-25 -30 7 -77 43 -63 17 7 23 67 7 67 -5 0 -16 2 -24 5
-7 3 -19 -1 -26 -9z"/>
<path d="M14374 3862 c-29 -19 -19 -72 14 -72 38 0 53 37 26 64 -17 18 -24 19
-40 8z"/>
<path d="M14651 3856 c-25 -30 7 -77 43 -63 17 7 23 67 7 67 -5 0 -16 2 -24 5
-7 3 -19 -1 -26 -9z"/>
<path d="M14796 3854 c-19 -18 -19 -20 -6 -45 17 -31 70 -18 70 17 0 14 -27
44 -40 44 -5 0 -16 -7 -24 -16z"/>
<path d="M11641 3702 c-20 -38 31 -71 59 -37 6 8 9 23 5 35 -8 25 -51 27 -64
2z"/>
<path d="M11784 3706 c-12 -31 0 -51 31 -51 27 0 30 3 30 30 0 25 -4 30 -28
33 -17 2 -29 -2 -33 -12z"/>
<path d="M12071 3702 c-20 -38 31 -71 59 -37 6 8 9 23 5 35 -8 25 -51 27 -64
2z"/>
<path d="M12214 3706 c-12 -31 0 -51 31 -51 27 0 30 3 30 30 0 25 -4 30 -28
33 -17 2 -29 -2 -33 -12z"/>
<path d="M12644 3706 c-11 -29 1 -51 28 -54 22 -3 29 2 34 22 3 14 3 30 -1 35
-9 16 -55 13 -61 -3z"/>
<path d="M12931 3706 c-9 -11 -10 -20 -1 -35 21 -40 79 -15 65 29 -7 24 -46
27 -64 6z"/>
<path d="M13074 3706 c-11 -28 1 -51 27 -54 29 -3 44 18 34 49 -8 23 -53 26
-61 5z"/>
<path d="M13215 3710 c-4 -6 -4 -22 -1 -36 5 -20 12 -25 34 -22 23 2 27 8 27
33 0 25 -4 31 -27 33 -14 2 -29 -2 -33 -8z"/>
<path d="M13504 3706 c-10 -26 1 -51 22 -54 27 -4 47 21 39 48 -7 24 -53 28
-61 6z"/>
<path d="M13645 3710 c-4 -6 -4 -22 -1 -36 5 -20 12 -25 34 -22 23 2 27 8 27
33 0 25 -4 31 -27 33 -14 2 -29 -2 -33 -8z"/>
<path d="M13790 3705 c-18 -22 -1 -50 31 -50 20 0 24 5 24 30 0 23 -5 31 -21
33 -11 2 -27 -4 -34 -13z"/>
<path d="M13934 3706 c-10 -26 1 -51 22 -54 27 -4 47 21 39 48 -7 24 -53 28
-61 6z"/>
<path d="M14074 3706 c-12 -31 0 -51 31 -51 27 0 30 3 30 30 0 25 -4 30 -28
33 -17 2 -29 -2 -33 -12z"/>
<path d="M14216 3702 c-11 -32 4 -53 33 -50 22 2 26 8 26 33 0 25 -4 31 -27
33 -19 2 -28 -2 -32 -16z"/>
<path d="M14504 3706 c-12 -31 0 -51 31 -51 27 0 30 3 30 30 0 25 -4 30 -28
33 -17 2 -29 -2 -33 -12z"/>
<path d="M11501 3566 c-15 -18 -6 -52 16 -60 23 -9 44 13 41 43 -4 30 -38 40
-57 17z"/>
<path d="M11647 3573 c-14 -13 -6 -53 12 -63 34 -18 67 30 39 58 -13 13 -41
16 -51 5z"/>
<path d="M11793 3573 c-19 -7 -16 -51 4 -62 37 -20 71 27 41 57 -13 13 -24 14
-45 5z"/>
<path d="M12070 3560 c-8 -15 -6 -24 10 -40 22 -22 46 -18 55 11 14 42 -44 68
-65 29z"/>
<path d="M12500 3560 c-8 -15 -6 -24 10 -40 32 -32 72 -1 50 41 -14 25 -46 24
-60 -1z"/>
<path d="M12930 3565 c-29 -35 24 -79 55 -45 13 15 14 23 5 39 -12 24 -42 27
-60 6z"/>
<path d="M13223 3573 c-19 -7 -16 -51 4 -62 25 -13 53 4 53 33 0 29 -25 42
-57 29z"/>
<path d="M13513 3573 c-19 -7 -16 -51 4 -62 37 -20 71 27 41 57 -13 13 -24 14
-45 5z"/>
<path d="M13791 3566 c-15 -18 -6 -52 16 -60 23 -9 44 13 41 43 -4 30 -38 40
-57 17z"/>
<path d="M14083 3573 c-19 -7 -16 -51 4 -62 37 -20 71 27 41 57 -13 13 -24 14
-45 5z"/>
<path d="M14221 3566 c-15 -18 -6 -52 16 -60 23 -9 44 13 41 43 -4 30 -38 40
-57 17z"/>
<path d="M14360 3560 c-8 -15 -6 -24 10 -40 22 -22 46 -18 55 11 14 42 -44 68
-65 29z"/>
<path d="M14513 3573 c-19 -7 -16 -51 4 -62 37 -20 71 27 41 57 -13 13 -24 14
-45 5z"/>
<path d="M14652 3568 c-16 -16 -15 -33 4 -52 23 -24 56 -3 52 32 -3 30 -35 41
-56 20z"/>
<path d="M11360 3425 c-26 -31 13 -82 44 -56 22 18 20 48 -3 61 -25 13 -26 13
-41 -5z"/>
<path d="M11790 3425 c-26 -31 13 -82 44 -56 22 18 20 48 -3 61 -25 13 -26 13
-41 -5z"/>
<path d="M12076 3424 c-19 -18 -19 -20 -6 -45 17 -31 70 -18 70 17 0 14 -27
44 -40 44 -5 0 -16 -7 -24 -16z"/>
<path d="M12361 3426 c-25 -30 7 -77 43 -63 17 7 23 67 7 67 -5 0 -16 2 -24 5
-7 3 -19 -1 -26 -9z"/>
<path d="M12791 3426 c-25 -30 7 -77 43 -63 17 7 23 67 7 67 -5 0 -16 2 -24 5
-7 3 -19 -1 -26 -9z"/>
<path d="M12936 3424 c-19 -18 -19 -20 -6 -45 17 -31 70 -18 70 17 0 14 -27
44 -40 44 -5 0 -16 -7 -24 -16z"/>
<path d="M13220 3425 c-24 -29 8 -75 44 -62 22 9 20 54 -3 67 -25 13 -26 13
-41 -5z"/>
<path d="M13365 3423 c-18 -17 -18 -19 -5 -44 21 -38 74 -12 63 31 -6 24 -40
32 -58 13z"/>
<path d="M13652 3428 c-25 -25 -6 -68 30 -68 27 0 36 49 13 67 -23 16 -28 16
-43 1z"/>
<path d="M14221 3426 c-25 -30 7 -77 43 -63 17 7 23 67 7 67 -5 0 -16 2 -24 5
-7 3 -19 -1 -26 -9z"/>
<path d="M14374 3432 c-29 -19 -19 -72 14 -72 38 0 53 37 26 64 -17 18 -24 19
-40 8z"/>
<path d="M14651 3426 c-25 -30 7 -77 43 -63 17 7 23 67 7 67 -5 0 -16 2 -24 5
-7 3 -19 -1 -26 -9z"/>
<path d="M14796 3424 c-19 -18 -19 -20 -6 -45 17 -31 70 -18 70 17 0 14 -27
44 -40 44 -5 0 -16 -7 -24 -16z"/>
<path d="M11926 3272 c-11 -32 4 -53 33 -50 22 2 26 8 26 33 0 25 -4 31 -27
33 -19 2 -28 -2 -32 -16z"/>
<path d="M12071 3272 c-20 -38 31 -71 59 -37 6 8 9 23 5 35 -8 25 -51 27 -64
2z"/>
<path d="M12214 3276 c-12 -31 0 -51 31 -51 27 0 30 3 30 30 0 25 -4 30 -28
33 -17 2 -29 -2 -33 -12z"/>
<path d="M12644 3276 c-11 -29 1 -51 28 -54 22 -3 29 2 34 22 3 14 3 30 -1 35
-9 16 -55 13 -61 -3z"/>
<path d="M12931 3276 c-9 -11 -10 -20 -1 -35 21 -40 79 -15 65 29 -7 24 -46
27 -64 6z"/>
<path d="M13074 3276 c-11 -28 1 -51 27 -54 29 -3 44 18 34 49 -8 23 -53 26
-61 5z"/>
<path d="M13215 3280 c-4 -6 -4 -22 -1 -36 5 -20 12 -25 34 -22 23 2 27 8 27
33 0 25 -4 31 -27 33 -14 2 -29 -2 -33 -8z"/>
<path d="M13360 3275 c-18 -22 -1 -50 31 -50 20 0 24 5 24 30 0 23 -5 31 -21
33 -11 2 -27 -4 -34 -13z"/>
<path d="M13645 3280 c-4 -6 -4 -22 -1 -36 5 -20 12 -25 34 -22 23 2 27 8 27
33 0 25 -4 31 -27 33 -14 2 -29 -2 -33 -8z"/>
<path d="M13790 3275 c-18 -22 -1 -50 31 -50 20 0 24 5 24 30 0 23 -5 31 -21
33 -11 2 -27 -4 -34 -13z"/>
<path d="M14361 3272 c-20 -38 31 -71 59 -37 6 8 9 23 5 35 -8 25 -51 27 -64
2z"/>
<path d="M11932 3138 c-16 -16 -15 -33 4 -52 23 -24 56 -3 52 32 -3 30 -35 41
-56 20z"/>
<path d="M12070 3130 c-8 -15 -6 -24 10 -40 22 -22 46 -18 55 11 14 42 -44 68
-65 29z"/>
<path d="M12362 3138 c-16 -16 -15 -33 4 -52 23 -24 56 -3 52 32 -3 30 -35 41
-56 20z"/>
<path d="M12500 3130 c-8 -15 -6 -24 10 -40 22 -22 46 -18 55 11 14 42 -44 68
-65 29z"/>
<path d="M12930 3135 c-29 -35 24 -79 55 -45 13 15 14 23 5 39 -12 24 -42 27
-60 6z"/>
<path d="M13360 3135 c-15 -19 -4 -52 20 -58 27 -7 50 22 39 51 -10 25 -41 29
-59 7z"/>
<path d="M13653 3144 c-20 -8 -15 -52 6 -63 26 -14 54 8 49 40 -3 24 -28 34
-55 23z"/>
<path d="M13937 3143 c-14 -13 -6 -53 12 -63 34 -18 67 30 39 58 -13 13 -41
16 -51 5z"/>
<path d="M14221 3136 c-15 -18 -6 -52 16 -60 23 -9 44 13 41 43 -4 30 -38 40
-57 17z"/>
<path d="M14790 3130 c-8 -15 -6 -24 10 -40 22 -22 46 -18 55 11 14 42 -44 68
-65 29z"/>
<path d="M7261 6088 c-14 -40 -3 -51 43 -43 41 8 48 31 18 58 -28 26 -49 20
-61 -15z"/>
<path d="M8041 6055 c-48 -52 -48 -69 -4 -73 45 -5 93 39 93 84 0 51 -36 47
-89 -11z"/>
<path d="M4190 6166 c0 -10 7 -64 16 -121 l16 -105 31 18 c62 36 97 77 97 116
0 56 -43 97 -108 104 -44 4 -52 2 -52 -12z"/>
<path d="M6817 6183 c-14 -14 -6 -23 21 -23 37 0 60 15 37 24 -22 8 -50 8 -58
-1z"/>
<path d="M5907 6142 c-28 -30 -21 -64 9 -44 11 7 34 45 34 56 0 13 -28 5 -43
-12z"/>
<path d="M4765 6119 c-11 -17 1 -21 34 -14 17 4 29 11 25 16 -7 12 -51 11 -59
-2z"/>
<path d="M6843 5505 l-21 -55 24 0 c22 0 24 4 24 55 0 30 -1 55 -2 55 -2 0
-13 -25 -25 -55z"/>
<path d="M8070 5334 c-28 -72 -32 -201 -7 -232 23 -30 67 50 67 124 0 35 -27
121 -41 130 -5 3 -14 -7 -19 -22z"/>
<path d="M7761 5172 c-36 -36 -40 -71 -10 -98 32 -29 53 -8 57 56 4 70 -9 81
-47 42z"/>
<path d="M5686 5475 c-9 -99 -20 -208 -23 -241 -7 -82 5 -194 21 -194 20 0 51
40 84 105 45 92 59 148 72 290 6 72 15 149 19 172 l8 42 -82 3 -82 3 -17 -180z"/>
<path d="M4677 5473 c-8 -13 -37 -115 -37 -130 0 -23 26 -3 43 33 19 38 22 89
8 99 -5 3 -12 2 -14 -2z"/>
<path d="M4975 5428 c-8 -28 -15 -63 -15 -77 l1 -26 23 29 c27 32 38 72 29
105 -9 34 -21 24 -38 -31z"/>
<path d="M6412 5452 c-6 -15 -14 -40 -18 -57 -3 -16 -8 -38 -11 -47 -8 -30 16
-20 37 15 20 33 27 101 11 111 -5 3 -14 -7 -19 -22z"/>
<path d="M4230 5136 c-89 -26 -107 -36 -139 -70 -49 -53 -12 -136 61 -136 51
0 133 104 163 208 8 26 9 26 -85 -2z"/>
<path d="M8726 4345 c-9 -14 -19 -39 -23 -55 -4 -23 -2 -30 11 -30 42 0 73 73
42 99 -11 9 -17 6 -30 -14z"/>
<path d="M6766 4079 c-23 -33 -21 -94 4 -119 44 -44 115 -10 127 63 4 30 2 37
-20 51 -14 10 -41 19 -60 23 -28 4 -37 1 -51 -18z"/>
</g>
</svg>
