<?xml version="1.0" standalone="no"?>
<!DOCTYPE svg PUBLIC "-//W3C//DTD SVG 20010904//EN"
 "http://www.w3.org/TR/2001/REC-SVG-20010904/DTD/svg10.dtd">
<svg version="1.0" xmlns="http://www.w3.org/2000/svg"
 width="1920.000000pt" height="1080.000000pt" viewBox="0 0 1920.000000 1080.000000"
 preserveAspectRatio="xMidYMid meet">

<g transform="translate(0.000000,1080.000000) scale(0.100000,-0.100000)"
fill="#000000" stroke="none">
<path d="M12090 10210 c-162 -3 -1888 -6 -3835 -8 -1947 -1 -3592 -5 -3655 -8
-173 -8 -344 -44 -465 -98 -16 -8 -43 -20 -60 -27 -53 -24 -181 -101 -229
-139 -155 -122 -296 -287 -379 -446 -15 -28 -34 -64 -42 -80 -8 -16 -15 -35
-15 -42 0 -7 -4 -20 -9 -30 -5 -9 -17 -44 -26 -77 -9 -33 -21 -73 -25 -90 -5
-16 -14 -77 -20 -135 -15 -147 -14 -7260 1 -7415 31 -319 198 -636 446 -846
156 -133 293 -203 538 -279 115 -35 44 -35 5485 -35 5443 0 5371 0 5485 35
180 56 256 88 357 152 117 73 159 107 271 220 120 123 216 264 272 403 7 17
17 41 23 55 10 23 20 57 52 178 6 23 15 104 20 180 13 180 13 7097 0 7289 -8
135 -13 165 -46 277 -8 26 -14 55 -14 62 0 8 -5 22 -10 32 -6 9 -23 47 -40 84
-50 115 -169 285 -267 381 -175 173 -355 278 -602 351 -148 44 -195 46 -1684
51 -670 3 -1221 6 -1225 7 -4 2 -140 1 -302 -2z m2849 -266 c316 -59 590 -242
769 -513 105 -159 166 -338 182 -531 13 -156 13 -6925 0 -7080 -11 -137 -38
-244 -89 -361 -154 -350 -484 -615 -852 -684 -76 -14 -595 -15 -5174 -12
l-5090 2 -75 22 c-252 73 -432 183 -598 365 -148 165 -256 404 -282 627 -13
118 -13 7044 0 7162 19 167 86 346 185 499 27 41 94 120 149 176 142 142 284
230 465 290 165 55 -173 52 5270 53 4593 1 5062 0 5140 -15z"/>
<path d="M6838 5573 c7 -3 16 -2 19 1 4 3 -2 6 -13 5 -11 0 -14 -3 -6 -6z"/>
<path d="M6925 5570 c-100 -12 -254 -59 -283 -87 -7 -7 -20 -13 -28 -13 -9 0
-22 -7 -31 -15 -8 -8 -18 -13 -23 -10 -4 3 -13 -2 -20 -10 -7 -8 -17 -15 -23
-15 -5 0 -25 -11 -43 -25 -39 -30 -64 -34 -43 -7 13 16 12 16 -6 2 -65 -47
-128 -106 -136 -127 -5 -13 -13 -22 -18 -18 -5 3 -28 -20 -50 -51 -53 -74 -55
-117 -8 -161 43 -41 69 -53 114 -53 75 0 99 19 74 59 -6 9 -13 10 -28 3 -30
-16 -127 -1 -131 21 -5 26 38 92 115 177 37 41 59 68 49 60 -17 -13 -19 -13
-14 0 3 8 14 15 26 15 12 0 27 7 34 15 11 12 10 12 -4 1 -10 -7 -18 -9 -18 -3
0 13 105 80 197 127 132 66 207 87 323 90 94 2 97 2 30 -4 l-75 -7 80 -2 c112
-3 181 -35 191 -87 8 -44 -7 -99 -40 -148 -19 -27 -21 -34 -8 -29 9 3 -1 -16
-23 -44 -38 -48 -38 -48 -6 -19 62 56 16 -7 -56 -76 -109 -105 -290 -218 -350
-220 -25 0 -26 -1 -8 -9 11 -5 33 -9 49 -9 95 -3 402 225 477 354 24 42 29 61
29 118 l0 68 -51 54 c-39 42 -64 58 -112 74 -33 12 -68 20 -76 20 -9 -1 -43
-5 -76 -9z m-540 -247 c-19 -21 -37 -34 -41 -30 -4 4 -17 -1 -28 -10 -21 -18
-21 -18 -2 5 11 12 23 22 28 22 5 0 21 14 35 30 13 17 29 28 33 25 5 -3 -7
-22 -25 -42z m759 -135 c-43 -53 -79 -88 -87 -88 -12 0 84 107 97 109 5 1 1
-9 -10 -21z"/>
<path d="M6858 5523 c7 -3 16 -2 19 1 4 3 -2 6 -13 5 -11 0 -14 -3 -6 -6z"/>
<path d="M6615 5500 c-3 -6 1 -7 9 -4 18 7 21 14 7 14 -6 0 -13 -4 -16 -10z"/>
<path d="M6755 5495 c-39 -17 -21 -18 25 0 19 7 28 14 20 14 -8 0 -28 -6 -45
-14z"/>
<path d="M6508 5444 c-38 -20 -36 -28 2 -9 17 9 30 18 30 20 0 7 -1 6 -32 -11z"/>
<path d="M6781 5394 c-45 -38 -187 -333 -193 -401 -1 -7 -5 -13 -9 -13 -5 0
-6 -7 -3 -15 4 -8 1 -15 -6 -15 -6 0 -10 -6 -8 -12 3 -7 -1 -18 -8 -25 -7 -7
-11 -21 -10 -30 2 -10 -1 -21 -6 -24 -5 -3 -10 -17 -12 -30 -1 -14 -5 -30 -9
-36 -4 -6 -14 -57 -22 -114 -15 -100 -13 -165 5 -154 5 3 13 -2 18 -12 8 -14
-18 -74 -110 -261 -66 -134 -118 -245 -116 -247 2 -3 46 81 98 185 51 105 95
188 98 185 3 -3 -1 -17 -8 -31 -12 -21 -12 -27 -1 -33 9 -6 10 -11 2 -15 -6
-4 -11 -1 -11 6 -1 7 -7 2 -15 -12 -17 -30 -19 -44 -5 -35 18 11 11 -13 -22
-80 -18 -35 -38 -65 -45 -65 -7 0 -10 -7 -6 -16 8 -21 -26 -94 -41 -88 -7 3
-18 -7 -24 -21 -6 -14 -8 -25 -3 -25 5 0 12 7 15 16 4 9 9 15 12 12 3 -3 -3
-22 -12 -42 -11 -23 -20 -32 -25 -24 -7 10 -39 -50 -39 -73 0 -14 49 -42 64
-36 7 3 31 38 53 79 55 102 159 258 240 358 80 100 212 240 225 240 6 0 7 -13
3 -31 -4 -18 -8 -48 -9 -68 -1 -20 -8 -45 -14 -56 -21 -37 -83 -259 -89 -321
-5 -56 -4 -62 21 -87 31 -31 46 -34 46 -9 0 22 62 127 96 163 13 14 24 32 24
40 0 8 10 19 23 24 12 6 22 18 22 27 0 27 260 286 313 311 12 5 22 14 22 19 0
4 9 8 19 8 11 0 23 5 26 10 14 23 22 7 15 -27 -5 -20 -6 -41 -4 -45 3 -5 1
-14 -4 -21 -14 -17 -63 -140 -58 -145 3 -2 12 12 20 32 18 43 39 50 26 9 -13
-39 -86 -243 -121 -336 -16 -43 -29 -85 -29 -92 0 -8 -5 -26 -12 -42 -6 -15
-12 -31 -12 -35 -1 -3 -4 -10 -8 -14 -5 -4 -8 -17 -8 -28 0 -15 -3 -17 -9 -8
-6 10 -10 4 -15 -19 -7 -34 12 -75 40 -86 17 -6 43 23 44 50 0 19 15 23 25 7
15 -25 54 -7 116 53 35 35 84 80 109 101 44 37 30 40 -22 4 -31 -21 -42 -23
-33 -5 4 6 -1 3 -9 -7 -9 -11 -16 -16 -16 -12 0 4 -17 -6 -37 -23 -20 -17 -39
-28 -41 -26 -8 8 74 107 145 176 74 73 164 139 188 139 27 0 12 -75 -23 -113
-9 -11 -17 -24 -17 -30 0 -7 -26 -64 -58 -127 -31 -63 -57 -126 -57 -140 0
-26 25 -70 39 -70 4 0 20 30 34 68 41 103 133 262 179 309 41 42 41 42 24 69
-15 22 -23 25 -52 21 -26 -5 -34 -2 -39 13 -9 28 -65 43 -113 31 -113 -31
-345 -279 -346 -371 -1 -36 -11 -60 -25 -60 -13 0 48 230 87 331 6 15 8 29 5
32 -8 8 88 250 105 264 15 13 42 104 42 146 0 33 -32 67 -62 67 -27 0 -128
-67 -128 -85 0 -6 -11 -17 -25 -23 -14 -6 -25 -16 -25 -22 0 -6 -4 -9 -9 -6
-12 8 -78 -59 -73 -74 3 -7 0 -10 -5 -7 -12 8 -46 -27 -36 -36 3 -4 0 -7 -8
-7 -16 0 -71 -53 -114 -109 -16 -22 -33 -40 -37 -41 -12 0 -47 -33 -43 -40 2
-3 -5 -11 -16 -18 -24 -15 -24 -17 5 70 14 40 35 122 47 182 26 131 21 175
-25 191 -28 9 -32 6 -113 -80 -47 -50 -112 -124 -145 -165 -33 -41 -65 -76
-69 -78 -5 -2 -9 -10 -9 -18 0 -7 -9 -19 -20 -26 -11 -7 -20 -16 -20 -21 0
-10 -42 -71 -53 -75 -4 -2 -5 -8 -1 -13 3 -5 0 -9 -5 -9 -6 0 -11 4 -11 9 0
24 138 296 216 428 19 32 19 32 -1 47 -11 9 -28 16 -37 16 -11 0 -18 8 -18 19
0 32 29 160 56 250 14 45 23 85 20 88 -7 7 32 43 47 43 9 0 8 3 -2 9 -11 7
-11 15 -1 47 18 55 96 219 136 284 18 30 36 67 40 82 5 24 2 29 -21 38 -37 14
-40 13 -74 -16z m-52 -188 c-8 -6 -14 -22 -14 -36 1 -14 -3 -28 -8 -31 -5 -4
-11 -17 -12 -30 -1 -13 -3 -28 -4 -33 0 -4 -8 -6 -16 -3 -8 4 -17 1 -21 -5 -4
-7 -3 -8 4 -4 13 8 17 -36 5 -48 -5 -4 -8 -11 -9 -14 -3 -24 -19 -42 -32 -37
-13 5 -13 3 -1 -11 19 -23 19 -53 1 -46 -10 3 -13 1 -8 -6 4 -7 2 -12 -4 -12
-6 0 -10 -9 -8 -20 2 -10 -6 -26 -17 -35 -18 -13 -18 -14 -1 -9 16 6 17 4 11
-17 -4 -13 -12 -26 -16 -27 -5 -2 -7 -7 -4 -12 3 -4 -2 -21 -10 -36 -8 -16
-12 -36 -9 -46 2 -9 0 -19 -6 -23 -13 -8 -13 -45 1 -45 5 0 7 -5 4 -10 -4 -6
-11 -8 -16 -5 -5 4 -9 -7 -9 -23 0 -17 -6 -32 -15 -36 -59 -22 57 410 172 638
30 60 37 67 45 51 8 -13 7 -21 -3 -29z m88 -968 c-3 -8 -6 -5 -6 6 -1 11 2 17
5 13 3 -3 4 -12 1 -19z m-16 -105 c-12 -20 -14 -14 -5 12 4 9 9 14 11 11 3 -2
0 -13 -6 -23z m815 -211 c-18 -16 -18 -16 -6 6 6 13 14 21 18 18 3 -4 -2 -14
-12 -24z"/>
<path d="M7304 5129 c-30 -29 -54 -57 -54 -64 0 -7 -7 -18 -16 -26 -10 -8 -13
-21 -9 -38 3 -16 2 -21 -3 -13 -7 11 -11 11 -19 0 -17 -22 -25 -44 -9 -24 30
37 16 -4 -24 -69 -22 -36 -40 -67 -40 -69 0 -12 -112 -237 -116 -233 -3 2 7
31 21 62 14 32 24 59 22 61 -7 8 -75 -138 -70 -154 4 -17 61 -59 67 -50 2 1
47 62 101 133 137 182 214 266 273 298 55 30 73 28 97 -9 21 -33 81 -62 96
-47 8 8 3 16 -20 27 -17 9 -47 31 -67 48 -26 23 -46 32 -75 32 -21 1 -41 -3
-43 -9 -3 -5 -5 -4 -5 3 -1 8 -47 -33 -103 -90 -56 -56 -98 -97 -93 -89 6 10
4 12 -4 7 -7 -5 -10 -14 -7 -22 3 -8 1 -13 -4 -11 -6 1 -26 -16 -45 -38 -26
-30 -34 -35 -32 -20 2 11 9 30 15 43 7 12 10 22 6 22 -4 0 1 9 11 20 10 11 15
20 11 20 -3 0 6 18 20 40 15 22 30 40 35 40 4 0 9 6 11 13 5 22 67 97 135 163
60 58 62 62 45 78 -29 26 -50 19 -108 -35z"/>
<path d="M6979 5133 l-24 -28 28 24 c25 23 32 31 24 31 -2 0 -14 -12 -28 -27z"/>
<path d="M6929 5093 c-13 -16 -12 -17 4 -4 16 13 21 21 13 21 -2 0 -10 -8 -17
-17z"/>
<path d="M8484 4988 c-27 -18 -157 -140 -289 -272 -148 -147 -190 -193 -110
-118 72 66 164 155 205 196 41 42 79 76 84 76 6 0 -18 -29 -54 -65 -51 -52
-59 -64 -40 -60 19 4 11 -8 -40 -60 -36 -36 -70 -65 -76 -65 -6 0 -18 -8 -25
-17 -12 -15 -12 -16 1 -8 8 4 4 -4 -9 -18 -13 -15 -29 -24 -35 -20 -6 3 -8 3
-4 -2 9 -10 -10 -35 -26 -35 -6 0 -4 5 4 10 8 5 10 10 4 10 -6 0 -37 -29 -70
-65 -32 -36 -62 -65 -66 -65 -14 0 -9 23 10 44 l17 21 -23 -20 c-24 -20 -24
-37 -1 -97 20 -50 43 -45 122 24 195 173 490 368 690 456 55 24 59 16 22 -43
-13 -22 -25 -47 -25 -56 0 -9 -10 -24 -21 -35 -12 -10 -52 -59 -88 -109 -143
-192 -174 -248 -162 -292 16 -54 51 -95 51 -59 0 21 64 78 141 127 38 24 69
49 69 55 0 7 7 15 16 18 15 6 15 4 3 -10 -13 -16 -12 -16 9 -5 12 7 20 16 17
21 -3 6 1 7 10 4 9 -4 15 -2 13 5 -3 11 117 77 272 150 77 36 176 71 202 71
10 0 18 3 18 8 0 4 18 6 39 4 l40 -4 -24 -38 c-13 -21 -21 -40 -19 -43 3 -3
-4 -10 -15 -17 -12 -6 -21 -14 -21 -18 0 -4 -22 -32 -50 -62 -27 -30 -50 -59
-50 -65 0 -5 17 10 38 34 21 25 41 40 45 35 3 -6 -42 -69 -101 -140 -59 -71
-120 -147 -137 -169 -16 -21 -38 -47 -47 -57 -10 -9 -34 -41 -55 -70 -46 -66
-60 -81 -72 -73 -5 3 -13 0 -17 -6 -4 -8 -3 -9 4 -5 7 4 12 2 12 -3 0 -13 -30
-45 -56 -59 -16 -9 -17 -14 -5 -51 20 -69 42 -66 104 13 l32 41 -36 -23 c-44
-27 -50 -27 -42 -4 8 21 68 109 94 138 11 11 19 24 19 28 0 4 12 19 26 34 14
15 37 44 50 65 13 20 28 37 33 37 5 0 12 7 15 16 3 8 2 12 -4 9 -21 -13 -9 12
18 38 16 15 32 24 37 20 4 -5 5 -3 2 4 -8 12 169 219 184 215 16 -4 89 119 89
150 0 42 -43 82 -78 73 -15 -3 -38 -8 -52 -9 -14 -2 -25 -4 -25 -5 0 -2 -8 -4
-18 -6 -34 -6 -48 -15 -42 -25 3 -5 -2 -10 -12 -11 -38 -1 -58 -9 -70 -25 -7
-10 -13 -12 -13 -6 0 7 -7 12 -15 12 -8 0 -15 -4 -15 -10 0 -5 -9 -10 -20 -10
-12 0 -20 -7 -20 -16 0 -14 -2 -15 -17 -3 -15 12 -16 12 -10 -4 4 -11 2 -17
-6 -15 -18 3 -57 -12 -57 -23 0 -5 -3 -8 -7 -7 -19 5 -115 -36 -128 -55 -8
-12 -15 -18 -15 -14 0 4 -13 1 -29 -7 -16 -9 -32 -12 -36 -8 -5 4 -5 -1 -2
-10 4 -12 2 -15 -9 -11 -8 3 -23 -2 -33 -11 -10 -9 -21 -13 -24 -9 -4 3 -7 2
-7 -4 0 -6 -11 -13 -24 -15 -24 -5 -24 -4 -8 21 9 14 19 28 22 31 19 18 83
105 117 160 100 161 113 215 60 254 -22 16 -31 18 -45 9 -9 -6 -16 -19 -14
-29 2 -16 1 -16 -7 -4 -9 13 -26 7 -116 -37 -58 -29 -108 -53 -111 -52 -4 0
-10 -4 -13 -9 -7 -12 -155 -102 -167 -102 -5 0 -15 -9 -22 -20 -7 -11 -21 -20
-32 -20 -10 0 -24 -9 -30 -20 -6 -11 -14 -18 -19 -16 -4 3 -15 -4 -24 -15 -9
-10 -24 -19 -32 -19 -9 0 -13 -4 -10 -10 3 -5 1 -10 -4 -10 -6 0 -11 4 -11 9
0 18 294 298 383 365 42 32 47 56 15 86 -29 27 -36 26 -94 -12z m-134 -192 c0
-3 -4 -8 -10 -11 -5 -3 -10 -1 -10 4 0 6 5 11 10 11 6 0 10 -2 10 -4z m340
-185 c-6 -12 -15 -21 -21 -21 -5 0 -2 11 7 25 20 30 31 26 14 -4z m-38 -53
c-7 -7 -12 -8 -12 -2 0 14 12 26 19 19 2 -3 -1 -11 -7 -17z m-617 -88 c-16
-17 -33 -30 -39 -30 -5 0 5 16 24 35 18 19 36 32 39 30 2 -3 -8 -19 -24 -35z
m585 16 c0 -3 -4 -8 -10 -11 -5 -3 -10 -1 -10 4 0 6 5 11 10 11 6 0 10 -2 10
-4z m-70 -100 c0 -3 -4 -8 -10 -11 -5 -3 -10 -1 -10 4 0 6 5 11 10 11 6 0 10
-2 10 -4z"/>
<path d="M7775 4993 c-26 -6 -126 -104 -118 -115 3 -5 -4 -19 -15 -31 -34 -37
-114 -170 -124 -204 -5 -18 -13 -33 -18 -33 -14 0 -12 -46 4 -83 7 -18 30 -47
51 -66 34 -30 43 -33 82 -27 72 10 140 52 246 153 51 49 107 120 72 93 -17
-14 -18 -13 -11 4 6 18 5 19 -11 4 -31 -26 -43 -31 -37 -13 5 11 2 14 -10 9
-9 -3 -16 -13 -16 -21 0 -8 -4 -12 -9 -9 -5 3 -11 -4 -14 -16 -4 -12 -9 -19
-13 -16 -3 4 -30 -11 -58 -32 -59 -45 -123 -75 -180 -86 l-39 -7 7 43 c12 79
156 301 227 351 19 13 36 27 37 31 10 23 94 -7 106 -37 3 -9 7 -33 7 -53 1
-20 3 -29 6 -19 2 9 9 17 14 17 6 0 5 8 -1 20 -6 11 -7 20 -1 20 16 0 28 -53
21 -93 -4 -21 -4 -40 1 -42 17 -11 20 73 4 111 -20 49 -41 71 -84 91 -20 9
-50 27 -67 40 -17 13 -33 22 -35 22 -2 -1 -13 -3 -24 -6z m-199 -302 c-15 -28
-31 -51 -36 -51 -10 0 8 42 38 88 26 40 24 16 -2 -37z m336 -62 c-47 -42 -64
-35 -19 7 21 20 42 33 45 29 4 -4 -8 -20 -26 -36z m-372 -3 c0 -2 -7 -19 -15
-37 -14 -34 -20 -23 -9 19 5 18 24 33 24 18z m300 -36 c0 -5 -5 -10 -11 -10
-5 0 -7 5 -4 10 3 6 8 10 11 10 2 0 4 -4 4 -10z"/>
<path d="M7095 4809 c-9 -17 -15 -33 -13 -35 3 -2 12 12 21 31 21 43 13 47 -8
4z"/>
<path d="M4857 4740 c-152 -38 -321 -145 -409 -258 -171 -217 -218 -491 -129
-744 82 -232 275 -411 516 -478 63 -18 106 -23 200 -23 132 0 183 9 292 53
104 42 177 91 263 179 62 62 86 96 128 181 61 123 82 213 82 345 0 224 -81
410 -244 562 -82 77 -165 126 -281 166 -120 41 -296 48 -418 17z m323 -54
c251 -54 447 -230 532 -476 30 -89 33 -325 5 -410 -82 -245 -262 -419 -507
-488 -80 -23 -257 -22 -345 2 -236 62 -429 248 -500 482 -32 104 -35 283 -6
384 73 256 281 452 536 506 81 16 206 17 285 0z"/>
<path d="M4904 4461 c-153 -44 -268 -153 -324 -308 -19 -54 -22 -76 -18 -175
4 -105 7 -119 40 -191 97 -206 333 -318 551 -261 88 23 148 56 220 124 110
102 154 221 144 387 -5 79 -11 103 -42 168 -40 84 -115 166 -191 211 -105 62
-259 80 -380 45z m311 -80 c81 -40 132 -84 178 -154 54 -82 70 -143 65 -250
-3 -79 -8 -102 -36 -159 -126 -264 -474 -328 -675 -126 -68 69 -101 126 -123
217 -15 65 -16 83 -5 145 28 165 132 291 287 346 47 16 77 20 150 17 79 -2
100 -7 159 -36z"/>
<path d="M4975 4191 c-73 -25 -115 -72 -137 -153 -11 -42 -10 -55 7 -103 46
-136 208 -186 322 -99 93 71 99 230 11 311 -48 45 -141 65 -203 44z m123 -65
c51 -27 75 -62 80 -118 5 -63 -22 -112 -78 -141 -89 -46 -203 25 -203 127 0
106 110 179 201 132z"/>
<path d="M8199 4683 c-1 -5 -1 -11 0 -15 0 -5 -3 -8 -8 -8 -5 0 -12 -8 -15
-17 -6 -16 -6 -16 12 0 10 9 19 24 19 32 0 15 -6 21 -8 8z"/>
<path d="M9320 4488 c-12 -22 -12 -22 6 -6 10 10 15 20 12 24 -4 3 -12 -5 -18
-18z"/>
<path d="M9176 4418 c3 -5 10 -6 15 -3 13 9 11 12 -6 12 -8 0 -12 -4 -9 -9z"/>
<path d="M9100 4325 c-36 -40 -70 -74 -76 -74 -5 -1 -21 -15 -33 -32 -13 -18
-19 -29 -12 -25 15 9 14 -3 -1 -23 -7 -9 8 6 34 34 26 27 47 53 48 56 0 3 25
32 55 64 46 50 65 76 53 75 -2 0 -32 -34 -68 -75z"/>
<path d="M9501 4364 c-41 -19 -77 -37 -80 -39 -10 -10 20 -55 36 -55 19 0 111
61 125 83 10 15 10 47 1 47 -5 -1 -41 -16 -82 -36z"/>
<path d="M9230 4174 c-71 -47 -151 -124 -206 -198 -42 -55 -44 -62 -40 -110 4
-39 11 -56 31 -73 34 -30 47 -29 145 7 71 26 81 28 75 13 -21 -49 -29 -113
-16 -136 37 -69 137 -79 331 -33 79 19 93 19 84 4 -4 -7 -3 -8 5 -4 9 6 9 11
0 22 -9 11 -8 14 4 14 8 0 17 -4 19 -9 2 -5 27 2 56 16 31 14 50 28 46 34 -4
8 -9 8 -13 0 -4 -6 -34 -16 -67 -21 -74 -12 -167 -13 -160 -1 8 12 -27 8 -36
-4 -5 -6 -8 -5 -8 3 0 9 -5 10 -15 4 -9 -4 -41 -5 -73 -1 -31 4 -66 8 -77 8
-63 3 -54 35 29 97 90 69 215 124 299 135 39 5 78 15 85 23 13 12 11 18 -12
41 -42 42 -119 33 -256 -27 -110 -49 -354 -128 -396 -128 -13 0 -24 6 -24 13
0 24 136 161 214 216 78 56 99 88 76 116 -19 23 -40 18 -100 -21z m-158 -222
c-12 -16 -29 -35 -38 -43 -16 -13 -16 -12 -4 11 15 31 52 72 58 66 2 -3 -5
-18 -16 -34z m488 -282 c0 -5 -9 -10 -21 -10 -11 0 -17 5 -14 10 3 6 13 10 21
10 8 0 14 -4 14 -10z m60 6 c0 -2 -9 -6 -20 -9 -11 -3 -20 -1 -20 4 0 5 9 9
20 9 11 0 20 -2 20 -4z"/>
<path d="M7246 4154 c-9 -20 -15 -38 -13 -41 3 -2 12 13 22 32 9 20 15 38 13
41 -3 2 -12 -13 -22 -32z"/>
<path d="M7220 4088 c0 -9 -6 -21 -14 -27 -19 -16 -27 -51 -12 -51 14 0 43 76
33 87 -4 3 -7 -1 -7 -9z"/>
<path d="M7869 3992 c-64 -42 -163 -143 -198 -204 -24 -42 -31 -65 -31 -109 0
-74 21 -94 94 -94 47 1 152 35 166 54 10 14 102 61 110 56 4 -3 22 11 40 31
17 20 34 33 37 30 3 -3 -12 -25 -33 -48 -22 -24 -61 -71 -88 -106 -26 -35 -51
-61 -54 -58 -3 3 3 16 14 28 19 22 19 23 -1 8 -31 -23 -44 -43 -45 -67 0 -21
23 -53 39 -53 4 0 52 37 107 83 138 115 206 164 267 193 74 34 93 32 116 -14
23 -46 44 -65 67 -60 13 2 9 10 -18 40 -18 20 -42 48 -53 62 -11 14 -26 24
-33 21 -7 -2 -23 0 -37 5 -14 5 -25 6 -25 1 0 -5 -13 -14 -28 -20 -15 -6 -54
-29 -87 -51 -32 -21 -63 -36 -68 -33 -6 3 -7 1 -3 -5 3 -6 -4 -14 -16 -18 -13
-4 -38 -18 -55 -32 -32 -23 -46 -15 -20 12 6 8 19 24 27 36 31 48 192 181 261
215 52 27 56 34 37 53 -31 31 -108 -8 -193 -99 -27 -29 -41 -47 -30 -39 15 11
14 8 -4 -13 -14 -15 -26 -25 -28 -23 -3 2 -30 -8 -61 -23 -78 -38 -111 -50
-152 -55 -19 -3 -57 -12 -84 -21 -62 -19 -116 -20 -116 -1 0 26 79 133 137
186 32 29 86 66 121 82 34 16 62 35 62 42 0 44 -77 48 -141 8z m161 -270 c0
-13 -12 -22 -22 -16 -10 6 -1 24 13 24 5 0 9 -4 9 -8z m-40 -16 c0 -2 -7 -7
-16 -10 -8 -3 -12 -2 -9 4 6 10 25 14 25 6z m-40 -16 c0 -5 -8 -10 -17 -10
-15 0 -16 2 -3 10 19 12 20 12 20 0z"/>
<path d="M7497 3942 c-9 -2 -15 -7 -12 -12 3 -5 13 -6 22 -3 12 5 14 3 8 -8
-5 -8 1 -5 13 5 24 21 31 36 8 17 -8 -7 -16 -8 -18 -4 -1 5 -11 7 -21 5z"/>
<path d="M6241 3874 c0 -11 3 -14 6 -6 3 7 2 16 -1 19 -3 4 -6 -2 -5 -13z"/>
<path d="M9965 3816 c-63 -20 -125 -55 -121 -69 1 -6 1 -9 -1 -4 -7 10 -31 9
-38 -3 -3 -6 1 -7 9 -4 36 14 13 -7 -31 -28 -62 -31 -76 -39 -206 -126 -110
-74 -162 -94 -68 -27 28 20 51 38 51 40 0 2 -31 -15 -70 -38 -62 -37 -70 -45
-70 -73 0 -16 6 -38 13 -47 11 -16 26 -12 190 53 216 86 326 115 391 106 38
-6 47 -11 51 -32 3 -13 8 -36 11 -51 7 -33 31 -63 51 -63 17 0 17 3 -6 42 -10
18 -22 47 -26 63 -8 40 -23 57 -65 76 -32 15 -41 15 -120 -1 -47 -10 -105 -25
-129 -34 -24 -9 -46 -14 -49 -11 -3 3 1 5 8 5 7 0 11 2 8 5 -8 9 -38 -6 -32
-16 3 -5 -1 -6 -8 -4 -8 3 -33 -1 -56 -9 -23 -8 -42 -11 -42 -6 0 6 5 10 11
10 5 0 7 5 3 12 -4 6 -3 8 3 5 5 -4 20 3 32 14 29 27 132 79 143 73 4 -3 8 -1
8 4 0 5 26 17 58 27 31 10 62 22 68 26 6 5 46 15 88 21 75 12 77 13 71 38 -4
14 -12 28 -18 32 -17 11 -66 8 -112 -6z"/>
<path d="M8568 3691 c-25 -16 -50 -35 -55 -43 -4 -7 -36 -39 -71 -71 -124
-113 -154 -175 -118 -245 41 -79 115 -83 257 -12 96 48 112 59 72 53 -27 -4
-27 -3 7 16 44 25 57 26 39 4 -13 -16 -12 -17 4 -4 9 8 15 16 12 19 -3 3 1 12
8 20 9 12 5 11 -15 -2 -25 -16 -26 -16 -30 0 -3 17 -4 17 -20 0 -10 -10 -18
-14 -18 -9 0 4 -6 1 -13 -7 -7 -8 -17 -16 -22 -17 -6 -1 -41 -14 -80 -27 -79
-29 -175 -35 -175 -12 0 26 89 132 159 191 90 75 161 114 189 104 30 -11 55
-54 50 -84 -3 -14 -1 -25 3 -25 5 0 9 10 9 23 0 18 2 19 10 7 7 -11 10 -11 10
-2 0 18 -29 72 -39 72 -5 0 -26 18 -47 40 -22 22 -48 40 -60 40 -11 0 -41 -13
-66 -29z m-161 -183 c-48 -62 -86 -103 -87 -93 0 6 10 22 23 37 12 15 35 43
50 63 16 20 31 34 34 31 3 -3 -6 -20 -20 -38z"/>
<path d="M7979 3653 c-13 -16 -12 -17 4 -4 9 7 17 15 17 17 0 8 -8 3 -21 -13z"/>
<path d="M8767 3500 c-8 -22 -12 -40 -7 -40 9 0 34 69 28 76 -3 2 -12 -14 -21
-36z"/>
<path d="M8964 3500 c-138 -69 -481 -337 -534 -418 -35 -53 -35 -52 -16 -97
17 -41 36 -46 36 -10 0 35 56 93 150 155 44 29 82 51 84 49 2 -2 8 -17 13 -34
5 -16 25 -41 44 -54 31 -21 41 -23 124 -18 120 8 198 47 268 132 42 52 47 65
47 108 0 27 -6 54 -12 60 -14 13 -58 18 -58 7 0 -4 -6 -7 -12 -7 -28 -1 -173
-55 -282 -107 -117 -55 -149 -56 -74 -1 152 112 221 158 276 184 36 18 62 37
62 46 0 8 -4 15 -10 15 -5 0 -10 7 -10 15 0 22 -9 19 -96 -25z m-119 -115
c-17 -14 -43 -35 -59 -47 -15 -13 -42 -35 -60 -49 -73 -59 -193 -149 -201
-149 -20 0 95 98 269 228 68 51 108 64 51 17z m309 -24 c3 -5 -5 -29 -18 -54
-12 -25 -18 -45 -12 -44 36 7 -27 -76 -82 -106 -17 -10 -37 -15 -42 -12 -6 3
-10 1 -10 -5 0 -6 -4 -8 -10 -5 -5 3 -10 1 -10 -6 0 -7 -3 -10 -6 -6 -4 3 -13
0 -20 -8 -9 -8 -27 -11 -52 -8 -22 3 -42 1 -45 -4 -7 -11 -77 -4 -77 7 0 5 15
11 33 13 31 4 31 4 -6 5 -44 2 -92 24 -100 47 -10 24 238 142 375 179 64 18
75 19 82 7z m-478 -166 c-11 -8 -22 -12 -25 -9 -6 6 19 24 34 24 6 -1 1 -7 -9
-15z"/>
<path d="M9073 3218 c-24 -32 -26 -40 -5 -29 21 11 38 41 23 41 -5 0 -13 -6
-18 -12z"/>
<path d="M10202 3442 c-30 -9 -50 -20 -46 -24 4 -5 1 -8 -8 -8 -20 0 -204 -94
-252 -129 -22 -16 -43 -37 -47 -47 -13 -32 -10 -92 7 -133 13 -34 22 -41 72
-57 51 -16 68 -16 162 -6 58 7 119 16 135 21 l30 9 -32 1 c-53 2 -38 18 22 26
30 3 57 10 60 14 2 5 -6 6 -19 4 -15 -3 -25 1 -29 11 -4 9 -1 16 5 16 6 0 8 3
5 7 -4 3 -16 -2 -26 -11 -11 -10 -24 -15 -30 -12 -5 4 -12 2 -15 -3 -9 -14
-245 -7 -283 8 -18 7 -33 18 -33 25 0 54 292 200 414 207 59 4 60 3 83 -30 13
-19 21 -41 18 -49 -13 -35 -16 -62 -7 -62 6 0 13 10 15 23 3 16 5 14 6 -10 1
-23 -8 -41 -33 -67 -18 -20 -28 -36 -21 -36 6 0 22 11 35 25 31 33 42 142 17
167 -9 9 -13 18 -10 22 4 3 1 6 -6 6 -7 0 -9 5 -6 10 3 6 2 10 -4 10 -5 0 -15
16 -21 35 -19 58 -61 68 -158 37z m-182 -115 c-27 -25 -90 -59 -90 -48 0 5 19
21 43 35 45 28 70 34 47 13z m-119 -78 c-13 -11 -26 -17 -29 -15 -3 3 6 14 19
25 13 11 26 17 29 14 3 -2 -6 -13 -19 -24z m269 -163 c0 -11 -19 -15 -25 -6
-3 5 1 10 9 10 9 0 16 -2 16 -4z"/>
<path d="M10349 3203 c-13 -16 -12 -17 4 -4 16 13 21 21 13 21 -2 0 -10 -8
-17 -17z"/>
<path d="M9270 3181 c-134 -35 -266 -96 -322 -149 -46 -42 -33 -122 18 -122
15 0 67 15 118 34 50 19 119 40 153 46 48 10 59 15 50 24 -15 17 -36 16 -30
-2 5 -11 -4 -13 -45 -11 -27 2 -48 1 -45 -3 2 -5 -3 -8 -12 -8 -10 0 -13 5 -9
12 5 7 3 8 -6 3 -7 -4 -27 -9 -44 -10 -17 -1 -42 -5 -55 -9 -42 -14 -14 10 46
39 143 69 354 127 377 105 16 -16 -42 -88 -77 -96 -18 -4 -26 -9 -19 -11 7 -3
-18 -26 -55 -53 -38 -26 -92 -69 -120 -95 -47 -41 -53 -52 -53 -85 0 -22 4
-41 9 -45 6 -3 31 16 58 42 75 73 201 163 281 200 75 35 85 50 58 86 -7 9 -23
17 -35 17 -15 0 -21 6 -21 23 0 42 -69 88 -128 86 -15 0 -56 -8 -92 -18z m104
-215 c-10 -8 -21 -12 -24 -10 -5 6 21 24 34 24 6 0 1 -6 -10 -14z"/>
<path d="M9505 2884 c-114 -27 -197 -58 -210 -79 -24 -38 -26 -72 -6 -96 30
-37 112 -37 262 0 68 17 133 31 144 31 11 0 -26 -27 -82 -59 -176 -103 -275
-188 -288 -248 -9 -45 28 -83 81 -83 57 0 196 40 219 62 20 20 20 20 -1 14
-34 -10 -238 -34 -247 -29 -12 7 39 59 108 108 147 106 375 223 545 281 69 24
129 50 135 58 13 21 -5 50 -34 54 -35 5 -276 -79 -356 -125 -22 -12 -50 -23
-62 -23 l-22 0 24 36 c28 41 29 47 15 74 -21 40 -115 50 -225 24z m195 -60 c0
-26 -67 -84 -98 -84 -22 0 -24 2 -12 11 11 8 7 9 -18 5 -150 -26 -260 -29
-236 -7 14 13 162 60 239 75 98 19 125 19 125 0z"/>
<path d="M4854 2830 c-245 -65 -432 -227 -523 -455 -83 -206 -73 -432 27 -634
139 -280 456 -450 766 -411 148 18 263 64 380 152 360 271 399 824 79 1144
-93 93 -217 166 -340 200 -91 26 -300 28 -389 4z m394 -69 c221 -73 381 -232
464 -463 20 -55 23 -81 22 -213 0 -135 -3 -157 -25 -216 -60 -158 -152 -278
-276 -361 -131 -88 -234 -119 -393 -120 -96 0 -129 4 -198 25 -121 38 -205 88
-298 181 -144 144 -204 290 -204 496 0 161 30 262 118 393 98 147 276 267 442
298 80 14 278 3 348 -20z"/>
<path d="M4925 2560 c-113 -24 -236 -114 -298 -218 -57 -95 -70 -148 -65 -275
4 -103 7 -118 39 -187 27 -55 53 -91 100 -136 105 -100 191 -134 339 -134 153
0 259 46 359 156 92 101 127 209 118 363 -5 83 -10 104 -43 170 -49 100 -125
176 -225 225 -71 35 -84 38 -180 42 -57 2 -122 -1 -144 -6z m247 -69 c71 -24
123 -58 174 -112 87 -93 118 -180 112 -313 -3 -79 -9 -100 -38 -160 -61 -124
-175 -209 -317 -237 -167 -34 -368 72 -443 234 -44 93 -56 164 -41 246 29 162
133 287 284 341 71 26 195 26 269 1z"/>
<path d="M4928 2261 c-61 -39 -92 -96 -92 -171 -1 -204 265 -284 375 -112 28
43 30 53 27 118 -3 59 -8 77 -31 107 -47 62 -84 81 -162 85 -64 3 -74 1 -117
-27z m189 -51 c85 -51 84 -190 -2 -246 -14 -9 -46 -17 -75 -17 -108 -2 -177
109 -129 208 33 69 137 97 206 55z"/>
</g>
</svg>
