%TF.GenerationSoftware,Flux,Pcbnew,7.0.11-7.0.11~ubuntu20.04.1*%
%TF.CreationDate,2024-08-19T13:17:11+00:00*%
%TF.ProjectId,input,696e7075-742e-46b6-9963-61645f706362,rev?*%
%TF.SameCoordinates,Original*%
%TF.FileFunction,Copper,L4,Bot*%
%TF.FilePolarity,Positive*%
%FSLAX46Y46*%
G04 Gerber Fmt 4.6, Leading zero omitted, Abs format (unit mm)*
G04 Filename: promicromacro*
G04 Build it with Flux! Visit our site at: https://www.flux.ai (PCBNEW 7.0.11-7.0.11~ubuntu20.04.1) date 2024-08-19 13:17:11*
%MOMM*%
%LPD*%
G01*
G04 APERTURE LIST*
G04 Aperture macros list*
%AMFreePoly0*
4,1,5,1.000000,-1.000000,-1.000000,-1.000000,-1.000000,1.000000,1.000000,1.000000,1.000000,-1.000000,1.000000,-1.000000,$1*%
%AMFreePoly1*
4,1,5,1.500000,-1.250000,-1.500000,-1.250000,-1.500000,1.250000,1.500000,1.250000,1.500000,-1.250000,1.500000,-1.250000,$1*%
%AMFreePoly2*
4,1,129,0.022069,0.299187,0.036723,0.297744,0.051289,0.295583,0.065730,0.292711,0.080014,0.289133,0.094105,0.284858,0.107969,0.279898,0.121572,0.274263,0.134883,0.267967,0.147869,0.261026,0.160499,0.253456,0.172742,0.245275,0.184569,0.236504,0.195952,0.227163,0.206862,0.217274,0.217274,0.206862,0.227163,0.195952,0.236504,0.184569,0.245275,0.172742,0.253456,0.160499,
0.261026,0.147869,0.267967,0.134883,0.274263,0.121572,0.279898,0.107969,0.284858,0.094105,0.289133,0.080014,0.292711,0.065730,0.295583,0.051289,0.297744,0.036723,0.299187,0.022069,0.299910,0.007362,0.299910,-0.007362,0.299187,-0.022069,0.297744,-0.036723,0.295583,-0.051289,0.292711,-0.065730,0.289133,-0.080014,0.284858,-0.094105,0.279898,-0.107969,0.274263,-0.121572,
0.267967,-0.134883,0.261026,-0.147869,0.253456,-0.160499,0.245275,-0.172742,0.236504,-0.184569,0.227163,-0.195952,0.217274,-0.206862,0.206862,-0.217274,0.195952,-0.227163,0.184569,-0.236504,0.172742,-0.245275,0.160499,-0.253456,0.147869,-0.261026,0.134883,-0.267967,0.121572,-0.274263,0.107969,-0.279898,0.094105,-0.284858,0.080014,-0.289133,0.065730,-0.292711,0.051289,-0.295583,
0.036723,-0.297744,0.022069,-0.299187,0.007362,-0.299910,-0.007362,-0.299910,-0.022069,-0.299187,-0.036723,-0.297744,-0.051289,-0.295583,-0.065730,-0.292711,-0.080014,-0.289133,-0.094105,-0.284858,-0.107969,-0.279898,-0.121572,-0.274263,-0.134883,-0.267967,-0.147869,-0.261026,-0.160499,-0.253456,-0.172742,-0.245275,-0.184569,-0.236504,-0.195952,-0.227163,-0.206862,-0.217274,-0.217274,-0.206862,
-0.227163,-0.195952,-0.236504,-0.184569,-0.245275,-0.172742,-0.253456,-0.160499,-0.261026,-0.147869,-0.267967,-0.134883,-0.274263,-0.121572,-0.279898,-0.107969,-0.284858,-0.094105,-0.289133,-0.080014,-0.292711,-0.065730,-0.295583,-0.051289,-0.297744,-0.036723,-0.299187,-0.022069,-0.299910,-0.007362,-0.299910,0.007362,-0.299187,0.022069,-0.297744,0.036723,-0.295583,0.051289,-0.292711,0.065730,
-0.289133,0.080014,-0.284858,0.094105,-0.279898,0.107969,-0.274263,0.121572,-0.267967,0.134883,-0.261026,0.147869,-0.253456,0.160499,-0.245275,0.172742,-0.236504,0.184569,-0.227163,0.195952,-0.217274,0.206862,-0.206862,0.217274,-0.195952,0.227163,-0.184569,0.236504,-0.172742,0.245275,-0.160499,0.253456,-0.147869,0.261026,-0.134883,0.267967,-0.121572,0.274263,-0.107969,0.279898,
-0.094105,0.284858,-0.080014,0.289133,-0.065730,0.292711,-0.051289,0.295583,-0.036723,0.297744,-0.022069,0.299187,-0.007362,0.299910,0.007362,0.299910,0.022069,0.299187,0.022069,0.299187,$1*%
G04 Aperture macros list end*
%TA.AperFunction,ComponentPad*%
%ADD10FreePoly0,0.000000*%
%TD*%
%TA.AperFunction,ComponentPad*%
%ADD11C,2.000000*%
%TD*%
%TA.AperFunction,ComponentPad*%
%ADD12FreePoly1,0.000000*%
%TD*%
%TA.AperFunction,ComponentPad*%
%ADD13C,1.700000*%
%TD*%
%TA.AperFunction,ComponentPad*%
%ADD14FreePoly2,0.000000*%
%TD*%
%TA.AperFunction,Conductor*%
%ADD15C,0.177800*%
%TD*%
%TA.AperFunction,Conductor*%
%ADD16C,0.457200*%
%TD*%
%TA.AperFunction,Conductor*%
%ADD17C,0.150000*%
%TD*%
G04 APERTURE END LIST*
D10*
%TO.P,,45db2291-f102-4940-bc78-37cfd7dce592__25b1e420-df15-89ff-a501-9151bdfb6695*%
%TO.N,N/C*%
X-22112200Y-26475900D03*
D11*
%TO.P,,45db2291-f102-4940-bc78-37cfd7dce592__795cd83e-edfc-d386-5850-f2852c23b778*%
X-22112200Y-31475900D03*
%TO.P,,45db2291-f102-4940-bc78-37cfd7dce592__9d35a456-a933-9b30-232d-07fdb4379169*%
X-22112200Y-28975900D03*
D12*
%TO.P,,45db2291-f102-4940-bc78-37cfd7dce592__ac268c61-9719-afd1-04c5-ff8a7205062a*%
X-14612200Y-23375900D03*
%TO.P,,45db2291-f102-4940-bc78-37cfd7dce592__adcc6f67-0317-63e5-12b1-ee49b928dac3*%
X-14612200Y-34575900D03*
D13*
%TO.P,,c453fe10-63cb-495c-bd27-afd60369f6ed__6ffd5cad-855c-7056-04c8-16687b106c47*%
X46709800Y21768000D03*
%TO.P,,c453fe10-63cb-495c-bd27-afd60369f6ed__9b813d9e-eb91-f2da-117e-b5f512003f80*%
X46709800Y14148000D03*
%TO.P,,c453fe10-63cb-495c-bd27-afd60369f6ed__abef7e96-f881-65a3-72e7-20faa02dc26d*%
X46709800Y16688000D03*
%TO.P,,c453fe10-63cb-495c-bd27-afd60369f6ed__e64594b0-631f-86e4-b59b-70cba8d0717e*%
X46709800Y19228000D03*
D14*
%TO.P,,20d92ca0-7781-424b-aa7c-b1b33d3fb76f*%
%TO.N,Net 9*%
X19891100Y-5098900D03*
%TO.P,,6f7aee95-7bec-424b-9799-8591e575a402*%
X16141800Y18461600D03*
%TO.P,,4418e674-0390-4c75-b9b4-eb41c2aa88e2*%
%TO.N,Net 13*%
X1917700Y-10748300D03*
%TO.P,,6b7383bc-3984-4d9f-a647-683b0762aee1*%
X-9076000Y9519000D03*
%TO.P,,26aea561-70ce-4f72-a276-5a0f0b42fe4a*%
%TO.N,Net 19*%
X29080800Y-17592600D03*
%TO.P,,a3c5ca04-3f71-4116-bd7f-4d9d65414f07*%
X-4276000Y7601100D03*
%TO.P,,3eaffd16-b405-42b2-b8ba-1b8c5a1b7b15*%
%TO.N,Net 8*%
X-17172600Y16565800D03*
%TO.P,,9374085e-8a49-46a6-beaa-e2242d499023*%
X-11437000Y23050500D03*
%TO.P,,671e6d5a-f1b1-409b-a291-59c0d349b4f3*%
%TO.N,Net 20*%
X-3476000Y7350400D03*
%TO.P,,c7c72cff-c6c0-406e-b5f7-8f93a1224e6d*%
X-13507300Y-16667200D03*
%TO.P,,41ed4197-d658-450a-932c-fe95b8431664*%
%TO.N,Net 7*%
X39121300Y-30155300D03*
%TO.P,,da6f11ce-6891-4703-a346-f043e0d035de*%
X13485300Y16387900D03*
%TO.P,,03cdec6d-5bb9-4642-830a-3f40852d9246*%
%TO.N,Net 18*%
X44652600Y32863100D03*
%TO.P,,cb052500-0fc5-42e8-b8cd-15d26483cec4*%
X12319900Y25977400D03*
%TO.P,,3048fd6c-db12-4ce8-8572-d85c3595a6d0*%
%TO.N,Net 25*%
X-2165200Y-3249000D03*
%TO.P,,76571844-eec5-4fbb-993f-56b397a22273*%
X-11890900Y-16667100D03*
%TO.P,,10cacc74-faa6-47d2-be73-b19b162b54a1*%
%TO.N,Net 11*%
X29080800Y-6353500D03*
%TO.P,,f866946a-b450-4c75-8426-126f6f07822a*%
X18824200Y19307000D03*
%TO.P,,479e317b-bc42-4418-b84b-3cf23ca3a7d2*%
%TO.N,Net 12*%
X-6676000Y20796400D03*
%TO.P,,5c4cb522-2773-4453-9709-002e97bcdbb0*%
X-31034600Y1607800D03*
%TO.P,,971f929b-be60-499b-86c9-e9a29129506b*%
%TO.N,Net 21*%
X-530400Y7350400D03*
%TO.P,,a09ab6e9-ec0c-4b12-b6de-9555b4b43a1c*%
X39474900Y-17592600D03*
%TO.P,,24bb726a-2ac0-4a89-bddf-5c27b3bf29d1*%
%TO.N,Net 29*%
X-5876000Y21768000D03*
%TO.P,,274789fa-66ad-4b06-89ab-3f7de76d4086*%
X8617400Y28303500D03*
%TO.P,,5a927712-11b0-4f35-bde0-1c614e43dfe7*%
%TO.N,Net 27*%
X9964700Y14933000D03*
%TO.P,,d72eabeb-ea7e-40fc-b07e-9c1a45576934*%
X9964700Y-6353500D03*
%TO.P,,0f410e7d-8d1a-4f1e-8163-3286d56a7807*%
%TO.N,GND*%
X-3789300Y-3220000D03*
%TO.P,,204f9129-c35c-4193-b1d1-4c603e9760da*%
X-33435900Y13717900D03*
%TO.P,,34337ed8-1a4a-497d-88f4-9516de8f5bc8*%
X-1878300Y21897100D03*
%TO.P,,6691f15e-d77e-4378-9ba9-1749e3d90a51*%
X-8272700Y21882400D03*
%TO.P,,6a9dda81-0acd-429d-b592-541bcbba2cb3*%
X-16378600Y20907300D03*
%TO.P,,6aa7ca2f-915a-459e-9d05-ce4ce0dee03c*%
X-6314100Y13616500D03*
%TO.P,,753094f1-716a-4680-b0e1-1e4680e9357a*%
X-2318000Y5302000D03*
%TO.P,,7dd2ff7c-0ba0-4fac-84cd-873cc4617e23*%
X-9816600Y26663600D03*
%TO.P,,8f4e0356-726f-4b86-823c-5452651b166c*%
X-7873900Y1504800D03*
%TO.P,,99a14131-90e0-435b-ab04-f2b001ea9add*%
X0Y26867400D03*
%TO.P,,b0a4e06e-8cc8-460c-b691-7de931bf1751*%
X-6622700Y-3249000D03*
%TO.P,,bc72b63b-023b-4f80-8e66-3b69a2da3a16*%
X1917700Y12747100D03*
%TO.P,,ce0b7865-72fb-487f-94bc-c1eae4215a5d*%
X-42510200Y33668700D03*
%TO.P,,d47c19f8-7bda-4e92-b177-6880aeea379c*%
X4274600Y26943300D03*
%TO.P,,ebe7e70a-2e7a-42d4-afbc-db40465a94c6*%
X-14316400Y18338600D03*
%TO.P,,f79001d2-bd3a-4d6e-8fe0-6aaf9cb4efca*%
X-35808800Y20039500D03*
%TO.P,,fa36d709-df93-4e9e-a7ba-5c46bbeea32e*%
X-32874300Y20039500D03*
%TO.P,,fe34aa3f-623a-4728-bf05-442330e3a04c*%
X-35845800Y15236500D03*
%TO.P,,f89e9e6e-87c1-4e15-8408-561c27a74828*%
X19724800Y29092000D03*
%TO.P,,8a45c168-e4e1-4261-b3f4-b1acda774cf6*%
X13190400Y29092000D03*
%TO.P,,1c8cb2be-48c8-4c28-970b-a6224384476b*%
X41407700Y33958600D03*
%TO.P,,ca1cda04-07f7-4ee4-b218-db58aca3a154*%
X27129800Y29092000D03*
%TO.P,,8e1b373d-6309-4e21-a478-04d0c62f48bc*%
X34551500Y29376200D03*
%TO.P,,ab5125e15f6be815fb94e1ece841a0e8.via14.19*%
X46520000Y33620000D03*
%TO.P,,ab5125e15f6be815fb94e1ece841a0e8.via14.16*%
X31280000Y33620000D03*
%TO.P,,ab5125e15f6be815fb94e1ece841a0e8.via14.15*%
X26200000Y33620000D03*
%TO.P,,ab5125e15f6be815fb94e1ece841a0e8.via14.12*%
X10960000Y33620000D03*
%TO.P,,ab5125e15f6be815fb94e1ece841a0e8.via14.11*%
X5880000Y33620000D03*
%TO.P,,ab5125e15f6be815fb94e1ece841a0e8.via14.10*%
X800000Y33620000D03*
%TO.P,,ab5125e15f6be815fb94e1ece841a0e8.via14.9*%
X-4280000Y33620000D03*
%TO.P,,ab5125e15f6be815fb94e1ece841a0e8.via14.8*%
X-9360000Y33620000D03*
%TO.P,,ab5125e15f6be815fb94e1ece841a0e8.via14.7*%
X-14440000Y33620000D03*
%TO.P,,ab5125e15f6be815fb94e1ece841a0e8.via14.6*%
X-19520000Y33620000D03*
%TO.P,,ab5125e15f6be815fb94e1ece841a0e8.via14.5*%
X-24600000Y33620000D03*
%TO.P,,ab5125e15f6be815fb94e1ece841a0e8.via14.4*%
X-29680000Y33620000D03*
%TO.P,,ab5125e15f6be815fb94e1ece841a0e8.via14.3*%
X-34760000Y33620000D03*
%TO.P,,ab5125e15f6be815fb94e1ece841a0e8.via14.2*%
X-39840000Y33620000D03*
%TO.P,,ab5125e15f6be815fb94e1ece841a0e8.via13.19*%
X46520000Y28540000D03*
%TO.P,,ab5125e15f6be815fb94e1ece841a0e8.via13.12*%
X10960000Y28540000D03*
%TO.P,,ab5125e15f6be815fb94e1ece841a0e8.via13.10*%
X800000Y28540000D03*
%TO.P,,ab5125e15f6be815fb94e1ece841a0e8.via13.6*%
X-19520000Y28540000D03*
%TO.P,,ab5125e15f6be815fb94e1ece841a0e8.via13.5*%
X-24600000Y28540000D03*
%TO.P,,ab5125e15f6be815fb94e1ece841a0e8.via13.4*%
X-29680000Y28540000D03*
%TO.P,,ab5125e15f6be815fb94e1ece841a0e8.via13.3*%
X-34760000Y28540000D03*
%TO.P,,ab5125e15f6be815fb94e1ece841a0e8.via13.2*%
X-39840000Y28540000D03*
%TO.P,,ab5125e15f6be815fb94e1ece841a0e8.via13.1*%
X-44920000Y28540000D03*
%TO.P,,ab5125e15f6be815fb94e1ece841a0e8.via12.10*%
X800000Y23460000D03*
%TO.P,,ab5125e15f6be815fb94e1ece841a0e8.via12.3*%
X-34760000Y23460000D03*
%TO.P,,ab5125e15f6be815fb94e1ece841a0e8.via12.2*%
X-39840000Y23460000D03*
%TO.P,,ab5125e15f6be815fb94e1ece841a0e8.via12.1*%
X-44920000Y23460000D03*
%TO.P,,ab5125e15f6be815fb94e1ece841a0e8.via11.9*%
X-4280000Y18380000D03*
%TO.P,,ab5125e15f6be815fb94e1ece841a0e8.via11.1*%
X-44920000Y18380000D03*
%TO.P,,ab5125e15f6be815fb94e1ece841a0e8.via10.18*%
X41440000Y13300000D03*
%TO.P,,ab5125e15f6be815fb94e1ece841a0e8.via10.17*%
X36360000Y13300000D03*
%TO.P,,ab5125e15f6be815fb94e1ece841a0e8.via10.16*%
X31280000Y13300000D03*
%TO.P,,ab5125e15f6be815fb94e1ece841a0e8.via10.14*%
X21120000Y13300000D03*
%TO.P,,ab5125e15f6be815fb94e1ece841a0e8.via10.11*%
X5880000Y13300000D03*
%TO.P,,ab5125e15f6be815fb94e1ece841a0e8.via10.4*%
X-29680000Y13300000D03*
%TO.P,,ab5125e15f6be815fb94e1ece841a0e8.via10.1*%
X-44920000Y13300000D03*
%TO.P,,ab5125e15f6be815fb94e1ece841a0e8.via9.18*%
X41440000Y8220000D03*
%TO.P,,ab5125e15f6be815fb94e1ece841a0e8.via9.7*%
X-14440000Y8220000D03*
%TO.P,,ab5125e15f6be815fb94e1ece841a0e8.via9.3*%
X-34760000Y8220000D03*
%TO.P,,ab5125e15f6be815fb94e1ece841a0e8.via9.2*%
X-39840000Y8220000D03*
%TO.P,,ab5125e15f6be815fb94e1ece841a0e8.via9.1*%
X-44920000Y8220000D03*
%TO.P,,ab5125e15f6be815fb94e1ece841a0e8.via8.19*%
X46520000Y3140000D03*
%TO.P,,ab5125e15f6be815fb94e1ece841a0e8.via8.18*%
X41440000Y3140000D03*
%TO.P,,ab5125e15f6be815fb94e1ece841a0e8.via8.16*%
X31280000Y3140000D03*
%TO.P,,ab5125e15f6be815fb94e1ece841a0e8.via8.14*%
X21120000Y3140000D03*
%TO.P,,ab5125e15f6be815fb94e1ece841a0e8.via8.1*%
X-44920000Y3140000D03*
%TO.P,,ab5125e15f6be815fb94e1ece841a0e8.via7.19*%
X46520000Y-1940000D03*
%TO.P,,ab5125e15f6be815fb94e1ece841a0e8.via7.18*%
X41440000Y-1940000D03*
%TO.P,,ab5125e15f6be815fb94e1ece841a0e8.via7.17*%
X36360000Y-1940000D03*
%TO.P,,ab5125e15f6be815fb94e1ece841a0e8.via7.16*%
X31280000Y-1940000D03*
%TO.P,,ab5125e15f6be815fb94e1ece841a0e8.via7.11*%
X5880000Y-1940000D03*
%TO.P,,ab5125e15f6be815fb94e1ece841a0e8.via7.8*%
X-9360000Y-1940000D03*
%TO.P,,ab5125e15f6be815fb94e1ece841a0e8.via7.6*%
X-19520000Y-1940000D03*
%TO.P,,ab5125e15f6be815fb94e1ece841a0e8.via7.5*%
X-24600000Y-1940000D03*
%TO.P,,ab5125e15f6be815fb94e1ece841a0e8.via6.18*%
X41440000Y-7020000D03*
%TO.P,,ab5125e15f6be815fb94e1ece841a0e8.via6.14*%
X21120000Y-7020000D03*
%TO.P,,ab5125e15f6be815fb94e1ece841a0e8.via6.10*%
X800000Y-7020000D03*
%TO.P,,ab5125e15f6be815fb94e1ece841a0e8.via6.8*%
X-9360000Y-7020000D03*
%TO.P,,ab5125e15f6be815fb94e1ece841a0e8.via6.7*%
X-14440000Y-7020000D03*
%TO.P,,ab5125e15f6be815fb94e1ece841a0e8.via6.4*%
X-29680000Y-7020000D03*
%TO.P,,ab5125e15f6be815fb94e1ece841a0e8.via6.3*%
X-34760000Y-7020000D03*
%TO.P,,ab5125e15f6be815fb94e1ece841a0e8.via5.19*%
X46520000Y-12100000D03*
%TO.P,,ab5125e15f6be815fb94e1ece841a0e8.via5.13*%
X16040000Y-12100000D03*
%TO.P,,ab5125e15f6be815fb94e1ece841a0e8.via5.11*%
X5880000Y-12100000D03*
%TO.P,,ab5125e15f6be815fb94e1ece841a0e8.via5.5*%
X-24600000Y-12100000D03*
%TO.P,,ab5125e15f6be815fb94e1ece841a0e8.via5.4*%
X-29680000Y-12100000D03*
%TO.P,,ab5125e15f6be815fb94e1ece841a0e8.via4.16*%
X31280000Y-17180000D03*
%TO.P,,ab5125e15f6be815fb94e1ece841a0e8.via4.11*%
X5880000Y-17180000D03*
%TO.P,,ab5125e15f6be815fb94e1ece841a0e8.via4.10*%
X800000Y-17180000D03*
%TO.P,,ab5125e15f6be815fb94e1ece841a0e8.via4.5*%
X-24600000Y-17180000D03*
%TO.P,,ab5125e15f6be815fb94e1ece841a0e8.via4.4*%
X-29680000Y-17180000D03*
%TO.P,,ab5125e15f6be815fb94e1ece841a0e8.via4.3*%
X-34760000Y-17180000D03*
%TO.P,,ab5125e15f6be815fb94e1ece841a0e8.via3.19*%
X46520000Y-22260000D03*
%TO.P,,ab5125e15f6be815fb94e1ece841a0e8.via3.17*%
X36360000Y-22260000D03*
%TO.P,,ab5125e15f6be815fb94e1ece841a0e8.via3.15*%
X26200000Y-22260000D03*
%TO.P,,ab5125e15f6be815fb94e1ece841a0e8.via3.10*%
X800000Y-22260000D03*
%TO.P,,ab5125e15f6be815fb94e1ece841a0e8.via3.9*%
X-4280000Y-22260000D03*
%TO.P,,ab5125e15f6be815fb94e1ece841a0e8.via3.8*%
X-9360000Y-22260000D03*
%TO.P,,ab5125e15f6be815fb94e1ece841a0e8.via3.5*%
X-24600000Y-22260000D03*
%TO.P,,ab5125e15f6be815fb94e1ece841a0e8.via3.4*%
X-29680000Y-22260000D03*
%TO.P,,ab5125e15f6be815fb94e1ece841a0e8.via3.3*%
X-34760000Y-22260000D03*
%TO.P,,ab5125e15f6be815fb94e1ece841a0e8.via3.2*%
X-39840000Y-22260000D03*
%TO.P,,ab5125e15f6be815fb94e1ece841a0e8.via3.1*%
X-44920000Y-22260000D03*
%TO.P,,ab5125e15f6be815fb94e1ece841a0e8.via2.18*%
X41440000Y-27340000D03*
%TO.P,,ab5125e15f6be815fb94e1ece841a0e8.via2.16*%
X31280000Y-27340000D03*
%TO.P,,ab5125e15f6be815fb94e1ece841a0e8.via2.14*%
X21120000Y-27340000D03*
%TO.P,,ab5125e15f6be815fb94e1ece841a0e8.via2.12*%
X10960000Y-27340000D03*
%TO.P,,ab5125e15f6be815fb94e1ece841a0e8.via2.11*%
X5880000Y-27340000D03*
%TO.P,,ab5125e15f6be815fb94e1ece841a0e8.via2.10*%
X800000Y-27340000D03*
%TO.P,,ab5125e15f6be815fb94e1ece841a0e8.via2.9*%
X-4280000Y-27340000D03*
%TO.P,,ab5125e15f6be815fb94e1ece841a0e8.via2.8*%
X-9360000Y-27340000D03*
%TO.P,,ab5125e15f6be815fb94e1ece841a0e8.via2.7*%
X-14440000Y-27340000D03*
%TO.P,,ab5125e15f6be815fb94e1ece841a0e8.via2.5*%
X-24600000Y-27340000D03*
%TO.P,,ab5125e15f6be815fb94e1ece841a0e8.via2.4*%
X-29680000Y-27340000D03*
%TO.P,,ab5125e15f6be815fb94e1ece841a0e8.via2.3*%
X-34760000Y-27340000D03*
%TO.P,,ab5125e15f6be815fb94e1ece841a0e8.via2.2*%
X-39840000Y-27340000D03*
%TO.P,,ab5125e15f6be815fb94e1ece841a0e8.via1.19*%
X46520000Y-32420000D03*
%TO.P,,ab5125e15f6be815fb94e1ece841a0e8.via1.18*%
X41440000Y-32420000D03*
%TO.P,,ab5125e15f6be815fb94e1ece841a0e8.via1.16*%
X31280000Y-32420000D03*
%TO.P,,ab5125e15f6be815fb94e1ece841a0e8.via1.14*%
X21120000Y-32420000D03*
%TO.P,,ab5125e15f6be815fb94e1ece841a0e8.via1.12*%
X10960000Y-32420000D03*
%TO.P,,ab5125e15f6be815fb94e1ece841a0e8.via1.11*%
X5880000Y-32420000D03*
%TO.P,,ab5125e15f6be815fb94e1ece841a0e8.via1.10*%
X800000Y-32420000D03*
%TO.P,,ab5125e15f6be815fb94e1ece841a0e8.via1.9*%
X-4280000Y-32420000D03*
%TO.P,,ab5125e15f6be815fb94e1ece841a0e8.via1.8*%
X-9360000Y-32420000D03*
%TO.P,,ab5125e15f6be815fb94e1ece841a0e8.via1.7*%
X-14440000Y-32420000D03*
%TO.P,,ab5125e15f6be815fb94e1ece841a0e8.via1.6*%
X-19520000Y-32420000D03*
%TO.P,,ab5125e15f6be815fb94e1ece841a0e8.via1.5*%
X-24600000Y-32420000D03*
%TO.P,,ab5125e15f6be815fb94e1ece841a0e8.via1.4*%
X-29680000Y-32420000D03*
%TO.P,,ab5125e15f6be815fb94e1ece841a0e8.via1.3*%
X-34760000Y-32420000D03*
%TO.P,,ab5125e15f6be815fb94e1ece841a0e8.via1.2*%
X-39840000Y-32420000D03*
%TO.P,,ab5125e15f6be815fb94e1ece841a0e8.via1.1*%
X-44920000Y-32420000D03*
%TO.P,,ab5125e15f6be815fb94e1ece841a0e8.via11.18*%
X41440000Y18380000D03*
%TO.P,,ab5125e15f6be815fb94e1ece841a0e8.via11.17*%
X36360000Y18380000D03*
%TO.P,,ab5125e15f6be815fb94e1ece841a0e8.via11.16*%
X31280000Y18380000D03*
%TO.P,,ab5125e15f6be815fb94e1ece841a0e8.via11.15*%
X26200000Y18380000D03*
%TO.P,,ab5125e15f6be815fb94e1ece841a0e8.via5.2*%
X-39840000Y-12100000D03*
%TO.P,,ab5125e15f6be815fb94e1ece841a0e8.via7.1*%
X-44920000Y-1940000D03*
%TO.P,,ab5125e15f6be815fb94e1ece841a0e8.via6.2*%
X-39840000Y-7020000D03*
%TO.P,,37b21f06-5252-458c-af10-07f0a553c3a3*%
%TO.N,Net - (13fb - a68d)*%
X99900Y25164100D03*
%TO.P,,9e42ca13-f2b6-43e8-915e-b2d63f713589*%
X-14583900Y25179700D03*
%TO.P,,76534c90-a671-4507-b7f1-288ae77598f4*%
%TO.N,Net 15*%
X9964600Y20039500D03*
%TO.P,,cb0f1d01-9215-4e93-b425-774bd21fe675*%
X9964700Y-17592600D03*
%TO.P,,298a2a0a-c541-4275-9516-371447121553*%
%TO.N,Net 17*%
X19891000Y-17592600D03*
%TO.P,,fd3ad043-4d68-4529-ae10-6389e00993d1*%
X6982300Y20907300D03*
%TO.P,,80d0dde7-dc70-47fb-b011-3b8ba5486796*%
%TO.N,Net 39*%
X-38190000Y2496900D03*
%TO.P,,b4e73a86-f5a8-4f18-9add-8bef9ad2ab7c*%
X-37915200Y1325300D03*
%TO.P,,ab5125e15f6be815fb94e1ece841a0e8.via4.2*%
%TO.N,GND*%
X-39840000Y-17180000D03*
%TO.P,,59a704e1-a880-41c3-a179-2193c7eb08e6*%
%TO.N,Net - (13fb - a68d)*%
X-33435900Y536100D03*
%TO.P,,50374abb-0c3c-48ed-97a8-923a9d5a91d9*%
X-30615700Y25700800D03*
%TO.P,,6eef3b1a-3ddf-48d4-af0e-082d562bfe0f*%
%TO.N,Net 36*%
X-20407200Y17022400D03*
%TO.P,,ee8a19c5-3c0a-4cc8-9d6c-7e17e539553c*%
X-3476000Y26911500D03*
%TO.P,,9653922d-5dfd-4a7f-acfd-01e85824f80a*%
%TO.N,Net 39*%
X-41217100Y4213200D03*
%TO.P,,236e170d-ad15-4f18-b538-2150c563d984*%
X-4275800Y26739300D03*
%TO.P,,e98adf84-90f1-4db1-854d-56caab40f7df*%
%TO.N,Net 35*%
X-41258200Y2496900D03*
%TO.P,,f25aa37f-8380-4d3f-8ac8-908fd692ba99*%
X-21176200Y15387900D03*
%TO.P,,d52e1de0-a50c-421c-b955-884a6e646e70*%
X-20407300Y14387900D03*
%TO.P,,f607ffb6-d732-4856-8dc9-1b66770ef7bf*%
X-5473500Y26911600D03*
%TO.P,,ab5125e15f6be815fb94e1ece841a0e8.via.island.30*%
%TO.N,GND*%
X4086000Y-30238500D03*
%TO.P,,ab5125e15f6be815fb94e1ece841a0e8.via.island.29*%
X4231400Y16753300D03*
%TO.P,,ab5125e15f6be815fb94e1ece841a0e8.via.island.28*%
X2671500Y1814000D03*
%TO.P,,ab5125e15f6be815fb94e1ece841a0e8.via.island.27*%
X18000600Y179900D03*
%TO.P,,ab5125e15f6be815fb94e1ece841a0e8.via.island.26*%
X15586200Y16651600D03*
%TO.P,,ab5125e15f6be815fb94e1ece841a0e8.via.island.25*%
X-35455500Y1092400D03*
%TO.P,,ab5125e15f6be815fb94e1ece841a0e8.via.island.24*%
X-8865500Y14896000D03*
%TO.P,,ab5125e15f6be815fb94e1ece841a0e8.via.island.23*%
X18432100Y17918400D03*
%TO.P,,ab5125e15f6be815fb94e1ece841a0e8.via.island.22*%
X14916900Y640200D03*
%TO.P,,ab5125e15f6be815fb94e1ece841a0e8.via.island.21*%
X36158000Y-14075100D03*
%TO.P,,ab5125e15f6be815fb94e1ece841a0e8.via.island.20*%
X-22998400Y17222400D03*
%TO.P,,ab5125e15f6be815fb94e1ece841a0e8.via.island.19*%
X-22878100Y21943300D03*
%TO.P,,ab5125e15f6be815fb94e1ece841a0e8.via.island.18*%
X13971300Y-7527500D03*
%TO.P,,ab5125e15f6be815fb94e1ece841a0e8.via.island.17*%
X-17736000Y-18792100D03*
%TO.P,,ab5125e15f6be815fb94e1ece841a0e8.via.island.16*%
X23015600Y-19949500D03*
%TO.P,,ab5125e15f6be815fb94e1ece841a0e8.via.island.15*%
X14161000Y5028000D03*
%TO.P,,ab5125e15f6be815fb94e1ece841a0e8.via.island.14*%
X13652500Y-19509600D03*
%TO.P,,ab5125e15f6be815fb94e1ece841a0e8.via.island.13*%
X30754300Y-7910700D03*
%TO.P,,ab5125e15f6be815fb94e1ece841a0e8.via.island.12*%
X17947300Y13279800D03*
%TO.P,,ab5125e15f6be815fb94e1ece841a0e8.via.island.11*%
X27376000Y342000D03*
%TO.P,,ab5125e15f6be815fb94e1ece841a0e8.via.island.10*%
X26250800Y-10249900D03*
%TO.P,,ab5125e15f6be815fb94e1ece841a0e8.via.island.9*%
X8896500Y-13478500D03*
%TO.P,,ab5125e15f6be815fb94e1ece841a0e8.via.island.8*%
X18241400Y-3336300D03*
%TO.P,,ab5125e15f6be815fb94e1ece841a0e8.via.island.7*%
X24189000Y-16018500D03*
%TO.P,,ab5125e15f6be815fb94e1ece841a0e8.via.island.6*%
X-37796300Y5215900D03*
%TO.P,,ab5125e15f6be815fb94e1ece841a0e8.via.island.5*%
X-15010300Y-16574100D03*
%TO.P,,ab5125e15f6be815fb94e1ece841a0e8.via.island.4*%
X8690800Y-5702900D03*
%TO.P,,ab5125e15f6be815fb94e1ece841a0e8.via.island.3*%
X-17332200Y17988200D03*
%TO.P,,ab5125e15f6be815fb94e1ece841a0e8.via.island.2*%
X8813400Y5510400D03*
%TO.P,,ab5125e15f6be815fb94e1ece841a0e8.via.island.1*%
X43367400Y28108400D03*
%TO.P,,ab5125e15f6be815fb94e1ece841a0e8.via.island.0*%
X40043300Y-18729600D03*
%TD*%
D15*
%TO.N,Net 9*%
X19891100Y-5098900D02*
X19891100Y14712300D01*
X19891000Y14712400D02*
X16141800Y18461600D01*
%TO.N,Net 13*%
X-22973000Y-16667200D02*
X-22973000Y1607800D01*
X-530400Y-10748400D02*
X-10776000Y-20994000D01*
X-10776000Y-20994000D02*
X-18646200Y-20994000D01*
X-18646200Y-20994000D02*
X-22973000Y-16667200D01*
X1917700Y-10748300D02*
X-530300Y-10748300D01*
X-22973000Y1607800D02*
X-21318600Y3262200D01*
X-15332800Y3262200D02*
X-9076000Y9519000D01*
X-21318600Y3262200D02*
X-15332800Y3262200D01*
%TO.N,Net 19*%
X-4276000Y-18258800D02*
X3227000Y-10755800D01*
X13485300Y-25819100D02*
X2401100Y-25819100D01*
X-14612200Y-18803500D02*
X-19930600Y-13485100D01*
X-7476000Y6337100D02*
X-5540000Y6337100D01*
X-19930600Y-13485100D02*
X-19930600Y-6117500D01*
X-19930600Y-6117500D02*
X-7476000Y6337100D01*
X-4276000Y-19142000D02*
X-4276000Y-18258800D01*
X29080800Y-17592600D02*
X21711800Y-17592600D01*
X2401000Y-25819000D02*
X-4276000Y-19142000D01*
X-1242200Y-9269800D02*
X-10776000Y-18803600D01*
X3226900Y-10579000D02*
X1917700Y-9269800D01*
X3227000Y-10755800D02*
X3227000Y-10579000D01*
X-10776000Y-18803500D02*
X-14612200Y-18803500D01*
X-5540000Y6337100D02*
X-4276000Y7601100D01*
X1917700Y-9269800D02*
X-1242300Y-9269800D01*
X21711700Y-17592600D02*
X13485300Y-25819000D01*
%TO.N,Net 8*%
X-11809000Y20039500D02*
X-11809000Y22678500D01*
X-17046300Y16565800D02*
X-14586600Y19025500D01*
X-17172600Y16565800D02*
X-17046300Y16565800D01*
X-11809000Y22678500D02*
X-11437000Y23050500D01*
X-12823000Y19025500D02*
X-11809000Y20039500D01*
X-14586600Y19025500D02*
X-12823000Y19025500D01*
%TO.N,Net 20*%
X-13507200Y-2680900D02*
X-3476000Y7350300D01*
X-13507300Y-16667200D02*
X-13507300Y-2680900D01*
%TO.N,Net 7*%
X16003000Y13870200D02*
X13485200Y16388000D01*
X39121300Y-30155300D02*
X39121300Y-21152900D01*
X36149300Y-11737100D02*
X20166300Y-11737100D01*
X20166200Y-11737200D02*
X16002900Y-7573900D01*
X39121300Y-21152900D02*
X41132100Y-19142100D01*
X41132100Y-16719900D02*
X36149300Y-11737100D01*
X16003000Y-7573800D02*
X16003000Y13870200D01*
X41132100Y-19142100D02*
X41132100Y-16719900D01*
%TO.N,Net 18*%
X44652600Y32863100D02*
X44652600Y27842300D01*
X44652600Y27842300D02*
X43757000Y26946700D01*
X43756900Y26946700D02*
X42039300Y26946700D01*
X12752100Y25545100D02*
X12319900Y25977300D01*
X40637600Y25545100D02*
X12752200Y25545100D01*
X42039300Y26946700D02*
X40637700Y25545100D01*
%TO.N,Net 25*%
X-11890900Y-16667100D02*
X-11890900Y-12974700D01*
X-11890800Y-12974600D02*
X-2165200Y-3249000D01*
%TO.N,Net 11*%
X29080800Y9050400D02*
X18824200Y19307000D01*
X29080800Y-6353500D02*
X29080800Y9050500D01*
%TO.N,Net 12*%
X-31034600Y1607800D02*
X-25864600Y1607800D01*
X-25864600Y1607800D02*
X-6676000Y20796400D01*
%TO.N,Net 21*%
X2090400Y-21425200D02*
X-1076000Y-18258800D01*
X-1876000Y6004800D02*
X-530400Y7350400D01*
X-1876000Y-1688400D02*
X-1876000Y6004800D01*
X39474900Y-17592600D02*
X34239500Y-17592600D01*
X23273500Y-14444500D02*
X21050900Y-16667100D01*
X17217200Y-21425200D02*
X2090400Y-21425200D01*
X21050900Y-17591400D02*
X17217100Y-21425200D01*
X-1076000Y-15653500D02*
X4274600Y-10302900D01*
X-1076000Y-18258800D02*
X-1076000Y-15653600D01*
X34239500Y-17592700D02*
X31091300Y-14444600D01*
X31091400Y-14444500D02*
X23273400Y-14444500D01*
X21050900Y-16667100D02*
X21050900Y-17591500D01*
X4274600Y-7839000D02*
X-1876000Y-1688400D01*
X4274600Y-10302900D02*
X4274600Y-7839000D01*
%TO.N,Net 29*%
X8617500Y26739300D02*
X1917700Y20039500D01*
X1917700Y20039500D02*
X-4147500Y20039500D01*
X8617400Y28303500D02*
X8617400Y26739300D01*
X-4147400Y20039400D02*
X-5876000Y21768000D01*
%TO.N,Net 27*%
X9964700Y-6353600D02*
X9964700Y14933000D01*
D16*
%TO.N,GND*%
X19724900Y29092000D02*
X20922300Y29092000D01*
X20922300Y29092000D02*
X34267300Y29092000D01*
X13190300Y29092000D02*
X28327300Y29092000D01*
X41407700Y33958500D02*
X41407700Y29824100D01*
X41407700Y29824100D02*
X40163300Y28579700D01*
X40163400Y28579700D02*
X34779600Y28579700D01*
X34779500Y28579800D02*
X34267300Y29092000D01*
X27129700Y29092000D02*
X28327300Y29092000D01*
X34267300Y29092000D02*
X34551500Y29376200D01*
X34267300Y29092000D02*
X28327300Y29092000D01*
%TO.N,Net - (13fb - a68d)*%
X-14583900Y25179700D02*
X99900Y25179700D01*
X99900Y25179700D02*
X99900Y25164100D01*
D15*
%TO.N,Net 15*%
X12318800Y-6353500D02*
X12318800Y17685300D01*
X9964700Y-17592600D02*
X9964700Y-8707600D01*
X12318800Y17685300D02*
X9964600Y20039500D01*
X9964600Y-8707700D02*
X12318800Y-6353500D01*
%TO.N,Net 17*%
X7828400Y-10302900D02*
X11010300Y-7121000D01*
X9964800Y-18803500D02*
X7828400Y-16667100D01*
X11010300Y-7121000D02*
X11010300Y16879200D01*
X12208300Y-17592600D02*
X9964700Y-19836200D01*
X19891000Y-17592600D02*
X12208300Y-17592600D01*
X7828400Y-16667100D02*
X7828400Y-10302900D01*
X9964700Y-19836200D02*
X9964700Y-18803400D01*
X11010300Y16879300D02*
X6982300Y20907300D01*
%TO.N,Net 39*%
X-38190000Y2496900D02*
X-38190000Y1600100D01*
X-38190000Y1600100D02*
X-37915200Y1325300D01*
D17*
%TO.N,Net - (13fb - a68d)*%
X-33435900Y536100D02*
X-33435900Y7410700D01*
X-33435900Y7410700D02*
X-24958600Y15887900D01*
X-24958600Y15887900D02*
X-24958600Y20043700D01*
X-24958700Y20043800D02*
X-30615700Y25700800D01*
D15*
%TO.N,Net 36*%
X-20407200Y17022400D02*
X-20407200Y23758400D01*
X-20407300Y23758300D02*
X-13092300Y31073300D01*
X-13092300Y31073300D02*
X-7637700Y31073300D01*
X-7637800Y31073300D02*
X-3476000Y26911500D01*
%TO.N,Net 39*%
X-41217100Y4213200D02*
X-40863100Y4213200D01*
X-40863000Y4213200D02*
X-38739200Y6337200D01*
X-38739200Y6337100D02*
X-34371200Y6337100D01*
X-34371200Y6337100D02*
X-34371200Y-1957700D01*
X-34371200Y-1957700D02*
X-34045600Y-2283300D01*
X-34045600Y-2283300D02*
X-33272700Y-2283300D01*
X-33272700Y-2283400D02*
X-31862900Y-873600D01*
X-31863000Y-873600D02*
X-31863000Y3909400D01*
X-31863000Y3909400D02*
X-19384400Y16388000D01*
X-19384400Y16388000D02*
X-19384400Y23581400D01*
X-19384500Y23581300D02*
X-12957300Y30008500D01*
X-12957400Y30008500D02*
X-7545000Y30008500D01*
X-7545000Y30008500D02*
X-4275800Y26739300D01*
%TO.N,Net 35*%
X-41258200Y2496900D02*
X-42571200Y2496900D01*
X-42571100Y2496900D02*
X-43572300Y3498100D01*
X-43572400Y3498200D02*
X-43572400Y4207400D01*
X-43572300Y4207500D02*
X-40863100Y6916700D01*
X-40863100Y6916800D02*
X-34625100Y6916800D01*
X-34625100Y6916800D02*
X-34045500Y6337200D01*
X-34045500Y6337200D02*
X-34045500Y-664000D01*
X-34045500Y-664000D02*
X-33435900Y-1273600D01*
X-33435900Y-1273600D02*
X-33435900Y-987800D01*
X-33435900Y-987900D02*
X-32521500Y-73500D01*
X-32521600Y-73500D02*
X-32521600Y4042500D01*
X-32521600Y4042500D02*
X-21176200Y15387900D01*
X-20407300Y14387900D02*
X-20407300Y14698100D01*
X-20407300Y14698100D02*
X-18539700Y16565700D01*
X-18539800Y16565700D02*
X-18539800Y23209700D01*
X-18539800Y23209700D02*
X-15155600Y26593900D01*
X-15155600Y26593900D02*
X-14996200Y26593900D01*
X-14996200Y26593900D02*
X-12461600Y29128500D01*
X-12461600Y29128400D02*
X-7690200Y29128400D01*
X-7690300Y29128400D02*
X-5473500Y26911600D01*
%TD*%
%TA.AperFunction,Conductor*%
%TO.N,GND*%
G36*
X9178000Y-17183000D02*
G01*
X8440000Y-16445000D01*
X8417000Y-16390000D01*
X8417000Y-10580000D01*
X8440000Y-10525000D01*
X9191000Y-9774000D01*
X9376000Y-9851000D01*
X9376000Y-17022000D01*
X9363000Y-17054000D01*
X9363000Y-17106000D01*
X9178000Y-17183000D01*
G37*
%TD.AperFunction*%
%TA.AperFunction,Conductor*%
G36*
X-5777000Y25908000D02*
G01*
X-14227000Y25908000D01*
X-14261000Y25916000D01*
X-14273000Y25922000D01*
X-14280000Y25925000D01*
X-14548000Y25995000D01*
X-14594000Y26163000D01*
X-12241000Y28516000D01*
X-12186000Y28539000D01*
X-7967000Y28539000D01*
X-7912000Y28516000D01*
X-6294000Y26899000D01*
X-6271000Y26844000D01*
X-6271000Y26809000D01*
X-6216000Y26604000D01*
X-6110000Y26419000D01*
X-5965000Y26277000D01*
X-5962000Y26275000D01*
X-5716000Y26129000D01*
X-5777000Y25908000D01*
G37*
%TD.AperFunction*%
%TA.AperFunction,Conductor*%
G36*
X2185000Y-22016000D02*
G01*
X2203000Y-22014000D01*
X16195000Y-22014000D01*
X16272000Y-22199000D01*
X13264000Y-25207000D01*
X13209000Y-25230000D01*
X2678000Y-25230000D01*
X2623000Y-25207000D01*
X-3664000Y-18920000D01*
X-3687000Y-18865000D01*
X-3687000Y-18535000D01*
X-3664000Y-18480000D01*
X-1850000Y-16666000D01*
X-1665000Y-16743000D01*
X-1665000Y-18222000D01*
X-1666000Y-18235000D01*
X-1675000Y-18286000D01*
X-1675000Y-18287000D01*
X-1658000Y-18356000D01*
X-1657000Y-18364000D01*
X-1652000Y-18400000D01*
X-1652000Y-18401000D01*
X-1634000Y-18447000D01*
X-1631000Y-18456000D01*
X-1620000Y-18503000D01*
X-1604000Y-18526000D01*
X-1598000Y-18539000D01*
X-1580000Y-18581000D01*
X-1580000Y-18582000D01*
X-1539000Y-18625000D01*
X-1531000Y-18636000D01*
X-1528000Y-18641000D01*
X1648000Y-21816000D01*
X1656000Y-21825000D01*
X1686000Y-21865000D01*
X1690000Y-21869000D01*
X1744000Y-21902000D01*
X1753000Y-21908000D01*
X1783000Y-21932000D01*
X1814000Y-21945000D01*
X1823000Y-21950000D01*
X1876000Y-21982000D01*
X1880000Y-21984000D01*
X1910000Y-21989000D01*
X1926000Y-21994000D01*
X1962000Y-22009000D01*
X2024000Y-22011000D01*
X2036000Y-22013000D01*
X2038000Y-22013000D01*
X2048000Y-22014000D01*
X2116000Y-22014000D01*
X2185000Y-22016000D01*
G37*
%TD.AperFunction*%
%TA.AperFunction,Conductor*%
G36*
X-12530000Y-17156000D02*
G01*
X-12381000Y-17305000D01*
X-12201000Y-17408000D01*
X-11995000Y-17465000D01*
X-11787000Y-17465000D01*
X-11580000Y-17408000D01*
X-11581000Y-17408000D01*
X-11401000Y-17305000D01*
X-11253000Y-17157000D01*
X-11150000Y-16977000D01*
X-11093000Y-16771000D01*
X-11093000Y-16563000D01*
X-11150000Y-16357000D01*
X-11253000Y-16177000D01*
X-11279000Y-16151000D01*
X-11302000Y-16096000D01*
X-11302000Y-13252000D01*
X-11279000Y-13197000D01*
X-2152000Y-4069000D01*
X-2097000Y-4046000D01*
X-2062000Y-4046000D01*
X-1857000Y-3992000D01*
X-1856000Y-3991000D01*
X-1676000Y-3887000D01*
X-1528000Y-3740000D01*
X-1527000Y-3739000D01*
X-1420000Y-3552000D01*
X-1345000Y-3267000D01*
X-1177000Y-3221000D01*
X3663000Y-8061000D01*
X3686000Y-8116000D01*
X3686000Y-9942000D01*
X3501000Y-10019000D01*
X2366000Y-8885000D01*
X2359000Y-8877000D01*
X2325000Y-8831000D01*
X2317000Y-8824000D01*
X2264000Y-8792000D01*
X2256000Y-8787000D01*
X2229000Y-8766000D01*
X2221000Y-8761000D01*
X2191000Y-8748000D01*
X2182000Y-8743000D01*
X2133000Y-8713000D01*
X2131000Y-8712000D01*
X2099000Y-8706000D01*
X2082000Y-8701000D01*
X2048000Y-8686000D01*
X2044000Y-8685000D01*
X1986000Y-8683000D01*
X1985000Y-8683000D01*
X1976000Y-8682000D01*
X1965000Y-8681000D01*
X1923000Y-8681000D01*
X1824000Y-8678000D01*
X1809000Y-8680000D01*
X1799000Y-8681000D01*
X-1200000Y-8681000D01*
X-1212000Y-8680000D01*
X-1267000Y-8671000D01*
X-1269000Y-8671000D01*
X-1339000Y-8688000D01*
X-1348000Y-8689000D01*
X-1380000Y-8693000D01*
X-1383000Y-8694000D01*
X-1414000Y-8707000D01*
X-1427000Y-8711000D01*
X-1481000Y-8724000D01*
X-1485000Y-8726000D01*
X-1509000Y-8742000D01*
X-1522000Y-8748000D01*
X-1564000Y-8766000D01*
X-1565000Y-8766000D01*
X-1608000Y-8807000D01*
X-1619000Y-8815000D01*
X-1624000Y-8818000D01*
X-10997000Y-18192000D01*
X-11052000Y-18215000D01*
X-14334000Y-18215000D01*
X-14389000Y-18192000D01*
X-19319000Y-13263000D01*
X-19342000Y-13208000D01*
X-19342000Y-6395000D01*
X-19319000Y-6340000D01*
X-7255000Y5725000D01*
X-7200000Y5748000D01*
X-6175000Y5748000D01*
X-6098000Y5563000D01*
X-13898000Y-2238000D01*
X-13907000Y-2246000D01*
X-13951000Y-2278000D01*
X-13983000Y-2331000D01*
X-13987000Y-2338000D01*
X-14013000Y-2372000D01*
X-14025000Y-2401000D01*
X-14031000Y-2413000D01*
X-14063000Y-2464000D01*
X-14066000Y-2470000D01*
X-14071000Y-2499000D01*
X-14076000Y-2514000D01*
X-14092000Y-2550000D01*
X-14092000Y-2554000D01*
X-14094000Y-2617000D01*
X-14095000Y-2624000D01*
X-14096000Y-2635000D01*
X-14096000Y-2687000D01*
X-14099000Y-2776000D01*
X-14097000Y-2792000D01*
X-14096000Y-2801000D01*
X-14096000Y-16097000D01*
X-14119000Y-16152000D01*
X-14147000Y-16180000D01*
X-14248000Y-16354000D01*
X-14305000Y-16563000D01*
X-14305000Y-16771000D01*
X-14248000Y-16977000D01*
X-14145000Y-17157000D01*
X-13997000Y-17305000D01*
X-13817000Y-17408000D01*
X-13611000Y-17465000D01*
X-13403000Y-17465000D01*
X-13193000Y-17408000D01*
X-13020000Y-17307000D01*
X-13019000Y-17306000D01*
X-12870000Y-17158000D01*
X-12869000Y-17157000D01*
X-12786000Y-17012000D01*
X-12612000Y-17012000D01*
X-12530000Y-17156000D01*
G37*
%TD.AperFunction*%
%TA.AperFunction,Conductor*%
G36*
X11831000Y-17137000D02*
G01*
X10890000Y-18078000D01*
X10690000Y-17963000D01*
X10762000Y-17695000D01*
X10762000Y-17490000D01*
X10707000Y-17285000D01*
X10601000Y-17101000D01*
X10577000Y-17077000D01*
X10554000Y-17022000D01*
X10554000Y-8985000D01*
X10577000Y-8930000D01*
X12710000Y-6796000D01*
X12719000Y-6788000D01*
X12759000Y-6758000D01*
X12763000Y-6754000D01*
X12796000Y-6700000D01*
X12802000Y-6691000D01*
X12826000Y-6661000D01*
X12839000Y-6630000D01*
X12844000Y-6621000D01*
X12876000Y-6568000D01*
X12878000Y-6564000D01*
X12883000Y-6534000D01*
X12888000Y-6518000D01*
X12903000Y-6482000D01*
X12903000Y-6481000D01*
X12905000Y-6420000D01*
X12907000Y-6408000D01*
X12908000Y-6396000D01*
X12908000Y-6323000D01*
X12910000Y-6261000D01*
X12909000Y-6256000D01*
X12908000Y-6245000D01*
X12908000Y15627000D01*
X13059000Y15713000D01*
X13170000Y15648000D01*
X13381000Y15590000D01*
X13417000Y15590000D01*
X13472000Y15567000D01*
X15391000Y13649000D01*
X15414000Y13594000D01*
X15414000Y-7531000D01*
X15413000Y-7543000D01*
X15404000Y-7598000D01*
X15404000Y-7601000D01*
X15421000Y-7664000D01*
X15423000Y-7674000D01*
X15427000Y-7711000D01*
X15429000Y-7720000D01*
X15443000Y-7757000D01*
X15445000Y-7764000D01*
X15458000Y-7813000D01*
X15459000Y-7816000D01*
X15477000Y-7845000D01*
X15482000Y-7855000D01*
X15501000Y-7899000D01*
X15537000Y-7937000D01*
X15544000Y-7945000D01*
X15550000Y-7954000D01*
X15694000Y-8098000D01*
X19715000Y-12118000D01*
X19723000Y-12127000D01*
X19762000Y-12180000D01*
X19763000Y-12181000D01*
X19825000Y-12218000D01*
X19832000Y-12223000D01*
X19860000Y-12244000D01*
X19884000Y-12254000D01*
X19893000Y-12259000D01*
X19951000Y-12294000D01*
X19954000Y-12296000D01*
X19991000Y-12302000D01*
X20007000Y-12307000D01*
X20039000Y-12321000D01*
X20100000Y-12323000D01*
X20112000Y-12325000D01*
X20113000Y-12325000D01*
X20124000Y-12326000D01*
X20193000Y-12326000D01*
X20262000Y-12328000D01*
X20280000Y-12326000D01*
X35873000Y-12326000D01*
X35928000Y-12349000D01*
X40520000Y-16940000D01*
X40543000Y-16995000D01*
X40543000Y-17493000D01*
X40282000Y-17527000D01*
X40217000Y-17285000D01*
X40115000Y-17106000D01*
X40113000Y-17103000D01*
X39969000Y-16959000D01*
X39967000Y-16958000D01*
X39786000Y-16850000D01*
X39785000Y-16850000D01*
X39580000Y-16795000D01*
X39370000Y-16795000D01*
X39164000Y-16850000D01*
X38983000Y-16958000D01*
X38982000Y-16959000D01*
X38959000Y-16981000D01*
X38904000Y-17004000D01*
X34516000Y-17004000D01*
X34461000Y-16981000D01*
X31541000Y-14062000D01*
X31533000Y-14053000D01*
X31492000Y-13997000D01*
X31425000Y-13958000D01*
X31417000Y-13952000D01*
X31403000Y-13941000D01*
X31369000Y-13925000D01*
X31363000Y-13922000D01*
X31298000Y-13886000D01*
X31272000Y-13882000D01*
X31254000Y-13876000D01*
X31221000Y-13861000D01*
X31218000Y-13861000D01*
X31159000Y-13859000D01*
X31147000Y-13857000D01*
X31145000Y-13857000D01*
X31135000Y-13856000D01*
X31065000Y-13856000D01*
X30996000Y-13854000D01*
X30978000Y-13856000D01*
X23307000Y-13855000D01*
X23296000Y-13854000D01*
X23247000Y-13846000D01*
X23244000Y-13847000D01*
X23182000Y-13861000D01*
X23174000Y-13862000D01*
X23136000Y-13867000D01*
X23126000Y-13870000D01*
X23085000Y-13886000D01*
X23078000Y-13888000D01*
X23035000Y-13899000D01*
X23030000Y-13901000D01*
X23008000Y-13917000D01*
X22992000Y-13925000D01*
X22950000Y-13941000D01*
X22908000Y-13981000D01*
X22896000Y-13990000D01*
X22891000Y-13993000D01*
X20666000Y-16219000D01*
X20658000Y-16226000D01*
X20609000Y-16263000D01*
X20575000Y-16318000D01*
X20571000Y-16325000D01*
X20548000Y-16355000D01*
X20542000Y-16365000D01*
X20528000Y-16395000D01*
X20524000Y-16403000D01*
X20494000Y-16451000D01*
X20494000Y-16452000D01*
X20487000Y-16485000D01*
X20483000Y-16500000D01*
X20467000Y-16537000D01*
X20467000Y-16541000D01*
X20465000Y-16600000D01*
X20463000Y-16612000D01*
X20463000Y-16614000D01*
X20462000Y-16624000D01*
X20462000Y-16697000D01*
X20459000Y-16829000D01*
X20309000Y-16913000D01*
X20205000Y-16851000D01*
X20201000Y-16850000D01*
X19996000Y-16795000D01*
X19786000Y-16795000D01*
X19580000Y-16850000D01*
X19399000Y-16958000D01*
X19397000Y-16959000D01*
X19375000Y-16981000D01*
X19320000Y-17004000D01*
X12257000Y-17004000D01*
X12245000Y-17003000D01*
X12184000Y-16993000D01*
X12181000Y-16993000D01*
X12110000Y-17012000D01*
X12099000Y-17014000D01*
X12069000Y-17017000D01*
X12033000Y-17031000D01*
X12024000Y-17033000D01*
X11967000Y-17048000D01*
X11941000Y-17066000D01*
X11926000Y-17074000D01*
X11886000Y-17090000D01*
X11881000Y-17093000D01*
X11844000Y-17128000D01*
X11834000Y-17135000D01*
X11831000Y-17137000D01*
G37*
%TD.AperFunction*%
%TA.AperFunction,Conductor*%
G36*
X39996000Y-37250000D02*
G01*
X-39996000Y-37250000D01*
X-40311000Y-37245000D01*
X-40313000Y-37245000D01*
X-40641000Y-37229000D01*
X-40643000Y-37229000D01*
X-40960000Y-37202000D01*
X-40963000Y-37202000D01*
X-41320000Y-37162000D01*
X-41324000Y-37158000D01*
X-41588000Y-37119000D01*
X-41591000Y-37119000D01*
X-41908000Y-37061000D01*
X-41910000Y-37061000D01*
X-42206000Y-36997000D01*
X-42208000Y-36997000D01*
X-42516000Y-36919000D01*
X-42518000Y-36919000D01*
X-42835000Y-36828000D01*
X-42838000Y-36827000D01*
X-43127000Y-36734000D01*
X-43129000Y-36734000D01*
X-43441000Y-36623000D01*
X-43443000Y-36622000D01*
X-43736000Y-36506000D01*
X-43739000Y-36505000D01*
X-44017000Y-36384000D01*
X-44019000Y-36383000D01*
X-44317000Y-36242000D01*
X-44320000Y-36241000D01*
X-44601000Y-36096000D01*
X-44603000Y-36095000D01*
X-44880000Y-35941000D01*
X-44882000Y-35939000D01*
X-45154000Y-35777000D01*
X-45156000Y-35776000D01*
X-45422000Y-35604000D01*
X-45425000Y-35603000D01*
X-45675000Y-35428000D01*
X-45676000Y-35427000D01*
X-45929000Y-35241000D01*
X-45931000Y-35239000D01*
X-46179000Y-35042000D01*
X-46181000Y-35040000D01*
X-46432000Y-34827000D01*
X-46434000Y-34825000D01*
X-46658000Y-34622000D01*
X-46660000Y-34621000D01*
X-46897000Y-34391000D01*
X-46899000Y-34389000D01*
X-47121000Y-34160000D01*
X-47123000Y-34158000D01*
X-47333000Y-33925000D01*
X-47335000Y-33923000D01*
X-47540000Y-33681000D01*
X-47542000Y-33679000D01*
X-47739000Y-33431000D01*
X-47741000Y-33429000D01*
X-47927000Y-33176000D01*
X-47929000Y-33175000D01*
X-48111000Y-32913000D01*
X-48112000Y-32910000D01*
X-48283000Y-32645000D01*
X-48284000Y-32643000D01*
X-48439000Y-32382000D01*
X-48441000Y-32380000D01*
X-48601000Y-32092000D01*
X-48602000Y-32090000D01*
X-48747000Y-31807000D01*
X-48748000Y-31805000D01*
X-48883000Y-31519000D01*
X-48884000Y-31517000D01*
X-48986103Y-31282000D01*
X-23604000Y-31282000D01*
X-23604000Y-31669000D01*
X-23501000Y-32053000D01*
X-23307000Y-32391000D01*
X-23306000Y-32392000D01*
X-23028000Y-32669000D01*
X-23027000Y-32670000D01*
X-22692000Y-32864000D01*
X-22689000Y-32865000D01*
X-22306000Y-32967000D01*
X-21919000Y-32967000D01*
X-21535000Y-32865000D01*
X-21536000Y-32865000D01*
X-21468200Y-32826000D01*
X-16612000Y-32826000D01*
X-16612000Y-36326000D01*
X-12612000Y-36326000D01*
X-12612000Y-32826000D01*
X-16612000Y-32826000D01*
X-21468200Y-32826000D01*
X-21197000Y-32670000D01*
X-20918000Y-32391000D01*
X-20724000Y-32056000D01*
X-20721000Y-32048000D01*
X-20621000Y-31670000D01*
X-20621000Y-31282000D01*
X-20723000Y-30899000D01*
X-20724000Y-30896000D01*
X-20918000Y-30561000D01*
X-21197000Y-30282000D01*
X-21533000Y-30088000D01*
X-21536000Y-30087000D01*
X-21919000Y-29984000D01*
X-22306000Y-29984000D01*
X-22690000Y-30087000D01*
X-22693000Y-30088000D01*
X-23027000Y-30282000D01*
X-23028000Y-30283000D01*
X-23306000Y-30560000D01*
X-23307000Y-30561000D01*
X-23501000Y-30899000D01*
X-23604000Y-31282000D01*
X-48986103Y-31282000D01*
X-49010000Y-31227000D01*
X-49011000Y-31224000D01*
X-49127000Y-30930000D01*
X-49128000Y-30927000D01*
X-49234000Y-30629000D01*
X-49234000Y-30627000D01*
X-49327000Y-30338000D01*
X-49328000Y-30335000D01*
X-49419000Y-30018000D01*
X-49419000Y-30016000D01*
X-49497000Y-29708000D01*
X-49497000Y-29706000D01*
X-49561000Y-29410000D01*
X-49561000Y-29408000D01*
X-49620000Y-29083000D01*
X-49620000Y-29081000D01*
X-49644840Y-28913000D01*
X-22608000Y-28913000D01*
X-22608000Y-29039000D01*
X-22573000Y-29168000D01*
X-22508000Y-29281000D01*
X-22508000Y-29282000D01*
X-22419000Y-29372000D01*
X-22305000Y-29437000D01*
X-22174000Y-29472000D01*
X-22049000Y-29472000D01*
X-21919000Y-29437000D01*
X-21920000Y-29437000D01*
X-21806000Y-29372000D01*
X-21807000Y-29372000D01*
X-21716000Y-29281000D01*
X-21713000Y-29277000D01*
X-21651000Y-29170000D01*
X-21616000Y-29039000D01*
X-21616000Y-28913000D01*
X-21651000Y-28782000D01*
X-21713000Y-28675000D01*
X-21716000Y-28671000D01*
X-21807000Y-28580000D01*
X-21806000Y-28580000D01*
X-21920000Y-28515000D01*
X-21919000Y-28515000D01*
X-22049000Y-28480000D01*
X-22174000Y-28480000D01*
X-22305000Y-28515000D01*
X-22419000Y-28580000D01*
X-22508000Y-28670000D01*
X-22508000Y-28671000D01*
X-22573000Y-28784000D01*
X-22608000Y-28913000D01*
X-49644840Y-28913000D01*
X-49658000Y-28824000D01*
X-49662000Y-28820000D01*
X-49702000Y-28463000D01*
X-49702000Y-28461000D01*
X-49730000Y-28132000D01*
X-49730000Y-28129000D01*
X-49745000Y-27813000D01*
X-49745000Y-27811000D01*
X-49750000Y-27496000D01*
X-49750000Y-24976000D01*
X-23612000Y-24976000D01*
X-23612000Y-27976000D01*
X-20612000Y-27976000D01*
X-20612000Y-24976000D01*
X-23612000Y-24976000D01*
X-49750000Y-24976000D01*
X-49750000Y-16693000D01*
X-23572000Y-16693000D01*
X-23572000Y-16696000D01*
X-23553000Y-16774000D01*
X-23551000Y-16784000D01*
X-23549000Y-16807000D01*
X-23547000Y-16815000D01*
X-23535000Y-16847000D01*
X-23533000Y-16853000D01*
X-23519000Y-16906000D01*
X-23515000Y-16913000D01*
X-23499000Y-16937000D01*
X-23492000Y-16951000D01*
X-23475000Y-16992000D01*
X-23473000Y-16995000D01*
X-23442000Y-17027000D01*
X-23435000Y-17036000D01*
X-23428000Y-17047000D01*
X-23424000Y-17051000D01*
X-19089000Y-21385000D01*
X-19081000Y-21394000D01*
X-19051000Y-21434000D01*
X-19047000Y-21438000D01*
X-18993000Y-21471000D01*
X-18984000Y-21477000D01*
X-18954000Y-21501000D01*
X-18923000Y-21514000D01*
X-18914000Y-21519000D01*
X-18861000Y-21551000D01*
X-18857000Y-21553000D01*
X-18827000Y-21558000D01*
X-18811000Y-21563000D01*
X-18775000Y-21578000D01*
X-18713000Y-21580000D01*
X-18701000Y-21582000D01*
X-18699000Y-21582000D01*
X-18689000Y-21583000D01*
X-18621000Y-21583000D01*
X-18552000Y-21585000D01*
X-18534000Y-21583000D01*
X-16700000Y-21583000D01*
X-16612000Y-21671000D01*
X-16612000Y-25126000D01*
X-12612000Y-25126000D01*
X-12612000Y-21671000D01*
X-12524000Y-21583000D01*
X-10818000Y-21583000D01*
X-10806000Y-21584000D01*
X-10750000Y-21593000D01*
X-10679000Y-21576000D01*
X-10670000Y-21575000D01*
X-10638000Y-21571000D01*
X-10635000Y-21570000D01*
X-10604000Y-21557000D01*
X-10591000Y-21553000D01*
X-10537000Y-21540000D01*
X-10533000Y-21538000D01*
X-10509000Y-21522000D01*
X-10496000Y-21516000D01*
X-10454000Y-21498000D01*
X-10453000Y-21498000D01*
X-10410000Y-21457000D01*
X-10399000Y-21449000D01*
X-10394000Y-21446000D01*
X-309000Y-11360000D01*
X-254000Y-11337000D01*
X1347000Y-11337000D01*
X1402000Y-11360000D01*
X1428000Y-11386000D01*
X1431000Y-11388000D01*
X1535000Y-11449000D01*
X1553000Y-11595000D01*
X-4667000Y-17815000D01*
X-4677000Y-17823000D01*
X-4717000Y-17852000D01*
X-4720000Y-17855000D01*
X-4765000Y-17928000D01*
X-4767000Y-17931000D01*
X-4788000Y-17961000D01*
X-4795000Y-17978000D01*
X-4800000Y-17988000D01*
X-4834000Y-18044000D01*
X-4840000Y-18075000D01*
X-4844000Y-18091000D01*
X-4860000Y-18130000D01*
X-4862000Y-18192000D01*
X-4864000Y-18205000D01*
X-4864000Y-18206000D01*
X-4865000Y-18217000D01*
X-4865000Y-18308000D01*
X-4866000Y-18344000D01*
X-4865000Y-18353000D01*
X-4865000Y-19099000D01*
X-4866000Y-19111000D01*
X-4875000Y-19165000D01*
X-4875000Y-19169000D01*
X-4857000Y-19244000D01*
X-4855000Y-19253000D01*
X-4852000Y-19282000D01*
X-4835000Y-19329000D01*
X-4833000Y-19336000D01*
X-4820000Y-19384000D01*
X-4802000Y-19413000D01*
X-4797000Y-19423000D01*
X-4778000Y-19467000D01*
X-4742000Y-19505000D01*
X-4735000Y-19513000D01*
X-4729000Y-19522000D01*
X1952000Y-26203000D01*
X1960000Y-26212000D01*
X1996000Y-26261000D01*
X2051000Y-26296000D01*
X2059000Y-26301000D01*
X2088000Y-26326000D01*
X2126000Y-26341000D01*
X2137000Y-26347000D01*
X2185000Y-26376000D01*
X2188000Y-26377000D01*
X2230000Y-26385000D01*
X2244000Y-26389000D01*
X2274000Y-26401000D01*
X2326000Y-26404000D01*
X2333000Y-26405000D01*
X2348000Y-26407000D01*
X2361000Y-26408000D01*
X13443000Y-26408000D01*
X13455000Y-26409000D01*
X13511000Y-26418000D01*
X13582000Y-26401000D01*
X13591000Y-26400000D01*
X13623000Y-26396000D01*
X13626000Y-26395000D01*
X13657000Y-26382000D01*
X13670000Y-26378000D01*
X13724000Y-26365000D01*
X13728000Y-26363000D01*
X13752000Y-26347000D01*
X13765000Y-26341000D01*
X13807000Y-26323000D01*
X13808000Y-26323000D01*
X13851000Y-26282000D01*
X13862000Y-26274000D01*
X13867000Y-26271000D01*
X21933000Y-18205000D01*
X21988000Y-18182000D01*
X28510000Y-18182000D01*
X28565000Y-18205000D01*
X28591000Y-18231000D01*
X28778000Y-18338000D01*
X28975000Y-18390000D01*
X29184000Y-18390000D01*
X29388000Y-18336000D01*
X29390000Y-18335000D01*
X29572000Y-18229000D01*
X29719000Y-18082000D01*
X29823000Y-17900000D01*
X29878000Y-17695000D01*
X29878000Y-17490000D01*
X29823000Y-17285000D01*
X29719000Y-17103000D01*
X29718000Y-17102000D01*
X29573000Y-16958000D01*
X29571000Y-16956000D01*
X29392000Y-16849000D01*
X29187000Y-16795000D01*
X28976000Y-16795000D01*
X28770000Y-16850000D01*
X28589000Y-16958000D01*
X28587000Y-16959000D01*
X28565000Y-16981000D01*
X28510000Y-17004000D01*
X21810000Y-17004000D01*
X21733000Y-16819000D01*
X23495000Y-15056000D01*
X23550000Y-15033000D01*
X30814000Y-15034000D01*
X30869000Y-15057000D01*
X33791000Y-17978000D01*
X33798000Y-17986000D01*
X33835000Y-18035000D01*
X33894000Y-18071000D01*
X33900000Y-18076000D01*
X33934000Y-18102000D01*
X33957000Y-18111000D01*
X33967000Y-18116000D01*
X34026000Y-18151000D01*
X34057000Y-18157000D01*
X34072000Y-18161000D01*
X34109000Y-18177000D01*
X34113000Y-18177000D01*
X34172000Y-18179000D01*
X34184000Y-18181000D01*
X34186000Y-18181000D01*
X34196000Y-18182000D01*
X34265000Y-18182000D01*
X34334000Y-18184000D01*
X34352000Y-18182000D01*
X38904000Y-18182000D01*
X38959000Y-18205000D01*
X38985000Y-18231000D01*
X39172000Y-18338000D01*
X39369000Y-18390000D01*
X39581000Y-18390000D01*
X39778000Y-18338000D01*
X39965000Y-18231000D01*
X39966000Y-18230000D01*
X40113000Y-18082000D01*
X40116000Y-18078000D01*
X40216000Y-17903000D01*
X40217000Y-17901000D01*
X40282000Y-17658000D01*
X40543000Y-17692000D01*
X40543000Y-18865000D01*
X40520000Y-18920000D01*
X38736000Y-20705000D01*
X38727000Y-20713000D01*
X38679000Y-20748000D01*
X38644000Y-20806000D01*
X38639000Y-20814000D01*
X38615000Y-20843000D01*
X38601000Y-20875000D01*
X38597000Y-20883000D01*
X38564000Y-20936000D01*
X38556000Y-20976000D01*
X38551000Y-20990000D01*
X38540000Y-21017000D01*
X38539000Y-21022000D01*
X38537000Y-21078000D01*
X38535000Y-21090000D01*
X38533000Y-21101000D01*
X38532000Y-21112000D01*
X38532000Y-21214000D01*
X38531000Y-21246000D01*
X38532000Y-21254000D01*
X38532000Y-29585000D01*
X38509000Y-29640000D01*
X38485000Y-29664000D01*
X38379000Y-29846000D01*
X38377000Y-29851000D01*
X38324000Y-30052000D01*
X38324000Y-30261000D01*
X38376000Y-30459000D01*
X38377000Y-30461000D01*
X38483000Y-30645000D01*
X38484000Y-30646000D01*
X38633000Y-30794000D01*
X38634000Y-30795000D01*
X38807000Y-30896000D01*
X39017000Y-30953000D01*
X39225000Y-30953000D01*
X39432000Y-30896000D01*
X39431000Y-30896000D01*
X39611000Y-30793000D01*
X39759000Y-30645000D01*
X39862000Y-30466000D01*
X39919000Y-30259000D01*
X39919000Y-30051000D01*
X39862000Y-29841000D01*
X39761000Y-29668000D01*
X39733000Y-29640000D01*
X39710000Y-29585000D01*
X39710000Y-21430000D01*
X39733000Y-21375000D01*
X41516000Y-19591000D01*
X41524000Y-19584000D01*
X41574000Y-19546000D01*
X41575000Y-19546000D01*
X41608000Y-19491000D01*
X41612000Y-19484000D01*
X41640000Y-19448000D01*
X41650000Y-19424000D01*
X41655000Y-19414000D01*
X41690000Y-19355000D01*
X41695000Y-19329000D01*
X41699000Y-19313000D01*
X41714000Y-19276000D01*
X41716000Y-19271000D01*
X41718000Y-19209000D01*
X41720000Y-19197000D01*
X41721000Y-19185000D01*
X41721000Y-19111000D01*
X41723000Y-19046000D01*
X41722000Y-19038000D01*
X41721000Y-19029000D01*
X41721000Y-16762000D01*
X41722000Y-16750000D01*
X41731000Y-16697000D01*
X41731000Y-16691000D01*
X41715000Y-16631000D01*
X41714000Y-16623000D01*
X41708000Y-16580000D01*
X41691000Y-16535000D01*
X41688000Y-16526000D01*
X41676000Y-16476000D01*
X41659000Y-16451000D01*
X41651000Y-16436000D01*
X41635000Y-16397000D01*
X41633000Y-16394000D01*
X41603000Y-16362000D01*
X41597000Y-16355000D01*
X41583000Y-16336000D01*
X36592000Y-11346000D01*
X36584000Y-11337000D01*
X36554000Y-11297000D01*
X36550000Y-11293000D01*
X36496000Y-11260000D01*
X36487000Y-11254000D01*
X36457000Y-11230000D01*
X36426000Y-11217000D01*
X36417000Y-11212000D01*
X36364000Y-11180000D01*
X36360000Y-11178000D01*
X36330000Y-11173000D01*
X36314000Y-11168000D01*
X36278000Y-11153000D01*
X36277000Y-11153000D01*
X36216000Y-11151000D01*
X36204000Y-11149000D01*
X36202000Y-11149000D01*
X36192000Y-11148000D01*
X36124000Y-11148000D01*
X36055000Y-11146000D01*
X36037000Y-11148000D01*
X20444000Y-11148000D01*
X20389000Y-11125000D01*
X16615000Y-7352000D01*
X16592000Y-7297000D01*
X16592000Y13828000D01*
X16593000Y13840000D01*
X16602000Y13892000D01*
X16602000Y13897000D01*
X16585000Y13967000D01*
X16584000Y13976000D01*
X16580000Y14008000D01*
X16579000Y14011000D01*
X16566000Y14042000D01*
X16562000Y14055000D01*
X16549000Y14109000D01*
X16547000Y14113000D01*
X16531000Y14137000D01*
X16525000Y14150000D01*
X16507000Y14192000D01*
X16507000Y14193000D01*
X16466000Y14236000D01*
X16458000Y14247000D01*
X16455000Y14252000D01*
X14306000Y16400000D01*
X14283000Y16455000D01*
X14283000Y16492000D01*
X14226000Y16698000D01*
X14123000Y16878000D01*
X13975000Y17026000D01*
X13789000Y17133000D01*
X13591000Y17185000D01*
X13382000Y17185000D01*
X13175000Y17130000D01*
X13059000Y17062000D01*
X12908000Y17148000D01*
X12908000Y17643000D01*
X12909000Y17655000D01*
X12918000Y17710000D01*
X12918000Y17712000D01*
X12901000Y17782000D01*
X12900000Y17791000D01*
X12896000Y17822000D01*
X12895000Y17826000D01*
X12882000Y17857000D01*
X12878000Y17870000D01*
X12865000Y17924000D01*
X12863000Y17928000D01*
X12847000Y17952000D01*
X12841000Y17965000D01*
X12823000Y18007000D01*
X12823000Y18008000D01*
X12782000Y18051000D01*
X12774000Y18062000D01*
X12771000Y18067000D01*
X12270748Y18567000D01*
X15344000Y18567000D01*
X15344000Y18356000D01*
X15401000Y18149000D01*
X15504000Y17972000D01*
X15648000Y17828000D01*
X15650000Y17827000D01*
X15831000Y17719000D01*
X16037000Y17664000D01*
X16073000Y17664000D01*
X16128000Y17641000D01*
X19279000Y14491000D01*
X19302000Y14436000D01*
X19302000Y-4528000D01*
X19279000Y-4583000D01*
X19253000Y-4609000D01*
X19145000Y-4796000D01*
X19145000Y-4798000D01*
X19094000Y-4993000D01*
X19094000Y-5205000D01*
X19146000Y-5402000D01*
X19253000Y-5589000D01*
X19401000Y-5737000D01*
X19588000Y-5844000D01*
X19785000Y-5896000D01*
X19997000Y-5896000D01*
X20194000Y-5844000D01*
X20381000Y-5737000D01*
X20529000Y-5589000D01*
X20632000Y-5410000D01*
X20689000Y-5203000D01*
X20689000Y-4995000D01*
X20632000Y-4789000D01*
X20529000Y-4609000D01*
X20503000Y-4583000D01*
X20480000Y-4528000D01*
X20480000Y14670000D01*
X20481000Y14682000D01*
X20490000Y14734000D01*
X20490000Y14740000D01*
X20473000Y14803000D01*
X20471000Y14813000D01*
X20468000Y14847000D01*
X20466000Y14854000D01*
X20451000Y14896000D01*
X20449000Y14903000D01*
X20436000Y14952000D01*
X20434000Y14958000D01*
X20419000Y14981000D01*
X20414000Y14991000D01*
X20393000Y15038000D01*
X20357000Y15076000D01*
X20350000Y15084000D01*
X20347000Y15089000D01*
X20344000Y15093000D01*
X20239000Y15198000D01*
X16962000Y18474000D01*
X16939000Y18529000D01*
X16939000Y18563000D01*
X16884000Y18769000D01*
X16780000Y18951000D01*
X16633000Y19098000D01*
X16451000Y19204000D01*
X16449000Y19205000D01*
X16245000Y19259000D01*
X16036000Y19259000D01*
X15839000Y19207000D01*
X15652000Y19100000D01*
X15651000Y19099000D01*
X15503000Y18950000D01*
X15401000Y18772000D01*
X15344000Y18567000D01*
X12270748Y18567000D01*
X11424322Y19413000D01*
X18027000Y19413000D01*
X18027000Y19199000D01*
X18079000Y19004000D01*
X18187000Y18816000D01*
X18335000Y18669000D01*
X18515000Y18565000D01*
X18516000Y18564000D01*
X18721000Y18510000D01*
X18756000Y18510000D01*
X18811000Y18487000D01*
X28469000Y8830000D01*
X28492000Y8775000D01*
X28492000Y-5783000D01*
X28469000Y-5838000D01*
X28442000Y-5865000D01*
X28340000Y-6043000D01*
X28283000Y-6248000D01*
X28283000Y-6459000D01*
X28340000Y-6664000D01*
X28442000Y-6842000D01*
X28590000Y-6991000D01*
X28591000Y-6992000D01*
X28778000Y-7099000D01*
X28975000Y-7151000D01*
X29184000Y-7151000D01*
X29388000Y-7097000D01*
X29390000Y-7096000D01*
X29572000Y-6990000D01*
X29719000Y-6843000D01*
X29823000Y-6661000D01*
X29878000Y-6456000D01*
X29878000Y-6251000D01*
X29823000Y-6046000D01*
X29719000Y-5864000D01*
X29693000Y-5838000D01*
X29670000Y-5783000D01*
X29670000Y9009000D01*
X29671000Y9021000D01*
X29680000Y9076000D01*
X29680000Y9078000D01*
X29663000Y9148000D01*
X29662000Y9157000D01*
X29658000Y9189000D01*
X29657000Y9192000D01*
X29644000Y9223000D01*
X29640000Y9236000D01*
X29627000Y9290000D01*
X29625000Y9294000D01*
X29609000Y9318000D01*
X29603000Y9331000D01*
X29585000Y9373000D01*
X29585000Y9374000D01*
X29544000Y9417000D01*
X29536000Y9428000D01*
X29533000Y9433000D01*
X19645000Y19320000D01*
X19622000Y19375000D01*
X19622000Y19404000D01*
X45367000Y19404000D01*
X45367000Y19052000D01*
X45460000Y18709000D01*
X45635000Y18404000D01*
X45884000Y18155000D01*
X46075000Y18045000D01*
X46075000Y17871000D01*
X45884000Y17761000D01*
X45635000Y17512000D01*
X45460000Y17207000D01*
X45458000Y17202000D01*
X45367000Y16864000D01*
X45367000Y16512000D01*
X45460000Y16169000D01*
X45635000Y15864000D01*
X45884000Y15615000D01*
X46075000Y15505000D01*
X46075000Y15331000D01*
X45884000Y15221000D01*
X45635000Y14972000D01*
X45460000Y14667000D01*
X45458000Y14662000D01*
X45367000Y14324000D01*
X45367000Y13972000D01*
X45460000Y13629000D01*
X45635000Y13324000D01*
X45884000Y13075000D01*
X46190000Y12898000D01*
X46534000Y12805000D01*
X46886000Y12805000D01*
X47232000Y12898000D01*
X47231000Y12898000D01*
X47533000Y13073000D01*
X47785000Y13325000D01*
X47960000Y13627000D01*
X48053000Y13972000D01*
X48053000Y14324000D01*
X47960000Y14669000D01*
X47785000Y14971000D01*
X47533000Y15223000D01*
X47346000Y15332000D01*
X47346000Y15504000D01*
X47533000Y15613000D01*
X47785000Y15865000D01*
X47960000Y16167000D01*
X48053000Y16512000D01*
X48053000Y16864000D01*
X47960000Y17209000D01*
X47785000Y17511000D01*
X47533000Y17763000D01*
X47346000Y17872000D01*
X47346000Y18044000D01*
X47533000Y18153000D01*
X47785000Y18405000D01*
X47960000Y18707000D01*
X48053000Y19052000D01*
X48053000Y19404000D01*
X47960000Y19749000D01*
X47786000Y20049000D01*
X47784000Y20052000D01*
X47533000Y20303000D01*
X47231000Y20478000D01*
X46886000Y20571000D01*
X46534000Y20571000D01*
X46190000Y20478000D01*
X45884000Y20301000D01*
X45635000Y20052000D01*
X45633000Y20049000D01*
X45459000Y19745000D01*
X45367000Y19404000D01*
X19622000Y19404000D01*
X19622000Y19411000D01*
X19565000Y19617000D01*
X19464000Y19794000D01*
X19463000Y19796000D01*
X19314000Y19945000D01*
X19128000Y20052000D01*
X18930000Y20104000D01*
X18721000Y20104000D01*
X18516000Y20050000D01*
X18335000Y19945000D01*
X18187000Y19797000D01*
X18078000Y19610000D01*
X18078000Y19608000D01*
X18027000Y19413000D01*
X11424322Y19413000D01*
X10785000Y20052000D01*
X10762000Y20107000D01*
X10762000Y20142000D01*
X10707000Y20347000D01*
X10603000Y20529000D01*
X10454000Y20678000D01*
X10272000Y20782000D01*
X10273000Y20782000D01*
X10067000Y20837000D01*
X9862000Y20837000D01*
X9657000Y20782000D01*
X9472000Y20676000D01*
X9329000Y20530000D01*
X9329000Y20529000D01*
X9221000Y20349000D01*
X9167000Y20143000D01*
X9167000Y19935000D01*
X9180000Y19828000D01*
X8988000Y19734000D01*
X7803000Y20919000D01*
X7780000Y20974000D01*
X7780000Y21011000D01*
X7723000Y21217000D01*
X7620000Y21397000D01*
X7472000Y21545000D01*
X7292000Y21648000D01*
X7293000Y21648000D01*
X7086000Y21705000D01*
X6878000Y21705000D01*
X6668000Y21648000D01*
X6494000Y21546000D01*
X6345000Y21398000D01*
X6344000Y21397000D01*
X6236000Y21210000D01*
X6236000Y21208000D01*
X6185000Y21013000D01*
X6185000Y20804000D01*
X6238000Y20603000D01*
X6240000Y20598000D01*
X6347000Y20415000D01*
X6491000Y20271000D01*
X6673000Y20165000D01*
X6675000Y20164000D01*
X6879000Y20110000D01*
X6913000Y20110000D01*
X6968000Y20087000D01*
X10398000Y16658000D01*
X10421000Y16603000D01*
X10421000Y15757000D01*
X10304000Y15667000D01*
X10067000Y15730000D01*
X9859000Y15730000D01*
X9662000Y15678000D01*
X9475000Y15571000D01*
X9326000Y15422000D01*
X9224000Y15243000D01*
X9167000Y15037000D01*
X9167000Y14829000D01*
X9224000Y14623000D01*
X9327000Y14443000D01*
X9353000Y14417000D01*
X9376000Y14362000D01*
X9376000Y-5783000D01*
X9353000Y-5838000D01*
X9326000Y-5865000D01*
X9224000Y-6043000D01*
X9167000Y-6248000D01*
X9167000Y-6459000D01*
X9224000Y-6664000D01*
X9326000Y-6842000D01*
X9474000Y-6991000D01*
X9475000Y-6992000D01*
X9661000Y-7099000D01*
X9918000Y-7166000D01*
X9964000Y-7334000D01*
X7443000Y-9855000D01*
X7435000Y-9862000D01*
X7386000Y-9899000D01*
X7352000Y-9954000D01*
X7348000Y-9961000D01*
X7320000Y-9997000D01*
X7310000Y-10021000D01*
X7305000Y-10031000D01*
X7270000Y-10090000D01*
X7264000Y-10121000D01*
X7260000Y-10136000D01*
X7244000Y-10175000D01*
X7244000Y-10177000D01*
X7242000Y-10236000D01*
X7240000Y-10248000D01*
X7240000Y-10250000D01*
X7239000Y-10260000D01*
X7239000Y-10342000D01*
X7237000Y-10395000D01*
X7239000Y-10408000D01*
X7239000Y-16634000D01*
X7238000Y-16646000D01*
X7230000Y-16693000D01*
X7231000Y-16700000D01*
X7245000Y-16758000D01*
X7246000Y-16766000D01*
X7251000Y-16804000D01*
X7254000Y-16814000D01*
X7270000Y-16856000D01*
X7272000Y-16863000D01*
X7283000Y-16905000D01*
X7287000Y-16913000D01*
X7301000Y-16932000D01*
X7309000Y-16948000D01*
X7325000Y-16990000D01*
X7362000Y-17031000D01*
X7366000Y-17035000D01*
X7373000Y-17043000D01*
X7373000Y-17044000D01*
X7379000Y-17051000D01*
X7461000Y-17132000D01*
X7463000Y-17135000D01*
X7475000Y-17148000D01*
X7479000Y-17151000D01*
X9353000Y-19024000D01*
X9376000Y-19079000D01*
X9376000Y-19870000D01*
X9375000Y-19920000D01*
X9376000Y-19923000D01*
X9385000Y-19951000D01*
X9389000Y-19969000D01*
X9390000Y-19978000D01*
X9409000Y-20025000D01*
X9411000Y-20032000D01*
X9440000Y-20125000D01*
X9448000Y-20134000D01*
X9463000Y-20161000D01*
X9463000Y-20162000D01*
X9514000Y-20215000D01*
X9517000Y-20218000D01*
X9588000Y-20302000D01*
X9803000Y-20415000D01*
X9898000Y-20420000D01*
X9906000Y-20421000D01*
X9989000Y-20435000D01*
X10000000Y-20432000D01*
X10014000Y-20429000D01*
X10031000Y-20428000D01*
X10112000Y-20404000D01*
X10115000Y-20404000D01*
X10204000Y-20381000D01*
X10216000Y-20376000D01*
X10221000Y-20374000D01*
X10228000Y-20372000D01*
X10314000Y-20309000D01*
X10316000Y-20307000D01*
X10348000Y-20286000D01*
X10356000Y-20279000D01*
X10405000Y-20243000D01*
X10407000Y-20241000D01*
X10425000Y-20211000D01*
X10436000Y-20196000D01*
X12429000Y-18205000D01*
X12484000Y-18182000D01*
X19364000Y-18182000D01*
X19441000Y-18367000D01*
X16996000Y-20813000D01*
X16941000Y-20836000D01*
X2367000Y-20836000D01*
X2312000Y-20813000D01*
X-464000Y-18038000D01*
X-487000Y-17983000D01*
X-487000Y-15930000D01*
X-464000Y-15875000D01*
X4656000Y-10754000D01*
X4665000Y-10746000D01*
X4718000Y-10707000D01*
X4755000Y-10644000D01*
X4762000Y-10634000D01*
X4781000Y-10610000D01*
X4789000Y-10591000D01*
X4794000Y-10580000D01*
X4833000Y-10517000D01*
X4840000Y-10479000D01*
X4845000Y-10462000D01*
X4857000Y-10435000D01*
X4859000Y-10378000D01*
X4861000Y-10366000D01*
X4863000Y-10357000D01*
X4864000Y-10344000D01*
X4864000Y-10256000D01*
X4865000Y-10209000D01*
X4864000Y-10202000D01*
X4864000Y-7873000D01*
X4865000Y-7862000D01*
X4873000Y-7813000D01*
X4872000Y-7810000D01*
X4858000Y-7748000D01*
X4857000Y-7740000D01*
X4852000Y-7702000D01*
X4852000Y-7699000D01*
X4836000Y-7661000D01*
X4833000Y-7652000D01*
X4820000Y-7600000D01*
X4818000Y-7596000D01*
X4802000Y-7574000D01*
X4794000Y-7558000D01*
X4779000Y-7517000D01*
X4741000Y-7475000D01*
X4737000Y-7471000D01*
X4730000Y-7463000D01*
X4730000Y-7462000D01*
X4726000Y-7457000D01*
X4623000Y-7354000D01*
X-1264000Y-1468000D01*
X-1287000Y-1413000D01*
X-1287000Y5728000D01*
X-1264000Y5783000D01*
X-518000Y6530000D01*
X-463000Y6553000D01*
X-428000Y6553000D01*
X-222000Y6608000D01*
X-223000Y6608000D01*
X-41000Y6712000D01*
X108000Y6861000D01*
X212000Y7043000D01*
X267000Y7248000D01*
X267000Y7453000D01*
X213000Y7655000D01*
X213000Y7656000D01*
X107000Y7842000D01*
X-39000Y7985000D01*
X-41000Y7986000D01*
X-221000Y8094000D01*
X-426000Y8148000D01*
X-635000Y8148000D01*
X-840000Y8094000D01*
X-1018000Y7988000D01*
X-1024000Y7984000D01*
X-1166000Y7842000D01*
X-1170000Y7836000D01*
X-1274000Y7660000D01*
X-1328000Y7455000D01*
X-1328000Y7419000D01*
X-1351000Y7364000D01*
X-2261000Y6453000D01*
X-2269000Y6446000D01*
X-2318000Y6409000D01*
X-2352000Y6354000D01*
X-2356000Y6347000D01*
X-2384000Y6311000D01*
X-2394000Y6287000D01*
X-2399000Y6277000D01*
X-2434000Y6218000D01*
X-2440000Y6187000D01*
X-2444000Y6172000D01*
X-2460000Y6135000D01*
X-2460000Y6131000D01*
X-2462000Y6072000D01*
X-2464000Y6060000D01*
X-2464000Y6058000D01*
X-2465000Y6048000D01*
X-2465000Y5974000D01*
X-2467000Y5909000D01*
X-2466000Y5901000D01*
X-2465000Y5892000D01*
X-2465000Y-1647000D01*
X-2466000Y-1659000D01*
X-2475000Y-1714000D01*
X-2475000Y-1716000D01*
X-2458000Y-1786000D01*
X-2457000Y-1795000D01*
X-2453000Y-1827000D01*
X-2452000Y-1830000D01*
X-2439000Y-1861000D01*
X-2435000Y-1874000D01*
X-2422000Y-1928000D01*
X-2420000Y-1932000D01*
X-2404000Y-1956000D01*
X-2398000Y-1969000D01*
X-2380000Y-2011000D01*
X-2380000Y-2012000D01*
X-2339000Y-2055000D01*
X-2331000Y-2066000D01*
X-2328000Y-2071000D01*
X-2137000Y-2261000D01*
X-2183000Y-2429000D01*
X-2469000Y-2504000D01*
X-2655000Y-2611000D01*
X-2803000Y-2759000D01*
X-2906000Y-2939000D01*
X-2963000Y-3145000D01*
X-2963000Y-3181000D01*
X-2986000Y-3236000D01*
X-12276000Y-12527000D01*
X-12284000Y-12534000D01*
X-12333000Y-12571000D01*
X-12367000Y-12626000D01*
X-12371000Y-12633000D01*
X-12399000Y-12669000D01*
X-12409000Y-12693000D01*
X-12414000Y-12703000D01*
X-12449000Y-12762000D01*
X-12455000Y-12793000D01*
X-12459000Y-12808000D01*
X-12475000Y-12846000D01*
X-12475000Y-12849000D01*
X-12477000Y-12908000D01*
X-12479000Y-12920000D01*
X-12479000Y-12922000D01*
X-12480000Y-12932000D01*
X-12480000Y-13006000D01*
X-12482000Y-13071000D01*
X-12481000Y-13079000D01*
X-12480000Y-13088000D01*
X-12480000Y-16096000D01*
X-12503000Y-16151000D01*
X-12529000Y-16177000D01*
X-12534000Y-16184000D01*
X-12612000Y-16322000D01*
X-12785000Y-16322000D01*
X-12869000Y-16178000D01*
X-12895000Y-16152000D01*
X-12918000Y-16097000D01*
X-12918000Y-2957000D01*
X-12895000Y-2902000D01*
X-3464000Y6530000D01*
X-3409000Y6553000D01*
X-3370000Y6553000D01*
X-3173000Y6605000D01*
X-2986000Y6712000D01*
X-2985000Y6713000D01*
X-2837000Y6862000D01*
X-2835000Y6865000D01*
X-2735000Y7040000D01*
X-2734000Y7042000D01*
X-2679000Y7248000D01*
X-2679000Y7453000D01*
X-2733000Y7655000D01*
X-2733000Y7656000D01*
X-2838000Y7840000D01*
X-2983000Y7985000D01*
X-3165000Y8093000D01*
X-3166000Y8093000D01*
X-3371000Y8148000D01*
X-3580000Y8148000D01*
X-3623000Y8135000D01*
X-3703000Y8156000D01*
X-3786000Y8239000D01*
X-3966000Y8342000D01*
X-3965000Y8342000D01*
X-4172000Y8399000D01*
X-4380000Y8399000D01*
X-4586000Y8342000D01*
X-4766000Y8239000D01*
X-4915000Y8090000D01*
X-5021000Y7904000D01*
X-5073000Y7707000D01*
X-5073000Y7670000D01*
X-5096000Y7615000D01*
X-5761000Y6949000D01*
X-5816000Y6926000D01*
X-7434000Y6926000D01*
X-7446000Y6927000D01*
X-7501000Y6936000D01*
X-7503000Y6936000D01*
X-7573000Y6919000D01*
X-7582000Y6918000D01*
X-7614000Y6914000D01*
X-7617000Y6913000D01*
X-7648000Y6900000D01*
X-7661000Y6896000D01*
X-7715000Y6883000D01*
X-7719000Y6881000D01*
X-7743000Y6865000D01*
X-7756000Y6859000D01*
X-7798000Y6841000D01*
X-7842000Y6800000D01*
X-7853000Y6792000D01*
X-7858000Y6789000D01*
X-20312000Y-5666000D01*
X-20321000Y-5674000D01*
X-20374000Y-5713000D01*
X-20411000Y-5776000D01*
X-20418000Y-5786000D01*
X-20437000Y-5810000D01*
X-20445000Y-5829000D01*
X-20450000Y-5840000D01*
X-20489000Y-5903000D01*
X-20496000Y-5941000D01*
X-20501000Y-5958000D01*
X-20513000Y-5985000D01*
X-20515000Y-6042000D01*
X-20517000Y-6054000D01*
X-20519000Y-6065000D01*
X-20520000Y-6076000D01*
X-20520000Y-6179000D01*
X-20521000Y-6211000D01*
X-20520000Y-6219000D01*
X-20520000Y-13451000D01*
X-20521000Y-13462000D01*
X-20529000Y-13511000D01*
X-20528000Y-13514000D01*
X-20514000Y-13576000D01*
X-20513000Y-13584000D01*
X-20508000Y-13622000D01*
X-20505000Y-13632000D01*
X-20488000Y-13676000D01*
X-20486000Y-13684000D01*
X-20476000Y-13722000D01*
X-20474000Y-13728000D01*
X-20458000Y-13750000D01*
X-20450000Y-13766000D01*
X-20434000Y-13808000D01*
X-20434000Y-13809000D01*
X-20392000Y-13853000D01*
X-20385000Y-13863000D01*
X-20380000Y-13869000D01*
X-20305000Y-13944000D01*
X-20286000Y-13964000D01*
X-20279000Y-13970000D01*
X-15060000Y-19188000D01*
X-15053000Y-19196000D01*
X-15016000Y-19245000D01*
X-14957000Y-19281000D01*
X-14951000Y-19286000D01*
X-14917000Y-19312000D01*
X-14894000Y-19321000D01*
X-14884000Y-19326000D01*
X-14825000Y-19361000D01*
X-14794000Y-19367000D01*
X-14779000Y-19371000D01*
X-14742000Y-19387000D01*
X-14738000Y-19387000D01*
X-14679000Y-19389000D01*
X-14667000Y-19391000D01*
X-14665000Y-19391000D01*
X-14655000Y-19392000D01*
X-14586000Y-19392000D01*
X-14517000Y-19394000D01*
X-14499000Y-19392000D01*
X-10824000Y-19392000D01*
X-10812000Y-19393000D01*
X-10750000Y-19403000D01*
X-10677000Y-19384000D01*
X-10666000Y-19382000D01*
X-10636000Y-19379000D01*
X-10600000Y-19365000D01*
X-10591000Y-19363000D01*
X-10536000Y-19349000D01*
X-10506000Y-19329000D01*
X-10491000Y-19321000D01*
X-10450000Y-19305000D01*
X-10417000Y-19273000D01*
X-10408000Y-19266000D01*
X-10397000Y-19259000D01*
X-10395000Y-19257000D01*
X-1021000Y-9882000D01*
X-966000Y-9859000D01*
X-483000Y-9859000D01*
X-451000Y-10124000D01*
X-627000Y-10166000D01*
X-636000Y-10167000D01*
X-668000Y-10171000D01*
X-671000Y-10172000D01*
X-702000Y-10185000D01*
X-715000Y-10189000D01*
X-769000Y-10202000D01*
X-773000Y-10204000D01*
X-797000Y-10220000D01*
X-810000Y-10226000D01*
X-852000Y-10244000D01*
X-854000Y-10245000D01*
X-896000Y-10285000D01*
X-907000Y-10293000D01*
X-912000Y-10296000D01*
X-10997000Y-20382000D01*
X-11052000Y-20405000D01*
X-18370000Y-20405000D01*
X-18425000Y-20382000D01*
X-22361000Y-16447000D01*
X-22384000Y-16392000D01*
X-22384000Y1331000D01*
X-22361000Y1386000D01*
X-21098000Y2650000D01*
X-21043000Y2673000D01*
X-15367000Y2673000D01*
X-15354000Y2672000D01*
X-15305000Y2664000D01*
X-15245000Y2680000D01*
X-15234000Y2682000D01*
X-15193000Y2686000D01*
X-15187000Y2687000D01*
X-15153000Y2701000D01*
X-15144000Y2704000D01*
X-15093000Y2717000D01*
X-15068000Y2734000D01*
X-15054000Y2742000D01*
X-15010000Y2759000D01*
X-14966000Y2799000D01*
X-14955000Y2808000D01*
X-14950000Y2811000D01*
X-9063000Y8699000D01*
X-9008000Y8722000D01*
X-8970000Y8722000D01*
X-8773000Y8774000D01*
X-8586000Y8881000D01*
X-8438000Y9029000D01*
X-8331000Y9216000D01*
X-8279000Y9413000D01*
X-8279000Y9625000D01*
X-8331000Y9822000D01*
X-8438000Y10009000D01*
X-8586000Y10157000D01*
X-8773000Y10264000D01*
X-8970000Y10316000D01*
X-9182000Y10316000D01*
X-9379000Y10264000D01*
X-9566000Y10157000D01*
X-9714000Y10009000D01*
X-9821000Y9822000D01*
X-9873000Y9625000D01*
X-9873000Y9588000D01*
X-9896000Y9533000D01*
X-15554000Y3874000D01*
X-15609000Y3851000D01*
X-21277000Y3851000D01*
X-21289000Y3852000D01*
X-21344000Y3861000D01*
X-21346000Y3861000D01*
X-21416000Y3844000D01*
X-21425000Y3843000D01*
X-21457000Y3839000D01*
X-21460000Y3838000D01*
X-21491000Y3825000D01*
X-21504000Y3821000D01*
X-21558000Y3808000D01*
X-21562000Y3806000D01*
X-21586000Y3790000D01*
X-21599000Y3784000D01*
X-21641000Y3766000D01*
X-21643000Y3765000D01*
X-21685000Y3725000D01*
X-21696000Y3717000D01*
X-21701000Y3714000D01*
X-23361000Y2053000D01*
X-23371000Y2044000D01*
X-23415000Y2013000D01*
X-23449000Y1957000D01*
X-23453000Y1950000D01*
X-23481000Y1914000D01*
X-23491000Y1890000D01*
X-23496000Y1880000D01*
X-23531000Y1821000D01*
X-23537000Y1790000D01*
X-23541000Y1775000D01*
X-23557000Y1737000D01*
X-23557000Y1734000D01*
X-23559000Y1675000D01*
X-23561000Y1663000D01*
X-23561000Y1661000D01*
X-23562000Y1651000D01*
X-23562000Y1563000D01*
X-23564000Y1515000D01*
X-23562000Y1503000D01*
X-23562000Y-16627000D01*
X-23563000Y-16640000D01*
X-23572000Y-16693000D01*
X-49750000Y-16693000D01*
X-49750000Y3473000D01*
X-44172000Y3473000D01*
X-44172000Y3472000D01*
X-44153000Y3401000D01*
X-44151000Y3390000D01*
X-44148000Y3359000D01*
X-44147000Y3354000D01*
X-44137000Y3327000D01*
X-44134000Y3318000D01*
X-44118000Y3258000D01*
X-44117000Y3256000D01*
X-44097000Y3227000D01*
X-44090000Y3213000D01*
X-44074000Y3173000D01*
X-44041000Y3137000D01*
X-44033000Y3129000D01*
X-44025000Y3117000D01*
X-43020000Y2113000D01*
X-43012000Y2103000D01*
X-42978000Y2056000D01*
X-42976000Y2054000D01*
X-42909000Y2014000D01*
X-42902000Y2009000D01*
X-42878000Y1990000D01*
X-42854000Y1980000D01*
X-42845000Y1975000D01*
X-42787000Y1940000D01*
X-42784000Y1938000D01*
X-42747000Y1932000D01*
X-42731000Y1927000D01*
X-42699000Y1913000D01*
X-42638000Y1911000D01*
X-42626000Y1909000D01*
X-42625000Y1909000D01*
X-42614000Y1908000D01*
X-42545000Y1908000D01*
X-42476000Y1906000D01*
X-42458000Y1908000D01*
X-41829000Y1908000D01*
X-41774000Y1885000D01*
X-41748000Y1859000D01*
X-41568000Y1756000D01*
X-41362000Y1699000D01*
X-41154000Y1699000D01*
X-40944000Y1756000D01*
X-40773000Y1856000D01*
X-40770000Y1858000D01*
X-40623000Y2004000D01*
X-40620000Y2007000D01*
X-40513000Y2194000D01*
X-40461000Y2391000D01*
X-40461000Y2603000D01*
X-38987000Y2603000D01*
X-38987000Y2391000D01*
X-38935000Y2194000D01*
X-38828000Y2007000D01*
X-38802000Y1981000D01*
X-38779000Y1926000D01*
X-38779000Y1639000D01*
X-38780000Y1627000D01*
X-38789000Y1573000D01*
X-38789000Y1572000D01*
X-38772000Y1503000D01*
X-38771000Y1495000D01*
X-38767000Y1464000D01*
X-38764000Y1454000D01*
X-38749000Y1416000D01*
X-38746000Y1407000D01*
X-38734000Y1356000D01*
X-38726000Y1345000D01*
X-38713000Y1302000D01*
X-38713000Y1221000D01*
X-38655000Y1010000D01*
X-38555000Y838000D01*
X-38554000Y837000D01*
X-38406000Y688000D01*
X-38405000Y687000D01*
X-38218000Y580000D01*
X-38021000Y528000D01*
X-37812000Y528000D01*
X-37608000Y582000D01*
X-37606000Y583000D01*
X-37424000Y689000D01*
X-37279000Y834000D01*
X-37173000Y1016000D01*
X-37171000Y1021000D01*
X-37118000Y1222000D01*
X-37118000Y1431000D01*
X-37169000Y1627000D01*
X-37277000Y1815000D01*
X-37278000Y1816000D01*
X-37426000Y1963000D01*
X-37474000Y2004000D01*
X-37492000Y2111000D01*
X-37446000Y2190000D01*
X-37445000Y2193000D01*
X-37393000Y2391000D01*
X-37393000Y2603000D01*
X-37444000Y2799000D01*
X-37552000Y2987000D01*
X-37700000Y3135000D01*
X-37887000Y3242000D01*
X-38084000Y3294000D01*
X-38296000Y3294000D01*
X-38493000Y3242000D01*
X-38680000Y3135000D01*
X-38828000Y2987000D01*
X-38936000Y2799000D01*
X-38987000Y2603000D01*
X-40461000Y2603000D01*
X-40512000Y2799000D01*
X-40620000Y2987000D01*
X-40621000Y2988000D01*
X-40769000Y3135000D01*
X-40979000Y3256000D01*
X-40979000Y3430000D01*
X-40725000Y3577000D01*
X-40655000Y3648000D01*
X-40627000Y3667000D01*
X-40619000Y3670000D01*
X-40596000Y3685000D01*
X-40583000Y3691000D01*
X-40541000Y3709000D01*
X-40497000Y3750000D01*
X-40486000Y3758000D01*
X-40481000Y3761000D01*
X-38518000Y5725000D01*
X-38463000Y5748000D01*
X-35048000Y5748000D01*
X-34960000Y5660000D01*
X-34960000Y-1919000D01*
X-34961000Y-1931000D01*
X-34970000Y-1986000D01*
X-34970000Y-1989000D01*
X-34953000Y-2054000D01*
X-34950000Y-2065000D01*
X-34947000Y-2095000D01*
X-34944000Y-2106000D01*
X-34933000Y-2134000D01*
X-34930000Y-2142000D01*
X-34916000Y-2196000D01*
X-34913000Y-2202000D01*
X-34895000Y-2231000D01*
X-34889000Y-2243000D01*
X-34874000Y-2281000D01*
X-34839000Y-2318000D01*
X-34832000Y-2328000D01*
X-34828000Y-2334000D01*
X-34825000Y-2338000D01*
X-34494000Y-2667000D01*
X-34486000Y-2677000D01*
X-34452000Y-2724000D01*
X-34448000Y-2727000D01*
X-34387000Y-2764000D01*
X-34380000Y-2769000D01*
X-34352000Y-2790000D01*
X-34328000Y-2800000D01*
X-34319000Y-2805000D01*
X-34261000Y-2840000D01*
X-34258000Y-2842000D01*
X-34221000Y-2848000D01*
X-34205000Y-2853000D01*
X-34173000Y-2867000D01*
X-34112000Y-2869000D01*
X-34100000Y-2871000D01*
X-34099000Y-2871000D01*
X-34088000Y-2872000D01*
X-34019000Y-2872000D01*
X-33950000Y-2874000D01*
X-33932000Y-2872000D01*
X-33315000Y-2872000D01*
X-33303000Y-2873000D01*
X-33247000Y-2882000D01*
X-33176000Y-2865000D01*
X-33167000Y-2864000D01*
X-33135000Y-2860000D01*
X-33132000Y-2859000D01*
X-33101000Y-2846000D01*
X-33088000Y-2842000D01*
X-33034000Y-2829000D01*
X-33030000Y-2827000D01*
X-33006000Y-2811000D01*
X-32993000Y-2805000D01*
X-32951000Y-2787000D01*
X-32909000Y-2747000D01*
X-32897000Y-2738000D01*
X-32892000Y-2735000D01*
X-32817000Y-2660000D01*
X-32794000Y-2638000D01*
X-32788000Y-2631000D01*
X-31472000Y-1316000D01*
X-31463000Y-1308000D01*
X-31423000Y-1278000D01*
X-31419000Y-1274000D01*
X-31386000Y-1220000D01*
X-31380000Y-1211000D01*
X-31356000Y-1181000D01*
X-31343000Y-1150000D01*
X-31338000Y-1141000D01*
X-31306000Y-1088000D01*
X-31304000Y-1084000D01*
X-31299000Y-1054000D01*
X-31294000Y-1038000D01*
X-31279000Y-1002000D01*
X-31279000Y-1001000D01*
X-31277000Y-940000D01*
X-31275000Y-928000D01*
X-31274000Y-916000D01*
X-31274000Y-843000D01*
X-31272000Y-778000D01*
X-31273000Y-770000D01*
X-31274000Y-761000D01*
X-31274000Y722000D01*
X-31186000Y810000D01*
X-30929000Y810000D01*
X-30722000Y867000D01*
X-30545000Y970000D01*
X-30519000Y996000D01*
X-30464000Y1019000D01*
X-25906000Y1019000D01*
X-25894000Y1018000D01*
X-25839000Y1009000D01*
X-25767000Y1026000D01*
X-25759000Y1027000D01*
X-25728000Y1031000D01*
X-25723000Y1033000D01*
X-25684000Y1048000D01*
X-25675000Y1050000D01*
X-25622000Y1064000D01*
X-25596000Y1081000D01*
X-25581000Y1089000D01*
X-25542000Y1105000D01*
X-25539000Y1107000D01*
X-25505000Y1139000D01*
X-25496000Y1146000D01*
X-25485000Y1153000D01*
X-25483000Y1155000D01*
X-6663000Y19976000D01*
X-6608000Y19999000D01*
X-6570000Y19999000D01*
X-6373000Y20051000D01*
X-6188000Y20157000D01*
X-6185000Y20159000D01*
X-6038000Y20307000D01*
X-6035000Y20311000D01*
X-5936000Y20484000D01*
X-5934000Y20488000D01*
X-5873000Y20718000D01*
X-5705000Y20763000D01*
X-4596000Y19655000D01*
X-4589000Y19647000D01*
X-4552000Y19598000D01*
X-4493000Y19562000D01*
X-4487000Y19557000D01*
X-4453000Y19531000D01*
X-4430000Y19522000D01*
X-4420000Y19517000D01*
X-4361000Y19482000D01*
X-4330000Y19476000D01*
X-4315000Y19472000D01*
X-4278000Y19456000D01*
X-4274000Y19456000D01*
X-4215000Y19454000D01*
X-4203000Y19452000D01*
X-4201000Y19452000D01*
X-4191000Y19451000D01*
X-4122000Y19451000D01*
X-4053000Y19449000D01*
X-4035000Y19451000D01*
X1870000Y19451000D01*
X1882000Y19450000D01*
X1943000Y19440000D01*
X1944000Y19440000D01*
X1999000Y19453000D01*
X2012000Y19455000D01*
X2053000Y19458000D01*
X2055000Y19459000D01*
X2098000Y19477000D01*
X2109000Y19481000D01*
X2156000Y19493000D01*
X2161000Y19495000D01*
X2195000Y19518000D01*
X2208000Y19525000D01*
X2236000Y19537000D01*
X2243000Y19542000D01*
X2271000Y19567000D01*
X2280000Y19574000D01*
X2300000Y19587000D01*
X2362000Y19649000D01*
X2394000Y19679000D01*
X2396000Y19681000D01*
X2406000Y19693000D01*
X4543676Y21831000D01*
X46214000Y21831000D01*
X46214000Y21704000D01*
X46249000Y21576000D01*
X46314000Y21463000D01*
X46314000Y21462000D01*
X46403000Y21372000D01*
X46517000Y21307000D01*
X46648000Y21272000D01*
X46773000Y21272000D01*
X46903000Y21307000D01*
X46902000Y21307000D01*
X47016000Y21372000D01*
X47015000Y21372000D01*
X47106000Y21463000D01*
X47109000Y21467000D01*
X47171000Y21574000D01*
X47206000Y21704000D01*
X47206000Y21831000D01*
X47171000Y21962000D01*
X47109000Y22069000D01*
X47106000Y22073000D01*
X47015000Y22164000D01*
X47016000Y22164000D01*
X46902000Y22229000D01*
X46903000Y22229000D01*
X46773000Y22264000D01*
X46648000Y22264000D01*
X46517000Y22229000D01*
X46403000Y22164000D01*
X46314000Y22074000D01*
X46314000Y22073000D01*
X46249000Y21960000D01*
X46214000Y21831000D01*
X4543676Y21831000D01*
X8795032Y26083000D01*
X11522000Y26083000D01*
X11522000Y25872000D01*
X11579000Y25667000D01*
X11681000Y25489000D01*
X11829000Y25340000D01*
X11830000Y25339000D01*
X12017000Y25232000D01*
X12214000Y25180000D01*
X12251000Y25180000D01*
X12314000Y25148000D01*
X12348000Y25102000D01*
X12407000Y25067000D01*
X12413000Y25062000D01*
X12447000Y25036000D01*
X12470000Y25027000D01*
X12480000Y25022000D01*
X12539000Y24987000D01*
X12570000Y24981000D01*
X12585000Y24977000D01*
X12622000Y24961000D01*
X12626000Y24961000D01*
X12685000Y24959000D01*
X12697000Y24957000D01*
X12699000Y24957000D01*
X12709000Y24956000D01*
X12778000Y24956000D01*
X12847000Y24954000D01*
X12865000Y24956000D01*
X40596000Y24956000D01*
X40608000Y24955000D01*
X40664000Y24946000D01*
X40735000Y24963000D01*
X40744000Y24964000D01*
X40776000Y24968000D01*
X40779000Y24969000D01*
X40810000Y24982000D01*
X40823000Y24986000D01*
X40877000Y24999000D01*
X40881000Y25001000D01*
X40905000Y25017000D01*
X40918000Y25023000D01*
X40960000Y25041000D01*
X40961000Y25041000D01*
X41004000Y25082000D01*
X41015000Y25090000D01*
X41020000Y25093000D01*
X42261000Y26335000D01*
X42316000Y26358000D01*
X43722000Y26358000D01*
X43731000Y26357000D01*
X43789000Y26350000D01*
X43794000Y26350000D01*
X43855000Y26365000D01*
X43863000Y26366000D01*
X43897000Y26371000D01*
X43927000Y26383000D01*
X43938000Y26386000D01*
X43990000Y26399000D01*
X43994000Y26401000D01*
X44022000Y26420000D01*
X44036000Y26427000D01*
X44082000Y26444000D01*
X44114000Y26475000D01*
X44124000Y26483000D01*
X44133000Y26489000D01*
X45037000Y27394000D01*
X45045000Y27401000D01*
X45095000Y27438000D01*
X45097000Y27440000D01*
X45131000Y27497000D01*
X45136000Y27504000D01*
X45160000Y27536000D01*
X45172000Y27564000D01*
X45176000Y27572000D01*
X45209000Y27625000D01*
X45211000Y27631000D01*
X45216000Y27657000D01*
X45221000Y27672000D01*
X45237000Y27708000D01*
X45237000Y27709000D01*
X45239000Y27775000D01*
X45241000Y27785000D01*
X45242000Y27800000D01*
X45242000Y27875000D01*
X45244000Y27937000D01*
X45243000Y27941000D01*
X45242000Y27954000D01*
X45242000Y32292000D01*
X45265000Y32347000D01*
X45291000Y32373000D01*
X45398000Y32560000D01*
X45450000Y32757000D01*
X45450000Y32969000D01*
X45398000Y33166000D01*
X45291000Y33353000D01*
X45290000Y33354000D01*
X45141000Y33502000D01*
X44963000Y33604000D01*
X44964000Y33604000D01*
X44758000Y33661000D01*
X44547000Y33661000D01*
X44340000Y33604000D01*
X44163000Y33501000D01*
X44019000Y33357000D01*
X44018000Y33355000D01*
X43910000Y33174000D01*
X43910000Y33173000D01*
X43855000Y32968000D01*
X43855000Y32758000D01*
X43910000Y32552000D01*
X44018000Y32370000D01*
X44041000Y32347000D01*
X44064000Y32292000D01*
X44064000Y28119000D01*
X44041000Y28064000D01*
X43536000Y27559000D01*
X43481000Y27536000D01*
X42082000Y27536000D01*
X42070000Y27537000D01*
X42015000Y27546000D01*
X42012000Y27546000D01*
X41949000Y27529000D01*
X41939000Y27527000D01*
X41902000Y27523000D01*
X41898000Y27522000D01*
X41856000Y27507000D01*
X41849000Y27505000D01*
X41800000Y27492000D01*
X41797000Y27491000D01*
X41768000Y27473000D01*
X41758000Y27468000D01*
X41714000Y27449000D01*
X41676000Y27413000D01*
X41668000Y27406000D01*
X41659000Y27400000D01*
X41657000Y27398000D01*
X41585000Y27325000D01*
X41584000Y27325000D01*
X41561000Y27303000D01*
X41556000Y27297000D01*
X40417000Y26157000D01*
X40362000Y26134000D01*
X13167000Y26134000D01*
X13086000Y26196000D01*
X13063000Y26282000D01*
X13062000Y26285000D01*
X12958000Y26467000D01*
X12814000Y26611000D01*
X12812000Y26612000D01*
X12631000Y26720000D01*
X12630000Y26720000D01*
X12425000Y26775000D01*
X12215000Y26775000D01*
X12009000Y26720000D01*
X11828000Y26612000D01*
X11826000Y26611000D01*
X11682000Y26467000D01*
X11579000Y26290000D01*
X11522000Y26083000D01*
X8795032Y26083000D01*
X9008000Y26296000D01*
X9017000Y26304000D01*
X9061000Y26336000D01*
X9093000Y26389000D01*
X9097000Y26396000D01*
X9122000Y26428000D01*
X9124000Y26430000D01*
X9135000Y26459000D01*
X9141000Y26471000D01*
X9174000Y26524000D01*
X9175000Y26526000D01*
X9181000Y26556000D01*
X9186000Y26570000D01*
X9201000Y26606000D01*
X9202000Y26609000D01*
X9204000Y26674000D01*
X9205000Y26681000D01*
X9206000Y26696000D01*
X9206000Y26724000D01*
X9209000Y26832000D01*
X9207000Y26847000D01*
X9206000Y26857000D01*
X9206000Y27734000D01*
X9229000Y27789000D01*
X9253000Y27813000D01*
X9361000Y27994000D01*
X9415000Y28199000D01*
X9415000Y28408000D01*
X9361000Y28613000D01*
X9253000Y28793000D01*
X9252000Y28795000D01*
X9109000Y28940000D01*
X9110000Y28940000D01*
X8925000Y29046000D01*
X8926000Y29046000D01*
X8720000Y29101000D01*
X8515000Y29101000D01*
X8310000Y29046000D01*
X8128000Y28942000D01*
X7979000Y28793000D01*
X7875000Y28611000D01*
X7820000Y28406000D01*
X7820000Y28201000D01*
X7875000Y27996000D01*
X7980000Y27813000D01*
X8005000Y27788000D01*
X8028000Y27733000D01*
X8028000Y27015000D01*
X8005000Y26960000D01*
X1697000Y20651000D01*
X1642000Y20628000D01*
X-3870000Y20628000D01*
X-3925000Y20651000D01*
X-5056000Y21781000D01*
X-5079000Y21836000D01*
X-5079000Y21874000D01*
X-5131000Y22071000D01*
X-5238000Y22258000D01*
X-5386000Y22406000D01*
X-5573000Y22513000D01*
X-5770000Y22565000D01*
X-5982000Y22565000D01*
X-6179000Y22513000D01*
X-6366000Y22406000D01*
X-6514000Y22258000D01*
X-6621000Y22071000D01*
X-6673000Y21874000D01*
X-6673000Y21687000D01*
X-6735000Y21606000D01*
X-6987000Y21539000D01*
X-7169000Y21431000D01*
X-7314000Y21286000D01*
X-7418000Y21104000D01*
X-7473000Y20899000D01*
X-7473000Y20865000D01*
X-7496000Y20810000D01*
X-26085000Y2220000D01*
X-26140000Y2197000D01*
X-30464000Y2197000D01*
X-30519000Y2220000D01*
X-30543000Y2244000D01*
X-30727000Y2350000D01*
X-30726000Y2350000D01*
X-30932000Y2405000D01*
X-31186000Y2405000D01*
X-31274000Y2493000D01*
X-31274000Y3633000D01*
X-31251000Y3688000D01*
X-21105000Y13834000D01*
X-20981000Y13834000D01*
X-20897000Y13750000D01*
X-20717000Y13647000D01*
X-20511000Y13590000D01*
X-20303000Y13590000D01*
X-20093000Y13647000D01*
X-19920000Y13748000D01*
X-19919000Y13749000D01*
X-19770000Y13897000D01*
X-19769000Y13898000D01*
X-19662000Y14085000D01*
X-19610000Y14282000D01*
X-19610000Y14492000D01*
X-19633000Y14581000D01*
X-19612000Y14659000D01*
X-18152000Y16120000D01*
X-18143000Y16127000D01*
X-18099000Y16160000D01*
X-18041000Y16225000D01*
X-17889000Y16210000D01*
X-17809000Y16074000D01*
X-17661000Y15927000D01*
X-17483000Y15825000D01*
X-17278000Y15768000D01*
X-17067000Y15768000D01*
X-16860000Y15825000D01*
X-16683000Y15928000D01*
X-16539000Y16072000D01*
X-16533000Y16080000D01*
X-16429000Y16257000D01*
X-16400000Y16365000D01*
X-16380000Y16399000D01*
X-14365000Y18414000D01*
X-14310000Y18437000D01*
X-12865000Y18437000D01*
X-12853000Y18436000D01*
X-12797000Y18427000D01*
X-12726000Y18444000D01*
X-12717000Y18445000D01*
X-12685000Y18449000D01*
X-12682000Y18450000D01*
X-12651000Y18463000D01*
X-12638000Y18467000D01*
X-12584000Y18480000D01*
X-12580000Y18482000D01*
X-12556000Y18498000D01*
X-12543000Y18504000D01*
X-12501000Y18522000D01*
X-12500000Y18522000D01*
X-12457000Y18563000D01*
X-12446000Y18571000D01*
X-12441000Y18574000D01*
X-11424000Y19592000D01*
X-11416000Y19599000D01*
X-11367000Y19636000D01*
X-11366000Y19636000D01*
X-11333000Y19691000D01*
X-11329000Y19698000D01*
X-11301000Y19734000D01*
X-11291000Y19758000D01*
X-11286000Y19768000D01*
X-11251000Y19827000D01*
X-11245000Y19858000D01*
X-11241000Y19873000D01*
X-11226000Y19909000D01*
X-11225000Y19914000D01*
X-11223000Y19973000D01*
X-11221000Y19983000D01*
X-11220000Y19997000D01*
X-11220000Y20070000D01*
X-11218000Y20126000D01*
X-11219000Y20128000D01*
X-11220000Y20143000D01*
X-11220000Y22215000D01*
X-11168000Y22291000D01*
X-11132000Y22305000D01*
X-10949000Y22411000D01*
X-10947000Y22412000D01*
X-10798000Y22562000D01*
X-10796000Y22565000D01*
X-10696000Y22740000D01*
X-10695000Y22742000D01*
X-10640000Y22948000D01*
X-10640000Y23153000D01*
X-10695000Y23359000D01*
X-10696000Y23361000D01*
X-10796000Y23536000D01*
X-10798000Y23539000D01*
X-10946000Y23688000D01*
X-10947000Y23689000D01*
X-11134000Y23796000D01*
X-11331000Y23848000D01*
X-11543000Y23848000D01*
X-11740000Y23796000D01*
X-11927000Y23689000D01*
X-11928000Y23688000D01*
X-12076000Y23539000D01*
X-12078000Y23536000D01*
X-12178000Y23361000D01*
X-12179000Y23359000D01*
X-12234000Y23153000D01*
X-12234000Y23134000D01*
X-12245000Y23094000D01*
X-12297000Y23010000D01*
X-12302000Y23002000D01*
X-12314000Y22988000D01*
X-12317000Y22982000D01*
X-12327000Y22961000D01*
X-12330000Y22954000D01*
X-12365000Y22898000D01*
X-12366000Y22893000D01*
X-12372000Y22864000D01*
X-12377000Y22847000D01*
X-12393000Y22810000D01*
X-12395000Y22747000D01*
X-12397000Y22734000D01*
X-12397000Y22732000D01*
X-12398000Y22722000D01*
X-12398000Y22646000D01*
X-12400000Y22584000D01*
X-12399000Y22580000D01*
X-12398000Y22567000D01*
X-12398000Y20317000D01*
X-12421000Y20262000D01*
X-13044000Y19638000D01*
X-13099000Y19615000D01*
X-14548000Y19615000D01*
X-14560000Y19616000D01*
X-14615000Y19625000D01*
X-14616000Y19625000D01*
X-14679000Y19608000D01*
X-14690000Y19607000D01*
X-14727000Y19603000D01*
X-14767000Y19586000D01*
X-14777000Y19583000D01*
X-14821000Y19572000D01*
X-14830000Y19568000D01*
X-14850000Y19554000D01*
X-14864000Y19547000D01*
X-14909000Y19530000D01*
X-14915000Y19526000D01*
X-14948000Y19494000D01*
X-14960000Y19485000D01*
X-14966000Y19482000D01*
X-14966000Y19481000D01*
X-17059000Y17386000D01*
X-17114000Y17363000D01*
X-17275000Y17363000D01*
X-17480000Y17308000D01*
X-17662000Y17204000D01*
X-17766000Y17100000D01*
X-17951000Y17177000D01*
X-17951000Y22933000D01*
X-17928000Y22988000D01*
X-15566000Y25351000D01*
X-15381000Y25274000D01*
X-15381000Y25074000D01*
X-15329000Y24877000D01*
X-15222000Y24690000D01*
X-15074000Y24542000D01*
X-14894000Y24439000D01*
X-14688000Y24382000D01*
X-14480000Y24382000D01*
X-14271000Y24440000D01*
X-14258000Y24445000D01*
X-14230000Y24450000D01*
X-278000Y24450000D01*
X-240000Y24440000D01*
X-203000Y24419000D01*
X-6000Y24367000D01*
X206000Y24367000D01*
X403000Y24419000D01*
X590000Y24526000D01*
X738000Y24674000D01*
X845000Y24861000D01*
X897000Y25058000D01*
X897000Y25270000D01*
X845000Y25467000D01*
X738000Y25654000D01*
X590000Y25802000D01*
X410000Y25905000D01*
X411000Y25905000D01*
X204000Y25962000D01*
X-5000Y25962000D01*
X-194000Y25911000D01*
X-214000Y25908000D01*
X-3174000Y25908000D01*
X-3234000Y26131000D01*
X-2986000Y26273000D01*
X-2839000Y26421000D01*
X-2835000Y26426000D01*
X-2734000Y26602000D01*
X-2679000Y26809000D01*
X-2679000Y27014000D01*
X-2734000Y27220000D01*
X-2735000Y27222000D01*
X-2835000Y27397000D01*
X-2835000Y27398000D01*
X-2985000Y27549000D01*
X-3172000Y27657000D01*
X-3370000Y27709000D01*
X-3408000Y27709000D01*
X-3463000Y27732000D01*
X-7190000Y31458000D01*
X-7197000Y31466000D01*
X-7234000Y31515000D01*
X-7293000Y31551000D01*
X-7299000Y31556000D01*
X-7333000Y31582000D01*
X-7356000Y31591000D01*
X-7366000Y31596000D01*
X-7425000Y31631000D01*
X-7456000Y31637000D01*
X-7471000Y31641000D01*
X-7509000Y31657000D01*
X-7512000Y31657000D01*
X-7571000Y31659000D01*
X-7583000Y31661000D01*
X-7585000Y31661000D01*
X-7595000Y31662000D01*
X-7664000Y31662000D01*
X-7733000Y31664000D01*
X-7751000Y31662000D01*
X-13045000Y31662000D01*
X-13057000Y31663000D01*
X-13118000Y31673000D01*
X-13120000Y31673000D01*
X-13198000Y31654000D01*
X-13206000Y31653000D01*
X-13227000Y31650000D01*
X-13234000Y31648000D01*
X-13263000Y31637000D01*
X-13271000Y31635000D01*
X-13334000Y31619000D01*
X-13335000Y31618000D01*
X-13368000Y31596000D01*
X-13384000Y31588000D01*
X-13417000Y31576000D01*
X-13449000Y31545000D01*
X-13458000Y31538000D01*
X-13476000Y31525000D01*
X-20802000Y24198000D01*
X-20812000Y24189000D01*
X-20849000Y24163000D01*
X-20877000Y24117000D01*
X-20881000Y24110000D01*
X-20915000Y24066000D01*
X-20930000Y24032000D01*
X-20935000Y24023000D01*
X-20965000Y23971000D01*
X-20970000Y23946000D01*
X-20975000Y23929000D01*
X-20992000Y23888000D01*
X-20994000Y23822000D01*
X-20995000Y23815000D01*
X-20996000Y23800000D01*
X-20996000Y23760000D01*
X-20999000Y23666000D01*
X-20997000Y23651000D01*
X-20996000Y23641000D01*
X-20996000Y17593000D01*
X-21019000Y17538000D01*
X-21045000Y17512000D01*
X-21148000Y17335000D01*
X-21205000Y17128000D01*
X-21205000Y16917000D01*
X-21148000Y16712000D01*
X-21046000Y16534000D01*
X-20882000Y16370000D01*
X-20959000Y16185000D01*
X-21282000Y16185000D01*
X-21479000Y16133000D01*
X-21666000Y16026000D01*
X-21815000Y15877000D01*
X-21917000Y15698000D01*
X-21974000Y15492000D01*
X-21974000Y15456000D01*
X-21997000Y15401000D01*
X-32676000Y4721000D01*
X-32861000Y4798000D01*
X-32861000Y7140000D01*
X-32838000Y7195000D01*
X-24596000Y15437000D01*
X-24584000Y15447000D01*
X-24552000Y15467000D01*
X-24510000Y15527000D01*
X-24509000Y15529000D01*
X-24428000Y15637000D01*
X-24425000Y15649000D01*
X-24421000Y15661000D01*
X-24412000Y15704000D01*
X-24411000Y15706000D01*
X-24374000Y15865000D01*
X-24373000Y15867000D01*
X-24383000Y15927000D01*
X-24384000Y15939000D01*
X-24384000Y19983000D01*
X-24382000Y19998000D01*
X-24375000Y20034000D01*
X-24387000Y20105000D01*
X-24411000Y20246000D01*
X-24413000Y20258000D01*
X-24415000Y20265000D01*
X-24472000Y20349000D01*
X-24475000Y20352000D01*
X-24528000Y20441000D01*
X-24575000Y20475000D01*
X-24585000Y20483000D01*
X-29795000Y25693000D01*
X-29818000Y25748000D01*
X-29818000Y25805000D01*
X-29875000Y26015000D01*
X-29976000Y26188000D01*
X-29977000Y26189000D01*
X-30124000Y26337000D01*
X-30126000Y26339000D01*
X-30313000Y26446000D01*
X-30510000Y26498000D01*
X-30719000Y26498000D01*
X-30923000Y26444000D01*
X-30925000Y26443000D01*
X-31107000Y26337000D01*
X-31252000Y26192000D01*
X-31358000Y26010000D01*
X-31360000Y26005000D01*
X-31413000Y25804000D01*
X-31413000Y25595000D01*
X-31361000Y25397000D01*
X-31358000Y25391000D01*
X-31254000Y25211000D01*
X-31253000Y25210000D01*
X-31104000Y25062000D01*
X-31103000Y25061000D01*
X-30930000Y24960000D01*
X-30720000Y24903000D01*
X-30663000Y24903000D01*
X-30608000Y24880000D01*
X-25557000Y19829000D01*
X-25534000Y19774000D01*
X-25534000Y16157000D01*
X-25557000Y16102000D01*
X-33797000Y7862000D01*
X-33810000Y7852000D01*
X-33843000Y7830000D01*
X-33893000Y7759000D01*
X-33895000Y7757000D01*
X-33967000Y7658000D01*
X-33970000Y7649000D01*
X-33973000Y7641000D01*
X-33991000Y7557000D01*
X-33992000Y7556000D01*
X-34030000Y7390000D01*
X-34170000Y7330000D01*
X-34278000Y7394000D01*
X-34286000Y7399000D01*
X-34321000Y7426000D01*
X-34343000Y7435000D01*
X-34353000Y7440000D01*
X-34412000Y7475000D01*
X-34443000Y7481000D01*
X-34458000Y7485000D01*
X-34496000Y7501000D01*
X-34499000Y7501000D01*
X-34558000Y7503000D01*
X-34570000Y7505000D01*
X-34572000Y7505000D01*
X-34582000Y7506000D01*
X-34651000Y7506000D01*
X-34720000Y7508000D01*
X-34738000Y7506000D01*
X-40821000Y7506000D01*
X-40833000Y7507000D01*
X-40888000Y7516000D01*
X-40890000Y7516000D01*
X-40960000Y7499000D01*
X-40969000Y7498000D01*
X-41001000Y7494000D01*
X-41004000Y7493000D01*
X-41035000Y7480000D01*
X-41048000Y7476000D01*
X-41102000Y7463000D01*
X-41106000Y7461000D01*
X-41130000Y7445000D01*
X-41143000Y7439000D01*
X-41185000Y7421000D01*
X-41188000Y7419000D01*
X-41229000Y7380000D01*
X-41240000Y7372000D01*
X-41245000Y7369000D01*
X-43957000Y4656000D01*
X-43965000Y4649000D01*
X-44011000Y4615000D01*
X-44020000Y4605000D01*
X-44050000Y4554000D01*
X-44055000Y4546000D01*
X-44076000Y4519000D01*
X-44082000Y4509000D01*
X-44094000Y4481000D01*
X-44099000Y4472000D01*
X-44129000Y4423000D01*
X-44130000Y4421000D01*
X-44136000Y4389000D01*
X-44141000Y4372000D01*
X-44156000Y4338000D01*
X-44157000Y4334000D01*
X-44159000Y4272000D01*
X-44160000Y4265000D01*
X-44161000Y4255000D01*
X-44161000Y4208000D01*
X-44164000Y4114000D01*
X-44162000Y4099000D01*
X-44161000Y4089000D01*
X-44161000Y3545000D01*
X-44162000Y3532000D01*
X-44172000Y3473000D01*
X-49750000Y3473000D01*
X-49750000Y27502000D01*
X-49745000Y27811000D01*
X-49745000Y27813000D01*
X-49730000Y28129000D01*
X-49730000Y28132000D01*
X-49702000Y28461000D01*
X-49702000Y28463000D01*
X-49662000Y28820000D01*
X-49658000Y28824000D01*
X-49620000Y29081000D01*
X-49620000Y29083000D01*
X-49561000Y29408000D01*
X-49561000Y29410000D01*
X-49497000Y29706000D01*
X-49497000Y29708000D01*
X-49419000Y30016000D01*
X-49419000Y30018000D01*
X-49328000Y30335000D01*
X-49327000Y30338000D01*
X-49234000Y30627000D01*
X-49234000Y30629000D01*
X-49128000Y30927000D01*
X-49127000Y30930000D01*
X-49011000Y31224000D01*
X-49010000Y31227000D01*
X-48884000Y31517000D01*
X-48883000Y31519000D01*
X-48748000Y31805000D01*
X-48747000Y31807000D01*
X-48602000Y32090000D01*
X-48601000Y32092000D01*
X-48441000Y32380000D01*
X-48439000Y32382000D01*
X-48284000Y32643000D01*
X-48283000Y32645000D01*
X-48112000Y32910000D01*
X-48111000Y32913000D01*
X-47929000Y33175000D01*
X-47927000Y33176000D01*
X-47741000Y33429000D01*
X-47739000Y33431000D01*
X-47542000Y33679000D01*
X-47540000Y33681000D01*
X-47335000Y33923000D01*
X-47333000Y33925000D01*
X-47123000Y34158000D01*
X-47121000Y34160000D01*
X-46899000Y34389000D01*
X-46897000Y34391000D01*
X-46661000Y34620000D01*
X-46659000Y34621000D01*
X-46434000Y34825000D01*
X-46432000Y34826000D01*
X-46182000Y35040000D01*
X-46180000Y35042000D01*
X-45934000Y35237000D01*
X-45932000Y35239000D01*
X-45676000Y35427000D01*
X-45675000Y35428000D01*
X-45425000Y35603000D01*
X-45422000Y35604000D01*
X-45156000Y35776000D01*
X-45154000Y35777000D01*
X-44882000Y35939000D01*
X-44880000Y35941000D01*
X-44603000Y36095000D01*
X-44601000Y36096000D01*
X-44320000Y36241000D01*
X-44317000Y36242000D01*
X-44019000Y36383000D01*
X-44017000Y36384000D01*
X-43739000Y36505000D01*
X-43736000Y36506000D01*
X-43443000Y36622000D01*
X-43441000Y36623000D01*
X-43133000Y36733000D01*
X-43131000Y36733000D01*
X-42838000Y36827000D01*
X-42835000Y36828000D01*
X-42517000Y36919000D01*
X-42515000Y36919000D01*
X-42207000Y36997000D01*
X-42205000Y36997000D01*
X-41910000Y37061000D01*
X-41908000Y37061000D01*
X-41591000Y37119000D01*
X-41588000Y37119000D01*
X-41324000Y37158000D01*
X-41320000Y37162000D01*
X-40963000Y37202000D01*
X-40960000Y37202000D01*
X-40643000Y37229000D01*
X-40641000Y37229000D01*
X-40313000Y37245000D01*
X-40311000Y37245000D01*
X-39996000Y37250000D01*
X39996000Y37250000D01*
X40311000Y37245000D01*
X40313000Y37245000D01*
X40641000Y37229000D01*
X40643000Y37229000D01*
X40960000Y37202000D01*
X40963000Y37202000D01*
X41320000Y37162000D01*
X41324000Y37158000D01*
X41588000Y37119000D01*
X41591000Y37119000D01*
X41908000Y37061000D01*
X41910000Y37061000D01*
X42205000Y36997000D01*
X42207000Y36997000D01*
X42515000Y36919000D01*
X42517000Y36919000D01*
X42835000Y36828000D01*
X42838000Y36827000D01*
X43131000Y36733000D01*
X43133000Y36733000D01*
X43441000Y36623000D01*
X43443000Y36622000D01*
X43736000Y36506000D01*
X43739000Y36505000D01*
X44017000Y36384000D01*
X44019000Y36383000D01*
X44317000Y36242000D01*
X44320000Y36241000D01*
X44601000Y36096000D01*
X44603000Y36095000D01*
X44880000Y35941000D01*
X44882000Y35939000D01*
X45154000Y35777000D01*
X45156000Y35776000D01*
X45422000Y35604000D01*
X45425000Y35603000D01*
X45675000Y35428000D01*
X45676000Y35427000D01*
X45932000Y35239000D01*
X45934000Y35237000D01*
X46180000Y35042000D01*
X46182000Y35040000D01*
X46432000Y34826000D01*
X46434000Y34825000D01*
X46659000Y34621000D01*
X46661000Y34620000D01*
X46897000Y34391000D01*
X46899000Y34389000D01*
X47121000Y34160000D01*
X47123000Y34158000D01*
X47333000Y33925000D01*
X47335000Y33923000D01*
X47540000Y33681000D01*
X47542000Y33679000D01*
X47739000Y33431000D01*
X47741000Y33429000D01*
X47927000Y33176000D01*
X47929000Y33175000D01*
X48111000Y32913000D01*
X48112000Y32910000D01*
X48283000Y32645000D01*
X48284000Y32643000D01*
X48439000Y32382000D01*
X48441000Y32380000D01*
X48601000Y32092000D01*
X48602000Y32090000D01*
X48747000Y31807000D01*
X48748000Y31805000D01*
X48883000Y31519000D01*
X48884000Y31517000D01*
X49010000Y31227000D01*
X49011000Y31224000D01*
X49127000Y30930000D01*
X49128000Y30927000D01*
X49234000Y30629000D01*
X49234000Y30627000D01*
X49327000Y30338000D01*
X49328000Y30335000D01*
X49419000Y30018000D01*
X49419000Y30016000D01*
X49497000Y29708000D01*
X49497000Y29706000D01*
X49561000Y29410000D01*
X49561000Y29408000D01*
X49620000Y29083000D01*
X49620000Y29081000D01*
X49658000Y28824000D01*
X49662000Y28820000D01*
X49702000Y28463000D01*
X49702000Y28461000D01*
X49730000Y28132000D01*
X49730000Y28129000D01*
X49745000Y27813000D01*
X49745000Y27811000D01*
X49750000Y27496000D01*
X49750000Y-27502000D01*
X49745000Y-27811000D01*
X49745000Y-27813000D01*
X49729000Y-28143000D01*
X49729000Y-28145000D01*
X49702000Y-28461000D01*
X49702000Y-28463000D01*
X49662000Y-28820000D01*
X49658000Y-28824000D01*
X49618000Y-29093000D01*
X49618000Y-29095000D01*
X49561000Y-29408000D01*
X49561000Y-29410000D01*
X49497000Y-29706000D01*
X49497000Y-29708000D01*
X49416000Y-30028000D01*
X49416000Y-30030000D01*
X49328000Y-30336000D01*
X49327000Y-30338000D01*
X49230000Y-30639000D01*
X49230000Y-30641000D01*
X49123000Y-30941000D01*
X49122000Y-30943000D01*
X49006000Y-31236000D01*
X49005000Y-31239000D01*
X48884000Y-31517000D01*
X48883000Y-31519000D01*
X48742000Y-31817000D01*
X48741000Y-31820000D01*
X48596000Y-32101000D01*
X48595000Y-32103000D01*
X48441000Y-32380000D01*
X48439000Y-32382000D01*
X48277000Y-32654000D01*
X48276000Y-32656000D01*
X48104000Y-32922000D01*
X48103000Y-32925000D01*
X47928000Y-33175000D01*
X47927000Y-33176000D01*
X47741000Y-33429000D01*
X47739000Y-33431000D01*
X47542000Y-33679000D01*
X47540000Y-33681000D01*
X47327000Y-33932000D01*
X47325000Y-33934000D01*
X47122000Y-34158000D01*
X47121000Y-34160000D01*
X46891000Y-34397000D01*
X46889000Y-34399000D01*
X46660000Y-34621000D01*
X46658000Y-34623000D01*
X46425000Y-34833000D01*
X46423000Y-34835000D01*
X46181000Y-35040000D01*
X46179000Y-35042000D01*
X45931000Y-35239000D01*
X45929000Y-35241000D01*
X45676000Y-35427000D01*
X45675000Y-35429000D01*
X45413000Y-35611000D01*
X45410000Y-35612000D01*
X45156000Y-35776000D01*
X45154000Y-35777000D01*
X44882000Y-35939000D01*
X44880000Y-35941000D01*
X44603000Y-36095000D01*
X44601000Y-36096000D01*
X44320000Y-36241000D01*
X44317000Y-36242000D01*
X44019000Y-36383000D01*
X44017000Y-36384000D01*
X43739000Y-36505000D01*
X43736000Y-36506000D01*
X43443000Y-36622000D01*
X43441000Y-36623000D01*
X43129000Y-36734000D01*
X43127000Y-36734000D01*
X42838000Y-36827000D01*
X42835000Y-36828000D01*
X42518000Y-36919000D01*
X42516000Y-36919000D01*
X42208000Y-36997000D01*
X42206000Y-36997000D01*
X41910000Y-37061000D01*
X41908000Y-37061000D01*
X41591000Y-37119000D01*
X41588000Y-37119000D01*
X41324000Y-37158000D01*
X41320000Y-37162000D01*
X40963000Y-37202000D01*
X40960000Y-37202000D01*
X40643000Y-37229000D01*
X40641000Y-37229000D01*
X40313000Y-37245000D01*
X40311000Y-37245000D01*
X39996000Y-37250000D01*
G37*
%TD.AperFunction*%
%TD*%
M02*
