%TF.GenerationSoftware,Flux,Pcbnew,7.0.11-7.0.11~ubuntu20.04.1*%
%TF.CreationDate,2024-08-19T13:17:11+00:00*%
%TF.ProjectId,input,696e7075-742e-46b6-9963-61645f706362,rev?*%
%TF.SameCoordinates,Original*%
%TF.FileFunction,Copper,L2,Inr*%
%TF.FilePolarity,Positive*%
%FSLAX46Y46*%
G04 Gerber Fmt 4.6, Leading zero omitted, Abs format (unit mm)*
G04 Filename: promicromacro*
G04 Build it with Flux! Visit our site at: https://www.flux.ai (PCBNEW 7.0.11-7.0.11~ubuntu20.04.1) date 2024-08-19 13:17:11*
%MOMM*%
%LPD*%
G01*
G04 APERTURE LIST*
G04 Aperture macros list*
%AMFreePoly0*
4,1,5,1.000000,-1.000000,-1.000000,-1.000000,-1.000000,1.000000,1.000000,1.000000,1.000000,-1.000000,1.000000,-1.000000,$1*%
%AMFreePoly1*
4,1,5,1.500000,-1.250000,-1.500000,-1.250000,-1.500000,1.250000,1.500000,1.250000,1.500000,-1.250000,1.500000,-1.250000,$1*%
%AMFreePoly2*
4,1,129,0.022069,0.299187,0.036723,0.297744,0.051289,0.295583,0.065730,0.292711,0.080014,0.289133,0.094105,0.284858,0.107969,0.279898,0.121572,0.274263,0.134883,0.267967,0.147869,0.261026,0.160499,0.253456,0.172742,0.245275,0.184569,0.236504,0.195952,0.227163,0.206862,0.217274,0.217274,0.206862,0.227163,0.195952,0.236504,0.184569,0.245275,0.172742,0.253456,0.160499,
0.261026,0.147869,0.267967,0.134883,0.274263,0.121572,0.279898,0.107969,0.284858,0.094105,0.289133,0.080014,0.292711,0.065730,0.295583,0.051289,0.297744,0.036723,0.299187,0.022069,0.299910,0.007362,0.299910,-0.007362,0.299187,-0.022069,0.297744,-0.036723,0.295583,-0.051289,0.292711,-0.065730,0.289133,-0.080014,0.284858,-0.094105,0.279898,-0.107969,0.274263,-0.121572,
0.267967,-0.134883,0.261026,-0.147869,0.253456,-0.160499,0.245275,-0.172742,0.236504,-0.184569,0.227163,-0.195952,0.217274,-0.206862,0.206862,-0.217274,0.195952,-0.227163,0.184569,-0.236504,0.172742,-0.245275,0.160499,-0.253456,0.147869,-0.261026,0.134883,-0.267967,0.121572,-0.274263,0.107969,-0.279898,0.094105,-0.284858,0.080014,-0.289133,0.065730,-0.292711,0.051289,-0.295583,
0.036723,-0.297744,0.022069,-0.299187,0.007362,-0.299910,-0.007362,-0.299910,-0.022069,-0.299187,-0.036723,-0.297744,-0.051289,-0.295583,-0.065730,-0.292711,-0.080014,-0.289133,-0.094105,-0.284858,-0.107969,-0.279898,-0.121572,-0.274263,-0.134883,-0.267967,-0.147869,-0.261026,-0.160499,-0.253456,-0.172742,-0.245275,-0.184569,-0.236504,-0.195952,-0.227163,-0.206862,-0.217274,-0.217274,-0.206862,
-0.227163,-0.195952,-0.236504,-0.184569,-0.245275,-0.172742,-0.253456,-0.160499,-0.261026,-0.147869,-0.267967,-0.134883,-0.274263,-0.121572,-0.279898,-0.107969,-0.284858,-0.094105,-0.289133,-0.080014,-0.292711,-0.065730,-0.295583,-0.051289,-0.297744,-0.036723,-0.299187,-0.022069,-0.299910,-0.007362,-0.299910,0.007362,-0.299187,0.022069,-0.297744,0.036723,-0.295583,0.051289,-0.292711,0.065730,
-0.289133,0.080014,-0.284858,0.094105,-0.279898,0.107969,-0.274263,0.121572,-0.267967,0.134883,-0.261026,0.147869,-0.253456,0.160499,-0.245275,0.172742,-0.236504,0.184569,-0.227163,0.195952,-0.217274,0.206862,-0.206862,0.217274,-0.195952,0.227163,-0.184569,0.236504,-0.172742,0.245275,-0.160499,0.253456,-0.147869,0.261026,-0.134883,0.267967,-0.121572,0.274263,-0.107969,0.279898,
-0.094105,0.284858,-0.080014,0.289133,-0.065730,0.292711,-0.051289,0.295583,-0.036723,0.297744,-0.022069,0.299187,-0.007362,0.299910,0.007362,0.299910,0.022069,0.299187,0.022069,0.299187,$1*%
G04 Aperture macros list end*
%TA.AperFunction,ComponentPad*%
%ADD10FreePoly0,0.000000*%
%TD*%
%TA.AperFunction,ComponentPad*%
%ADD11C,2.000000*%
%TD*%
%TA.AperFunction,ComponentPad*%
%ADD12FreePoly1,0.000000*%
%TD*%
%TA.AperFunction,ComponentPad*%
%ADD13C,1.700000*%
%TD*%
%TA.AperFunction,ComponentPad*%
%ADD14FreePoly2,0.000000*%
%TD*%
%TA.AperFunction,Conductor*%
%ADD15C,0.457200*%
%TD*%
G04 APERTURE END LIST*
D10*
%TO.N,N/C*%
%TO.C,*%
X-22112200Y-26475900D03*
D11*
X-22112200Y-31475900D03*
X-22112200Y-28975900D03*
D12*
X-14612200Y-23375900D03*
X-14612200Y-34575900D03*
D13*
X46709800Y21768000D03*
X46709800Y14148000D03*
X46709800Y16688000D03*
X46709800Y19228000D03*
D14*
%TO.N,Net 9*%
X19891100Y-5098900D03*
X16141800Y18461600D03*
%TO.N,Net 13*%
X1917700Y-10748300D03*
X-9076000Y9519000D03*
%TO.N,Net 19*%
X29080800Y-17592600D03*
X-4276000Y7601100D03*
%TO.N,Net 8*%
X-17172600Y16565800D03*
X-11437000Y23050500D03*
%TO.N,Net 20*%
X-3476000Y7350400D03*
X-13507300Y-16667200D03*
%TO.N,Net 7*%
X39121300Y-30155300D03*
X13485300Y16387900D03*
%TO.N,Net 18*%
X44652600Y32863100D03*
X12319900Y25977400D03*
%TO.N,Net 25*%
X-2165200Y-3249000D03*
X-11890900Y-16667100D03*
%TO.N,Net 11*%
X29080800Y-6353500D03*
X18824200Y19307000D03*
%TO.N,Net 12*%
X-6676000Y20796400D03*
X-31034600Y1607800D03*
%TO.N,Net 21*%
X-530400Y7350400D03*
X39474900Y-17592600D03*
%TO.N,Net 29*%
X-5876000Y21768000D03*
X8617400Y28303500D03*
%TO.N,Net 27*%
X9964700Y14933000D03*
X9964700Y-6353500D03*
%TO.N,GND*%
X-3789300Y-3220000D03*
X-33435900Y13717900D03*
X-1878300Y21897100D03*
X-8272700Y21882400D03*
X-16378600Y20907300D03*
X-6314100Y13616500D03*
X-2318000Y5302000D03*
X-9816600Y26663600D03*
X-7873900Y1504800D03*
X0Y26867400D03*
X-6622700Y-3249000D03*
X1917700Y12747100D03*
X-42510200Y33668700D03*
X4274600Y26943300D03*
X-14316400Y18338600D03*
X-35808800Y20039500D03*
X-32874300Y20039500D03*
X-35845800Y15236500D03*
X19724800Y29092000D03*
X13190400Y29092000D03*
X41407700Y33958600D03*
X27129800Y29092000D03*
X34551500Y29376200D03*
X46520000Y33620000D03*
X31280000Y33620000D03*
X26200000Y33620000D03*
X10960000Y33620000D03*
X5880000Y33620000D03*
X800000Y33620000D03*
X-4280000Y33620000D03*
X-9360000Y33620000D03*
X-14440000Y33620000D03*
X-19520000Y33620000D03*
X-24600000Y33620000D03*
X-29680000Y33620000D03*
X-34760000Y33620000D03*
X-39840000Y33620000D03*
X46520000Y28540000D03*
X10960000Y28540000D03*
X800000Y28540000D03*
X-19520000Y28540000D03*
X-24600000Y28540000D03*
X-29680000Y28540000D03*
X-34760000Y28540000D03*
X-39840000Y28540000D03*
X-44920000Y28540000D03*
X800000Y23460000D03*
X-34760000Y23460000D03*
X-39840000Y23460000D03*
X-44920000Y23460000D03*
X-4280000Y18380000D03*
X-44920000Y18380000D03*
X41440000Y13300000D03*
X36360000Y13300000D03*
X31280000Y13300000D03*
X21120000Y13300000D03*
X5880000Y13300000D03*
X-29680000Y13300000D03*
X-44920000Y13300000D03*
X41440000Y8220000D03*
X-14440000Y8220000D03*
X-34760000Y8220000D03*
X-39840000Y8220000D03*
X-44920000Y8220000D03*
X46520000Y3140000D03*
X41440000Y3140000D03*
X31280000Y3140000D03*
X21120000Y3140000D03*
X-44920000Y3140000D03*
X46520000Y-1940000D03*
X41440000Y-1940000D03*
X36360000Y-1940000D03*
X31280000Y-1940000D03*
X5880000Y-1940000D03*
X-9360000Y-1940000D03*
X-19520000Y-1940000D03*
X-24600000Y-1940000D03*
X41440000Y-7020000D03*
X21120000Y-7020000D03*
X800000Y-7020000D03*
X-9360000Y-7020000D03*
X-14440000Y-7020000D03*
X-29680000Y-7020000D03*
X-34760000Y-7020000D03*
X46520000Y-12100000D03*
X16040000Y-12100000D03*
X5880000Y-12100000D03*
X-24600000Y-12100000D03*
X-29680000Y-12100000D03*
X31280000Y-17180000D03*
X5880000Y-17180000D03*
X800000Y-17180000D03*
X-24600000Y-17180000D03*
X-29680000Y-17180000D03*
X-34760000Y-17180000D03*
X46520000Y-22260000D03*
X36360000Y-22260000D03*
X26200000Y-22260000D03*
X800000Y-22260000D03*
X-4280000Y-22260000D03*
X-9360000Y-22260000D03*
X-24600000Y-22260000D03*
X-29680000Y-22260000D03*
X-34760000Y-22260000D03*
X-39840000Y-22260000D03*
X-44920000Y-22260000D03*
X41440000Y-27340000D03*
X31280000Y-27340000D03*
X21120000Y-27340000D03*
X10960000Y-27340000D03*
X5880000Y-27340000D03*
X800000Y-27340000D03*
X-4280000Y-27340000D03*
X-9360000Y-27340000D03*
X-14440000Y-27340000D03*
X-24600000Y-27340000D03*
X-29680000Y-27340000D03*
X-34760000Y-27340000D03*
X-39840000Y-27340000D03*
X46520000Y-32420000D03*
X41440000Y-32420000D03*
X31280000Y-32420000D03*
X21120000Y-32420000D03*
X10960000Y-32420000D03*
X5880000Y-32420000D03*
X800000Y-32420000D03*
X-4280000Y-32420000D03*
X-9360000Y-32420000D03*
X-14440000Y-32420000D03*
X-19520000Y-32420000D03*
X-24600000Y-32420000D03*
X-29680000Y-32420000D03*
X-34760000Y-32420000D03*
X-39840000Y-32420000D03*
X-44920000Y-32420000D03*
X41440000Y18380000D03*
X36360000Y18380000D03*
X31280000Y18380000D03*
X26200000Y18380000D03*
X-39840000Y-12100000D03*
X-44920000Y-1940000D03*
X-39840000Y-7020000D03*
%TO.N,Net - (13fb - a68d)*%
X99900Y25164100D03*
X-14583900Y25179700D03*
%TO.N,Net 15*%
X9964600Y20039500D03*
X9964700Y-17592600D03*
%TO.N,Net 17*%
X19891000Y-17592600D03*
X6982300Y20907300D03*
%TO.N,Net 39*%
X-38190000Y2496900D03*
X-37915200Y1325300D03*
%TO.N,GND*%
X-39840000Y-17180000D03*
%TO.N,Net - (13fb - a68d)*%
X-33435900Y536100D03*
X-30615700Y25700800D03*
%TO.N,Net 36*%
X-20407200Y17022400D03*
X-3476000Y26911500D03*
%TO.N,Net 39*%
X-41217100Y4213200D03*
X-4275800Y26739300D03*
%TO.N,Net 35*%
X-41258200Y2496900D03*
X-21176200Y15387900D03*
X-20407300Y14387900D03*
X-5473500Y26911600D03*
%TO.N,GND*%
X4086000Y-30238500D03*
X4231400Y16753300D03*
X2671500Y1814000D03*
X18000600Y179900D03*
X15586200Y16651600D03*
X-35455500Y1092400D03*
X-8865500Y14896000D03*
X18432100Y17918400D03*
X14916900Y640200D03*
X36158000Y-14075100D03*
X-22998400Y17222400D03*
X-22878100Y21943300D03*
X13971300Y-7527500D03*
X-17736000Y-18792100D03*
X23015600Y-19949500D03*
X14161000Y5028000D03*
X13652500Y-19509600D03*
X30754300Y-7910700D03*
X17947300Y13279800D03*
X27376000Y342000D03*
X26250800Y-10249900D03*
X8896500Y-13478500D03*
X18241400Y-3336300D03*
X24189000Y-16018500D03*
X-37796300Y5215900D03*
X-15010300Y-16574100D03*
X8690800Y-5702900D03*
X-17332200Y17988200D03*
X8813400Y5510400D03*
X43367400Y28108400D03*
X40043300Y-18729600D03*
%TD*%
D15*
%TO.N,GND*%
X-32874300Y14279500D02*
X-33435900Y13717900D01*
X-32874300Y20039500D02*
X-32874300Y14279500D01*
%TD*%
%TA.AperFunction,Conductor*%
%TO.N,GND*%
G36*
X39996000Y-37250000D02*
G01*
X-39996000Y-37250000D01*
X-40311000Y-37245000D01*
X-40313000Y-37245000D01*
X-40641000Y-37229000D01*
X-40643000Y-37229000D01*
X-40960000Y-37202000D01*
X-40963000Y-37202000D01*
X-41320000Y-37162000D01*
X-41324000Y-37158000D01*
X-41588000Y-37119000D01*
X-41591000Y-37119000D01*
X-41908000Y-37061000D01*
X-41910000Y-37061000D01*
X-42206000Y-36997000D01*
X-42208000Y-36997000D01*
X-42516000Y-36919000D01*
X-42518000Y-36919000D01*
X-42835000Y-36828000D01*
X-42838000Y-36827000D01*
X-43127000Y-36734000D01*
X-43129000Y-36734000D01*
X-43441000Y-36623000D01*
X-43443000Y-36622000D01*
X-43736000Y-36506000D01*
X-43739000Y-36505000D01*
X-44017000Y-36384000D01*
X-44019000Y-36383000D01*
X-44317000Y-36242000D01*
X-44320000Y-36241000D01*
X-44601000Y-36096000D01*
X-44603000Y-36095000D01*
X-44880000Y-35941000D01*
X-44882000Y-35939000D01*
X-45154000Y-35777000D01*
X-45156000Y-35776000D01*
X-45422000Y-35604000D01*
X-45425000Y-35603000D01*
X-45675000Y-35428000D01*
X-45676000Y-35427000D01*
X-45929000Y-35241000D01*
X-45931000Y-35239000D01*
X-46179000Y-35042000D01*
X-46181000Y-35040000D01*
X-46432000Y-34827000D01*
X-46434000Y-34825000D01*
X-46658000Y-34622000D01*
X-46660000Y-34621000D01*
X-46897000Y-34391000D01*
X-46899000Y-34389000D01*
X-47121000Y-34160000D01*
X-47123000Y-34158000D01*
X-47333000Y-33925000D01*
X-47335000Y-33923000D01*
X-47540000Y-33681000D01*
X-47542000Y-33679000D01*
X-47739000Y-33431000D01*
X-47741000Y-33429000D01*
X-47927000Y-33176000D01*
X-47929000Y-33175000D01*
X-48111000Y-32913000D01*
X-48112000Y-32910000D01*
X-48283000Y-32645000D01*
X-48284000Y-32643000D01*
X-48439000Y-32382000D01*
X-48441000Y-32380000D01*
X-48601000Y-32092000D01*
X-48602000Y-32090000D01*
X-48747000Y-31807000D01*
X-48748000Y-31805000D01*
X-48883000Y-31519000D01*
X-48884000Y-31517000D01*
X-48986103Y-31282000D01*
X-23604000Y-31282000D01*
X-23604000Y-31669000D01*
X-23501000Y-32053000D01*
X-23307000Y-32391000D01*
X-23306000Y-32392000D01*
X-23028000Y-32669000D01*
X-23027000Y-32670000D01*
X-22692000Y-32864000D01*
X-22689000Y-32865000D01*
X-22306000Y-32967000D01*
X-21919000Y-32967000D01*
X-21535000Y-32865000D01*
X-21536000Y-32865000D01*
X-21468200Y-32826000D01*
X-16612000Y-32826000D01*
X-16612000Y-36326000D01*
X-12612000Y-36326000D01*
X-12612000Y-32826000D01*
X-16612000Y-32826000D01*
X-21468200Y-32826000D01*
X-21197000Y-32670000D01*
X-20918000Y-32391000D01*
X-20724000Y-32056000D01*
X-20721000Y-32048000D01*
X-20621000Y-31670000D01*
X-20621000Y-31282000D01*
X-20723000Y-30899000D01*
X-20724000Y-30896000D01*
X-20918000Y-30561000D01*
X-21197000Y-30282000D01*
X-21533000Y-30088000D01*
X-21536000Y-30087000D01*
X-21666146Y-30052000D01*
X38324000Y-30052000D01*
X38324000Y-30261000D01*
X38376000Y-30459000D01*
X38377000Y-30461000D01*
X38483000Y-30645000D01*
X38484000Y-30646000D01*
X38633000Y-30794000D01*
X38634000Y-30795000D01*
X38807000Y-30896000D01*
X39017000Y-30953000D01*
X39225000Y-30953000D01*
X39432000Y-30896000D01*
X39431000Y-30896000D01*
X39611000Y-30793000D01*
X39759000Y-30645000D01*
X39862000Y-30466000D01*
X39919000Y-30259000D01*
X39919000Y-30051000D01*
X39862000Y-29841000D01*
X39761000Y-29668000D01*
X39760000Y-29667000D01*
X39612000Y-29518000D01*
X39611000Y-29517000D01*
X39425000Y-29410000D01*
X39227000Y-29358000D01*
X39018000Y-29358000D01*
X38814000Y-29412000D01*
X38812000Y-29413000D01*
X38630000Y-29519000D01*
X38485000Y-29664000D01*
X38379000Y-29846000D01*
X38377000Y-29851000D01*
X38324000Y-30052000D01*
X-21666146Y-30052000D01*
X-21919000Y-29984000D01*
X-22306000Y-29984000D01*
X-22690000Y-30087000D01*
X-22693000Y-30088000D01*
X-23027000Y-30282000D01*
X-23028000Y-30283000D01*
X-23306000Y-30560000D01*
X-23307000Y-30561000D01*
X-23501000Y-30899000D01*
X-23604000Y-31282000D01*
X-48986103Y-31282000D01*
X-49010000Y-31227000D01*
X-49011000Y-31224000D01*
X-49127000Y-30930000D01*
X-49128000Y-30927000D01*
X-49234000Y-30629000D01*
X-49234000Y-30627000D01*
X-49327000Y-30338000D01*
X-49328000Y-30335000D01*
X-49419000Y-30018000D01*
X-49419000Y-30016000D01*
X-49497000Y-29708000D01*
X-49497000Y-29706000D01*
X-49561000Y-29410000D01*
X-49561000Y-29408000D01*
X-49620000Y-29083000D01*
X-49620000Y-29081000D01*
X-49644840Y-28913000D01*
X-22608000Y-28913000D01*
X-22608000Y-29039000D01*
X-22573000Y-29168000D01*
X-22508000Y-29281000D01*
X-22508000Y-29282000D01*
X-22419000Y-29372000D01*
X-22305000Y-29437000D01*
X-22174000Y-29472000D01*
X-22049000Y-29472000D01*
X-21919000Y-29437000D01*
X-21920000Y-29437000D01*
X-21806000Y-29372000D01*
X-21807000Y-29372000D01*
X-21716000Y-29281000D01*
X-21713000Y-29277000D01*
X-21651000Y-29170000D01*
X-21616000Y-29039000D01*
X-21616000Y-28913000D01*
X-21651000Y-28782000D01*
X-21713000Y-28675000D01*
X-21716000Y-28671000D01*
X-21807000Y-28580000D01*
X-21806000Y-28580000D01*
X-21920000Y-28515000D01*
X-21919000Y-28515000D01*
X-22049000Y-28480000D01*
X-22174000Y-28480000D01*
X-22305000Y-28515000D01*
X-22419000Y-28580000D01*
X-22508000Y-28670000D01*
X-22508000Y-28671000D01*
X-22573000Y-28784000D01*
X-22608000Y-28913000D01*
X-49644840Y-28913000D01*
X-49658000Y-28824000D01*
X-49662000Y-28820000D01*
X-49702000Y-28463000D01*
X-49702000Y-28461000D01*
X-49730000Y-28132000D01*
X-49730000Y-28129000D01*
X-49745000Y-27813000D01*
X-49745000Y-27811000D01*
X-49750000Y-27496000D01*
X-49750000Y-24976000D01*
X-23612000Y-24976000D01*
X-23612000Y-27976000D01*
X-20612000Y-27976000D01*
X-20612000Y-24976000D01*
X-23612000Y-24976000D01*
X-49750000Y-24976000D01*
X-49750000Y-21626000D01*
X-16612000Y-21626000D01*
X-16612000Y-25126000D01*
X-12612000Y-25126000D01*
X-12612000Y-21626000D01*
X-16612000Y-21626000D01*
X-49750000Y-21626000D01*
X-49750000Y-17487000D01*
X9167000Y-17487000D01*
X9167000Y-17698000D01*
X9224000Y-17903000D01*
X9326000Y-18081000D01*
X9474000Y-18230000D01*
X9475000Y-18231000D01*
X9662000Y-18338000D01*
X9859000Y-18390000D01*
X10068000Y-18390000D01*
X10272000Y-18336000D01*
X10274000Y-18335000D01*
X10456000Y-18229000D01*
X10603000Y-18082000D01*
X10707000Y-17900000D01*
X10762000Y-17695000D01*
X10762000Y-17490000D01*
X19094000Y-17490000D01*
X19094000Y-17695000D01*
X19149000Y-17901000D01*
X19150000Y-17903000D01*
X19250000Y-18078000D01*
X19252000Y-18081000D01*
X19400000Y-18230000D01*
X19401000Y-18231000D01*
X19588000Y-18338000D01*
X19785000Y-18390000D01*
X19997000Y-18390000D01*
X20194000Y-18338000D01*
X20381000Y-18231000D01*
X20382000Y-18230000D01*
X20530000Y-18081000D01*
X20532000Y-18078000D01*
X20632000Y-17903000D01*
X20633000Y-17901000D01*
X20688000Y-17695000D01*
X20688000Y-17490000D01*
X20687198Y-17487000D01*
X28283000Y-17487000D01*
X28283000Y-17698000D01*
X28340000Y-17903000D01*
X28442000Y-18081000D01*
X28590000Y-18230000D01*
X28591000Y-18231000D01*
X28778000Y-18338000D01*
X28975000Y-18390000D01*
X29184000Y-18390000D01*
X29388000Y-18336000D01*
X29390000Y-18335000D01*
X29572000Y-18229000D01*
X29719000Y-18082000D01*
X29823000Y-17900000D01*
X29878000Y-17695000D01*
X29878000Y-17490000D01*
X29877198Y-17487000D01*
X38677000Y-17487000D01*
X38677000Y-17698000D01*
X38734000Y-17903000D01*
X38836000Y-18081000D01*
X38984000Y-18230000D01*
X38985000Y-18231000D01*
X39172000Y-18338000D01*
X39369000Y-18390000D01*
X39581000Y-18390000D01*
X39778000Y-18338000D01*
X39965000Y-18231000D01*
X39966000Y-18230000D01*
X40114000Y-18081000D01*
X40116000Y-18078000D01*
X40216000Y-17903000D01*
X40217000Y-17901000D01*
X40272000Y-17695000D01*
X40272000Y-17490000D01*
X40218000Y-17288000D01*
X40217000Y-17285000D01*
X40113000Y-17103000D01*
X39969000Y-16959000D01*
X39967000Y-16958000D01*
X39786000Y-16850000D01*
X39785000Y-16850000D01*
X39580000Y-16795000D01*
X39370000Y-16795000D01*
X39164000Y-16850000D01*
X38983000Y-16958000D01*
X38982000Y-16959000D01*
X38837000Y-17103000D01*
X38734000Y-17280000D01*
X38677000Y-17487000D01*
X29877198Y-17487000D01*
X29824000Y-17288000D01*
X29823000Y-17285000D01*
X29719000Y-17103000D01*
X29718000Y-17102000D01*
X29573000Y-16958000D01*
X29571000Y-16956000D01*
X29392000Y-16849000D01*
X29187000Y-16795000D01*
X28976000Y-16795000D01*
X28770000Y-16850000D01*
X28589000Y-16958000D01*
X28587000Y-16959000D01*
X28443000Y-17103000D01*
X28340000Y-17280000D01*
X28283000Y-17487000D01*
X20687198Y-17487000D01*
X20634000Y-17288000D01*
X20633000Y-17285000D01*
X20529000Y-17103000D01*
X20385000Y-16959000D01*
X20383000Y-16958000D01*
X20202000Y-16850000D01*
X20201000Y-16850000D01*
X19996000Y-16795000D01*
X19786000Y-16795000D01*
X19580000Y-16850000D01*
X19399000Y-16958000D01*
X19397000Y-16959000D01*
X19253000Y-17103000D01*
X19149000Y-17285000D01*
X19148000Y-17288000D01*
X19094000Y-17490000D01*
X10762000Y-17490000D01*
X10708000Y-17288000D01*
X10707000Y-17285000D01*
X10603000Y-17103000D01*
X10602000Y-17102000D01*
X10457000Y-16958000D01*
X10455000Y-16956000D01*
X10276000Y-16849000D01*
X10071000Y-16795000D01*
X9860000Y-16795000D01*
X9654000Y-16850000D01*
X9473000Y-16958000D01*
X9471000Y-16959000D01*
X9327000Y-17103000D01*
X9224000Y-17280000D01*
X9167000Y-17487000D01*
X-49750000Y-17487000D01*
X-49750000Y-16563000D01*
X-14305000Y-16563000D01*
X-14305000Y-16771000D01*
X-14248000Y-16977000D01*
X-14145000Y-17157000D01*
X-13997000Y-17305000D01*
X-13817000Y-17408000D01*
X-13611000Y-17465000D01*
X-13403000Y-17465000D01*
X-13193000Y-17408000D01*
X-13020000Y-17307000D01*
X-13019000Y-17306000D01*
X-12870000Y-17158000D01*
X-12869000Y-17157000D01*
X-12786000Y-17012000D01*
X-12612000Y-17012000D01*
X-12531000Y-17154000D01*
X-12529000Y-17157000D01*
X-12381000Y-17305000D01*
X-12201000Y-17408000D01*
X-11995000Y-17465000D01*
X-11787000Y-17465000D01*
X-11580000Y-17408000D01*
X-11581000Y-17408000D01*
X-11401000Y-17305000D01*
X-11253000Y-17157000D01*
X-11150000Y-16977000D01*
X-11093000Y-16771000D01*
X-11093000Y-16563000D01*
X-11150000Y-16357000D01*
X-11253000Y-16177000D01*
X-11401000Y-16029000D01*
X-11588000Y-15922000D01*
X-11785000Y-15870000D01*
X-11997000Y-15870000D01*
X-12194000Y-15922000D01*
X-12381000Y-16029000D01*
X-12529000Y-16177000D01*
X-12534000Y-16184000D01*
X-12612000Y-16322000D01*
X-12785000Y-16322000D01*
X-12869000Y-16178000D01*
X-13016000Y-16031000D01*
X-13198000Y-15925000D01*
X-13200000Y-15924000D01*
X-13404000Y-15870000D01*
X-13613000Y-15870000D01*
X-13810000Y-15922000D01*
X-13997000Y-16029000D01*
X-13998000Y-16030000D01*
X-14146000Y-16179000D01*
X-14147000Y-16180000D01*
X-14248000Y-16353000D01*
X-14305000Y-16563000D01*
X-49750000Y-16563000D01*
X-49750000Y-10644000D01*
X1120000Y-10644000D01*
X1120000Y-10852000D01*
X1177000Y-11059000D01*
X1280000Y-11238000D01*
X1428000Y-11386000D01*
X1608000Y-11489000D01*
X1814000Y-11546000D01*
X2022000Y-11546000D01*
X2232000Y-11489000D01*
X2405000Y-11388000D01*
X2406000Y-11387000D01*
X2555000Y-11239000D01*
X2556000Y-11238000D01*
X2663000Y-11051000D01*
X2715000Y-10854000D01*
X2715000Y-10645000D01*
X2662000Y-10444000D01*
X2660000Y-10439000D01*
X2554000Y-10257000D01*
X2409000Y-10112000D01*
X2227000Y-10006000D01*
X2225000Y-10005000D01*
X2021000Y-9951000D01*
X1812000Y-9951000D01*
X1615000Y-10003000D01*
X1428000Y-10110000D01*
X1427000Y-10111000D01*
X1279000Y-10260000D01*
X1278000Y-10261000D01*
X1177000Y-10434000D01*
X1120000Y-10644000D01*
X-49750000Y-10644000D01*
X-49750000Y-6248000D01*
X9167000Y-6248000D01*
X9167000Y-6459000D01*
X9224000Y-6664000D01*
X9326000Y-6842000D01*
X9474000Y-6991000D01*
X9475000Y-6992000D01*
X9662000Y-7099000D01*
X9859000Y-7151000D01*
X10068000Y-7151000D01*
X10272000Y-7097000D01*
X10274000Y-7096000D01*
X10456000Y-6990000D01*
X10603000Y-6843000D01*
X10707000Y-6661000D01*
X10762000Y-6456000D01*
X10762000Y-6251000D01*
X10761195Y-6248000D01*
X28283000Y-6248000D01*
X28283000Y-6459000D01*
X28340000Y-6664000D01*
X28442000Y-6842000D01*
X28590000Y-6991000D01*
X28591000Y-6992000D01*
X28778000Y-7099000D01*
X28975000Y-7151000D01*
X29184000Y-7151000D01*
X29388000Y-7097000D01*
X29390000Y-7096000D01*
X29572000Y-6990000D01*
X29719000Y-6843000D01*
X29823000Y-6661000D01*
X29878000Y-6456000D01*
X29878000Y-6251000D01*
X29823000Y-6046000D01*
X29719000Y-5864000D01*
X29572000Y-5717000D01*
X29390000Y-5611000D01*
X29388000Y-5610000D01*
X29184000Y-5556000D01*
X28975000Y-5556000D01*
X28778000Y-5608000D01*
X28591000Y-5715000D01*
X28590000Y-5716000D01*
X28442000Y-5865000D01*
X28340000Y-6043000D01*
X28283000Y-6248000D01*
X10761195Y-6248000D01*
X10707000Y-6046000D01*
X10603000Y-5864000D01*
X10456000Y-5717000D01*
X10274000Y-5611000D01*
X10272000Y-5610000D01*
X10068000Y-5556000D01*
X9859000Y-5556000D01*
X9662000Y-5608000D01*
X9475000Y-5715000D01*
X9474000Y-5716000D01*
X9326000Y-5865000D01*
X9224000Y-6043000D01*
X9167000Y-6248000D01*
X-49750000Y-6248000D01*
X-49750000Y-4993000D01*
X19094000Y-4993000D01*
X19094000Y-5205000D01*
X19146000Y-5402000D01*
X19253000Y-5589000D01*
X19401000Y-5737000D01*
X19588000Y-5844000D01*
X19785000Y-5896000D01*
X19997000Y-5896000D01*
X20194000Y-5844000D01*
X20381000Y-5737000D01*
X20529000Y-5589000D01*
X20632000Y-5410000D01*
X20689000Y-5203000D01*
X20689000Y-4995000D01*
X20632000Y-4789000D01*
X20529000Y-4609000D01*
X20381000Y-4461000D01*
X20201000Y-4358000D01*
X20202000Y-4358000D01*
X19995000Y-4301000D01*
X19787000Y-4301000D01*
X19581000Y-4358000D01*
X19401000Y-4461000D01*
X19253000Y-4609000D01*
X19145000Y-4796000D01*
X19145000Y-4798000D01*
X19094000Y-4993000D01*
X-49750000Y-4993000D01*
X-49750000Y-3145000D01*
X-2963000Y-3145000D01*
X-2963000Y-3353000D01*
X-2906000Y-3560000D01*
X-2803000Y-3739000D01*
X-2655000Y-3887000D01*
X-2468000Y-3994000D01*
X-2271000Y-4046000D01*
X-2062000Y-4046000D01*
X-1857000Y-3992000D01*
X-1856000Y-3991000D01*
X-1676000Y-3887000D01*
X-1528000Y-3740000D01*
X-1527000Y-3739000D01*
X-1420000Y-3552000D01*
X-1368000Y-3355000D01*
X-1368000Y-3143000D01*
X-1419000Y-2948000D01*
X-1419000Y-2946000D01*
X-1527000Y-2759000D01*
X-1528000Y-2758000D01*
X-1676000Y-2611000D01*
X-1857000Y-2506000D01*
X-2062000Y-2452000D01*
X-2271000Y-2452000D01*
X-2469000Y-2504000D01*
X-2655000Y-2611000D01*
X-2803000Y-2759000D01*
X-2906000Y-2939000D01*
X-2963000Y-3145000D01*
X-49750000Y-3145000D01*
X-49750000Y2601000D01*
X-42056000Y2601000D01*
X-42056000Y2393000D01*
X-41999000Y2186000D01*
X-41896000Y2007000D01*
X-41748000Y1859000D01*
X-41568000Y1756000D01*
X-41362000Y1699000D01*
X-41154000Y1699000D01*
X-40944000Y1756000D01*
X-40771000Y1857000D01*
X-40770000Y1858000D01*
X-40623000Y2004000D01*
X-40620000Y2007000D01*
X-40513000Y2194000D01*
X-40461000Y2391000D01*
X-40461000Y2603000D01*
X-38987000Y2603000D01*
X-38987000Y2391000D01*
X-38935000Y2194000D01*
X-38828000Y2007000D01*
X-38680000Y1859000D01*
X-38635000Y1825000D01*
X-38612000Y1715000D01*
X-38656000Y1634000D01*
X-38713000Y1429000D01*
X-38713000Y1221000D01*
X-38656000Y1011000D01*
X-38554000Y837000D01*
X-38553000Y836000D01*
X-38406000Y688000D01*
X-38405000Y687000D01*
X-38218000Y580000D01*
X-38021000Y528000D01*
X-37812000Y528000D01*
X-37608000Y582000D01*
X-37606000Y583000D01*
X-37504698Y642000D01*
X-34233000Y642000D01*
X-34233000Y430000D01*
X-34181000Y233000D01*
X-34074000Y46000D01*
X-33926000Y-102000D01*
X-33739000Y-209000D01*
X-33542000Y-261000D01*
X-33330000Y-261000D01*
X-33133000Y-209000D01*
X-32946000Y-102000D01*
X-32798000Y46000D01*
X-32695000Y225000D01*
X-32638000Y432000D01*
X-32638000Y640000D01*
X-32695000Y846000D01*
X-32798000Y1026000D01*
X-32946000Y1174000D01*
X-33126000Y1277000D01*
X-33125000Y1277000D01*
X-33332000Y1334000D01*
X-33540000Y1334000D01*
X-33746000Y1277000D01*
X-33926000Y1174000D01*
X-34074000Y1026000D01*
X-34182000Y839000D01*
X-34182000Y837000D01*
X-34233000Y642000D01*
X-37504698Y642000D01*
X-37424000Y689000D01*
X-37280000Y833000D01*
X-37173000Y1016000D01*
X-37171000Y1021000D01*
X-37118000Y1222000D01*
X-37118000Y1431000D01*
X-37169000Y1626000D01*
X-37169000Y1628000D01*
X-37216936Y1711000D01*
X-31832000Y1711000D01*
X-31832000Y1502000D01*
X-31780000Y1305000D01*
X-31673000Y1118000D01*
X-31672000Y1117000D01*
X-31523000Y969000D01*
X-31345000Y867000D01*
X-31140000Y810000D01*
X-30929000Y810000D01*
X-30722000Y867000D01*
X-30545000Y970000D01*
X-30400000Y1115000D01*
X-30292000Y1297000D01*
X-30237000Y1503000D01*
X-30237000Y1714000D01*
X-30290000Y1915000D01*
X-30291000Y1918000D01*
X-30398000Y2098000D01*
X-30400000Y2100000D01*
X-30544000Y2245000D01*
X-30545000Y2246000D01*
X-30727000Y2350000D01*
X-30726000Y2350000D01*
X-30932000Y2405000D01*
X-31137000Y2405000D01*
X-31342000Y2350000D01*
X-31524000Y2246000D01*
X-31671000Y2099000D01*
X-31778000Y1915000D01*
X-31779000Y1912000D01*
X-31832000Y1711000D01*
X-37216936Y1711000D01*
X-37277000Y1815000D01*
X-37278000Y1816000D01*
X-37426000Y1963000D01*
X-37474000Y2004000D01*
X-37492000Y2111000D01*
X-37446000Y2190000D01*
X-37445000Y2193000D01*
X-37393000Y2391000D01*
X-37393000Y2603000D01*
X-37444000Y2798000D01*
X-37444000Y2800000D01*
X-37552000Y2987000D01*
X-37700000Y3135000D01*
X-37887000Y3242000D01*
X-38084000Y3294000D01*
X-38296000Y3294000D01*
X-38493000Y3242000D01*
X-38680000Y3135000D01*
X-38828000Y2987000D01*
X-38936000Y2800000D01*
X-38936000Y2798000D01*
X-38987000Y2603000D01*
X-40461000Y2603000D01*
X-40512000Y2798000D01*
X-40512000Y2800000D01*
X-40620000Y2987000D01*
X-40621000Y2988000D01*
X-40769000Y3135000D01*
X-40979000Y3256000D01*
X-40979000Y3430000D01*
X-40727000Y3575000D01*
X-40726000Y3576000D01*
X-40579000Y3724000D01*
X-40475000Y3904000D01*
X-40474000Y3905000D01*
X-40420000Y4110000D01*
X-40420000Y4319000D01*
X-40471000Y4514000D01*
X-40471000Y4516000D01*
X-40579000Y4703000D01*
X-40727000Y4851000D01*
X-40907000Y4954000D01*
X-40906000Y4954000D01*
X-41113000Y5011000D01*
X-41321000Y5011000D01*
X-41527000Y4954000D01*
X-41707000Y4851000D01*
X-41855000Y4703000D01*
X-41958000Y4523000D01*
X-42015000Y4317000D01*
X-42015000Y4109000D01*
X-41958000Y3899000D01*
X-41857000Y3726000D01*
X-41856000Y3725000D01*
X-41708000Y3576000D01*
X-41707000Y3575000D01*
X-41496000Y3454000D01*
X-41496000Y3280000D01*
X-41748000Y3135000D01*
X-41896000Y2987000D01*
X-41999000Y2807000D01*
X-42056000Y2601000D01*
X-49750000Y2601000D01*
X-49750000Y7707000D01*
X-5073000Y7707000D01*
X-5073000Y7495000D01*
X-5021000Y7298000D01*
X-4914000Y7111000D01*
X-4766000Y6963000D01*
X-4579000Y6856000D01*
X-4382000Y6804000D01*
X-4171000Y6804000D01*
X-4125000Y6815000D01*
X-4049000Y6794000D01*
X-3969000Y6714000D01*
X-3779000Y6605000D01*
X-3582000Y6553000D01*
X-3370000Y6553000D01*
X-3173000Y6605000D01*
X-2986000Y6712000D01*
X-2985000Y6713000D01*
X-2837000Y6862000D01*
X-2835000Y6865000D01*
X-2735000Y7040000D01*
X-2734000Y7042000D01*
X-2679000Y7247000D01*
X-2679000Y7453000D01*
X-2679537Y7455000D01*
X-1328000Y7455000D01*
X-1328000Y7246000D01*
X-1274000Y7041000D01*
X-1165000Y6859000D01*
X-1023000Y6714000D01*
X-838000Y6608000D01*
X-633000Y6553000D01*
X-428000Y6553000D01*
X-222000Y6608000D01*
X-223000Y6608000D01*
X-41000Y6712000D01*
X108000Y6861000D01*
X212000Y7043000D01*
X267000Y7247000D01*
X267000Y7453000D01*
X212000Y7658000D01*
X106000Y7843000D01*
X-39000Y7985000D01*
X-41000Y7986000D01*
X-221000Y8094000D01*
X-426000Y8148000D01*
X-635000Y8148000D01*
X-840000Y8094000D01*
X-1018000Y7988000D01*
X-1024000Y7984000D01*
X-1165000Y7844000D01*
X-1170000Y7836000D01*
X-1274000Y7660000D01*
X-1328000Y7455000D01*
X-2679537Y7455000D01*
X-2734000Y7658000D01*
X-2838000Y7840000D01*
X-2983000Y7985000D01*
X-3165000Y8093000D01*
X-3166000Y8093000D01*
X-3371000Y8148000D01*
X-3580000Y8148000D01*
X-3623000Y8135000D01*
X-3703000Y8156000D01*
X-3786000Y8239000D01*
X-3966000Y8342000D01*
X-3965000Y8342000D01*
X-4172000Y8399000D01*
X-4380000Y8399000D01*
X-4586000Y8342000D01*
X-4766000Y8239000D01*
X-4915000Y8090000D01*
X-5021000Y7904000D01*
X-5073000Y7707000D01*
X-49750000Y7707000D01*
X-49750000Y9625000D01*
X-9873000Y9625000D01*
X-9873000Y9413000D01*
X-9821000Y9216000D01*
X-9714000Y9029000D01*
X-9566000Y8881000D01*
X-9379000Y8774000D01*
X-9182000Y8722000D01*
X-8970000Y8722000D01*
X-8773000Y8774000D01*
X-8586000Y8881000D01*
X-8438000Y9029000D01*
X-8331000Y9216000D01*
X-8279000Y9413000D01*
X-8279000Y9625000D01*
X-8331000Y9822000D01*
X-8438000Y10009000D01*
X-8586000Y10157000D01*
X-8773000Y10264000D01*
X-8970000Y10316000D01*
X-9182000Y10316000D01*
X-9379000Y10264000D01*
X-9566000Y10157000D01*
X-9714000Y10009000D01*
X-9821000Y9822000D01*
X-9873000Y9625000D01*
X-49750000Y9625000D01*
X-49750000Y15492000D01*
X-21974000Y15492000D01*
X-21974000Y15284000D01*
X-21917000Y15078000D01*
X-21814000Y14898000D01*
X-21666000Y14750000D01*
X-21486000Y14647000D01*
X-21267000Y14586000D01*
X-21205000Y14506000D01*
X-21205000Y14284000D01*
X-21148000Y14077000D01*
X-21045000Y13898000D01*
X-20897000Y13750000D01*
X-20717000Y13647000D01*
X-20511000Y13590000D01*
X-20303000Y13590000D01*
X-20093000Y13647000D01*
X-19920000Y13748000D01*
X-19919000Y13749000D01*
X-19770000Y13897000D01*
X-19769000Y13898000D01*
X-19662000Y14085000D01*
X-19610000Y14282000D01*
X-19610000Y14494000D01*
X-19662000Y14691000D01*
X-19769000Y14878000D01*
X-19770000Y14879000D01*
X-19918000Y15026000D01*
X-19937038Y15037000D01*
X9167000Y15037000D01*
X9167000Y14829000D01*
X9224000Y14622000D01*
X9327000Y14443000D01*
X9475000Y14295000D01*
X9478000Y14293000D01*
X9662000Y14188000D01*
X9859000Y14136000D01*
X10068000Y14136000D01*
X10273000Y14190000D01*
X10274000Y14191000D01*
X10451000Y14293000D01*
X10454000Y14295000D01*
X10602000Y14442000D01*
X10603000Y14443000D01*
X10710000Y14630000D01*
X10762000Y14827000D01*
X10762000Y15039000D01*
X10711000Y15234000D01*
X10711000Y15236000D01*
X10603000Y15423000D01*
X10602000Y15424000D01*
X10454000Y15571000D01*
X10273000Y15676000D01*
X10068000Y15730000D01*
X9859000Y15730000D01*
X9661000Y15678000D01*
X9475000Y15571000D01*
X9327000Y15423000D01*
X9224000Y15243000D01*
X9167000Y15037000D01*
X-19937038Y15037000D01*
X-20098000Y15130000D01*
X-20099000Y15131000D01*
X-20317000Y15188000D01*
X-20379000Y15269000D01*
X-20379000Y15494000D01*
X-20430000Y15689000D01*
X-20430000Y15691000D01*
X-20537000Y15876000D01*
X-20701000Y16039000D01*
X-20625000Y16225000D01*
X-20304000Y16225000D01*
X-20100000Y16279000D01*
X-20098000Y16280000D01*
X-19916000Y16386000D01*
X-19769000Y16533000D01*
X-19691857Y16668000D01*
X-17970000Y16668000D01*
X-17970000Y16460000D01*
X-17918000Y16263000D01*
X-17810000Y16075000D01*
X-17661000Y15927000D01*
X-17483000Y15825000D01*
X-17278000Y15768000D01*
X-17067000Y15768000D01*
X-16860000Y15825000D01*
X-16683000Y15928000D01*
X-16539000Y16072000D01*
X-16432000Y16251000D01*
X-16430000Y16255000D01*
X-16375000Y16461000D01*
X-16375000Y16494000D01*
X12688000Y16494000D01*
X12688000Y16282000D01*
X12740000Y16084000D01*
X12743000Y16078000D01*
X12847000Y15898000D01*
X12848000Y15897000D01*
X12997000Y15749000D01*
X12998000Y15748000D01*
X13171000Y15647000D01*
X13381000Y15590000D01*
X13589000Y15590000D01*
X13796000Y15647000D01*
X13795000Y15647000D01*
X13975000Y15750000D01*
X14123000Y15898000D01*
X14225000Y16075000D01*
X14283000Y16282000D01*
X14283000Y16492000D01*
X14226000Y16698000D01*
X14131011Y16864000D01*
X45367000Y16864000D01*
X45367000Y16512000D01*
X45460000Y16169000D01*
X45635000Y15864000D01*
X45884000Y15615000D01*
X46075000Y15505000D01*
X46075000Y15331000D01*
X45884000Y15221000D01*
X45635000Y14972000D01*
X45460000Y14667000D01*
X45458000Y14662000D01*
X45367000Y14324000D01*
X45367000Y13972000D01*
X45460000Y13629000D01*
X45635000Y13324000D01*
X45884000Y13075000D01*
X46190000Y12898000D01*
X46534000Y12805000D01*
X46886000Y12805000D01*
X47232000Y12898000D01*
X47231000Y12898000D01*
X47533000Y13073000D01*
X47785000Y13325000D01*
X47960000Y13627000D01*
X48053000Y13972000D01*
X48053000Y14324000D01*
X47960000Y14669000D01*
X47785000Y14971000D01*
X47533000Y15223000D01*
X47346000Y15332000D01*
X47346000Y15504000D01*
X47533000Y15613000D01*
X47785000Y15865000D01*
X47960000Y16167000D01*
X48053000Y16512000D01*
X48053000Y16864000D01*
X47960000Y17209000D01*
X47785000Y17511000D01*
X47533000Y17763000D01*
X47346000Y17872000D01*
X47346000Y18044000D01*
X47533000Y18153000D01*
X47785000Y18405000D01*
X47960000Y18707000D01*
X48053000Y19052000D01*
X48053000Y19404000D01*
X47960000Y19749000D01*
X47786000Y20049000D01*
X47784000Y20052000D01*
X47533000Y20303000D01*
X47231000Y20478000D01*
X46886000Y20571000D01*
X46534000Y20571000D01*
X46190000Y20478000D01*
X45884000Y20301000D01*
X45635000Y20052000D01*
X45633000Y20049000D01*
X45460000Y19747000D01*
X45458000Y19742000D01*
X45367000Y19404000D01*
X45367000Y19052000D01*
X45460000Y18709000D01*
X45635000Y18404000D01*
X45884000Y18155000D01*
X46075000Y18045000D01*
X46075000Y17871000D01*
X45884000Y17761000D01*
X45635000Y17512000D01*
X45460000Y17207000D01*
X45458000Y17202000D01*
X45367000Y16864000D01*
X14131011Y16864000D01*
X14123000Y16878000D01*
X13975000Y17026000D01*
X13789000Y17133000D01*
X13591000Y17185000D01*
X13382000Y17185000D01*
X13177000Y17131000D01*
X12996000Y17026000D01*
X12848000Y16879000D01*
X12846000Y16876000D01*
X12739000Y16691000D01*
X12739000Y16689000D01*
X12688000Y16494000D01*
X-16375000Y16494000D01*
X-16375000Y16672000D01*
X-16429000Y16876000D01*
X-16536000Y17056000D01*
X-16538000Y17058000D01*
X-16681000Y17202000D01*
X-16683000Y17204000D01*
X-16865000Y17308000D01*
X-16864000Y17308000D01*
X-17070000Y17363000D01*
X-17275000Y17363000D01*
X-17480000Y17308000D01*
X-17662000Y17204000D01*
X-17809000Y17057000D01*
X-17916000Y16874000D01*
X-17917000Y16870000D01*
X-17970000Y16668000D01*
X-19691857Y16668000D01*
X-19665000Y16715000D01*
X-19610000Y16920000D01*
X-19610000Y17125000D01*
X-19664000Y17327000D01*
X-19664000Y17328000D01*
X-19768000Y17510000D01*
X-19770000Y17513000D01*
X-19915000Y17657000D01*
X-19917000Y17659000D01*
X-20096000Y17766000D01*
X-20301000Y17820000D01*
X-20512000Y17820000D01*
X-20718000Y17765000D01*
X-20900000Y17657000D01*
X-21045000Y17512000D01*
X-21148000Y17335000D01*
X-21205000Y17128000D01*
X-21205000Y16917000D01*
X-21148000Y16712000D01*
X-21046000Y16534000D01*
X-20882000Y16370000D01*
X-20959000Y16185000D01*
X-21282000Y16185000D01*
X-21479000Y16133000D01*
X-21666000Y16026000D01*
X-21815000Y15877000D01*
X-21917000Y15698000D01*
X-21974000Y15492000D01*
X-49750000Y15492000D01*
X-49750000Y18567000D01*
X15344000Y18567000D01*
X15344000Y18356000D01*
X15401000Y18149000D01*
X15504000Y17972000D01*
X15648000Y17828000D01*
X15650000Y17827000D01*
X15831000Y17719000D01*
X16037000Y17664000D01*
X16248000Y17664000D01*
X16453000Y17718000D01*
X16632000Y17825000D01*
X16634000Y17827000D01*
X16778000Y17970000D01*
X16780000Y17972000D01*
X16884000Y18154000D01*
X16939000Y18359000D01*
X16939000Y18564000D01*
X16884000Y18769000D01*
X16780000Y18951000D01*
X16633000Y19098000D01*
X16451000Y19204000D01*
X16449000Y19205000D01*
X16245000Y19259000D01*
X16036000Y19259000D01*
X15839000Y19207000D01*
X15652000Y19100000D01*
X15651000Y19099000D01*
X15502000Y18949000D01*
X15401000Y18772000D01*
X15344000Y18567000D01*
X-49750000Y18567000D01*
X-49750000Y20899000D01*
X-7473000Y20899000D01*
X-7473000Y20694000D01*
X-7418000Y20488000D01*
X-7416000Y20484000D01*
X-7317000Y20311000D01*
X-7314000Y20307000D01*
X-7166000Y20158000D01*
X-7164000Y20157000D01*
X-6979000Y20051000D01*
X-6782000Y19999000D01*
X-6570000Y19999000D01*
X-6373000Y20051000D01*
X-6188000Y20157000D01*
X-6186000Y20158000D01*
X-6038000Y20307000D01*
X-6035000Y20311000D01*
X-5936000Y20484000D01*
X-5934000Y20488000D01*
X-5879000Y20694000D01*
X-5879000Y20878000D01*
X-5816000Y20959000D01*
X-5610969Y21013000D01*
X6185000Y21013000D01*
X6185000Y20804000D01*
X6238000Y20603000D01*
X6240000Y20598000D01*
X6347000Y20415000D01*
X6491000Y20271000D01*
X6673000Y20165000D01*
X6675000Y20164000D01*
X6879000Y20110000D01*
X7088000Y20110000D01*
X7216808Y20144000D01*
X9167000Y20144000D01*
X9167000Y19935000D01*
X9221000Y19730000D01*
X9329000Y19550000D01*
X9330000Y19548000D01*
X9472000Y19403000D01*
X9657000Y19297000D01*
X9862000Y19242000D01*
X10067000Y19242000D01*
X10273000Y19297000D01*
X10272000Y19297000D01*
X10454000Y19401000D01*
X10466000Y19413000D01*
X18027000Y19413000D01*
X18027000Y19199000D01*
X18079000Y19004000D01*
X18187000Y18816000D01*
X18335000Y18669000D01*
X18515000Y18565000D01*
X18516000Y18564000D01*
X18721000Y18510000D01*
X18930000Y18510000D01*
X19127000Y18562000D01*
X19314000Y18669000D01*
X19461000Y18816000D01*
X19565000Y18996000D01*
X19622000Y19202000D01*
X19622000Y19411000D01*
X19565000Y19617000D01*
X19464000Y19794000D01*
X19463000Y19796000D01*
X19314000Y19945000D01*
X19128000Y20052000D01*
X18930000Y20104000D01*
X18721000Y20104000D01*
X18516000Y20050000D01*
X18335000Y19945000D01*
X18187000Y19797000D01*
X18078000Y19610000D01*
X18078000Y19608000D01*
X18027000Y19413000D01*
X10466000Y19413000D01*
X10603000Y19550000D01*
X10707000Y19732000D01*
X10762000Y19937000D01*
X10762000Y20142000D01*
X10707000Y20347000D01*
X10603000Y20529000D01*
X10454000Y20678000D01*
X10272000Y20782000D01*
X10273000Y20782000D01*
X10067000Y20837000D01*
X9862000Y20837000D01*
X9657000Y20782000D01*
X9472000Y20676000D01*
X9328000Y20529000D01*
X9221000Y20349000D01*
X9167000Y20144000D01*
X7216808Y20144000D01*
X7285000Y20162000D01*
X7472000Y20269000D01*
X7473000Y20270000D01*
X7619000Y20417000D01*
X7622000Y20420000D01*
X7723000Y20593000D01*
X7780000Y20802000D01*
X7780000Y21011000D01*
X7723000Y21217000D01*
X7621000Y21396000D01*
X7472000Y21545000D01*
X7292000Y21648000D01*
X7293000Y21648000D01*
X7086000Y21705000D01*
X6878000Y21705000D01*
X6668000Y21648000D01*
X6494000Y21546000D01*
X6345000Y21397000D01*
X6236000Y21210000D01*
X6236000Y21208000D01*
X6185000Y21013000D01*
X-5610969Y21013000D01*
X-5573000Y21023000D01*
X-5386000Y21130000D01*
X-5238000Y21278000D01*
X-5131000Y21465000D01*
X-5079000Y21662000D01*
X-5079000Y21831000D01*
X46214000Y21831000D01*
X46214000Y21704000D01*
X46249000Y21576000D01*
X46314000Y21463000D01*
X46314000Y21462000D01*
X46403000Y21372000D01*
X46517000Y21307000D01*
X46648000Y21272000D01*
X46773000Y21272000D01*
X46903000Y21307000D01*
X46902000Y21307000D01*
X47016000Y21372000D01*
X47015000Y21372000D01*
X47106000Y21463000D01*
X47109000Y21467000D01*
X47171000Y21574000D01*
X47206000Y21704000D01*
X47206000Y21831000D01*
X47171000Y21962000D01*
X47109000Y22069000D01*
X47106000Y22073000D01*
X47017000Y22163000D01*
X47016000Y22164000D01*
X46902000Y22229000D01*
X46903000Y22229000D01*
X46773000Y22264000D01*
X46648000Y22264000D01*
X46517000Y22229000D01*
X46403000Y22164000D01*
X46402000Y22163000D01*
X46314000Y22074000D01*
X46314000Y22073000D01*
X46249000Y21960000D01*
X46214000Y21831000D01*
X-5079000Y21831000D01*
X-5079000Y21874000D01*
X-5131000Y22071000D01*
X-5238000Y22258000D01*
X-5386000Y22406000D01*
X-5573000Y22513000D01*
X-5770000Y22565000D01*
X-5982000Y22565000D01*
X-6179000Y22513000D01*
X-6366000Y22406000D01*
X-6514000Y22258000D01*
X-6621000Y22071000D01*
X-6673000Y21874000D01*
X-6673000Y21687000D01*
X-6735000Y21606000D01*
X-6987000Y21539000D01*
X-7169000Y21431000D01*
X-7314000Y21286000D01*
X-7418000Y21104000D01*
X-7473000Y20899000D01*
X-49750000Y20899000D01*
X-49750000Y23153000D01*
X-12234000Y23153000D01*
X-12234000Y22948000D01*
X-12179000Y22742000D01*
X-12178000Y22740000D01*
X-12078000Y22565000D01*
X-12076000Y22562000D01*
X-11927000Y22412000D01*
X-11925000Y22411000D01*
X-11740000Y22305000D01*
X-11543000Y22253000D01*
X-11331000Y22253000D01*
X-11134000Y22305000D01*
X-10949000Y22411000D01*
X-10947000Y22412000D01*
X-10798000Y22562000D01*
X-10796000Y22565000D01*
X-10696000Y22740000D01*
X-10695000Y22742000D01*
X-10640000Y22948000D01*
X-10640000Y23153000D01*
X-10695000Y23359000D01*
X-10696000Y23361000D01*
X-10796000Y23536000D01*
X-10798000Y23539000D01*
X-10946000Y23688000D01*
X-10947000Y23689000D01*
X-11134000Y23796000D01*
X-11331000Y23848000D01*
X-11543000Y23848000D01*
X-11740000Y23796000D01*
X-11927000Y23689000D01*
X-11928000Y23688000D01*
X-12076000Y23539000D01*
X-12078000Y23536000D01*
X-12178000Y23361000D01*
X-12179000Y23359000D01*
X-12234000Y23153000D01*
X-49750000Y23153000D01*
X-49750000Y25804000D01*
X-31413000Y25804000D01*
X-31413000Y25595000D01*
X-31361000Y25397000D01*
X-31358000Y25391000D01*
X-31254000Y25211000D01*
X-31253000Y25210000D01*
X-31104000Y25062000D01*
X-31103000Y25061000D01*
X-30930000Y24960000D01*
X-30720000Y24903000D01*
X-30512000Y24903000D01*
X-30305000Y24960000D01*
X-30306000Y24960000D01*
X-30126000Y25063000D01*
X-29978000Y25211000D01*
X-29937721Y25281000D01*
X-15381000Y25281000D01*
X-15381000Y25074000D01*
X-15329000Y24877000D01*
X-15222000Y24690000D01*
X-15074000Y24542000D01*
X-14894000Y24439000D01*
X-14688000Y24382000D01*
X-14480000Y24382000D01*
X-14273000Y24439000D01*
X-14274000Y24439000D01*
X-14094000Y24542000D01*
X-13946000Y24690000D01*
X-13844000Y24867000D01*
X-13786000Y25076000D01*
X-13786000Y25268000D01*
X-698000Y25268000D01*
X-698000Y25060000D01*
X-641000Y24853000D01*
X-538000Y24674000D01*
X-390000Y24526000D01*
X-203000Y24419000D01*
X-6000Y24367000D01*
X206000Y24367000D01*
X403000Y24419000D01*
X590000Y24526000D01*
X738000Y24674000D01*
X845000Y24861000D01*
X897000Y25057000D01*
X897000Y25270000D01*
X846000Y25465000D01*
X846000Y25467000D01*
X738000Y25654000D01*
X590000Y25802000D01*
X410000Y25905000D01*
X411000Y25905000D01*
X204000Y25962000D01*
X-4000Y25962000D01*
X-210000Y25905000D01*
X-390000Y25802000D01*
X-538000Y25654000D01*
X-641000Y25474000D01*
X-698000Y25268000D01*
X-13786000Y25268000D01*
X-13786000Y25284000D01*
X-13843000Y25494000D01*
X-13944000Y25667000D01*
X-13945000Y25668000D01*
X-14092000Y25816000D01*
X-14094000Y25818000D01*
X-14281000Y25925000D01*
X-14478000Y25977000D01*
X-14690000Y25977000D01*
X-14887000Y25925000D01*
X-15074000Y25818000D01*
X-15076000Y25816000D01*
X-15222000Y25669000D01*
X-15326000Y25489000D01*
X-15327000Y25486000D01*
X-15381000Y25281000D01*
X-29937721Y25281000D01*
X-29875000Y25390000D01*
X-29818000Y25597000D01*
X-29818000Y25805000D01*
X-29875000Y26015000D01*
X-29976000Y26188000D01*
X-29977000Y26189000D01*
X-30124000Y26337000D01*
X-30126000Y26339000D01*
X-30313000Y26446000D01*
X-30510000Y26498000D01*
X-30719000Y26498000D01*
X-30923000Y26444000D01*
X-30925000Y26443000D01*
X-31107000Y26337000D01*
X-31252000Y26192000D01*
X-31358000Y26010000D01*
X-31360000Y26005000D01*
X-31413000Y25804000D01*
X-49750000Y25804000D01*
X-49750000Y27014000D01*
X-6271000Y27014000D01*
X-6271000Y26809000D01*
X-6216000Y26604000D01*
X-6110000Y26419000D01*
X-5965000Y26277000D01*
X-5962000Y26275000D01*
X-5783000Y26168000D01*
X-5578000Y26114000D01*
X-5369000Y26114000D01*
X-5163000Y26169000D01*
X-5161000Y26169000D01*
X-5011000Y26258000D01*
X-4909000Y26245000D01*
X-4767000Y26103000D01*
X-4585000Y25997000D01*
X-4583000Y25996000D01*
X-4379000Y25942000D01*
X-4170000Y25942000D01*
X-3973000Y25994000D01*
X-3817862Y26083000D01*
X11522000Y26083000D01*
X11522000Y25872000D01*
X11579000Y25667000D01*
X11681000Y25489000D01*
X11829000Y25340000D01*
X11830000Y25339000D01*
X12017000Y25232000D01*
X12214000Y25180000D01*
X12426000Y25180000D01*
X12623000Y25232000D01*
X12810000Y25339000D01*
X12811000Y25340000D01*
X12959000Y25489000D01*
X12961000Y25492000D01*
X13061000Y25667000D01*
X13062000Y25669000D01*
X13117000Y25875000D01*
X13117000Y26079000D01*
X13063000Y26282000D01*
X13062000Y26285000D01*
X12958000Y26467000D01*
X12814000Y26611000D01*
X12812000Y26612000D01*
X12631000Y26720000D01*
X12630000Y26720000D01*
X12425000Y26775000D01*
X12215000Y26775000D01*
X12009000Y26720000D01*
X11828000Y26612000D01*
X11826000Y26611000D01*
X11682000Y26467000D01*
X11579000Y26290000D01*
X11522000Y26083000D01*
X-3817862Y26083000D01*
X-3783000Y26103000D01*
X-3752000Y26127000D01*
X-3683000Y26141000D01*
X-3581000Y26114000D01*
X-3370000Y26114000D01*
X-3173000Y26166000D01*
X-2986000Y26273000D01*
X-2837000Y26423000D01*
X-2835000Y26426000D01*
X-2735000Y26601000D01*
X-2734000Y26603000D01*
X-2679000Y26809000D01*
X-2679000Y27014000D01*
X-2734000Y27220000D01*
X-2735000Y27222000D01*
X-2832000Y27393000D01*
X-2837000Y27400000D01*
X-2985000Y27549000D01*
X-2986000Y27550000D01*
X-3172000Y27657000D01*
X-3370000Y27709000D01*
X-3582000Y27709000D01*
X-3780000Y27657000D01*
X-3969000Y27548000D01*
X-4000000Y27524000D01*
X-4069000Y27510000D01*
X-4170000Y27537000D01*
X-4380000Y27537000D01*
X-4591000Y27479000D01*
X-4738000Y27393000D01*
X-4840000Y27406000D01*
X-4984000Y27550000D01*
X-5166000Y27654000D01*
X-5371000Y27709000D01*
X-5576000Y27709000D01*
X-5781000Y27654000D01*
X-5963000Y27550000D01*
X-6112000Y27401000D01*
X-6216000Y27219000D01*
X-6271000Y27014000D01*
X-49750000Y27014000D01*
X-49750000Y27502000D01*
X-49745000Y27811000D01*
X-49745000Y27813000D01*
X-49730000Y28129000D01*
X-49730000Y28132000D01*
X-49706681Y28406000D01*
X7820000Y28406000D01*
X7820000Y28201000D01*
X7875000Y27996000D01*
X7980000Y27813000D01*
X8128000Y27665000D01*
X8310000Y27561000D01*
X8515000Y27506000D01*
X8720000Y27506000D01*
X8926000Y27561000D01*
X8925000Y27561000D01*
X9110000Y27667000D01*
X9109000Y27667000D01*
X9251000Y27811000D01*
X9253000Y27813000D01*
X9361000Y27994000D01*
X9415000Y28199000D01*
X9415000Y28408000D01*
X9361000Y28613000D01*
X9253000Y28793000D01*
X9252000Y28795000D01*
X9109000Y28940000D01*
X9110000Y28940000D01*
X8925000Y29046000D01*
X8926000Y29046000D01*
X8720000Y29101000D01*
X8515000Y29101000D01*
X8310000Y29046000D01*
X8128000Y28942000D01*
X7979000Y28793000D01*
X7875000Y28611000D01*
X7820000Y28406000D01*
X-49706681Y28406000D01*
X-49702000Y28461000D01*
X-49702000Y28463000D01*
X-49662000Y28820000D01*
X-49658000Y28824000D01*
X-49620000Y29081000D01*
X-49620000Y29083000D01*
X-49561000Y29408000D01*
X-49561000Y29410000D01*
X-49497000Y29706000D01*
X-49497000Y29708000D01*
X-49419000Y30016000D01*
X-49419000Y30018000D01*
X-49328000Y30335000D01*
X-49327000Y30338000D01*
X-49234000Y30627000D01*
X-49234000Y30629000D01*
X-49128000Y30927000D01*
X-49127000Y30930000D01*
X-49011000Y31224000D01*
X-49010000Y31227000D01*
X-48884000Y31517000D01*
X-48883000Y31519000D01*
X-48748000Y31805000D01*
X-48747000Y31807000D01*
X-48602000Y32090000D01*
X-48601000Y32092000D01*
X-48441000Y32380000D01*
X-48439000Y32382000D01*
X-48284000Y32643000D01*
X-48283000Y32645000D01*
X-48112000Y32910000D01*
X-48111000Y32913000D01*
X-48072794Y32968000D01*
X43855000Y32968000D01*
X43855000Y32758000D01*
X43910000Y32552000D01*
X44018000Y32370000D01*
X44163000Y32225000D01*
X44345000Y32121000D01*
X44550000Y32066000D01*
X44755000Y32066000D01*
X44961000Y32121000D01*
X44963000Y32122000D01*
X45138000Y32222000D01*
X45141000Y32224000D01*
X45290000Y32372000D01*
X45291000Y32373000D01*
X45398000Y32560000D01*
X45450000Y32757000D01*
X45450000Y32969000D01*
X45398000Y33166000D01*
X45291000Y33353000D01*
X45290000Y33354000D01*
X45141000Y33502000D01*
X44963000Y33604000D01*
X44964000Y33604000D01*
X44758000Y33661000D01*
X44547000Y33661000D01*
X44340000Y33604000D01*
X44163000Y33501000D01*
X44019000Y33357000D01*
X44018000Y33355000D01*
X43910000Y33174000D01*
X43910000Y33173000D01*
X43855000Y32968000D01*
X-48072794Y32968000D01*
X-47929000Y33175000D01*
X-47927000Y33176000D01*
X-47741000Y33429000D01*
X-47739000Y33431000D01*
X-47542000Y33679000D01*
X-47540000Y33681000D01*
X-47335000Y33923000D01*
X-47333000Y33925000D01*
X-47123000Y34158000D01*
X-47121000Y34160000D01*
X-46899000Y34389000D01*
X-46897000Y34391000D01*
X-46661000Y34620000D01*
X-46659000Y34621000D01*
X-46434000Y34825000D01*
X-46432000Y34826000D01*
X-46182000Y35040000D01*
X-46180000Y35042000D01*
X-45934000Y35237000D01*
X-45932000Y35239000D01*
X-45676000Y35427000D01*
X-45675000Y35428000D01*
X-45425000Y35603000D01*
X-45422000Y35604000D01*
X-45156000Y35776000D01*
X-45154000Y35777000D01*
X-44882000Y35939000D01*
X-44880000Y35941000D01*
X-44603000Y36095000D01*
X-44601000Y36096000D01*
X-44320000Y36241000D01*
X-44317000Y36242000D01*
X-44019000Y36383000D01*
X-44017000Y36384000D01*
X-43739000Y36505000D01*
X-43736000Y36506000D01*
X-43443000Y36622000D01*
X-43441000Y36623000D01*
X-43133000Y36733000D01*
X-43131000Y36733000D01*
X-42838000Y36827000D01*
X-42835000Y36828000D01*
X-42517000Y36919000D01*
X-42515000Y36919000D01*
X-42207000Y36997000D01*
X-42205000Y36997000D01*
X-41910000Y37061000D01*
X-41908000Y37061000D01*
X-41591000Y37119000D01*
X-41588000Y37119000D01*
X-41324000Y37158000D01*
X-41320000Y37162000D01*
X-40963000Y37202000D01*
X-40960000Y37202000D01*
X-40643000Y37229000D01*
X-40641000Y37229000D01*
X-40313000Y37245000D01*
X-40311000Y37245000D01*
X-39996000Y37250000D01*
X39996000Y37250000D01*
X40311000Y37245000D01*
X40313000Y37245000D01*
X40641000Y37229000D01*
X40643000Y37229000D01*
X40960000Y37202000D01*
X40963000Y37202000D01*
X41320000Y37162000D01*
X41324000Y37158000D01*
X41588000Y37119000D01*
X41591000Y37119000D01*
X41908000Y37061000D01*
X41910000Y37061000D01*
X42205000Y36997000D01*
X42207000Y36997000D01*
X42515000Y36919000D01*
X42517000Y36919000D01*
X42835000Y36828000D01*
X42838000Y36827000D01*
X43131000Y36733000D01*
X43133000Y36733000D01*
X43441000Y36623000D01*
X43443000Y36622000D01*
X43736000Y36506000D01*
X43739000Y36505000D01*
X44017000Y36384000D01*
X44019000Y36383000D01*
X44317000Y36242000D01*
X44320000Y36241000D01*
X44601000Y36096000D01*
X44603000Y36095000D01*
X44880000Y35941000D01*
X44882000Y35939000D01*
X45154000Y35777000D01*
X45156000Y35776000D01*
X45422000Y35604000D01*
X45425000Y35603000D01*
X45675000Y35428000D01*
X45676000Y35427000D01*
X45932000Y35239000D01*
X45934000Y35237000D01*
X46180000Y35042000D01*
X46182000Y35040000D01*
X46432000Y34826000D01*
X46434000Y34825000D01*
X46659000Y34621000D01*
X46661000Y34620000D01*
X46897000Y34391000D01*
X46899000Y34389000D01*
X47121000Y34160000D01*
X47123000Y34158000D01*
X47333000Y33925000D01*
X47335000Y33923000D01*
X47540000Y33681000D01*
X47542000Y33679000D01*
X47739000Y33431000D01*
X47741000Y33429000D01*
X47927000Y33176000D01*
X47929000Y33175000D01*
X48111000Y32913000D01*
X48112000Y32910000D01*
X48283000Y32645000D01*
X48284000Y32643000D01*
X48439000Y32382000D01*
X48441000Y32380000D01*
X48601000Y32092000D01*
X48602000Y32090000D01*
X48747000Y31807000D01*
X48748000Y31805000D01*
X48883000Y31519000D01*
X48884000Y31517000D01*
X49010000Y31227000D01*
X49011000Y31224000D01*
X49127000Y30930000D01*
X49128000Y30927000D01*
X49234000Y30629000D01*
X49234000Y30627000D01*
X49327000Y30338000D01*
X49328000Y30335000D01*
X49419000Y30018000D01*
X49419000Y30016000D01*
X49497000Y29708000D01*
X49497000Y29706000D01*
X49561000Y29410000D01*
X49561000Y29408000D01*
X49620000Y29083000D01*
X49620000Y29081000D01*
X49658000Y28824000D01*
X49662000Y28820000D01*
X49702000Y28463000D01*
X49702000Y28461000D01*
X49730000Y28132000D01*
X49730000Y28129000D01*
X49745000Y27813000D01*
X49745000Y27811000D01*
X49750000Y27496000D01*
X49750000Y-27502000D01*
X49745000Y-27811000D01*
X49745000Y-27813000D01*
X49729000Y-28143000D01*
X49729000Y-28145000D01*
X49702000Y-28461000D01*
X49702000Y-28463000D01*
X49662000Y-28820000D01*
X49658000Y-28824000D01*
X49618000Y-29093000D01*
X49618000Y-29095000D01*
X49561000Y-29408000D01*
X49561000Y-29410000D01*
X49497000Y-29706000D01*
X49497000Y-29708000D01*
X49416000Y-30028000D01*
X49416000Y-30030000D01*
X49328000Y-30336000D01*
X49327000Y-30338000D01*
X49230000Y-30639000D01*
X49230000Y-30641000D01*
X49123000Y-30941000D01*
X49122000Y-30943000D01*
X49006000Y-31236000D01*
X49005000Y-31239000D01*
X48884000Y-31517000D01*
X48883000Y-31519000D01*
X48742000Y-31817000D01*
X48741000Y-31820000D01*
X48596000Y-32101000D01*
X48595000Y-32103000D01*
X48441000Y-32380000D01*
X48439000Y-32382000D01*
X48277000Y-32654000D01*
X48276000Y-32656000D01*
X48104000Y-32922000D01*
X48103000Y-32925000D01*
X47928000Y-33175000D01*
X47927000Y-33176000D01*
X47741000Y-33429000D01*
X47739000Y-33431000D01*
X47542000Y-33679000D01*
X47540000Y-33681000D01*
X47327000Y-33932000D01*
X47325000Y-33934000D01*
X47122000Y-34158000D01*
X47121000Y-34160000D01*
X46891000Y-34397000D01*
X46889000Y-34399000D01*
X46660000Y-34621000D01*
X46658000Y-34623000D01*
X46425000Y-34833000D01*
X46423000Y-34835000D01*
X46181000Y-35040000D01*
X46179000Y-35042000D01*
X45931000Y-35239000D01*
X45929000Y-35241000D01*
X45676000Y-35427000D01*
X45675000Y-35429000D01*
X45413000Y-35611000D01*
X45410000Y-35612000D01*
X45156000Y-35776000D01*
X45154000Y-35777000D01*
X44882000Y-35939000D01*
X44880000Y-35941000D01*
X44603000Y-36095000D01*
X44601000Y-36096000D01*
X44320000Y-36241000D01*
X44317000Y-36242000D01*
X44019000Y-36383000D01*
X44017000Y-36384000D01*
X43739000Y-36505000D01*
X43736000Y-36506000D01*
X43443000Y-36622000D01*
X43441000Y-36623000D01*
X43129000Y-36734000D01*
X43127000Y-36734000D01*
X42838000Y-36827000D01*
X42835000Y-36828000D01*
X42518000Y-36919000D01*
X42516000Y-36919000D01*
X42208000Y-36997000D01*
X42206000Y-36997000D01*
X41910000Y-37061000D01*
X41908000Y-37061000D01*
X41591000Y-37119000D01*
X41588000Y-37119000D01*
X41324000Y-37158000D01*
X41320000Y-37162000D01*
X40963000Y-37202000D01*
X40960000Y-37202000D01*
X40643000Y-37229000D01*
X40641000Y-37229000D01*
X40313000Y-37245000D01*
X40311000Y-37245000D01*
X39996000Y-37250000D01*
G37*
%TD.AperFunction*%
%TD*%
M02*
