M48
; DRILL file {KiCad 7.0.11-7.0.11~ubuntu20.04.1} date Mon Aug 19 13:17:11 2024
; FORMAT={-:-/ absolute / metric / decimal}
; #@! TF.CreationDate,2024-08-19T13:17:11+00:00
; #@! TF.GenerationSoftware,Kicad,Pcbnew,7.0.11-7.0.11~ubuntu20.04.1
; #@! TF.FileFunction,MixedPlating,1,4
FMAT,2
METRIC
; #@! TA.AperFunction,Plated,PTH,ComponentDrill
T1C0.300
; #@! TA.AperFunction,Plated,PTH,ComponentDrill
T2C1.000
; #@! TA.AperFunction,Plated,PTH,ComponentDrill
T3C2.000
%
G90
G05
T1
X-44.92Y28.54
X-44.92Y23.46
X-44.92Y18.38
X-44.92Y13.3
X-44.92Y8.22
X-44.92Y3.14
X-44.92Y-1.94
X-44.92Y-22.26
X-44.92Y-32.42
X-42.51Y33.669
X-41.258Y2.497
X-41.217Y4.213
X-39.84Y33.62
X-39.84Y28.54
X-39.84Y23.46
X-39.84Y8.22
X-39.84Y-7.02
X-39.84Y-12.1
X-39.84Y-17.18
X-39.84Y-22.26
X-39.84Y-27.34
X-39.84Y-32.42
X-38.19Y2.497
X-37.915Y1.325
X-37.796Y5.216
X-35.846Y15.236
X-35.809Y20.04
X-35.456Y1.092
X-34.76Y33.62
X-34.76Y28.54
X-34.76Y23.46
X-34.76Y8.22
X-34.76Y-7.02
X-34.76Y-17.18
X-34.76Y-22.26
X-34.76Y-27.34
X-34.76Y-32.42
X-33.436Y13.718
X-33.436Y0.536
X-32.874Y20.04
X-31.035Y1.608
X-30.616Y25.701
X-29.68Y33.62
X-29.68Y28.54
X-29.68Y13.3
X-29.68Y-7.02
X-29.68Y-12.1
X-29.68Y-17.18
X-29.68Y-22.26
X-29.68Y-27.34
X-29.68Y-32.42
X-24.6Y33.62
X-24.6Y28.54
X-24.6Y-1.94
X-24.6Y-12.1
X-24.6Y-17.18
X-24.6Y-22.26
X-24.6Y-27.34
X-24.6Y-32.42
X-22.998Y17.222
X-22.878Y21.943
X-21.176Y15.388
X-20.407Y14.388
X-20.407Y17.022
X-19.52Y33.62
X-19.52Y28.54
X-19.52Y-1.94
X-19.52Y-32.42
X-17.736Y-18.792
X-17.332Y17.988
X-17.173Y16.566
X-16.379Y20.907
X-15.01Y-16.574
X-14.584Y25.18
X-14.44Y33.62
X-14.44Y8.22
X-14.44Y-7.02
X-14.44Y-27.34
X-14.44Y-32.42
X-14.316Y18.339
X-13.507Y-16.667
X-11.891Y-16.667
X-11.437Y23.05
X-9.817Y26.664
X-9.36Y33.62
X-9.36Y-1.94
X-9.36Y-7.02
X-9.36Y-22.26
X-9.36Y-27.34
X-9.36Y-32.42
X-9.076Y9.519
X-8.865Y14.896
X-8.273Y21.882
X-7.874Y1.505
X-6.676Y20.796
X-6.623Y-3.249
X-6.314Y13.617
X-5.876Y21.768
X-5.473Y26.912
X-4.28Y33.62
X-4.28Y18.38
X-4.28Y-22.26
X-4.28Y-27.34
X-4.28Y-32.42
X-4.276Y7.601
X-4.276Y26.739
X-3.789Y-3.22
X-3.476Y26.912
X-3.476Y7.35
X-2.318Y5.302
X-2.165Y-3.249
X-1.878Y21.897
X-0.53Y7.35
X0.0Y26.867
X0.1Y25.164
X0.8Y33.62
X0.8Y28.54
X0.8Y23.46
X0.8Y-7.02
X0.8Y-17.18
X0.8Y-22.26
X0.8Y-27.34
X0.8Y-32.42
X1.918Y12.747
X1.918Y-10.748
X2.671Y1.814
X4.086Y-30.238
X4.231Y16.753
X4.275Y26.943
X5.88Y33.62
X5.88Y13.3
X5.88Y-1.94
X5.88Y-12.1
X5.88Y-17.18
X5.88Y-27.34
X5.88Y-32.42
X6.982Y20.907
X8.617Y28.303
X8.691Y-5.703
X8.813Y5.51
X8.896Y-13.478
X9.965Y20.04
X9.965Y14.933
X9.965Y-6.353
X9.965Y-17.593
X10.96Y33.62
X10.96Y28.54
X10.96Y-27.34
X10.96Y-32.42
X12.32Y25.977
X13.19Y29.092
X13.485Y16.388
X13.652Y-19.51
X13.971Y-7.527
X14.161Y5.028
X14.917Y0.64
X15.586Y16.652
X16.04Y-12.1
X16.142Y18.462
X17.947Y13.28
X18.001Y0.18
X18.241Y-3.336
X18.432Y17.918
X18.824Y19.307
X19.725Y29.092
X19.891Y-17.593
X19.891Y-5.099
X21.12Y13.3
X21.12Y3.14
X21.12Y-7.02
X21.12Y-27.34
X21.12Y-32.42
X23.016Y-19.95
X24.189Y-16.018
X26.2Y33.62
X26.2Y18.38
X26.2Y-22.26
X26.251Y-10.25
X27.13Y29.092
X27.376Y0.342
X29.081Y-6.353
X29.081Y-17.593
X30.754Y-7.911
X31.28Y33.62
X31.28Y18.38
X31.28Y13.3
X31.28Y3.14
X31.28Y-1.94
X31.28Y-17.18
X31.28Y-27.34
X31.28Y-32.42
X34.551Y29.376
X36.158Y-14.075
X36.36Y18.38
X36.36Y13.3
X36.36Y-1.94
X36.36Y-22.26
X39.121Y-30.155
X39.475Y-17.593
X40.043Y-18.73
X41.408Y33.959
X41.44Y18.38
X41.44Y13.3
X41.44Y8.22
X41.44Y3.14
X41.44Y-1.94
X41.44Y-7.02
X41.44Y-27.34
X41.44Y-32.42
X43.367Y28.108
X44.653Y32.863
X46.52Y33.62
X46.52Y28.54
X46.52Y3.14
X46.52Y-1.94
X46.52Y-12.1
X46.52Y-22.26
X46.52Y-32.42
T2
X-22.112Y-26.476
X-22.112Y-28.976
X-22.112Y-31.476
X46.71Y21.768
X46.71Y19.228
X46.71Y16.688
X46.71Y14.148
T3
G00X-14.862Y-23.376
M15
G01X-14.362Y-23.376
M16
G05
G00X-14.862Y-34.576
M15
G01X-14.362Y-34.576
M16
G05
M30
