%TF.GenerationSoftware,Flux,Pcbnew,7.0.11-7.0.11~ubuntu20.04.1*%
%TF.CreationDate,2024-08-18T17:29:45+00:00*%
%TF.ProjectId,input,696e7075-742e-46b6-9963-61645f706362,rev?*%
%TF.SameCoordinates,Original*%
%TF.FileFunction,Soldermask,Bot*%
%TF.FilePolarity,Negative*%
%FSLAX46Y46*%
G04 Gerber Fmt 4.6, Leading zero omitted, Abs format (unit mm)*
G04 Filename: promicromacro*
G04 Build it with Flux! Visit our site at: https://www.flux.ai (PCBNEW 7.0.11-7.0.11~ubuntu20.04.1) date 2024-08-18 17:29:45*
%MOMM*%
%LPD*%
G01*
G04 APERTURE LIST*
G04 APERTURE END LIST*
%TO.C,*%
G36*
X46851450Y25155697D02*
G01*
X46892969Y25151608D01*
X46934238Y25145486D01*
X46975156Y25137347D01*
X47015626Y25127210D01*
X47055550Y25115099D01*
X47094831Y25101044D01*
X47133375Y25085078D01*
X47171090Y25067241D01*
X47207884Y25047574D01*
X47243668Y25026126D01*
X47278357Y25002947D01*
X47311867Y24978094D01*
X47344117Y24951628D01*
X47375030Y24923610D01*
X47404530Y24894109D01*
X47432548Y24863197D01*
X47459015Y24830947D01*
X47483867Y24797437D01*
X47507046Y24762748D01*
X47528494Y24726963D01*
X47548161Y24690170D01*
X47565999Y24652455D01*
X47581964Y24613911D01*
X47596019Y24574629D01*
X47608130Y24534706D01*
X47618267Y24494236D01*
X47626406Y24453318D01*
X47632528Y24412049D01*
X47636617Y24370530D01*
X47638664Y24328860D01*
X47638664Y24287140D01*
X47636617Y24245470D01*
X47632528Y24203951D01*
X47626406Y24162682D01*
X47618267Y24121764D01*
X47608130Y24081294D01*
X47596019Y24041371D01*
X47581964Y24002089D01*
X47565999Y23963545D01*
X47548161Y23925830D01*
X47528494Y23889037D01*
X47507046Y23853252D01*
X47483867Y23818563D01*
X47459015Y23785053D01*
X47432548Y23752803D01*
X47404530Y23721891D01*
X47375030Y23692390D01*
X47344117Y23664372D01*
X47311867Y23637906D01*
X47278357Y23613053D01*
X47243668Y23589874D01*
X47207884Y23568426D01*
X47171090Y23548759D01*
X47133375Y23530922D01*
X47094831Y23514956D01*
X47055550Y23500901D01*
X47015626Y23488790D01*
X46975156Y23478653D01*
X46934238Y23470514D01*
X46892969Y23464392D01*
X46851450Y23460303D01*
X46809780Y23458256D01*
X46768060Y23458256D01*
X46726390Y23460303D01*
X46684871Y23464392D01*
X46643603Y23470514D01*
X46602684Y23478653D01*
X46562214Y23488790D01*
X46522291Y23500901D01*
X46483009Y23514956D01*
X46444465Y23530922D01*
X46406751Y23548759D01*
X46369957Y23568426D01*
X46334172Y23589874D01*
X46299483Y23613053D01*
X46265973Y23637906D01*
X46233723Y23664372D01*
X46202811Y23692390D01*
X46173310Y23721891D01*
X46145293Y23752803D01*
X46118826Y23785053D01*
X46093973Y23818563D01*
X46070795Y23853252D01*
X46049346Y23889037D01*
X46029680Y23925830D01*
X46011842Y23963545D01*
X45995876Y24002089D01*
X45981821Y24041371D01*
X45969711Y24081294D01*
X45959573Y24121764D01*
X45951434Y24162682D01*
X45945313Y24203951D01*
X45941223Y24245470D01*
X45939176Y24287140D01*
X45939176Y24295729D01*
X46289071Y24295729D01*
X46290275Y24271218D01*
X46292680Y24246795D01*
X46296281Y24222519D01*
X46301069Y24198449D01*
X46307032Y24174644D01*
X46314156Y24151159D01*
X46322424Y24128052D01*
X46331815Y24105379D01*
X46342308Y24083194D01*
X46353877Y24061551D01*
X46366493Y24040501D01*
X46380128Y24020096D01*
X46394747Y24000384D01*
X46410316Y23981414D01*
X46426797Y23963230D01*
X46444150Y23945876D01*
X46462334Y23929396D01*
X46481304Y23913827D01*
X46501016Y23899208D01*
X46521421Y23885573D01*
X46542471Y23872957D01*
X46564115Y23861388D01*
X46586300Y23850895D01*
X46608973Y23841504D01*
X46632079Y23833236D01*
X46655564Y23826112D01*
X46679370Y23820149D01*
X46703439Y23815361D01*
X46727715Y23811760D01*
X46752138Y23809355D01*
X46776650Y23808151D01*
X46801191Y23808151D01*
X46825703Y23809355D01*
X46850126Y23811760D01*
X46874401Y23815361D01*
X46898471Y23820149D01*
X46922277Y23826112D01*
X46945761Y23833236D01*
X46968868Y23841504D01*
X46991541Y23850895D01*
X47013726Y23861388D01*
X47035369Y23872957D01*
X47056419Y23885573D01*
X47076824Y23899208D01*
X47096536Y23913827D01*
X47115507Y23929396D01*
X47133690Y23945876D01*
X47151044Y23963230D01*
X47167525Y23981414D01*
X47183093Y24000384D01*
X47197713Y24020096D01*
X47211347Y24040501D01*
X47223964Y24061551D01*
X47235532Y24083194D01*
X47246025Y24105379D01*
X47255417Y24128052D01*
X47263684Y24151159D01*
X47270808Y24174644D01*
X47276771Y24198449D01*
X47281559Y24222519D01*
X47285160Y24246795D01*
X47287565Y24271218D01*
X47288770Y24295729D01*
X47288770Y24320271D01*
X47287565Y24344782D01*
X47285160Y24369205D01*
X47281559Y24393481D01*
X47276771Y24417551D01*
X47270808Y24441356D01*
X47263684Y24464841D01*
X47255417Y24487948D01*
X47246025Y24510621D01*
X47235532Y24532806D01*
X47223964Y24554449D01*
X47211347Y24575499D01*
X47197713Y24595904D01*
X47183093Y24615616D01*
X47167525Y24634586D01*
X47151044Y24652770D01*
X47133690Y24670124D01*
X47115507Y24686604D01*
X47096536Y24702173D01*
X47076824Y24716792D01*
X47056419Y24730427D01*
X47035369Y24743043D01*
X47013726Y24754612D01*
X46991541Y24765105D01*
X46968868Y24774496D01*
X46945761Y24782764D01*
X46922277Y24789888D01*
X46898471Y24795851D01*
X46874401Y24800639D01*
X46850126Y24804240D01*
X46825703Y24806645D01*
X46801191Y24807849D01*
X46776650Y24807849D01*
X46752138Y24806645D01*
X46727715Y24804240D01*
X46703439Y24800639D01*
X46679370Y24795851D01*
X46655564Y24789888D01*
X46632079Y24782764D01*
X46608973Y24774496D01*
X46586300Y24765105D01*
X46564115Y24754612D01*
X46542471Y24743043D01*
X46521421Y24730427D01*
X46501016Y24716792D01*
X46481304Y24702173D01*
X46462334Y24686604D01*
X46444150Y24670124D01*
X46426797Y24652770D01*
X46410316Y24634586D01*
X46394747Y24615616D01*
X46380128Y24595904D01*
X46366493Y24575499D01*
X46353877Y24554449D01*
X46342308Y24532806D01*
X46331815Y24510621D01*
X46322424Y24487948D01*
X46314156Y24464841D01*
X46307032Y24441356D01*
X46301069Y24417551D01*
X46296281Y24393481D01*
X46292680Y24369205D01*
X46290275Y24344782D01*
X46289071Y24320271D01*
X46289071Y24295729D01*
X45939176Y24295729D01*
X45939176Y24328860D01*
X45941223Y24370530D01*
X45945313Y24412049D01*
X45951434Y24453318D01*
X45959573Y24494236D01*
X45969711Y24534706D01*
X45981821Y24574629D01*
X45995876Y24613911D01*
X46011842Y24652455D01*
X46029680Y24690170D01*
X46049346Y24726963D01*
X46070795Y24762748D01*
X46093973Y24797437D01*
X46118826Y24830947D01*
X46145293Y24863197D01*
X46173310Y24894109D01*
X46202811Y24923610D01*
X46233723Y24951628D01*
X46265973Y24978094D01*
X46299483Y25002947D01*
X46334172Y25026126D01*
X46369957Y25047574D01*
X46406751Y25067241D01*
X46444465Y25085078D01*
X46483009Y25101044D01*
X46522291Y25115099D01*
X46562214Y25127210D01*
X46602684Y25137347D01*
X46643603Y25145486D01*
X46684871Y25151608D01*
X46726390Y25155697D01*
X46768060Y25157744D01*
X46809780Y25157744D01*
X46851450Y25155697D01*
G37*
G36*
X46851437Y20075697D02*
G01*
X46892956Y20071608D01*
X46934224Y20065486D01*
X46975143Y20057347D01*
X47015613Y20047210D01*
X47055536Y20035099D01*
X47094818Y20021044D01*
X47133362Y20005078D01*
X47171076Y19987241D01*
X47207870Y19967574D01*
X47243655Y19946126D01*
X47278344Y19922947D01*
X47311854Y19898094D01*
X47344104Y19871628D01*
X47375016Y19843610D01*
X47404517Y19814109D01*
X47432534Y19783197D01*
X47459001Y19750947D01*
X47483854Y19717437D01*
X47507032Y19682748D01*
X47528481Y19646963D01*
X47548147Y19610170D01*
X47565985Y19572455D01*
X47581951Y19533911D01*
X47596006Y19494629D01*
X47608116Y19454706D01*
X47618254Y19414236D01*
X47626393Y19373318D01*
X47632514Y19332049D01*
X47636604Y19290530D01*
X47638651Y19248860D01*
X47638651Y19207140D01*
X47636604Y19165470D01*
X47632514Y19123951D01*
X47626393Y19082682D01*
X47618254Y19041764D01*
X47608116Y19001294D01*
X47596006Y18961371D01*
X47581951Y18922089D01*
X47565985Y18883545D01*
X47548147Y18845830D01*
X47528481Y18809037D01*
X47507032Y18773252D01*
X47483854Y18738563D01*
X47459001Y18705053D01*
X47432534Y18672803D01*
X47404517Y18641891D01*
X47375016Y18612390D01*
X47344104Y18584372D01*
X47311854Y18557906D01*
X47278344Y18533053D01*
X47243655Y18509874D01*
X47207870Y18488426D01*
X47171076Y18468759D01*
X47133362Y18450922D01*
X47094818Y18434956D01*
X47055536Y18420901D01*
X47015613Y18408790D01*
X46975143Y18398653D01*
X46934224Y18390514D01*
X46892956Y18384392D01*
X46851437Y18380303D01*
X46809767Y18378256D01*
X46768047Y18378256D01*
X46726377Y18380303D01*
X46684858Y18384392D01*
X46643589Y18390514D01*
X46602671Y18398653D01*
X46562201Y18408790D01*
X46522277Y18420901D01*
X46482996Y18434956D01*
X46444452Y18450922D01*
X46406737Y18468759D01*
X46369943Y18488426D01*
X46334159Y18509874D01*
X46299470Y18533053D01*
X46265960Y18557906D01*
X46233710Y18584372D01*
X46202797Y18612390D01*
X46173297Y18641891D01*
X46145279Y18672803D01*
X46118812Y18705053D01*
X46093960Y18738563D01*
X46070781Y18773252D01*
X46049333Y18809037D01*
X46029666Y18845830D01*
X46011828Y18883545D01*
X45995863Y18922089D01*
X45981808Y18961371D01*
X45969697Y19001294D01*
X45959560Y19041764D01*
X45951421Y19082682D01*
X45945299Y19123951D01*
X45941210Y19165470D01*
X45939163Y19207140D01*
X45939163Y19215729D01*
X46289057Y19215729D01*
X46290262Y19191218D01*
X46292667Y19166795D01*
X46296268Y19142519D01*
X46301056Y19118449D01*
X46307019Y19094644D01*
X46314143Y19071159D01*
X46322410Y19048052D01*
X46331802Y19025379D01*
X46342295Y19003194D01*
X46353863Y18981551D01*
X46366480Y18960501D01*
X46380114Y18940096D01*
X46394734Y18920384D01*
X46410302Y18901414D01*
X46426783Y18883230D01*
X46444136Y18865876D01*
X46462320Y18849396D01*
X46481291Y18833827D01*
X46501003Y18819208D01*
X46521408Y18805573D01*
X46542458Y18792957D01*
X46564101Y18781388D01*
X46586286Y18770895D01*
X46608959Y18761504D01*
X46632066Y18753236D01*
X46655550Y18746112D01*
X46679356Y18740149D01*
X46703426Y18735361D01*
X46727701Y18731760D01*
X46752124Y18729355D01*
X46776636Y18728151D01*
X46801177Y18728151D01*
X46825689Y18729355D01*
X46850112Y18731760D01*
X46874388Y18735361D01*
X46898457Y18740149D01*
X46922263Y18746112D01*
X46945748Y18753236D01*
X46968854Y18761504D01*
X46991527Y18770895D01*
X47013712Y18781388D01*
X47035356Y18792957D01*
X47056406Y18805573D01*
X47076811Y18819208D01*
X47096523Y18833827D01*
X47115493Y18849396D01*
X47133677Y18865876D01*
X47151030Y18883230D01*
X47167511Y18901414D01*
X47183080Y18920384D01*
X47197699Y18940096D01*
X47211334Y18960501D01*
X47223950Y18981551D01*
X47235519Y19003194D01*
X47246012Y19025379D01*
X47255403Y19048052D01*
X47263671Y19071159D01*
X47270795Y19094644D01*
X47276758Y19118449D01*
X47281546Y19142519D01*
X47285147Y19166795D01*
X47287552Y19191218D01*
X47288756Y19215729D01*
X47288756Y19240271D01*
X47287552Y19264782D01*
X47285147Y19289205D01*
X47281546Y19313481D01*
X47276758Y19337551D01*
X47270795Y19361356D01*
X47263671Y19384841D01*
X47255403Y19407948D01*
X47246012Y19430621D01*
X47235519Y19452806D01*
X47223950Y19474449D01*
X47211334Y19495499D01*
X47197699Y19515904D01*
X47183080Y19535616D01*
X47167511Y19554586D01*
X47151030Y19572770D01*
X47133677Y19590124D01*
X47115493Y19606604D01*
X47096523Y19622173D01*
X47076811Y19636792D01*
X47056406Y19650427D01*
X47035356Y19663043D01*
X47013712Y19674612D01*
X46991527Y19685105D01*
X46968854Y19694496D01*
X46945748Y19702764D01*
X46922263Y19709888D01*
X46898457Y19715851D01*
X46874388Y19720639D01*
X46850112Y19724240D01*
X46825689Y19726645D01*
X46801177Y19727849D01*
X46776636Y19727849D01*
X46752124Y19726645D01*
X46727701Y19724240D01*
X46703426Y19720639D01*
X46679356Y19715851D01*
X46655550Y19709888D01*
X46632066Y19702764D01*
X46608959Y19694496D01*
X46586286Y19685105D01*
X46564101Y19674612D01*
X46542458Y19663043D01*
X46521408Y19650427D01*
X46501003Y19636792D01*
X46481291Y19622173D01*
X46462320Y19606604D01*
X46444136Y19590124D01*
X46426783Y19572770D01*
X46410302Y19554586D01*
X46394734Y19535616D01*
X46380114Y19515904D01*
X46366480Y19495499D01*
X46353863Y19474449D01*
X46342295Y19452806D01*
X46331802Y19430621D01*
X46322410Y19407948D01*
X46314143Y19384841D01*
X46307019Y19361356D01*
X46301056Y19337551D01*
X46296268Y19313481D01*
X46292667Y19289205D01*
X46290262Y19264782D01*
X46289057Y19240271D01*
X46289057Y19215729D01*
X45939163Y19215729D01*
X45939163Y19248860D01*
X45941210Y19290530D01*
X45945299Y19332049D01*
X45951421Y19373318D01*
X45959560Y19414236D01*
X45969697Y19454706D01*
X45981808Y19494629D01*
X45995863Y19533911D01*
X46011828Y19572455D01*
X46029666Y19610170D01*
X46049333Y19646963D01*
X46070781Y19682748D01*
X46093960Y19717437D01*
X46118812Y19750947D01*
X46145279Y19783197D01*
X46173297Y19814109D01*
X46202797Y19843610D01*
X46233710Y19871628D01*
X46265960Y19898094D01*
X46299470Y19922947D01*
X46334159Y19946126D01*
X46369943Y19967574D01*
X46406737Y19987241D01*
X46444452Y20005078D01*
X46482996Y20021044D01*
X46522277Y20035099D01*
X46562201Y20047210D01*
X46602671Y20057347D01*
X46643589Y20065486D01*
X46684858Y20071608D01*
X46726377Y20075697D01*
X46768047Y20077744D01*
X46809767Y20077744D01*
X46851437Y20075697D01*
G37*
G36*
X47638900Y17538000D02*
G01*
X47638900Y15838000D01*
X45938900Y15838000D01*
X45938900Y16675729D01*
X46289051Y16675729D01*
X46290255Y16651218D01*
X46292660Y16626795D01*
X46296261Y16602519D01*
X46301049Y16578449D01*
X46307012Y16554644D01*
X46314136Y16531159D01*
X46322404Y16508052D01*
X46331795Y16485379D01*
X46342288Y16463194D01*
X46353857Y16441551D01*
X46366473Y16420501D01*
X46380108Y16400096D01*
X46394727Y16380384D01*
X46410296Y16361414D01*
X46426776Y16343230D01*
X46444130Y16325876D01*
X46462314Y16309396D01*
X46481284Y16293827D01*
X46500996Y16279208D01*
X46521401Y16265573D01*
X46542451Y16252957D01*
X46564094Y16241388D01*
X46586279Y16230895D01*
X46608952Y16221504D01*
X46632059Y16213236D01*
X46655544Y16206112D01*
X46679349Y16200149D01*
X46703419Y16195361D01*
X46727695Y16191760D01*
X46752118Y16189355D01*
X46776629Y16188151D01*
X46801171Y16188151D01*
X46825682Y16189355D01*
X46850105Y16191760D01*
X46874381Y16195361D01*
X46898451Y16200149D01*
X46922256Y16206112D01*
X46945741Y16213236D01*
X46968848Y16221504D01*
X46991521Y16230895D01*
X47013706Y16241388D01*
X47035349Y16252957D01*
X47056399Y16265573D01*
X47076804Y16279208D01*
X47096516Y16293827D01*
X47115486Y16309396D01*
X47133670Y16325876D01*
X47151024Y16343230D01*
X47167504Y16361414D01*
X47183073Y16380384D01*
X47197692Y16400096D01*
X47211327Y16420501D01*
X47223943Y16441551D01*
X47235512Y16463194D01*
X47246005Y16485379D01*
X47255396Y16508052D01*
X47263664Y16531159D01*
X47270788Y16554644D01*
X47276751Y16578449D01*
X47281539Y16602519D01*
X47285140Y16626795D01*
X47287545Y16651218D01*
X47288749Y16675729D01*
X47288749Y16700271D01*
X47287545Y16724782D01*
X47285140Y16749205D01*
X47281539Y16773481D01*
X47276751Y16797551D01*
X47270788Y16821356D01*
X47263664Y16844841D01*
X47255396Y16867948D01*
X47246005Y16890621D01*
X47242166Y16898736D01*
X47235512Y16912806D01*
X47223943Y16934449D01*
X47211327Y16955499D01*
X47197692Y16975904D01*
X47183073Y16995616D01*
X47167504Y17014586D01*
X47151024Y17032770D01*
X47133670Y17050124D01*
X47115486Y17066604D01*
X47096516Y17082173D01*
X47076804Y17096792D01*
X47056399Y17110427D01*
X47035349Y17123043D01*
X47013706Y17134612D01*
X46991521Y17145105D01*
X46968848Y17154496D01*
X46945741Y17162764D01*
X46922256Y17169888D01*
X46898451Y17175851D01*
X46874381Y17180639D01*
X46850105Y17184240D01*
X46825682Y17186645D01*
X46801171Y17187849D01*
X46776629Y17187849D01*
X46752118Y17186645D01*
X46727695Y17184240D01*
X46703419Y17180639D01*
X46679349Y17175851D01*
X46655544Y17169888D01*
X46632059Y17162764D01*
X46608952Y17154496D01*
X46586279Y17145105D01*
X46564094Y17134612D01*
X46542451Y17123043D01*
X46521401Y17110427D01*
X46500996Y17096792D01*
X46481284Y17082173D01*
X46462314Y17066604D01*
X46444130Y17050124D01*
X46426776Y17032770D01*
X46410296Y17014586D01*
X46394727Y16995616D01*
X46380108Y16975904D01*
X46366473Y16955499D01*
X46353857Y16934449D01*
X46342288Y16912806D01*
X46331795Y16890621D01*
X46322404Y16867948D01*
X46314136Y16844841D01*
X46307012Y16821356D01*
X46301049Y16797551D01*
X46296261Y16773481D01*
X46292660Y16749205D01*
X46290255Y16724782D01*
X46289051Y16700271D01*
X46289051Y16675729D01*
X45938900Y16675729D01*
X45938900Y17538000D01*
X47638900Y17538000D01*
G37*
G36*
X46851443Y22615697D02*
G01*
X46892963Y22611608D01*
X46934231Y22605486D01*
X46975150Y22597347D01*
X47015619Y22587210D01*
X47055543Y22575099D01*
X47094824Y22561044D01*
X47133369Y22545078D01*
X47171083Y22527241D01*
X47207877Y22507574D01*
X47243661Y22486126D01*
X47278350Y22462947D01*
X47311860Y22438094D01*
X47344110Y22411628D01*
X47375023Y22383610D01*
X47404524Y22354109D01*
X47432541Y22323197D01*
X47459008Y22290947D01*
X47483861Y22257437D01*
X47507039Y22222748D01*
X47528487Y22186963D01*
X47548154Y22150170D01*
X47565992Y22112455D01*
X47581957Y22073911D01*
X47596012Y22034629D01*
X47608123Y21994706D01*
X47618260Y21954236D01*
X47626399Y21913318D01*
X47632521Y21872049D01*
X47636610Y21830530D01*
X47638657Y21788860D01*
X47638657Y21747140D01*
X47636610Y21705470D01*
X47632521Y21663951D01*
X47626399Y21622682D01*
X47618260Y21581764D01*
X47608123Y21541294D01*
X47596012Y21501371D01*
X47581957Y21462089D01*
X47565992Y21423545D01*
X47548154Y21385830D01*
X47528487Y21349037D01*
X47507039Y21313252D01*
X47483861Y21278563D01*
X47459008Y21245053D01*
X47432541Y21212803D01*
X47404524Y21181891D01*
X47375023Y21152390D01*
X47344110Y21124372D01*
X47311860Y21097906D01*
X47278350Y21073053D01*
X47243661Y21049874D01*
X47207877Y21028426D01*
X47171083Y21008759D01*
X47133369Y20990922D01*
X47094824Y20974956D01*
X47055543Y20960901D01*
X47015619Y20948790D01*
X46975150Y20938653D01*
X46934231Y20930514D01*
X46892963Y20924392D01*
X46851443Y20920303D01*
X46809774Y20918256D01*
X46768053Y20918256D01*
X46726384Y20920303D01*
X46684864Y20924392D01*
X46643596Y20930514D01*
X46602677Y20938653D01*
X46562208Y20948790D01*
X46522284Y20960901D01*
X46483003Y20974956D01*
X46444458Y20990922D01*
X46406744Y21008759D01*
X46369950Y21028426D01*
X46334166Y21049874D01*
X46299477Y21073053D01*
X46265967Y21097906D01*
X46233717Y21124372D01*
X46202804Y21152390D01*
X46173303Y21181891D01*
X46145286Y21212803D01*
X46118819Y21245053D01*
X46093966Y21278563D01*
X46070788Y21313252D01*
X46049340Y21349037D01*
X46029673Y21385830D01*
X46011835Y21423545D01*
X45995870Y21462089D01*
X45981815Y21501371D01*
X45969704Y21541294D01*
X45959567Y21581764D01*
X45951427Y21622682D01*
X45945306Y21663951D01*
X45941217Y21705470D01*
X45939169Y21747140D01*
X45939169Y21755729D01*
X46289064Y21755729D01*
X46290268Y21731218D01*
X46292674Y21706795D01*
X46296275Y21682519D01*
X46301062Y21658449D01*
X46307025Y21634644D01*
X46314149Y21611159D01*
X46322417Y21588052D01*
X46331809Y21565379D01*
X46342301Y21543194D01*
X46353870Y21521551D01*
X46366487Y21500501D01*
X46380121Y21480096D01*
X46394740Y21460384D01*
X46410309Y21441414D01*
X46426790Y21423230D01*
X46444143Y21405876D01*
X46462327Y21389396D01*
X46481298Y21373827D01*
X46501009Y21359208D01*
X46521415Y21345573D01*
X46542464Y21332957D01*
X46564108Y21321388D01*
X46586293Y21310895D01*
X46608966Y21301504D01*
X46632073Y21293236D01*
X46655557Y21286112D01*
X46679363Y21280149D01*
X46703433Y21275361D01*
X46727708Y21271760D01*
X46752131Y21269355D01*
X46776643Y21268151D01*
X46801184Y21268151D01*
X46825696Y21269355D01*
X46850119Y21271760D01*
X46874394Y21275361D01*
X46898464Y21280149D01*
X46922270Y21286112D01*
X46945754Y21293236D01*
X46968861Y21301504D01*
X46991534Y21310895D01*
X47013719Y21321388D01*
X47035363Y21332957D01*
X47056412Y21345573D01*
X47076818Y21359208D01*
X47096529Y21373827D01*
X47115500Y21389396D01*
X47133684Y21405876D01*
X47151037Y21423230D01*
X47167518Y21441414D01*
X47183087Y21460384D01*
X47197706Y21480096D01*
X47211340Y21500501D01*
X47223957Y21521551D01*
X47235526Y21543194D01*
X47246018Y21565379D01*
X47255410Y21588052D01*
X47263678Y21611159D01*
X47270802Y21634644D01*
X47276765Y21658449D01*
X47281552Y21682519D01*
X47285153Y21706795D01*
X47287559Y21731218D01*
X47288763Y21755729D01*
X47288763Y21780271D01*
X47287559Y21804782D01*
X47285153Y21829205D01*
X47281552Y21853481D01*
X47276765Y21877551D01*
X47270802Y21901356D01*
X47263678Y21924841D01*
X47255410Y21947948D01*
X47246018Y21970621D01*
X47235526Y21992806D01*
X47223957Y22014449D01*
X47211340Y22035499D01*
X47197706Y22055904D01*
X47183087Y22075616D01*
X47167518Y22094586D01*
X47151037Y22112770D01*
X47133684Y22130124D01*
X47115500Y22146604D01*
X47096529Y22162173D01*
X47076818Y22176792D01*
X47056412Y22190427D01*
X47035363Y22203043D01*
X47013719Y22214612D01*
X46991534Y22225105D01*
X46968861Y22234496D01*
X46945754Y22242764D01*
X46922270Y22249888D01*
X46898464Y22255851D01*
X46874394Y22260639D01*
X46850119Y22264240D01*
X46825696Y22266645D01*
X46801184Y22267849D01*
X46776643Y22267849D01*
X46752131Y22266645D01*
X46727708Y22264240D01*
X46703433Y22260639D01*
X46679363Y22255851D01*
X46655557Y22249888D01*
X46632073Y22242764D01*
X46608966Y22234496D01*
X46586293Y22225105D01*
X46564108Y22214612D01*
X46542464Y22203043D01*
X46521415Y22190427D01*
X46501009Y22176792D01*
X46481298Y22162173D01*
X46462327Y22146604D01*
X46444143Y22130124D01*
X46426790Y22112770D01*
X46410309Y22094586D01*
X46394740Y22075616D01*
X46380121Y22055904D01*
X46366487Y22035499D01*
X46353870Y22014449D01*
X46342301Y21992806D01*
X46331809Y21970621D01*
X46322417Y21947948D01*
X46314149Y21924841D01*
X46307025Y21901356D01*
X46301062Y21877551D01*
X46296275Y21853481D01*
X46292674Y21829205D01*
X46290268Y21804782D01*
X46289064Y21780271D01*
X46289064Y21755729D01*
X45939169Y21755729D01*
X45939169Y21788860D01*
X45941217Y21830530D01*
X45945306Y21872049D01*
X45951427Y21913318D01*
X45959567Y21954236D01*
X45969704Y21994706D01*
X45981815Y22034629D01*
X45995870Y22073911D01*
X46011835Y22112455D01*
X46029673Y22150170D01*
X46049340Y22186963D01*
X46070788Y22222748D01*
X46093966Y22257437D01*
X46118819Y22290947D01*
X46145286Y22323197D01*
X46173303Y22354109D01*
X46202804Y22383610D01*
X46233717Y22411628D01*
X46265967Y22438094D01*
X46299477Y22462947D01*
X46334166Y22486126D01*
X46369950Y22507574D01*
X46406744Y22527241D01*
X46444458Y22545078D01*
X46483003Y22561044D01*
X46522284Y22575099D01*
X46562208Y22587210D01*
X46602677Y22597347D01*
X46643596Y22605486D01*
X46684864Y22611608D01*
X46726384Y22615697D01*
X46768053Y22617744D01*
X46809774Y22617744D01*
X46851443Y22615697D01*
G37*
G36*
X-13112200Y-33325900D02*
G01*
X-13112200Y-35825900D01*
X-16112200Y-35825900D01*
X-16112200Y-34600441D01*
X-15861899Y-34600441D01*
X-15859490Y-34649465D01*
X-15854680Y-34698311D01*
X-15847478Y-34746862D01*
X-15837902Y-34795001D01*
X-15825976Y-34842613D01*
X-15811728Y-34889582D01*
X-15795193Y-34935795D01*
X-15776410Y-34981141D01*
X-15755424Y-35025511D01*
X-15732287Y-35068798D01*
X-15707054Y-35110898D01*
X-15679785Y-35151708D01*
X-15650546Y-35191132D01*
X-15619409Y-35229073D01*
X-15586447Y-35265441D01*
X-15551741Y-35300147D01*
X-15515373Y-35333109D01*
X-15477432Y-35364246D01*
X-15438008Y-35393485D01*
X-15397198Y-35420754D01*
X-15355098Y-35445987D01*
X-15311811Y-35469124D01*
X-15267441Y-35490110D01*
X-15222095Y-35508893D01*
X-15175882Y-35525428D01*
X-15128913Y-35539676D01*
X-15081301Y-35551602D01*
X-15033162Y-35561178D01*
X-14984611Y-35568380D01*
X-14935765Y-35573190D01*
X-14886741Y-35575599D01*
X-14337659Y-35575599D01*
X-14288635Y-35573190D01*
X-14239789Y-35568380D01*
X-14191238Y-35561178D01*
X-14143099Y-35551602D01*
X-14095487Y-35539676D01*
X-14048518Y-35525428D01*
X-14002305Y-35508893D01*
X-13956959Y-35490110D01*
X-13912589Y-35469124D01*
X-13869302Y-35445987D01*
X-13827202Y-35420754D01*
X-13786392Y-35393485D01*
X-13746968Y-35364246D01*
X-13709027Y-35333109D01*
X-13672659Y-35300147D01*
X-13637953Y-35265441D01*
X-13604991Y-35229073D01*
X-13573854Y-35191132D01*
X-13544615Y-35151708D01*
X-13517346Y-35110898D01*
X-13492113Y-35068798D01*
X-13468976Y-35025511D01*
X-13447990Y-34981141D01*
X-13429207Y-34935795D01*
X-13412672Y-34889582D01*
X-13398424Y-34842613D01*
X-13386498Y-34795001D01*
X-13376922Y-34746862D01*
X-13369720Y-34698311D01*
X-13364910Y-34649465D01*
X-13362501Y-34600441D01*
X-13362501Y-34551359D01*
X-13364910Y-34502335D01*
X-13369720Y-34453489D01*
X-13376922Y-34404938D01*
X-13386498Y-34356799D01*
X-13398424Y-34309187D01*
X-13412672Y-34262218D01*
X-13429207Y-34216005D01*
X-13447990Y-34170659D01*
X-13468976Y-34126289D01*
X-13492113Y-34083002D01*
X-13517346Y-34040902D01*
X-13544615Y-34000092D01*
X-13573854Y-33960668D01*
X-13604991Y-33922727D01*
X-13637953Y-33886359D01*
X-13672659Y-33851653D01*
X-13709027Y-33818691D01*
X-13746968Y-33787554D01*
X-13786392Y-33758315D01*
X-13827202Y-33731046D01*
X-13869302Y-33705813D01*
X-13912589Y-33682676D01*
X-13956959Y-33661690D01*
X-14002305Y-33642907D01*
X-14048518Y-33626372D01*
X-14095487Y-33612124D01*
X-14143099Y-33600198D01*
X-14191238Y-33590622D01*
X-14239789Y-33583420D01*
X-14288635Y-33578610D01*
X-14337659Y-33576201D01*
X-14837659Y-33576201D01*
X-14886741Y-33576201D01*
X-14935765Y-33578610D01*
X-14984611Y-33583420D01*
X-15033162Y-33590622D01*
X-15081301Y-33600198D01*
X-15128913Y-33612124D01*
X-15175882Y-33626372D01*
X-15222095Y-33642907D01*
X-15267441Y-33661690D01*
X-15311811Y-33682676D01*
X-15355098Y-33705813D01*
X-15397198Y-33731046D01*
X-15438008Y-33758315D01*
X-15477432Y-33787554D01*
X-15515373Y-33818691D01*
X-15551741Y-33851653D01*
X-15586447Y-33886359D01*
X-15619409Y-33922727D01*
X-15650546Y-33960668D01*
X-15679785Y-34000092D01*
X-15707054Y-34040902D01*
X-15732287Y-34083002D01*
X-15755424Y-34126289D01*
X-15776410Y-34170659D01*
X-15795193Y-34216005D01*
X-15811728Y-34262218D01*
X-15825976Y-34309187D01*
X-15837902Y-34356799D01*
X-15847478Y-34404938D01*
X-15854680Y-34453489D01*
X-15859490Y-34502335D01*
X-15861899Y-34551359D01*
X-15861899Y-34600441D01*
X-16112200Y-34600441D01*
X-16112200Y-33325900D01*
X-13112200Y-33325900D01*
G37*
G36*
X-13112200Y-22125900D02*
G01*
X-13112200Y-24625900D01*
X-16112200Y-24625900D01*
X-16112200Y-23400441D01*
X-15861899Y-23400441D01*
X-15859490Y-23449465D01*
X-15854680Y-23498311D01*
X-15847478Y-23546862D01*
X-15837902Y-23595001D01*
X-15825976Y-23642613D01*
X-15811728Y-23689582D01*
X-15795193Y-23735795D01*
X-15776410Y-23781141D01*
X-15755424Y-23825511D01*
X-15732287Y-23868798D01*
X-15707054Y-23910898D01*
X-15679785Y-23951708D01*
X-15650546Y-23991132D01*
X-15619409Y-24029073D01*
X-15586447Y-24065441D01*
X-15551741Y-24100147D01*
X-15515373Y-24133109D01*
X-15477432Y-24164246D01*
X-15438008Y-24193485D01*
X-15397198Y-24220754D01*
X-15355098Y-24245987D01*
X-15311811Y-24269124D01*
X-15267441Y-24290110D01*
X-15222095Y-24308893D01*
X-15175882Y-24325428D01*
X-15128913Y-24339676D01*
X-15081301Y-24351602D01*
X-15033162Y-24361178D01*
X-14984611Y-24368380D01*
X-14935765Y-24373190D01*
X-14886741Y-24375599D01*
X-14337659Y-24375599D01*
X-14288635Y-24373190D01*
X-14239789Y-24368380D01*
X-14191238Y-24361178D01*
X-14143099Y-24351602D01*
X-14095487Y-24339676D01*
X-14048518Y-24325428D01*
X-14002305Y-24308893D01*
X-13956959Y-24290110D01*
X-13912589Y-24269124D01*
X-13869302Y-24245987D01*
X-13827202Y-24220754D01*
X-13786392Y-24193485D01*
X-13746968Y-24164246D01*
X-13709027Y-24133109D01*
X-13672659Y-24100147D01*
X-13637953Y-24065441D01*
X-13604991Y-24029073D01*
X-13573854Y-23991132D01*
X-13544615Y-23951708D01*
X-13517346Y-23910898D01*
X-13492113Y-23868798D01*
X-13468976Y-23825511D01*
X-13447990Y-23781141D01*
X-13429207Y-23735795D01*
X-13412672Y-23689582D01*
X-13398424Y-23642613D01*
X-13386498Y-23595001D01*
X-13376922Y-23546862D01*
X-13369720Y-23498311D01*
X-13364910Y-23449465D01*
X-13362501Y-23400441D01*
X-13362501Y-23351359D01*
X-13364910Y-23302335D01*
X-13369720Y-23253489D01*
X-13376922Y-23204938D01*
X-13386498Y-23156799D01*
X-13398424Y-23109187D01*
X-13412672Y-23062218D01*
X-13429207Y-23016005D01*
X-13447990Y-22970659D01*
X-13468976Y-22926289D01*
X-13492113Y-22883002D01*
X-13517346Y-22840902D01*
X-13544615Y-22800092D01*
X-13573854Y-22760668D01*
X-13604991Y-22722727D01*
X-13637953Y-22686359D01*
X-13672659Y-22651653D01*
X-13709027Y-22618691D01*
X-13746968Y-22587554D01*
X-13786392Y-22558315D01*
X-13827202Y-22531046D01*
X-13869302Y-22505813D01*
X-13912589Y-22482676D01*
X-13956959Y-22461690D01*
X-14002305Y-22442907D01*
X-14048518Y-22426372D01*
X-14095487Y-22412124D01*
X-14143099Y-22400198D01*
X-14191238Y-22390622D01*
X-14239789Y-22383420D01*
X-14288635Y-22378610D01*
X-14337659Y-22376201D01*
X-14837659Y-22376201D01*
X-14886741Y-22376201D01*
X-14935765Y-22378610D01*
X-14984611Y-22383420D01*
X-15033162Y-22390622D01*
X-15081301Y-22400198D01*
X-15128913Y-22412124D01*
X-15175882Y-22426372D01*
X-15222095Y-22442907D01*
X-15267441Y-22461690D01*
X-15311811Y-22482676D01*
X-15355098Y-22505813D01*
X-15397198Y-22531046D01*
X-15438008Y-22558315D01*
X-15477432Y-22587554D01*
X-15515373Y-22618691D01*
X-15551741Y-22651653D01*
X-15586447Y-22686359D01*
X-15619409Y-22722727D01*
X-15650546Y-22760668D01*
X-15679785Y-22800092D01*
X-15707054Y-22840902D01*
X-15732287Y-22883002D01*
X-15755424Y-22926289D01*
X-15776410Y-22970659D01*
X-15795193Y-23016005D01*
X-15811728Y-23062218D01*
X-15825976Y-23109187D01*
X-15837902Y-23156799D01*
X-15847478Y-23204938D01*
X-15854680Y-23253489D01*
X-15859490Y-23302335D01*
X-15861899Y-23351359D01*
X-15861899Y-23400441D01*
X-16112200Y-23400441D01*
X-16112200Y-22125900D01*
X-13112200Y-22125900D01*
G37*
G36*
X-22038635Y-27978610D02*
G01*
X-21989789Y-27983420D01*
X-21941238Y-27990622D01*
X-21893099Y-28000198D01*
X-21845487Y-28012124D01*
X-21798518Y-28026372D01*
X-21752305Y-28042907D01*
X-21706959Y-28061690D01*
X-21662589Y-28082676D01*
X-21619302Y-28105813D01*
X-21577202Y-28131046D01*
X-21536392Y-28158315D01*
X-21496968Y-28187554D01*
X-21459027Y-28218691D01*
X-21422659Y-28251653D01*
X-21387953Y-28286359D01*
X-21354991Y-28322727D01*
X-21323854Y-28360668D01*
X-21294615Y-28400092D01*
X-21267346Y-28440902D01*
X-21242113Y-28483002D01*
X-21218976Y-28526289D01*
X-21197990Y-28570659D01*
X-21179207Y-28616005D01*
X-21162672Y-28662218D01*
X-21148424Y-28709187D01*
X-21136498Y-28756799D01*
X-21126922Y-28804938D01*
X-21119720Y-28853489D01*
X-21114910Y-28902335D01*
X-21112501Y-28951359D01*
X-21112501Y-29000441D01*
X-21114910Y-29049465D01*
X-21119720Y-29098311D01*
X-21126922Y-29146862D01*
X-21136498Y-29195001D01*
X-21148424Y-29242613D01*
X-21162672Y-29289582D01*
X-21179207Y-29335795D01*
X-21197990Y-29381141D01*
X-21218976Y-29425511D01*
X-21242113Y-29468798D01*
X-21267346Y-29510898D01*
X-21294615Y-29551708D01*
X-21323854Y-29591132D01*
X-21354991Y-29629073D01*
X-21387953Y-29665441D01*
X-21422659Y-29700147D01*
X-21459027Y-29733109D01*
X-21496968Y-29764246D01*
X-21536392Y-29793485D01*
X-21577202Y-29820754D01*
X-21619302Y-29845987D01*
X-21662589Y-29869124D01*
X-21706959Y-29890110D01*
X-21752305Y-29908893D01*
X-21798518Y-29925428D01*
X-21845487Y-29939676D01*
X-21893099Y-29951602D01*
X-21941238Y-29961178D01*
X-21989789Y-29968380D01*
X-22038635Y-29973190D01*
X-22087659Y-29975599D01*
X-22136741Y-29975599D01*
X-22185765Y-29973190D01*
X-22234611Y-29968380D01*
X-22283162Y-29961178D01*
X-22331301Y-29951602D01*
X-22378913Y-29939676D01*
X-22425882Y-29925428D01*
X-22472095Y-29908893D01*
X-22517441Y-29890110D01*
X-22561811Y-29869124D01*
X-22605098Y-29845987D01*
X-22647198Y-29820754D01*
X-22688008Y-29793485D01*
X-22727432Y-29764246D01*
X-22765373Y-29733109D01*
X-22801741Y-29700147D01*
X-22836447Y-29665441D01*
X-22869409Y-29629073D01*
X-22900546Y-29591132D01*
X-22929785Y-29551708D01*
X-22957054Y-29510898D01*
X-22982287Y-29468798D01*
X-23005424Y-29425511D01*
X-23026410Y-29381141D01*
X-23045193Y-29335795D01*
X-23061728Y-29289582D01*
X-23075976Y-29242613D01*
X-23087902Y-29195001D01*
X-23097478Y-29146862D01*
X-23104680Y-29098311D01*
X-23109490Y-29049465D01*
X-23111899Y-29000441D01*
X-23111899Y-28988171D01*
X-22612049Y-28988171D01*
X-22610845Y-29012682D01*
X-22608440Y-29037105D01*
X-22604839Y-29061381D01*
X-22600051Y-29085451D01*
X-22594088Y-29109256D01*
X-22586964Y-29132741D01*
X-22578696Y-29155848D01*
X-22569305Y-29178521D01*
X-22558812Y-29200706D01*
X-22547243Y-29222349D01*
X-22534627Y-29243399D01*
X-22520992Y-29263804D01*
X-22506373Y-29283516D01*
X-22490804Y-29302486D01*
X-22474324Y-29320670D01*
X-22456970Y-29338024D01*
X-22438786Y-29354504D01*
X-22419816Y-29370073D01*
X-22400104Y-29384692D01*
X-22379699Y-29398327D01*
X-22358649Y-29410943D01*
X-22337006Y-29422512D01*
X-22314821Y-29433005D01*
X-22292148Y-29442396D01*
X-22269041Y-29450664D01*
X-22245556Y-29457788D01*
X-22221751Y-29463751D01*
X-22197681Y-29468539D01*
X-22173405Y-29472140D01*
X-22148982Y-29474545D01*
X-22124471Y-29475749D01*
X-22099929Y-29475749D01*
X-22075418Y-29474545D01*
X-22050995Y-29472140D01*
X-22026719Y-29468539D01*
X-22002649Y-29463751D01*
X-21978844Y-29457788D01*
X-21955359Y-29450664D01*
X-21932252Y-29442396D01*
X-21909579Y-29433005D01*
X-21887394Y-29422512D01*
X-21865751Y-29410943D01*
X-21844701Y-29398327D01*
X-21824296Y-29384692D01*
X-21804584Y-29370073D01*
X-21785614Y-29354504D01*
X-21767430Y-29338024D01*
X-21750076Y-29320670D01*
X-21733596Y-29302486D01*
X-21718027Y-29283516D01*
X-21703408Y-29263804D01*
X-21689773Y-29243399D01*
X-21677157Y-29222349D01*
X-21665588Y-29200706D01*
X-21655095Y-29178521D01*
X-21645704Y-29155848D01*
X-21637436Y-29132741D01*
X-21630312Y-29109256D01*
X-21624349Y-29085451D01*
X-21619561Y-29061381D01*
X-21615960Y-29037105D01*
X-21613555Y-29012682D01*
X-21612351Y-28988171D01*
X-21612351Y-28963629D01*
X-21613555Y-28939118D01*
X-21615960Y-28914695D01*
X-21619561Y-28890419D01*
X-21624349Y-28866349D01*
X-21630312Y-28842544D01*
X-21637436Y-28819059D01*
X-21645704Y-28795952D01*
X-21655095Y-28773279D01*
X-21665588Y-28751094D01*
X-21677157Y-28729451D01*
X-21689773Y-28708401D01*
X-21703408Y-28687996D01*
X-21718027Y-28668284D01*
X-21733596Y-28649314D01*
X-21750076Y-28631130D01*
X-21767430Y-28613776D01*
X-21785614Y-28597296D01*
X-21804584Y-28581727D01*
X-21824296Y-28567108D01*
X-21844701Y-28553473D01*
X-21865751Y-28540857D01*
X-21887394Y-28529288D01*
X-21909579Y-28518795D01*
X-21932252Y-28509404D01*
X-21955359Y-28501136D01*
X-21978844Y-28494012D01*
X-22002649Y-28488049D01*
X-22026719Y-28483261D01*
X-22050995Y-28479660D01*
X-22075418Y-28477255D01*
X-22099929Y-28476051D01*
X-22124471Y-28476051D01*
X-22148982Y-28477255D01*
X-22173405Y-28479660D01*
X-22197681Y-28483261D01*
X-22221751Y-28488049D01*
X-22245556Y-28494012D01*
X-22269041Y-28501136D01*
X-22292148Y-28509404D01*
X-22314821Y-28518795D01*
X-22337006Y-28529288D01*
X-22358649Y-28540857D01*
X-22379699Y-28553473D01*
X-22400104Y-28567108D01*
X-22419816Y-28581727D01*
X-22438786Y-28597296D01*
X-22456970Y-28613776D01*
X-22474324Y-28631130D01*
X-22490804Y-28649314D01*
X-22506373Y-28668284D01*
X-22520992Y-28687996D01*
X-22534627Y-28708401D01*
X-22547243Y-28729451D01*
X-22558812Y-28751094D01*
X-22569305Y-28773279D01*
X-22578696Y-28795952D01*
X-22586964Y-28819059D01*
X-22594088Y-28842544D01*
X-22600051Y-28866349D01*
X-22604839Y-28890419D01*
X-22608440Y-28914695D01*
X-22610845Y-28939118D01*
X-22612049Y-28963629D01*
X-22612049Y-28988171D01*
X-23111899Y-28988171D01*
X-23111899Y-28951359D01*
X-23109490Y-28902335D01*
X-23104680Y-28853489D01*
X-23097478Y-28804938D01*
X-23087902Y-28756799D01*
X-23075976Y-28709187D01*
X-23061728Y-28662218D01*
X-23045193Y-28616005D01*
X-23026410Y-28570659D01*
X-23005424Y-28526289D01*
X-22982287Y-28483002D01*
X-22957054Y-28440902D01*
X-22929785Y-28400092D01*
X-22900546Y-28360668D01*
X-22869409Y-28322727D01*
X-22836447Y-28286359D01*
X-22801741Y-28251653D01*
X-22765373Y-28218691D01*
X-22727432Y-28187554D01*
X-22688008Y-28158315D01*
X-22647198Y-28131046D01*
X-22605098Y-28105813D01*
X-22561811Y-28082676D01*
X-22517441Y-28061690D01*
X-22472095Y-28042907D01*
X-22425882Y-28026372D01*
X-22378913Y-28012124D01*
X-22331301Y-28000198D01*
X-22283162Y-27990622D01*
X-22234611Y-27983420D01*
X-22185765Y-27978610D01*
X-22136741Y-27976201D01*
X-22087659Y-27976201D01*
X-22038635Y-27978610D01*
G37*
G36*
X-22038635Y-30478610D02*
G01*
X-21989789Y-30483420D01*
X-21941238Y-30490622D01*
X-21893099Y-30500198D01*
X-21845487Y-30512124D01*
X-21798518Y-30526372D01*
X-21752305Y-30542907D01*
X-21706959Y-30561690D01*
X-21662589Y-30582676D01*
X-21619302Y-30605813D01*
X-21577202Y-30631046D01*
X-21536392Y-30658315D01*
X-21496968Y-30687554D01*
X-21459027Y-30718691D01*
X-21422659Y-30751653D01*
X-21387953Y-30786359D01*
X-21354991Y-30822727D01*
X-21323854Y-30860668D01*
X-21294615Y-30900092D01*
X-21267346Y-30940902D01*
X-21242113Y-30983002D01*
X-21218976Y-31026289D01*
X-21197990Y-31070659D01*
X-21179207Y-31116005D01*
X-21162672Y-31162218D01*
X-21148424Y-31209187D01*
X-21136498Y-31256799D01*
X-21126922Y-31304938D01*
X-21119720Y-31353489D01*
X-21114910Y-31402335D01*
X-21112501Y-31451359D01*
X-21112501Y-31500441D01*
X-21114910Y-31549465D01*
X-21119720Y-31598311D01*
X-21126922Y-31646862D01*
X-21136498Y-31695001D01*
X-21148424Y-31742613D01*
X-21162672Y-31789582D01*
X-21179207Y-31835795D01*
X-21197990Y-31881141D01*
X-21218976Y-31925511D01*
X-21242113Y-31968798D01*
X-21267346Y-32010898D01*
X-21294615Y-32051708D01*
X-21323854Y-32091132D01*
X-21354991Y-32129073D01*
X-21387953Y-32165441D01*
X-21422659Y-32200147D01*
X-21459027Y-32233109D01*
X-21496968Y-32264246D01*
X-21536392Y-32293485D01*
X-21577202Y-32320754D01*
X-21619302Y-32345987D01*
X-21662589Y-32369124D01*
X-21706959Y-32390110D01*
X-21752305Y-32408893D01*
X-21798518Y-32425428D01*
X-21845487Y-32439676D01*
X-21893099Y-32451602D01*
X-21941238Y-32461178D01*
X-21989789Y-32468380D01*
X-22038635Y-32473190D01*
X-22087659Y-32475599D01*
X-22136741Y-32475599D01*
X-22185765Y-32473190D01*
X-22234611Y-32468380D01*
X-22283162Y-32461178D01*
X-22331301Y-32451602D01*
X-22378913Y-32439676D01*
X-22425882Y-32425428D01*
X-22472095Y-32408893D01*
X-22517441Y-32390110D01*
X-22561811Y-32369124D01*
X-22605098Y-32345987D01*
X-22647198Y-32320754D01*
X-22688008Y-32293485D01*
X-22727432Y-32264246D01*
X-22765373Y-32233109D01*
X-22801741Y-32200147D01*
X-22836447Y-32165441D01*
X-22869409Y-32129073D01*
X-22900546Y-32091132D01*
X-22929785Y-32051708D01*
X-22957054Y-32010898D01*
X-22982287Y-31968798D01*
X-23005424Y-31925511D01*
X-23026410Y-31881141D01*
X-23045193Y-31835795D01*
X-23061728Y-31789582D01*
X-23075976Y-31742613D01*
X-23087902Y-31695001D01*
X-23097478Y-31646862D01*
X-23104680Y-31598311D01*
X-23109490Y-31549465D01*
X-23111899Y-31500441D01*
X-23111899Y-31488171D01*
X-22612049Y-31488171D01*
X-22610845Y-31512682D01*
X-22608440Y-31537105D01*
X-22604839Y-31561381D01*
X-22600051Y-31585451D01*
X-22594088Y-31609256D01*
X-22586964Y-31632741D01*
X-22578696Y-31655848D01*
X-22569305Y-31678521D01*
X-22558812Y-31700706D01*
X-22547243Y-31722349D01*
X-22534627Y-31743399D01*
X-22520992Y-31763804D01*
X-22506373Y-31783516D01*
X-22490804Y-31802486D01*
X-22474324Y-31820670D01*
X-22456970Y-31838024D01*
X-22438786Y-31854504D01*
X-22419816Y-31870073D01*
X-22400104Y-31884692D01*
X-22379699Y-31898327D01*
X-22358649Y-31910943D01*
X-22337006Y-31922512D01*
X-22314821Y-31933005D01*
X-22292148Y-31942396D01*
X-22269041Y-31950664D01*
X-22245556Y-31957788D01*
X-22221751Y-31963751D01*
X-22197681Y-31968539D01*
X-22173405Y-31972140D01*
X-22148982Y-31974545D01*
X-22124471Y-31975749D01*
X-22099929Y-31975749D01*
X-22075418Y-31974545D01*
X-22050995Y-31972140D01*
X-22026719Y-31968539D01*
X-22002649Y-31963751D01*
X-21978844Y-31957788D01*
X-21955359Y-31950664D01*
X-21932252Y-31942396D01*
X-21909579Y-31933005D01*
X-21887394Y-31922512D01*
X-21865751Y-31910943D01*
X-21844701Y-31898327D01*
X-21824296Y-31884692D01*
X-21804584Y-31870073D01*
X-21785614Y-31854504D01*
X-21767430Y-31838024D01*
X-21750076Y-31820670D01*
X-21733596Y-31802486D01*
X-21718027Y-31783516D01*
X-21703408Y-31763804D01*
X-21689773Y-31743399D01*
X-21677157Y-31722349D01*
X-21665588Y-31700706D01*
X-21655095Y-31678521D01*
X-21645704Y-31655848D01*
X-21637436Y-31632741D01*
X-21630312Y-31609256D01*
X-21624349Y-31585451D01*
X-21619561Y-31561381D01*
X-21615960Y-31537105D01*
X-21613555Y-31512682D01*
X-21612351Y-31488171D01*
X-21612351Y-31463629D01*
X-21613555Y-31439118D01*
X-21615960Y-31414695D01*
X-21619561Y-31390419D01*
X-21624349Y-31366349D01*
X-21630312Y-31342544D01*
X-21637436Y-31319059D01*
X-21645704Y-31295952D01*
X-21655095Y-31273279D01*
X-21665588Y-31251094D01*
X-21677157Y-31229451D01*
X-21689773Y-31208401D01*
X-21703408Y-31187996D01*
X-21718027Y-31168284D01*
X-21733596Y-31149314D01*
X-21750076Y-31131130D01*
X-21767430Y-31113776D01*
X-21785614Y-31097296D01*
X-21804584Y-31081727D01*
X-21824296Y-31067108D01*
X-21844701Y-31053473D01*
X-21865751Y-31040857D01*
X-21887394Y-31029288D01*
X-21909579Y-31018795D01*
X-21932252Y-31009404D01*
X-21955359Y-31001136D01*
X-21978844Y-30994012D01*
X-22002649Y-30988049D01*
X-22026719Y-30983261D01*
X-22050995Y-30979660D01*
X-22075418Y-30977255D01*
X-22099929Y-30976051D01*
X-22124471Y-30976051D01*
X-22148982Y-30977255D01*
X-22173405Y-30979660D01*
X-22197681Y-30983261D01*
X-22221751Y-30988049D01*
X-22245556Y-30994012D01*
X-22269041Y-31001136D01*
X-22292148Y-31009404D01*
X-22314821Y-31018795D01*
X-22337006Y-31029288D01*
X-22358649Y-31040857D01*
X-22379699Y-31053473D01*
X-22400104Y-31067108D01*
X-22419816Y-31081727D01*
X-22438786Y-31097296D01*
X-22456970Y-31113776D01*
X-22474324Y-31131130D01*
X-22490804Y-31149314D01*
X-22506373Y-31168284D01*
X-22520992Y-31187996D01*
X-22534627Y-31208401D01*
X-22547243Y-31229451D01*
X-22558812Y-31251094D01*
X-22569305Y-31273279D01*
X-22578696Y-31295952D01*
X-22586964Y-31319059D01*
X-22594088Y-31342544D01*
X-22600051Y-31366349D01*
X-22604839Y-31390419D01*
X-22608440Y-31414695D01*
X-22610845Y-31439118D01*
X-22612049Y-31463629D01*
X-22612049Y-31488171D01*
X-23111899Y-31488171D01*
X-23111899Y-31451359D01*
X-23109490Y-31402335D01*
X-23104680Y-31353489D01*
X-23097478Y-31304938D01*
X-23087902Y-31256799D01*
X-23075976Y-31209187D01*
X-23061728Y-31162218D01*
X-23045193Y-31116005D01*
X-23026410Y-31070659D01*
X-23005424Y-31026289D01*
X-22982287Y-30983002D01*
X-22957054Y-30940902D01*
X-22929785Y-30900092D01*
X-22900546Y-30860668D01*
X-22869409Y-30822727D01*
X-22836447Y-30786359D01*
X-22801741Y-30751653D01*
X-22765373Y-30718691D01*
X-22727432Y-30687554D01*
X-22688008Y-30658315D01*
X-22647198Y-30631046D01*
X-22605098Y-30605813D01*
X-22561811Y-30582676D01*
X-22517441Y-30561690D01*
X-22472095Y-30542907D01*
X-22425882Y-30526372D01*
X-22378913Y-30512124D01*
X-22331301Y-30500198D01*
X-22283162Y-30490622D01*
X-22234611Y-30483420D01*
X-22185765Y-30478610D01*
X-22136741Y-30476201D01*
X-22087659Y-30476201D01*
X-22038635Y-30478610D01*
G37*
G36*
X-21112200Y-25475900D02*
G01*
X-21112200Y-27475900D01*
X-23112200Y-27475900D01*
X-23112200Y-26488171D01*
X-22612049Y-26488171D01*
X-22610845Y-26512682D01*
X-22608440Y-26537105D01*
X-22604839Y-26561381D01*
X-22600051Y-26585451D01*
X-22594088Y-26609256D01*
X-22586964Y-26632741D01*
X-22578696Y-26655848D01*
X-22569305Y-26678521D01*
X-22558812Y-26700706D01*
X-22547243Y-26722349D01*
X-22534627Y-26743399D01*
X-22520992Y-26763804D01*
X-22506373Y-26783516D01*
X-22490804Y-26802486D01*
X-22474324Y-26820670D01*
X-22456970Y-26838024D01*
X-22438786Y-26854504D01*
X-22419816Y-26870073D01*
X-22400104Y-26884692D01*
X-22379699Y-26898327D01*
X-22358649Y-26910943D01*
X-22337006Y-26922512D01*
X-22314821Y-26933005D01*
X-22292148Y-26942396D01*
X-22269041Y-26950664D01*
X-22245556Y-26957788D01*
X-22221751Y-26963751D01*
X-22197681Y-26968539D01*
X-22173405Y-26972140D01*
X-22148982Y-26974545D01*
X-22124471Y-26975749D01*
X-22099929Y-26975749D01*
X-22075418Y-26974545D01*
X-22050995Y-26972140D01*
X-22026719Y-26968539D01*
X-22002649Y-26963751D01*
X-21978844Y-26957788D01*
X-21955359Y-26950664D01*
X-21932252Y-26942396D01*
X-21909579Y-26933005D01*
X-21887394Y-26922512D01*
X-21865751Y-26910943D01*
X-21844701Y-26898327D01*
X-21824296Y-26884692D01*
X-21804584Y-26870073D01*
X-21785614Y-26854504D01*
X-21767430Y-26838024D01*
X-21750076Y-26820670D01*
X-21733596Y-26802486D01*
X-21718027Y-26783516D01*
X-21703408Y-26763804D01*
X-21689773Y-26743399D01*
X-21677157Y-26722349D01*
X-21665588Y-26700706D01*
X-21655095Y-26678521D01*
X-21645704Y-26655848D01*
X-21637436Y-26632741D01*
X-21630312Y-26609256D01*
X-21624349Y-26585451D01*
X-21619561Y-26561381D01*
X-21615960Y-26537105D01*
X-21613555Y-26512682D01*
X-21612351Y-26488171D01*
X-21612351Y-26463629D01*
X-21613555Y-26439118D01*
X-21615960Y-26414695D01*
X-21619561Y-26390419D01*
X-21624349Y-26366349D01*
X-21630312Y-26342544D01*
X-21637436Y-26319059D01*
X-21645704Y-26295952D01*
X-21655095Y-26273279D01*
X-21665588Y-26251094D01*
X-21677157Y-26229451D01*
X-21689773Y-26208401D01*
X-21703408Y-26187996D01*
X-21718027Y-26168284D01*
X-21733596Y-26149314D01*
X-21750076Y-26131130D01*
X-21767430Y-26113776D01*
X-21785614Y-26097296D01*
X-21804584Y-26081727D01*
X-21824296Y-26067108D01*
X-21844701Y-26053473D01*
X-21865751Y-26040857D01*
X-21887394Y-26029288D01*
X-21909579Y-26018795D01*
X-21932252Y-26009404D01*
X-21955359Y-26001136D01*
X-21978844Y-25994012D01*
X-22002649Y-25988049D01*
X-22026719Y-25983261D01*
X-22050995Y-25979660D01*
X-22075418Y-25977255D01*
X-22099929Y-25976051D01*
X-22124471Y-25976051D01*
X-22148982Y-25977255D01*
X-22173405Y-25979660D01*
X-22197681Y-25983261D01*
X-22221751Y-25988049D01*
X-22245556Y-25994012D01*
X-22269041Y-26001136D01*
X-22292148Y-26009404D01*
X-22314821Y-26018795D01*
X-22337006Y-26029288D01*
X-22358649Y-26040857D01*
X-22379699Y-26053473D01*
X-22400104Y-26067108D01*
X-22419816Y-26081727D01*
X-22438786Y-26097296D01*
X-22456970Y-26113776D01*
X-22474324Y-26131130D01*
X-22490804Y-26149314D01*
X-22506373Y-26168284D01*
X-22520992Y-26187996D01*
X-22534627Y-26208401D01*
X-22547243Y-26229451D01*
X-22558812Y-26251094D01*
X-22569305Y-26273279D01*
X-22578696Y-26295952D01*
X-22586964Y-26319059D01*
X-22594088Y-26342544D01*
X-22600051Y-26366349D01*
X-22604839Y-26390419D01*
X-22608440Y-26414695D01*
X-22610845Y-26439118D01*
X-22612049Y-26463629D01*
X-22612049Y-26488171D01*
X-23112200Y-26488171D01*
X-23112200Y-25475900D01*
X-21112200Y-25475900D01*
G37*
%TD*%
M02*
