%TF.GenerationSoftware,Flux,Pcbnew,7.0.11-7.0.11~ubuntu20.04.1*%
%TF.CreationDate,2024-08-18T17:29:45+00:00*%
%TF.ProjectId,input,696e7075-742e-46b6-9963-61645f706362,rev?*%
%TF.SameCoordinates,Original*%
%TF.FileFunction,Profile,NP*%
%FSLAX46Y46*%
G04 Gerber Fmt 4.6, Leading zero omitted, Abs format (unit mm)*
G04 Filename: promicromacro*
G04 Build it with Flux! Visit our site at: https://www.flux.ai (PCBNEW 7.0.11-7.0.11~ubuntu20.04.1) date 2024-08-18 17:29:45*
%MOMM*%
%LPD*%
G01*
G04 APERTURE LIST*
%TA.AperFunction,Profile*%
%ADD10C,0.050000*%
%TD*%
G04 APERTURE END LIST*
D10*
X-40000000Y-37500000D02*
X-40122715Y-37499247D01*
X-40122715Y-37499247D02*
X-40245412Y-37496988D01*
X-40245412Y-37496988D02*
X-40368072Y-37493224D01*
X-40368072Y-37493224D02*
X-40490677Y-37487955D01*
X-40490677Y-37487955D02*
X-40613207Y-37481181D01*
X-40613207Y-37481181D02*
X-40735646Y-37472905D01*
X-40735646Y-37472905D02*
X-40857973Y-37463126D01*
X-40857973Y-37463126D02*
X-40980171Y-37451847D01*
X-40980171Y-37451847D02*
X-41102222Y-37439070D01*
X-41102222Y-37439070D02*
X-41224107Y-37424795D01*
X-41224107Y-37424795D02*
X-41345807Y-37409026D01*
X-41345807Y-37409026D02*
X-41467305Y-37391765D01*
X-41467305Y-37391765D02*
X-41588581Y-37373014D01*
X-41588581Y-37373014D02*
X-41709619Y-37352776D01*
X-41709619Y-37352776D02*
X-41830399Y-37331055D01*
X-41830399Y-37331055D02*
X-41950903Y-37307853D01*
X-41950903Y-37307853D02*
X-42071114Y-37283174D01*
X-42071114Y-37283174D02*
X-42191012Y-37257021D01*
X-42191012Y-37257021D02*
X-42310581Y-37229400D01*
X-42310581Y-37229400D02*
X-42429802Y-37200313D01*
X-42429802Y-37200313D02*
X-42548657Y-37169765D01*
X-42548657Y-37169765D02*
X-42667128Y-37137761D01*
X-42667128Y-37137761D02*
X-42785197Y-37104305D01*
X-42785197Y-37104305D02*
X-42902847Y-37069403D01*
X-42902847Y-37069403D02*
X-43020059Y-37033060D01*
X-43020059Y-37033060D02*
X-43136817Y-36995282D01*
X-43136817Y-36995282D02*
X-43253103Y-36956073D01*
X-43253103Y-36956073D02*
X-43368899Y-36915441D01*
X-43368899Y-36915441D02*
X-43484187Y-36873390D01*
X-43484187Y-36873390D02*
X-43598950Y-36829928D01*
X-43598950Y-36829928D02*
X-43713172Y-36785061D01*
X-43713172Y-36785061D02*
X-43826834Y-36738795D01*
X-43826834Y-36738795D02*
X-43939920Y-36691139D01*
X-43939920Y-36691139D02*
X-44052413Y-36642098D01*
X-44052413Y-36642098D02*
X-44164296Y-36591680D01*
X-44164296Y-36591680D02*
X-44275551Y-36539893D01*
X-44275551Y-36539893D02*
X-44386162Y-36486745D01*
X-44386162Y-36486745D02*
X-44496113Y-36432243D01*
X-44496113Y-36432243D02*
X-44605387Y-36376396D01*
X-44605387Y-36376396D02*
X-44713967Y-36319213D01*
X-44713967Y-36319213D02*
X-44821838Y-36260701D01*
X-44821838Y-36260701D02*
X-44928982Y-36200870D01*
X-44928982Y-36200870D02*
X-45035384Y-36139729D01*
X-45035384Y-36139729D02*
X-45141027Y-36077286D01*
X-45141027Y-36077286D02*
X-45245897Y-36013552D01*
X-45245897Y-36013552D02*
X-45349976Y-35948536D01*
X-45349976Y-35948536D02*
X-45453250Y-35882247D01*
X-45453250Y-35882247D02*
X-45555702Y-35814696D01*
X-45555702Y-35814696D02*
X-45657318Y-35745893D01*
X-45657318Y-35745893D02*
X-45758082Y-35675848D01*
X-45758082Y-35675848D02*
X-45857979Y-35604572D01*
X-45857979Y-35604572D02*
X-45956993Y-35532075D01*
X-45956993Y-35532075D02*
X-46055110Y-35458369D01*
X-46055110Y-35458369D02*
X-46152316Y-35383464D01*
X-46152316Y-35383464D02*
X-46248595Y-35307372D01*
X-46248595Y-35307372D02*
X-46343933Y-35230105D01*
X-46343933Y-35230105D02*
X-46438315Y-35151673D01*
X-46438315Y-35151673D02*
X-46531728Y-35072088D01*
X-46531728Y-35072088D02*
X-46624158Y-34991364D01*
X-46624158Y-34991364D02*
X-46715590Y-34909511D01*
X-46715590Y-34909511D02*
X-46806010Y-34826543D01*
X-46806010Y-34826543D02*
X-46895405Y-34742471D01*
X-46895405Y-34742471D02*
X-46983762Y-34657308D01*
X-46983762Y-34657308D02*
X-47071068Y-34571068D01*
X-47071068Y-34571068D02*
X-47157308Y-34483762D01*
X-47157308Y-34483762D02*
X-47242471Y-34395405D01*
X-47242471Y-34395405D02*
X-47326543Y-34306010D01*
X-47326543Y-34306010D02*
X-47409511Y-34215590D01*
X-47409511Y-34215590D02*
X-47491364Y-34124158D01*
X-47491364Y-34124158D02*
X-47572088Y-34031728D01*
X-47572088Y-34031728D02*
X-47651673Y-33938315D01*
X-47651673Y-33938315D02*
X-47730105Y-33843933D01*
X-47730105Y-33843933D02*
X-47807372Y-33748595D01*
X-47807372Y-33748595D02*
X-47883464Y-33652316D01*
X-47883464Y-33652316D02*
X-47958369Y-33555110D01*
X-47958369Y-33555110D02*
X-48032075Y-33456993D01*
X-48032075Y-33456993D02*
X-48104572Y-33357979D01*
X-48104572Y-33357979D02*
X-48175848Y-33258082D01*
X-48175848Y-33258082D02*
X-48245893Y-33157318D01*
X-48245893Y-33157318D02*
X-48314696Y-33055702D01*
X-48314696Y-33055702D02*
X-48382247Y-32953250D01*
X-48382247Y-32953250D02*
X-48448536Y-32849976D01*
X-48448536Y-32849976D02*
X-48513552Y-32745897D01*
X-48513552Y-32745897D02*
X-48577286Y-32641027D01*
X-48577286Y-32641027D02*
X-48639729Y-32535384D01*
X-48639729Y-32535384D02*
X-48700870Y-32428982D01*
X-48700870Y-32428982D02*
X-48760701Y-32321838D01*
X-48760701Y-32321838D02*
X-48819213Y-32213967D01*
X-48819213Y-32213967D02*
X-48876396Y-32105387D01*
X-48876396Y-32105387D02*
X-48932243Y-31996113D01*
X-48932243Y-31996113D02*
X-48986745Y-31886162D01*
X-48986745Y-31886162D02*
X-49039893Y-31775551D01*
X-49039893Y-31775551D02*
X-49091680Y-31664296D01*
X-49091680Y-31664296D02*
X-49142098Y-31552413D01*
X-49142098Y-31552413D02*
X-49191139Y-31439920D01*
X-49191139Y-31439920D02*
X-49238795Y-31326834D01*
X-49238795Y-31326834D02*
X-49285061Y-31213172D01*
X-49285061Y-31213172D02*
X-49329928Y-31098950D01*
X-49329928Y-31098950D02*
X-49373390Y-30984187D01*
X-49373390Y-30984187D02*
X-49415441Y-30868899D01*
X-49415441Y-30868899D02*
X-49456073Y-30753103D01*
X-49456073Y-30753103D02*
X-49495282Y-30636817D01*
X-49495282Y-30636817D02*
X-49533060Y-30520059D01*
X-49533060Y-30520059D02*
X-49569403Y-30402847D01*
X-49569403Y-30402847D02*
X-49604305Y-30285197D01*
X-49604305Y-30285197D02*
X-49637761Y-30167128D01*
X-49637761Y-30167128D02*
X-49669765Y-30048657D01*
X-49669765Y-30048657D02*
X-49700313Y-29929802D01*
X-49700313Y-29929802D02*
X-49729400Y-29810581D01*
X-49729400Y-29810581D02*
X-49757021Y-29691012D01*
X-49757021Y-29691012D02*
X-49783174Y-29571114D01*
X-49783174Y-29571114D02*
X-49807853Y-29450903D01*
X-49807853Y-29450903D02*
X-49831055Y-29330399D01*
X-49831055Y-29330399D02*
X-49852776Y-29209619D01*
X-49852776Y-29209619D02*
X-49873014Y-29088581D01*
X-49873014Y-29088581D02*
X-49891765Y-28967305D01*
X-49891765Y-28967305D02*
X-49909026Y-28845807D01*
X-49909026Y-28845807D02*
X-49924795Y-28724107D01*
X-49924795Y-28724107D02*
X-49939070Y-28602222D01*
X-49939070Y-28602222D02*
X-49951847Y-28480171D01*
X-49951847Y-28480171D02*
X-49963126Y-28357973D01*
X-49963126Y-28357973D02*
X-49972905Y-28235646D01*
X-49972905Y-28235646D02*
X-49981181Y-28113207D01*
X-49981181Y-28113207D02*
X-49987955Y-27990677D01*
X-49987955Y-27990677D02*
X-49993224Y-27868072D01*
X-49993224Y-27868072D02*
X-49996988Y-27745412D01*
X-49996988Y-27745412D02*
X-49999247Y-27622715D01*
X-49999247Y-27622715D02*
X-50000000Y-27500000D01*
X-50000000Y-27500000D02*
X-50000000Y27500000D01*
X-50000000Y27500000D02*
X-49999247Y27622715D01*
X-49999247Y27622715D02*
X-49996988Y27745412D01*
X-49996988Y27745412D02*
X-49993224Y27868072D01*
X-49993224Y27868072D02*
X-49987955Y27990677D01*
X-49987955Y27990677D02*
X-49981181Y28113207D01*
X-49981181Y28113207D02*
X-49972905Y28235646D01*
X-49972905Y28235646D02*
X-49963126Y28357973D01*
X-49963126Y28357973D02*
X-49951847Y28480171D01*
X-49951847Y28480171D02*
X-49939070Y28602222D01*
X-49939070Y28602222D02*
X-49924795Y28724107D01*
X-49924795Y28724107D02*
X-49909026Y28845807D01*
X-49909026Y28845807D02*
X-49891765Y28967305D01*
X-49891765Y28967305D02*
X-49873014Y29088581D01*
X-49873014Y29088581D02*
X-49852776Y29209619D01*
X-49852776Y29209619D02*
X-49831055Y29330399D01*
X-49831055Y29330399D02*
X-49807853Y29450903D01*
X-49807853Y29450903D02*
X-49783174Y29571114D01*
X-49783174Y29571114D02*
X-49757021Y29691012D01*
X-49757021Y29691012D02*
X-49729400Y29810581D01*
X-49729400Y29810581D02*
X-49700313Y29929802D01*
X-49700313Y29929802D02*
X-49669765Y30048657D01*
X-49669765Y30048657D02*
X-49637761Y30167128D01*
X-49637761Y30167128D02*
X-49604305Y30285197D01*
X-49604305Y30285197D02*
X-49569403Y30402847D01*
X-49569403Y30402847D02*
X-49533060Y30520059D01*
X-49533060Y30520059D02*
X-49495282Y30636817D01*
X-49495282Y30636817D02*
X-49456073Y30753103D01*
X-49456073Y30753103D02*
X-49415441Y30868899D01*
X-49415441Y30868899D02*
X-49373390Y30984187D01*
X-49373390Y30984187D02*
X-49329928Y31098950D01*
X-49329928Y31098950D02*
X-49285061Y31213172D01*
X-49285061Y31213172D02*
X-49238795Y31326834D01*
X-49238795Y31326834D02*
X-49191139Y31439920D01*
X-49191139Y31439920D02*
X-49142098Y31552413D01*
X-49142098Y31552413D02*
X-49091680Y31664296D01*
X-49091680Y31664296D02*
X-49039893Y31775551D01*
X-49039893Y31775551D02*
X-48986745Y31886162D01*
X-48986745Y31886162D02*
X-48932243Y31996113D01*
X-48932243Y31996113D02*
X-48876396Y32105387D01*
X-48876396Y32105387D02*
X-48819213Y32213967D01*
X-48819213Y32213967D02*
X-48760701Y32321838D01*
X-48760701Y32321838D02*
X-48700870Y32428982D01*
X-48700870Y32428982D02*
X-48639729Y32535384D01*
X-48639729Y32535384D02*
X-48577286Y32641027D01*
X-48577286Y32641027D02*
X-48513552Y32745897D01*
X-48513552Y32745897D02*
X-48448536Y32849976D01*
X-48448536Y32849976D02*
X-48382247Y32953250D01*
X-48382247Y32953250D02*
X-48314696Y33055702D01*
X-48314696Y33055702D02*
X-48245893Y33157318D01*
X-48245893Y33157318D02*
X-48175848Y33258082D01*
X-48175848Y33258082D02*
X-48104572Y33357979D01*
X-48104572Y33357979D02*
X-48032075Y33456993D01*
X-48032075Y33456993D02*
X-47958369Y33555110D01*
X-47958369Y33555110D02*
X-47883464Y33652316D01*
X-47883464Y33652316D02*
X-47807372Y33748595D01*
X-47807372Y33748595D02*
X-47730105Y33843933D01*
X-47730105Y33843933D02*
X-47651673Y33938315D01*
X-47651673Y33938315D02*
X-47572088Y34031728D01*
X-47572088Y34031728D02*
X-47491364Y34124158D01*
X-47491364Y34124158D02*
X-47409511Y34215590D01*
X-47409511Y34215590D02*
X-47326543Y34306010D01*
X-47326543Y34306010D02*
X-47242471Y34395405D01*
X-47242471Y34395405D02*
X-47157308Y34483762D01*
X-47157308Y34483762D02*
X-47071068Y34571068D01*
X-47071068Y34571068D02*
X-46983762Y34657308D01*
X-46983762Y34657308D02*
X-46895405Y34742471D01*
X-46895405Y34742471D02*
X-46806010Y34826543D01*
X-46806010Y34826543D02*
X-46715590Y34909511D01*
X-46715590Y34909511D02*
X-46624158Y34991364D01*
X-46624158Y34991364D02*
X-46531728Y35072088D01*
X-46531728Y35072088D02*
X-46438315Y35151673D01*
X-46438315Y35151673D02*
X-46343933Y35230105D01*
X-46343933Y35230105D02*
X-46248595Y35307372D01*
X-46248595Y35307372D02*
X-46152316Y35383464D01*
X-46152316Y35383464D02*
X-46055110Y35458369D01*
X-46055110Y35458369D02*
X-45956993Y35532075D01*
X-45956993Y35532075D02*
X-45857979Y35604572D01*
X-45857979Y35604572D02*
X-45758082Y35675848D01*
X-45758082Y35675848D02*
X-45657318Y35745893D01*
X-45657318Y35745893D02*
X-45555702Y35814696D01*
X-45555702Y35814696D02*
X-45453250Y35882247D01*
X-45453250Y35882247D02*
X-45349976Y35948536D01*
X-45349976Y35948536D02*
X-45245897Y36013552D01*
X-45245897Y36013552D02*
X-45141027Y36077286D01*
X-45141027Y36077286D02*
X-45035384Y36139729D01*
X-45035384Y36139729D02*
X-44928982Y36200870D01*
X-44928982Y36200870D02*
X-44821838Y36260701D01*
X-44821838Y36260701D02*
X-44713967Y36319213D01*
X-44713967Y36319213D02*
X-44605387Y36376396D01*
X-44605387Y36376396D02*
X-44496113Y36432243D01*
X-44496113Y36432243D02*
X-44386162Y36486745D01*
X-44386162Y36486745D02*
X-44275551Y36539893D01*
X-44275551Y36539893D02*
X-44164296Y36591680D01*
X-44164296Y36591680D02*
X-44052413Y36642098D01*
X-44052413Y36642098D02*
X-43939920Y36691139D01*
X-43939920Y36691139D02*
X-43826834Y36738795D01*
X-43826834Y36738795D02*
X-43713172Y36785061D01*
X-43713172Y36785061D02*
X-43598950Y36829928D01*
X-43598950Y36829928D02*
X-43484187Y36873390D01*
X-43484187Y36873390D02*
X-43368899Y36915441D01*
X-43368899Y36915441D02*
X-43253103Y36956073D01*
X-43253103Y36956073D02*
X-43136817Y36995282D01*
X-43136817Y36995282D02*
X-43020059Y37033060D01*
X-43020059Y37033060D02*
X-42902847Y37069403D01*
X-42902847Y37069403D02*
X-42785197Y37104305D01*
X-42785197Y37104305D02*
X-42667128Y37137761D01*
X-42667128Y37137761D02*
X-42548657Y37169765D01*
X-42548657Y37169765D02*
X-42429802Y37200313D01*
X-42429802Y37200313D02*
X-42310581Y37229400D01*
X-42310581Y37229400D02*
X-42191012Y37257021D01*
X-42191012Y37257021D02*
X-42071114Y37283174D01*
X-42071114Y37283174D02*
X-41950903Y37307853D01*
X-41950903Y37307853D02*
X-41830399Y37331055D01*
X-41830399Y37331055D02*
X-41709619Y37352776D01*
X-41709619Y37352776D02*
X-41588581Y37373014D01*
X-41588581Y37373014D02*
X-41467305Y37391765D01*
X-41467305Y37391765D02*
X-41345807Y37409026D01*
X-41345807Y37409026D02*
X-41224107Y37424795D01*
X-41224107Y37424795D02*
X-41102222Y37439070D01*
X-41102222Y37439070D02*
X-40980171Y37451847D01*
X-40980171Y37451847D02*
X-40857973Y37463126D01*
X-40857973Y37463126D02*
X-40735646Y37472905D01*
X-40735646Y37472905D02*
X-40613207Y37481181D01*
X-40613207Y37481181D02*
X-40490677Y37487955D01*
X-40490677Y37487955D02*
X-40368072Y37493224D01*
X-40368072Y37493224D02*
X-40245412Y37496988D01*
X-40245412Y37496988D02*
X-40122715Y37499247D01*
X-40122715Y37499247D02*
X-40000000Y37500000D01*
X-40000000Y37500000D02*
X40000000Y37500000D01*
X40000000Y37500000D02*
X40122715Y37499247D01*
X40122715Y37499247D02*
X40245412Y37496988D01*
X40245412Y37496988D02*
X40368072Y37493224D01*
X40368072Y37493224D02*
X40490677Y37487955D01*
X40490677Y37487955D02*
X40613207Y37481181D01*
X40613207Y37481181D02*
X40735646Y37472905D01*
X40735646Y37472905D02*
X40857973Y37463126D01*
X40857973Y37463126D02*
X40980171Y37451847D01*
X40980171Y37451847D02*
X41102222Y37439070D01*
X41102222Y37439070D02*
X41224107Y37424795D01*
X41224107Y37424795D02*
X41345807Y37409026D01*
X41345807Y37409026D02*
X41467305Y37391765D01*
X41467305Y37391765D02*
X41588581Y37373014D01*
X41588581Y37373014D02*
X41709619Y37352776D01*
X41709619Y37352776D02*
X41830399Y37331055D01*
X41830399Y37331055D02*
X41950903Y37307853D01*
X41950903Y37307853D02*
X42071114Y37283174D01*
X42071114Y37283174D02*
X42191012Y37257021D01*
X42191012Y37257021D02*
X42310581Y37229400D01*
X42310581Y37229400D02*
X42429802Y37200313D01*
X42429802Y37200313D02*
X42548657Y37169765D01*
X42548657Y37169765D02*
X42667128Y37137761D01*
X42667128Y37137761D02*
X42785197Y37104305D01*
X42785197Y37104305D02*
X42902847Y37069403D01*
X42902847Y37069403D02*
X43020059Y37033060D01*
X43020059Y37033060D02*
X43136817Y36995282D01*
X43136817Y36995282D02*
X43253103Y36956073D01*
X43253103Y36956073D02*
X43368899Y36915441D01*
X43368899Y36915441D02*
X43484187Y36873390D01*
X43484187Y36873390D02*
X43598950Y36829928D01*
X43598950Y36829928D02*
X43713172Y36785061D01*
X43713172Y36785061D02*
X43826834Y36738795D01*
X43826834Y36738795D02*
X43939920Y36691139D01*
X43939920Y36691139D02*
X44052413Y36642098D01*
X44052413Y36642098D02*
X44164296Y36591680D01*
X44164296Y36591680D02*
X44275551Y36539893D01*
X44275551Y36539893D02*
X44386162Y36486745D01*
X44386162Y36486745D02*
X44496113Y36432243D01*
X44496113Y36432243D02*
X44605387Y36376396D01*
X44605387Y36376396D02*
X44713967Y36319213D01*
X44713967Y36319213D02*
X44821838Y36260701D01*
X44821838Y36260701D02*
X44928982Y36200870D01*
X44928982Y36200870D02*
X45035384Y36139729D01*
X45035384Y36139729D02*
X45141027Y36077286D01*
X45141027Y36077286D02*
X45245897Y36013552D01*
X45245897Y36013552D02*
X45349976Y35948536D01*
X45349976Y35948536D02*
X45453250Y35882247D01*
X45453250Y35882247D02*
X45555702Y35814696D01*
X45555702Y35814696D02*
X45657318Y35745893D01*
X45657318Y35745893D02*
X45758082Y35675848D01*
X45758082Y35675848D02*
X45857979Y35604572D01*
X45857979Y35604572D02*
X45956993Y35532075D01*
X45956993Y35532075D02*
X46055110Y35458369D01*
X46055110Y35458369D02*
X46152316Y35383464D01*
X46152316Y35383464D02*
X46248595Y35307372D01*
X46248595Y35307372D02*
X46343933Y35230105D01*
X46343933Y35230105D02*
X46438315Y35151673D01*
X46438315Y35151673D02*
X46531728Y35072088D01*
X46531728Y35072088D02*
X46624158Y34991364D01*
X46624158Y34991364D02*
X46715590Y34909511D01*
X46715590Y34909511D02*
X46806010Y34826543D01*
X46806010Y34826543D02*
X46895405Y34742471D01*
X46895405Y34742471D02*
X46983762Y34657308D01*
X46983762Y34657308D02*
X47071068Y34571068D01*
X47071068Y34571068D02*
X47157308Y34483762D01*
X47157308Y34483762D02*
X47242471Y34395405D01*
X47242471Y34395405D02*
X47326543Y34306010D01*
X47326543Y34306010D02*
X47409511Y34215590D01*
X47409511Y34215590D02*
X47491364Y34124158D01*
X47491364Y34124158D02*
X47572088Y34031728D01*
X47572088Y34031728D02*
X47651673Y33938315D01*
X47651673Y33938315D02*
X47730105Y33843933D01*
X47730105Y33843933D02*
X47807372Y33748595D01*
X47807372Y33748595D02*
X47883464Y33652316D01*
X47883464Y33652316D02*
X47958369Y33555110D01*
X47958369Y33555110D02*
X48032075Y33456993D01*
X48032075Y33456993D02*
X48104572Y33357979D01*
X48104572Y33357979D02*
X48175848Y33258082D01*
X48175848Y33258082D02*
X48245893Y33157318D01*
X48245893Y33157318D02*
X48314696Y33055702D01*
X48314696Y33055702D02*
X48382247Y32953250D01*
X48382247Y32953250D02*
X48448536Y32849976D01*
X48448536Y32849976D02*
X48513552Y32745897D01*
X48513552Y32745897D02*
X48577286Y32641027D01*
X48577286Y32641027D02*
X48639729Y32535384D01*
X48639729Y32535384D02*
X48700870Y32428982D01*
X48700870Y32428982D02*
X48760701Y32321838D01*
X48760701Y32321838D02*
X48819213Y32213967D01*
X48819213Y32213967D02*
X48876396Y32105387D01*
X48876396Y32105387D02*
X48932243Y31996113D01*
X48932243Y31996113D02*
X48986745Y31886162D01*
X48986745Y31886162D02*
X49039893Y31775551D01*
X49039893Y31775551D02*
X49091680Y31664296D01*
X49091680Y31664296D02*
X49142098Y31552413D01*
X49142098Y31552413D02*
X49191139Y31439920D01*
X49191139Y31439920D02*
X49238795Y31326834D01*
X49238795Y31326834D02*
X49285061Y31213172D01*
X49285061Y31213172D02*
X49329928Y31098950D01*
X49329928Y31098950D02*
X49373390Y30984187D01*
X49373390Y30984187D02*
X49415441Y30868899D01*
X49415441Y30868899D02*
X49456073Y30753103D01*
X49456073Y30753103D02*
X49495282Y30636817D01*
X49495282Y30636817D02*
X49533060Y30520059D01*
X49533060Y30520059D02*
X49569403Y30402847D01*
X49569403Y30402847D02*
X49604305Y30285197D01*
X49604305Y30285197D02*
X49637761Y30167128D01*
X49637761Y30167128D02*
X49669765Y30048657D01*
X49669765Y30048657D02*
X49700313Y29929802D01*
X49700313Y29929802D02*
X49729400Y29810581D01*
X49729400Y29810581D02*
X49757021Y29691012D01*
X49757021Y29691012D02*
X49783174Y29571114D01*
X49783174Y29571114D02*
X49807853Y29450903D01*
X49807853Y29450903D02*
X49831055Y29330399D01*
X49831055Y29330399D02*
X49852776Y29209619D01*
X49852776Y29209619D02*
X49873014Y29088581D01*
X49873014Y29088581D02*
X49891765Y28967305D01*
X49891765Y28967305D02*
X49909026Y28845807D01*
X49909026Y28845807D02*
X49924795Y28724107D01*
X49924795Y28724107D02*
X49939070Y28602222D01*
X49939070Y28602222D02*
X49951847Y28480171D01*
X49951847Y28480171D02*
X49963126Y28357973D01*
X49963126Y28357973D02*
X49972905Y28235646D01*
X49972905Y28235646D02*
X49981181Y28113207D01*
X49981181Y28113207D02*
X49987955Y27990677D01*
X49987955Y27990677D02*
X49993224Y27868072D01*
X49993224Y27868072D02*
X49996988Y27745412D01*
X49996988Y27745412D02*
X49999247Y27622715D01*
X49999247Y27622715D02*
X50000000Y27500000D01*
X50000000Y27500000D02*
X50000000Y-27500000D01*
X50000000Y-27500000D02*
X49999247Y-27622715D01*
X49999247Y-27622715D02*
X49996988Y-27745412D01*
X49996988Y-27745412D02*
X49993224Y-27868072D01*
X49993224Y-27868072D02*
X49987955Y-27990677D01*
X49987955Y-27990677D02*
X49981181Y-28113207D01*
X49981181Y-28113207D02*
X49972905Y-28235646D01*
X49972905Y-28235646D02*
X49963126Y-28357973D01*
X49963126Y-28357973D02*
X49951847Y-28480171D01*
X49951847Y-28480171D02*
X49939070Y-28602222D01*
X49939070Y-28602222D02*
X49924795Y-28724107D01*
X49924795Y-28724107D02*
X49909026Y-28845807D01*
X49909026Y-28845807D02*
X49891765Y-28967305D01*
X49891765Y-28967305D02*
X49873014Y-29088581D01*
X49873014Y-29088581D02*
X49852776Y-29209619D01*
X49852776Y-29209619D02*
X49831055Y-29330399D01*
X49831055Y-29330399D02*
X49807853Y-29450903D01*
X49807853Y-29450903D02*
X49783174Y-29571114D01*
X49783174Y-29571114D02*
X49757021Y-29691012D01*
X49757021Y-29691012D02*
X49729400Y-29810581D01*
X49729400Y-29810581D02*
X49700313Y-29929802D01*
X49700313Y-29929802D02*
X49669765Y-30048657D01*
X49669765Y-30048657D02*
X49637761Y-30167128D01*
X49637761Y-30167128D02*
X49604305Y-30285197D01*
X49604305Y-30285197D02*
X49569403Y-30402847D01*
X49569403Y-30402847D02*
X49533060Y-30520059D01*
X49533060Y-30520059D02*
X49495282Y-30636817D01*
X49495282Y-30636817D02*
X49456073Y-30753103D01*
X49456073Y-30753103D02*
X49415441Y-30868899D01*
X49415441Y-30868899D02*
X49373390Y-30984187D01*
X49373390Y-30984187D02*
X49329928Y-31098950D01*
X49329928Y-31098950D02*
X49285061Y-31213172D01*
X49285061Y-31213172D02*
X49238795Y-31326834D01*
X49238795Y-31326834D02*
X49191139Y-31439920D01*
X49191139Y-31439920D02*
X49142098Y-31552413D01*
X49142098Y-31552413D02*
X49091680Y-31664296D01*
X49091680Y-31664296D02*
X49039893Y-31775551D01*
X49039893Y-31775551D02*
X48986745Y-31886162D01*
X48986745Y-31886162D02*
X48932243Y-31996113D01*
X48932243Y-31996113D02*
X48876396Y-32105387D01*
X48876396Y-32105387D02*
X48819213Y-32213967D01*
X48819213Y-32213967D02*
X48760701Y-32321838D01*
X48760701Y-32321838D02*
X48700870Y-32428982D01*
X48700870Y-32428982D02*
X48639729Y-32535384D01*
X48639729Y-32535384D02*
X48577286Y-32641027D01*
X48577286Y-32641027D02*
X48513552Y-32745897D01*
X48513552Y-32745897D02*
X48448536Y-32849976D01*
X48448536Y-32849976D02*
X48382247Y-32953250D01*
X48382247Y-32953250D02*
X48314696Y-33055702D01*
X48314696Y-33055702D02*
X48245893Y-33157318D01*
X48245893Y-33157318D02*
X48175848Y-33258082D01*
X48175848Y-33258082D02*
X48104572Y-33357979D01*
X48104572Y-33357979D02*
X48032075Y-33456993D01*
X48032075Y-33456993D02*
X47958369Y-33555110D01*
X47958369Y-33555110D02*
X47883464Y-33652316D01*
X47883464Y-33652316D02*
X47807372Y-33748595D01*
X47807372Y-33748595D02*
X47730105Y-33843933D01*
X47730105Y-33843933D02*
X47651673Y-33938315D01*
X47651673Y-33938315D02*
X47572088Y-34031728D01*
X47572088Y-34031728D02*
X47491364Y-34124158D01*
X47491364Y-34124158D02*
X47409511Y-34215590D01*
X47409511Y-34215590D02*
X47326543Y-34306010D01*
X47326543Y-34306010D02*
X47242471Y-34395405D01*
X47242471Y-34395405D02*
X47157308Y-34483762D01*
X47157308Y-34483762D02*
X47071068Y-34571068D01*
X47071068Y-34571068D02*
X46983762Y-34657308D01*
X46983762Y-34657308D02*
X46895405Y-34742471D01*
X46895405Y-34742471D02*
X46806010Y-34826543D01*
X46806010Y-34826543D02*
X46715590Y-34909511D01*
X46715590Y-34909511D02*
X46624158Y-34991364D01*
X46624158Y-34991364D02*
X46531728Y-35072088D01*
X46531728Y-35072088D02*
X46438315Y-35151673D01*
X46438315Y-35151673D02*
X46343933Y-35230105D01*
X46343933Y-35230105D02*
X46248595Y-35307372D01*
X46248595Y-35307372D02*
X46152316Y-35383464D01*
X46152316Y-35383464D02*
X46055110Y-35458369D01*
X46055110Y-35458369D02*
X45956993Y-35532075D01*
X45956993Y-35532075D02*
X45857979Y-35604572D01*
X45857979Y-35604572D02*
X45758082Y-35675848D01*
X45758082Y-35675848D02*
X45657318Y-35745893D01*
X45657318Y-35745893D02*
X45555702Y-35814696D01*
X45555702Y-35814696D02*
X45453250Y-35882247D01*
X45453250Y-35882247D02*
X45349976Y-35948536D01*
X45349976Y-35948536D02*
X45245897Y-36013552D01*
X45245897Y-36013552D02*
X45141027Y-36077286D01*
X45141027Y-36077286D02*
X45035384Y-36139729D01*
X45035384Y-36139729D02*
X44928982Y-36200870D01*
X44928982Y-36200870D02*
X44821838Y-36260701D01*
X44821838Y-36260701D02*
X44713967Y-36319213D01*
X44713967Y-36319213D02*
X44605387Y-36376396D01*
X44605387Y-36376396D02*
X44496113Y-36432243D01*
X44496113Y-36432243D02*
X44386162Y-36486745D01*
X44386162Y-36486745D02*
X44275551Y-36539893D01*
X44275551Y-36539893D02*
X44164296Y-36591680D01*
X44164296Y-36591680D02*
X44052413Y-36642098D01*
X44052413Y-36642098D02*
X43939920Y-36691139D01*
X43939920Y-36691139D02*
X43826834Y-36738795D01*
X43826834Y-36738795D02*
X43713172Y-36785061D01*
X43713172Y-36785061D02*
X43598950Y-36829928D01*
X43598950Y-36829928D02*
X43484187Y-36873390D01*
X43484187Y-36873390D02*
X43368899Y-36915441D01*
X43368899Y-36915441D02*
X43253103Y-36956073D01*
X43253103Y-36956073D02*
X43136817Y-36995282D01*
X43136817Y-36995282D02*
X43020059Y-37033060D01*
X43020059Y-37033060D02*
X42902847Y-37069403D01*
X42902847Y-37069403D02*
X42785197Y-37104305D01*
X42785197Y-37104305D02*
X42667128Y-37137761D01*
X42667128Y-37137761D02*
X42548657Y-37169765D01*
X42548657Y-37169765D02*
X42429802Y-37200313D01*
X42429802Y-37200313D02*
X42310581Y-37229400D01*
X42310581Y-37229400D02*
X42191012Y-37257021D01*
X42191012Y-37257021D02*
X42071114Y-37283174D01*
X42071114Y-37283174D02*
X41950903Y-37307853D01*
X41950903Y-37307853D02*
X41830399Y-37331055D01*
X41830399Y-37331055D02*
X41709619Y-37352776D01*
X41709619Y-37352776D02*
X41588581Y-37373014D01*
X41588581Y-37373014D02*
X41467305Y-37391765D01*
X41467305Y-37391765D02*
X41345807Y-37409026D01*
X41345807Y-37409026D02*
X41224107Y-37424795D01*
X41224107Y-37424795D02*
X41102222Y-37439070D01*
X41102222Y-37439070D02*
X40980171Y-37451847D01*
X40980171Y-37451847D02*
X40857973Y-37463126D01*
X40857973Y-37463126D02*
X40735646Y-37472905D01*
X40735646Y-37472905D02*
X40613207Y-37481181D01*
X40613207Y-37481181D02*
X40490677Y-37487955D01*
X40490677Y-37487955D02*
X40368072Y-37493224D01*
X40368072Y-37493224D02*
X40245412Y-37496988D01*
X40245412Y-37496988D02*
X40122715Y-37499247D01*
X40122715Y-37499247D02*
X40000000Y-37500000D01*
X40000000Y-37500000D02*
X-40000000Y-37500000D01*
M02*
