M48
; DRILL file {KiCad 7.0.11-7.0.11~ubuntu20.04.1} date Sun Aug 18 16:19:11 2024
; FORMAT={-:-/ absolute / metric / decimal}
; #@! TF.CreationDate,2024-08-18T16:19:11+00:00
; #@! TF.GenerationSoftware,Kicad,Pcbnew,7.0.11-7.0.11~ubuntu20.04.1
; #@! TF.FileFunction,MixedPlating,1,4
FMAT,2
METRIC
; #@! TA.AperFunction,Plated,PTH,ComponentDrill
T1C0.300
%
G90
G05
T1
X-44.92Y33.62
X-44.92Y28.54
X-44.92Y23.46
X-44.92Y18.38
X-44.92Y13.3
X-44.92Y8.22
X-44.92Y3.14
X-44.92Y-1.94
X-44.92Y-7.02
X-44.92Y-12.1
X-44.92Y-17.18
X-44.92Y-22.26
X-44.92Y-27.34
X-44.92Y-32.42
X-42.51Y33.669
X-39.84Y33.62
X-39.84Y28.54
X-39.84Y23.46
X-39.84Y8.22
X-39.84Y3.14
X-39.84Y-1.94
X-39.84Y-7.02
X-39.84Y-12.1
X-39.84Y-17.18
X-39.84Y-22.26
X-39.84Y-27.34
X-39.84Y-32.42
X-35.846Y15.236
X-35.809Y20.04
X-34.76Y33.62
X-34.76Y28.54
X-34.76Y23.46
X-34.76Y8.22
X-34.76Y3.14
X-34.76Y-1.94
X-34.76Y-7.02
X-34.76Y-12.1
X-34.76Y-17.18
X-34.76Y-22.26
X-34.76Y-27.34
X-34.76Y-32.42
X-33.436Y13.718
X-32.874Y20.04
X-29.68Y33.62
X-29.68Y28.54
X-29.68Y23.46
X-29.68Y13.3
X-29.68Y8.22
X-29.68Y-7.02
X-29.68Y-12.1
X-29.68Y-17.18
X-29.68Y-22.26
X-29.68Y-27.34
X-29.68Y-32.42
X-24.6Y33.62
X-24.6Y28.54
X-24.6Y13.3
X-24.6Y3.14
X-24.6Y-1.94
X-24.6Y-12.1
X-24.6Y-17.18
X-24.6Y-22.26
X-24.6Y-27.34
X-24.6Y-32.42
X-19.52Y33.62
X-19.52Y28.54
X-19.52Y8.22
X-19.52Y-1.94
X-19.52Y-17.18
X-19.52Y-22.26
X-19.52Y-27.34
X-19.52Y-32.42
X-16.379Y20.907
X-15.01Y-16.574
X-14.584Y25.18
X-14.44Y33.62
X-14.44Y28.54
X-14.44Y8.22
X-14.44Y-7.02
X-14.44Y-22.26
X-14.44Y-27.34
X-14.44Y-32.42
X-14.316Y18.339
X-13.507Y-16.667
X-11.891Y-16.667
X-9.926Y-16.667
X-9.817Y26.664
X-9.36Y33.62
X-9.36Y28.54
X-9.36Y-1.94
X-9.36Y-7.02
X-9.36Y-22.26
X-9.36Y-27.34
X-9.36Y-32.42
X-9.076Y9.519
X-8.953Y18.098
X-8.865Y14.896
X-8.273Y21.882
X-7.874Y1.505
X-6.623Y-3.249
X-6.314Y13.617
X-4.28Y33.62
X-4.28Y28.54
X-4.28Y18.38
X-4.28Y-27.34
X-4.28Y-32.42
X-4.276Y7.601
X-3.789Y-3.22
X-3.476Y7.35
X-2.318Y5.302
X-2.165Y-3.249
X-1.878Y21.897
X-1.876Y-3.881
X-0.53Y7.35
X0.0Y26.867
X0.1Y25.164
X0.8Y33.62
X0.8Y28.54
X0.8Y23.46
X0.8Y-7.02
X0.8Y-17.18
X0.8Y-22.26
X0.8Y-32.42
X1.918Y12.747
X1.918Y-10.748
X2.671Y1.814
X4.086Y-30.238
X4.275Y26.943
X5.88Y33.62
X5.88Y28.54
X5.88Y23.46
X5.88Y13.3
X5.88Y-1.94
X5.88Y-12.1
X5.88Y-17.18
X5.88Y-32.42
X6.147Y16.41
X6.982Y20.907
X8.691Y-5.703
X8.813Y5.51
X8.896Y-13.478
X9.965Y20.04
X9.965Y14.933
X9.965Y-6.353
X9.965Y-17.593
X10.96Y33.62
X10.96Y28.54
X10.96Y23.46
X10.96Y-27.34
X10.96Y-32.42
X13.485Y16.388
X13.617Y-29.526
X13.652Y-19.51
X13.971Y-7.527
X14.161Y5.028
X14.917Y0.64
X16.04Y33.62
X16.04Y28.54
X16.04Y23.46
X16.04Y-12.1
X16.142Y18.462
X17.947Y13.193
X18.001Y0.18
X18.241Y-3.336
X18.824Y19.307
X19.891Y-17.593
X19.891Y-5.099
X21.12Y33.62
X21.12Y28.54
X21.12Y23.46
X21.12Y13.3
X21.12Y3.14
X21.12Y-7.02
X21.12Y-27.34
X21.12Y-32.42
X23.016Y-19.95
X24.189Y-16.018
X26.2Y33.62
X26.2Y28.54
X26.2Y23.46
X26.2Y18.38
X26.2Y-22.26
X26.251Y-10.25
X27.376Y0.342
X29.081Y-6.353
X29.081Y-17.593
X30.754Y-7.911
X31.28Y33.62
X31.28Y28.54
X31.28Y23.46
X31.28Y18.38
X31.28Y13.3
X31.28Y3.14
X31.28Y-1.94
X31.28Y-17.18
X31.28Y-27.34
X31.28Y-32.42
X36.158Y-14.075
X36.36Y33.62
X36.36Y28.54
X36.36Y23.46
X36.36Y18.38
X36.36Y13.3
X36.36Y-1.94
X36.36Y-22.26
X39.121Y-30.155
X39.475Y-17.593
X40.043Y-18.73
X41.44Y33.62
X41.44Y28.54
X41.44Y23.46
X41.44Y18.38
X41.44Y13.3
X41.44Y8.22
X41.44Y3.14
X41.44Y-1.94
X41.44Y-7.02
X41.44Y-27.34
X41.44Y-32.42
X46.52Y33.62
X46.52Y28.54
X46.52Y23.46
X46.52Y18.38
X46.52Y13.3
X46.52Y3.14
X46.52Y-1.94
X46.52Y-12.1
X46.52Y-22.26
X46.52Y-32.42
M30
